%TF.GenerationSoftware,KiCad,Pcbnew,9.0.7*%
%TF.CreationDate,2026-02-23T21:28:53+11:00*%
%TF.ProjectId,esphome-sensor,65737068-6f6d-4652-9d73-656e736f722e,rev?*%
%TF.SameCoordinates,Original*%
%TF.FileFunction,Legend,Top*%
%TF.FilePolarity,Positive*%
%FSLAX46Y46*%
G04 Gerber Fmt 4.6, Leading zero omitted, Abs format (unit mm)*
G04 Created by KiCad (PCBNEW 9.0.7) date 2026-02-23 21:28:53*
%MOMM*%
%LPD*%
G01*
G04 APERTURE LIST*
%ADD10C,0.100000*%
%ADD11C,0.150000*%
%ADD12C,0.300000*%
%ADD13C,0.120000*%
G04 APERTURE END LIST*
D10*
X83750000Y-111500000D02*
X83750000Y-112600000D01*
X83750000Y-113000000D02*
X83750000Y-114100000D01*
X83750000Y-114500000D02*
X83750000Y-115600000D01*
X83750000Y-116000000D02*
X83750000Y-117100000D01*
X83750000Y-117500000D02*
X83750000Y-118600000D01*
X83750000Y-119000000D02*
X83750000Y-120100000D01*
X83750000Y-120500000D02*
X83750000Y-121000000D01*
X101250000Y-111500000D02*
X101250000Y-112600000D01*
X101250000Y-113000000D02*
X101250000Y-114100000D01*
X101250000Y-114500000D02*
X101250000Y-115600000D01*
X101250000Y-116000000D02*
X101250000Y-117100000D01*
X101250000Y-117500000D02*
X101250000Y-118600000D01*
X101250000Y-119000000D02*
X101250000Y-120100000D01*
X101250000Y-120500000D02*
X101250000Y-121000000D01*
X66250000Y-111500000D02*
X66250000Y-112600000D01*
X66250000Y-113000000D02*
X66250000Y-114100000D01*
X66250000Y-114500000D02*
X66250000Y-115600000D01*
X66250000Y-116000000D02*
X66250000Y-117100000D01*
X66250000Y-117500000D02*
X66250000Y-118600000D01*
X66250000Y-119000000D02*
X66250000Y-120100000D01*
X66250000Y-120500000D02*
X66250000Y-121000000D01*
D11*
X56309524Y-113954819D02*
X56309524Y-112954819D01*
X56309524Y-112954819D02*
X56547619Y-112954819D01*
X56547619Y-112954819D02*
X56690476Y-113002438D01*
X56690476Y-113002438D02*
X56785714Y-113097676D01*
X56785714Y-113097676D02*
X56833333Y-113192914D01*
X56833333Y-113192914D02*
X56880952Y-113383390D01*
X56880952Y-113383390D02*
X56880952Y-113526247D01*
X56880952Y-113526247D02*
X56833333Y-113716723D01*
X56833333Y-113716723D02*
X56785714Y-113811961D01*
X56785714Y-113811961D02*
X56690476Y-113907200D01*
X56690476Y-113907200D02*
X56547619Y-113954819D01*
X56547619Y-113954819D02*
X56309524Y-113954819D01*
X57880952Y-113859580D02*
X57833333Y-113907200D01*
X57833333Y-113907200D02*
X57690476Y-113954819D01*
X57690476Y-113954819D02*
X57595238Y-113954819D01*
X57595238Y-113954819D02*
X57452381Y-113907200D01*
X57452381Y-113907200D02*
X57357143Y-113811961D01*
X57357143Y-113811961D02*
X57309524Y-113716723D01*
X57309524Y-113716723D02*
X57261905Y-113526247D01*
X57261905Y-113526247D02*
X57261905Y-113383390D01*
X57261905Y-113383390D02*
X57309524Y-113192914D01*
X57309524Y-113192914D02*
X57357143Y-113097676D01*
X57357143Y-113097676D02*
X57452381Y-113002438D01*
X57452381Y-113002438D02*
X57595238Y-112954819D01*
X57595238Y-112954819D02*
X57690476Y-112954819D01*
X57690476Y-112954819D02*
X57833333Y-113002438D01*
X57833333Y-113002438D02*
X57880952Y-113050057D01*
X59071429Y-113954819D02*
X59071429Y-112954819D01*
X59071429Y-112954819D02*
X59452381Y-112954819D01*
X59452381Y-112954819D02*
X59547619Y-113002438D01*
X59547619Y-113002438D02*
X59595238Y-113050057D01*
X59595238Y-113050057D02*
X59642857Y-113145295D01*
X59642857Y-113145295D02*
X59642857Y-113288152D01*
X59642857Y-113288152D02*
X59595238Y-113383390D01*
X59595238Y-113383390D02*
X59547619Y-113431009D01*
X59547619Y-113431009D02*
X59452381Y-113478628D01*
X59452381Y-113478628D02*
X59071429Y-113478628D01*
X60261905Y-112954819D02*
X60452381Y-112954819D01*
X60452381Y-112954819D02*
X60547619Y-113002438D01*
X60547619Y-113002438D02*
X60642857Y-113097676D01*
X60642857Y-113097676D02*
X60690476Y-113288152D01*
X60690476Y-113288152D02*
X60690476Y-113621485D01*
X60690476Y-113621485D02*
X60642857Y-113811961D01*
X60642857Y-113811961D02*
X60547619Y-113907200D01*
X60547619Y-113907200D02*
X60452381Y-113954819D01*
X60452381Y-113954819D02*
X60261905Y-113954819D01*
X60261905Y-113954819D02*
X60166667Y-113907200D01*
X60166667Y-113907200D02*
X60071429Y-113811961D01*
X60071429Y-113811961D02*
X60023810Y-113621485D01*
X60023810Y-113621485D02*
X60023810Y-113288152D01*
X60023810Y-113288152D02*
X60071429Y-113097676D01*
X60071429Y-113097676D02*
X60166667Y-113002438D01*
X60166667Y-113002438D02*
X60261905Y-112954819D01*
X61023810Y-112954819D02*
X61261905Y-113954819D01*
X61261905Y-113954819D02*
X61452381Y-113240533D01*
X61452381Y-113240533D02*
X61642857Y-113954819D01*
X61642857Y-113954819D02*
X61880953Y-112954819D01*
X62261905Y-113431009D02*
X62595238Y-113431009D01*
X62738095Y-113954819D02*
X62261905Y-113954819D01*
X62261905Y-113954819D02*
X62261905Y-112954819D01*
X62261905Y-112954819D02*
X62738095Y-112954819D01*
X63738095Y-113954819D02*
X63404762Y-113478628D01*
X63166667Y-113954819D02*
X63166667Y-112954819D01*
X63166667Y-112954819D02*
X63547619Y-112954819D01*
X63547619Y-112954819D02*
X63642857Y-113002438D01*
X63642857Y-113002438D02*
X63690476Y-113050057D01*
X63690476Y-113050057D02*
X63738095Y-113145295D01*
X63738095Y-113145295D02*
X63738095Y-113288152D01*
X63738095Y-113288152D02*
X63690476Y-113383390D01*
X63690476Y-113383390D02*
X63642857Y-113431009D01*
X63642857Y-113431009D02*
X63547619Y-113478628D01*
X63547619Y-113478628D02*
X63166667Y-113478628D01*
X109454819Y-118738094D02*
X109454819Y-118119047D01*
X109454819Y-118119047D02*
X109835771Y-118452380D01*
X109835771Y-118452380D02*
X109835771Y-118309523D01*
X109835771Y-118309523D02*
X109883390Y-118214285D01*
X109883390Y-118214285D02*
X109931009Y-118166666D01*
X109931009Y-118166666D02*
X110026247Y-118119047D01*
X110026247Y-118119047D02*
X110264342Y-118119047D01*
X110264342Y-118119047D02*
X110359580Y-118166666D01*
X110359580Y-118166666D02*
X110407200Y-118214285D01*
X110407200Y-118214285D02*
X110454819Y-118309523D01*
X110454819Y-118309523D02*
X110454819Y-118595237D01*
X110454819Y-118595237D02*
X110407200Y-118690475D01*
X110407200Y-118690475D02*
X110359580Y-118738094D01*
X109454819Y-117833332D02*
X110454819Y-117499999D01*
X110454819Y-117499999D02*
X109454819Y-117166666D01*
X109454819Y-116928570D02*
X109454819Y-116309523D01*
X109454819Y-116309523D02*
X109835771Y-116642856D01*
X109835771Y-116642856D02*
X109835771Y-116499999D01*
X109835771Y-116499999D02*
X109883390Y-116404761D01*
X109883390Y-116404761D02*
X109931009Y-116357142D01*
X109931009Y-116357142D02*
X110026247Y-116309523D01*
X110026247Y-116309523D02*
X110264342Y-116309523D01*
X110264342Y-116309523D02*
X110359580Y-116357142D01*
X110359580Y-116357142D02*
X110407200Y-116404761D01*
X110407200Y-116404761D02*
X110454819Y-116499999D01*
X110454819Y-116499999D02*
X110454819Y-116785713D01*
X110454819Y-116785713D02*
X110407200Y-116880951D01*
X110407200Y-116880951D02*
X110359580Y-116928570D01*
X56502438Y-118261904D02*
X56454819Y-118357142D01*
X56454819Y-118357142D02*
X56454819Y-118499999D01*
X56454819Y-118499999D02*
X56502438Y-118642856D01*
X56502438Y-118642856D02*
X56597676Y-118738094D01*
X56597676Y-118738094D02*
X56692914Y-118785713D01*
X56692914Y-118785713D02*
X56883390Y-118833332D01*
X56883390Y-118833332D02*
X57026247Y-118833332D01*
X57026247Y-118833332D02*
X57216723Y-118785713D01*
X57216723Y-118785713D02*
X57311961Y-118738094D01*
X57311961Y-118738094D02*
X57407200Y-118642856D01*
X57407200Y-118642856D02*
X57454819Y-118499999D01*
X57454819Y-118499999D02*
X57454819Y-118404761D01*
X57454819Y-118404761D02*
X57407200Y-118261904D01*
X57407200Y-118261904D02*
X57359580Y-118214285D01*
X57359580Y-118214285D02*
X57026247Y-118214285D01*
X57026247Y-118214285D02*
X57026247Y-118404761D01*
X57454819Y-117785713D02*
X56454819Y-117785713D01*
X56454819Y-117785713D02*
X57454819Y-117214285D01*
X57454819Y-117214285D02*
X56454819Y-117214285D01*
X57454819Y-116738094D02*
X56454819Y-116738094D01*
X56454819Y-116738094D02*
X56454819Y-116499999D01*
X56454819Y-116499999D02*
X56502438Y-116357142D01*
X56502438Y-116357142D02*
X56597676Y-116261904D01*
X56597676Y-116261904D02*
X56692914Y-116214285D01*
X56692914Y-116214285D02*
X56883390Y-116166666D01*
X56883390Y-116166666D02*
X57026247Y-116166666D01*
X57026247Y-116166666D02*
X57216723Y-116214285D01*
X57216723Y-116214285D02*
X57311961Y-116261904D01*
X57311961Y-116261904D02*
X57407200Y-116357142D01*
X57407200Y-116357142D02*
X57454819Y-116499999D01*
X57454819Y-116499999D02*
X57454819Y-116738094D01*
X115407200Y-118714285D02*
X115454819Y-118571428D01*
X115454819Y-118571428D02*
X115454819Y-118333333D01*
X115454819Y-118333333D02*
X115407200Y-118238095D01*
X115407200Y-118238095D02*
X115359580Y-118190476D01*
X115359580Y-118190476D02*
X115264342Y-118142857D01*
X115264342Y-118142857D02*
X115169104Y-118142857D01*
X115169104Y-118142857D02*
X115073866Y-118190476D01*
X115073866Y-118190476D02*
X115026247Y-118238095D01*
X115026247Y-118238095D02*
X114978628Y-118333333D01*
X114978628Y-118333333D02*
X114931009Y-118523809D01*
X114931009Y-118523809D02*
X114883390Y-118619047D01*
X114883390Y-118619047D02*
X114835771Y-118666666D01*
X114835771Y-118666666D02*
X114740533Y-118714285D01*
X114740533Y-118714285D02*
X114645295Y-118714285D01*
X114645295Y-118714285D02*
X114550057Y-118666666D01*
X114550057Y-118666666D02*
X114502438Y-118619047D01*
X114502438Y-118619047D02*
X114454819Y-118523809D01*
X114454819Y-118523809D02*
X114454819Y-118285714D01*
X114454819Y-118285714D02*
X114502438Y-118142857D01*
X115454819Y-117714285D02*
X114454819Y-117714285D01*
X114454819Y-117714285D02*
X114454819Y-117476190D01*
X114454819Y-117476190D02*
X114502438Y-117333333D01*
X114502438Y-117333333D02*
X114597676Y-117238095D01*
X114597676Y-117238095D02*
X114692914Y-117190476D01*
X114692914Y-117190476D02*
X114883390Y-117142857D01*
X114883390Y-117142857D02*
X115026247Y-117142857D01*
X115026247Y-117142857D02*
X115216723Y-117190476D01*
X115216723Y-117190476D02*
X115311961Y-117238095D01*
X115311961Y-117238095D02*
X115407200Y-117333333D01*
X115407200Y-117333333D02*
X115454819Y-117476190D01*
X115454819Y-117476190D02*
X115454819Y-117714285D01*
X115169104Y-116761904D02*
X115169104Y-116285714D01*
X115454819Y-116857142D02*
X114454819Y-116523809D01*
X114454819Y-116523809D02*
X115454819Y-116190476D01*
X88428571Y-113954819D02*
X87857143Y-113954819D01*
X88142857Y-113954819D02*
X88142857Y-112954819D01*
X88142857Y-112954819D02*
X88047619Y-113097676D01*
X88047619Y-113097676D02*
X87952381Y-113192914D01*
X87952381Y-113192914D02*
X87857143Y-113240533D01*
X88761905Y-112954819D02*
X89000000Y-113954819D01*
X89000000Y-113954819D02*
X89190476Y-113240533D01*
X89190476Y-113240533D02*
X89380952Y-113954819D01*
X89380952Y-113954819D02*
X89619048Y-112954819D01*
X90000000Y-113954819D02*
X90000000Y-112954819D01*
X91047618Y-113954819D02*
X90714285Y-113478628D01*
X90476190Y-113954819D02*
X90476190Y-112954819D01*
X90476190Y-112954819D02*
X90857142Y-112954819D01*
X90857142Y-112954819D02*
X90952380Y-113002438D01*
X90952380Y-113002438D02*
X90999999Y-113050057D01*
X90999999Y-113050057D02*
X91047618Y-113145295D01*
X91047618Y-113145295D02*
X91047618Y-113288152D01*
X91047618Y-113288152D02*
X90999999Y-113383390D01*
X90999999Y-113383390D02*
X90952380Y-113431009D01*
X90952380Y-113431009D02*
X90857142Y-113478628D01*
X90857142Y-113478628D02*
X90476190Y-113478628D01*
X91476190Y-113431009D02*
X91809523Y-113431009D01*
X91952380Y-113954819D02*
X91476190Y-113954819D01*
X91476190Y-113954819D02*
X91476190Y-112954819D01*
X91476190Y-112954819D02*
X91952380Y-112954819D01*
X92380952Y-113573866D02*
X93142857Y-113573866D01*
X93952380Y-113431009D02*
X94095237Y-113478628D01*
X94095237Y-113478628D02*
X94142856Y-113526247D01*
X94142856Y-113526247D02*
X94190475Y-113621485D01*
X94190475Y-113621485D02*
X94190475Y-113764342D01*
X94190475Y-113764342D02*
X94142856Y-113859580D01*
X94142856Y-113859580D02*
X94095237Y-113907200D01*
X94095237Y-113907200D02*
X93999999Y-113954819D01*
X93999999Y-113954819D02*
X93619047Y-113954819D01*
X93619047Y-113954819D02*
X93619047Y-112954819D01*
X93619047Y-112954819D02*
X93952380Y-112954819D01*
X93952380Y-112954819D02*
X94047618Y-113002438D01*
X94047618Y-113002438D02*
X94095237Y-113050057D01*
X94095237Y-113050057D02*
X94142856Y-113145295D01*
X94142856Y-113145295D02*
X94142856Y-113240533D01*
X94142856Y-113240533D02*
X94095237Y-113335771D01*
X94095237Y-113335771D02*
X94047618Y-113383390D01*
X94047618Y-113383390D02*
X93952380Y-113431009D01*
X93952380Y-113431009D02*
X93619047Y-113431009D01*
X94619047Y-112954819D02*
X94619047Y-113764342D01*
X94619047Y-113764342D02*
X94666666Y-113859580D01*
X94666666Y-113859580D02*
X94714285Y-113907200D01*
X94714285Y-113907200D02*
X94809523Y-113954819D01*
X94809523Y-113954819D02*
X94999999Y-113954819D01*
X94999999Y-113954819D02*
X95095237Y-113907200D01*
X95095237Y-113907200D02*
X95142856Y-113859580D01*
X95142856Y-113859580D02*
X95190475Y-113764342D01*
X95190475Y-113764342D02*
X95190475Y-112954819D01*
X95619047Y-113907200D02*
X95761904Y-113954819D01*
X95761904Y-113954819D02*
X95999999Y-113954819D01*
X95999999Y-113954819D02*
X96095237Y-113907200D01*
X96095237Y-113907200D02*
X96142856Y-113859580D01*
X96142856Y-113859580D02*
X96190475Y-113764342D01*
X96190475Y-113764342D02*
X96190475Y-113669104D01*
X96190475Y-113669104D02*
X96142856Y-113573866D01*
X96142856Y-113573866D02*
X96095237Y-113526247D01*
X96095237Y-113526247D02*
X95999999Y-113478628D01*
X95999999Y-113478628D02*
X95809523Y-113431009D01*
X95809523Y-113431009D02*
X95714285Y-113383390D01*
X95714285Y-113383390D02*
X95666666Y-113335771D01*
X95666666Y-113335771D02*
X95619047Y-113240533D01*
X95619047Y-113240533D02*
X95619047Y-113145295D01*
X95619047Y-113145295D02*
X95666666Y-113050057D01*
X95666666Y-113050057D02*
X95714285Y-113002438D01*
X95714285Y-113002438D02*
X95809523Y-112954819D01*
X95809523Y-112954819D02*
X96047618Y-112954819D01*
X96047618Y-112954819D02*
X96190475Y-113002438D01*
X96571428Y-113050057D02*
X96619047Y-113002438D01*
X96619047Y-113002438D02*
X96714285Y-112954819D01*
X96714285Y-112954819D02*
X96952380Y-112954819D01*
X96952380Y-112954819D02*
X97047618Y-113002438D01*
X97047618Y-113002438D02*
X97095237Y-113050057D01*
X97095237Y-113050057D02*
X97142856Y-113145295D01*
X97142856Y-113145295D02*
X97142856Y-113240533D01*
X97142856Y-113240533D02*
X97095237Y-113383390D01*
X97095237Y-113383390D02*
X96523809Y-113954819D01*
X96523809Y-113954819D02*
X97142856Y-113954819D01*
X62954819Y-118904761D02*
X61954819Y-118904761D01*
X61954819Y-118904761D02*
X61954819Y-118666666D01*
X61954819Y-118666666D02*
X62002438Y-118523809D01*
X62002438Y-118523809D02*
X62097676Y-118428571D01*
X62097676Y-118428571D02*
X62192914Y-118380952D01*
X62192914Y-118380952D02*
X62383390Y-118333333D01*
X62383390Y-118333333D02*
X62526247Y-118333333D01*
X62526247Y-118333333D02*
X62716723Y-118380952D01*
X62716723Y-118380952D02*
X62811961Y-118428571D01*
X62811961Y-118428571D02*
X62907200Y-118523809D01*
X62907200Y-118523809D02*
X62954819Y-118666666D01*
X62954819Y-118666666D02*
X62954819Y-118904761D01*
X62859580Y-117333333D02*
X62907200Y-117380952D01*
X62907200Y-117380952D02*
X62954819Y-117523809D01*
X62954819Y-117523809D02*
X62954819Y-117619047D01*
X62954819Y-117619047D02*
X62907200Y-117761904D01*
X62907200Y-117761904D02*
X62811961Y-117857142D01*
X62811961Y-117857142D02*
X62716723Y-117904761D01*
X62716723Y-117904761D02*
X62526247Y-117952380D01*
X62526247Y-117952380D02*
X62383390Y-117952380D01*
X62383390Y-117952380D02*
X62192914Y-117904761D01*
X62192914Y-117904761D02*
X62097676Y-117857142D01*
X62097676Y-117857142D02*
X62002438Y-117761904D01*
X62002438Y-117761904D02*
X61954819Y-117619047D01*
X61954819Y-117619047D02*
X61954819Y-117523809D01*
X61954819Y-117523809D02*
X62002438Y-117380952D01*
X62002438Y-117380952D02*
X62050057Y-117333333D01*
X62954819Y-116142856D02*
X61954819Y-116142856D01*
X62954819Y-115666666D02*
X61954819Y-115666666D01*
X61954819Y-115666666D02*
X62954819Y-115095238D01*
X62954819Y-115095238D02*
X61954819Y-115095238D01*
X79454819Y-118738094D02*
X79454819Y-118119047D01*
X79454819Y-118119047D02*
X79835771Y-118452380D01*
X79835771Y-118452380D02*
X79835771Y-118309523D01*
X79835771Y-118309523D02*
X79883390Y-118214285D01*
X79883390Y-118214285D02*
X79931009Y-118166666D01*
X79931009Y-118166666D02*
X80026247Y-118119047D01*
X80026247Y-118119047D02*
X80264342Y-118119047D01*
X80264342Y-118119047D02*
X80359580Y-118166666D01*
X80359580Y-118166666D02*
X80407200Y-118214285D01*
X80407200Y-118214285D02*
X80454819Y-118309523D01*
X80454819Y-118309523D02*
X80454819Y-118595237D01*
X80454819Y-118595237D02*
X80407200Y-118690475D01*
X80407200Y-118690475D02*
X80359580Y-118738094D01*
X79454819Y-117833332D02*
X80454819Y-117499999D01*
X80454819Y-117499999D02*
X79454819Y-117166666D01*
X79454819Y-116928570D02*
X79454819Y-116309523D01*
X79454819Y-116309523D02*
X79835771Y-116642856D01*
X79835771Y-116642856D02*
X79835771Y-116499999D01*
X79835771Y-116499999D02*
X79883390Y-116404761D01*
X79883390Y-116404761D02*
X79931009Y-116357142D01*
X79931009Y-116357142D02*
X80026247Y-116309523D01*
X80026247Y-116309523D02*
X80264342Y-116309523D01*
X80264342Y-116309523D02*
X80359580Y-116357142D01*
X80359580Y-116357142D02*
X80407200Y-116404761D01*
X80407200Y-116404761D02*
X80454819Y-116499999D01*
X80454819Y-116499999D02*
X80454819Y-116785713D01*
X80454819Y-116785713D02*
X80407200Y-116880951D01*
X80407200Y-116880951D02*
X80359580Y-116928570D01*
X120407200Y-118690475D02*
X120454819Y-118547618D01*
X120454819Y-118547618D02*
X120454819Y-118309523D01*
X120454819Y-118309523D02*
X120407200Y-118214285D01*
X120407200Y-118214285D02*
X120359580Y-118166666D01*
X120359580Y-118166666D02*
X120264342Y-118119047D01*
X120264342Y-118119047D02*
X120169104Y-118119047D01*
X120169104Y-118119047D02*
X120073866Y-118166666D01*
X120073866Y-118166666D02*
X120026247Y-118214285D01*
X120026247Y-118214285D02*
X119978628Y-118309523D01*
X119978628Y-118309523D02*
X119931009Y-118499999D01*
X119931009Y-118499999D02*
X119883390Y-118595237D01*
X119883390Y-118595237D02*
X119835771Y-118642856D01*
X119835771Y-118642856D02*
X119740533Y-118690475D01*
X119740533Y-118690475D02*
X119645295Y-118690475D01*
X119645295Y-118690475D02*
X119550057Y-118642856D01*
X119550057Y-118642856D02*
X119502438Y-118595237D01*
X119502438Y-118595237D02*
X119454819Y-118499999D01*
X119454819Y-118499999D02*
X119454819Y-118261904D01*
X119454819Y-118261904D02*
X119502438Y-118119047D01*
X120359580Y-117119047D02*
X120407200Y-117166666D01*
X120407200Y-117166666D02*
X120454819Y-117309523D01*
X120454819Y-117309523D02*
X120454819Y-117404761D01*
X120454819Y-117404761D02*
X120407200Y-117547618D01*
X120407200Y-117547618D02*
X120311961Y-117642856D01*
X120311961Y-117642856D02*
X120216723Y-117690475D01*
X120216723Y-117690475D02*
X120026247Y-117738094D01*
X120026247Y-117738094D02*
X119883390Y-117738094D01*
X119883390Y-117738094D02*
X119692914Y-117690475D01*
X119692914Y-117690475D02*
X119597676Y-117642856D01*
X119597676Y-117642856D02*
X119502438Y-117547618D01*
X119502438Y-117547618D02*
X119454819Y-117404761D01*
X119454819Y-117404761D02*
X119454819Y-117309523D01*
X119454819Y-117309523D02*
X119502438Y-117166666D01*
X119502438Y-117166666D02*
X119550057Y-117119047D01*
X120454819Y-116214285D02*
X120454819Y-116690475D01*
X120454819Y-116690475D02*
X119454819Y-116690475D01*
X105833333Y-54979152D02*
X105833333Y-55788676D01*
X105833333Y-55788676D02*
X105785714Y-55883914D01*
X105785714Y-55883914D02*
X105738095Y-55931533D01*
X105738095Y-55931533D02*
X105642857Y-55979152D01*
X105642857Y-55979152D02*
X105500000Y-55979152D01*
X105500000Y-55979152D02*
X105404762Y-55931533D01*
X105833333Y-55598200D02*
X105738095Y-55645819D01*
X105738095Y-55645819D02*
X105547619Y-55645819D01*
X105547619Y-55645819D02*
X105452381Y-55598200D01*
X105452381Y-55598200D02*
X105404762Y-55550580D01*
X105404762Y-55550580D02*
X105357143Y-55455342D01*
X105357143Y-55455342D02*
X105357143Y-55169628D01*
X105357143Y-55169628D02*
X105404762Y-55074390D01*
X105404762Y-55074390D02*
X105452381Y-55026771D01*
X105452381Y-55026771D02*
X105547619Y-54979152D01*
X105547619Y-54979152D02*
X105738095Y-54979152D01*
X105738095Y-54979152D02*
X105833333Y-55026771D01*
X106309524Y-55645819D02*
X106309524Y-54979152D01*
X106309524Y-55169628D02*
X106357143Y-55074390D01*
X106357143Y-55074390D02*
X106404762Y-55026771D01*
X106404762Y-55026771D02*
X106500000Y-54979152D01*
X106500000Y-54979152D02*
X106595238Y-54979152D01*
X107309524Y-55598200D02*
X107214286Y-55645819D01*
X107214286Y-55645819D02*
X107023810Y-55645819D01*
X107023810Y-55645819D02*
X106928572Y-55598200D01*
X106928572Y-55598200D02*
X106880953Y-55502961D01*
X106880953Y-55502961D02*
X106880953Y-55122009D01*
X106880953Y-55122009D02*
X106928572Y-55026771D01*
X106928572Y-55026771D02*
X107023810Y-54979152D01*
X107023810Y-54979152D02*
X107214286Y-54979152D01*
X107214286Y-54979152D02*
X107309524Y-55026771D01*
X107309524Y-55026771D02*
X107357143Y-55122009D01*
X107357143Y-55122009D02*
X107357143Y-55217247D01*
X107357143Y-55217247D02*
X106880953Y-55312485D01*
X108214286Y-54979152D02*
X108214286Y-55788676D01*
X108214286Y-55788676D02*
X108166667Y-55883914D01*
X108166667Y-55883914D02*
X108119048Y-55931533D01*
X108119048Y-55931533D02*
X108023810Y-55979152D01*
X108023810Y-55979152D02*
X107880953Y-55979152D01*
X107880953Y-55979152D02*
X107785715Y-55931533D01*
X108214286Y-55598200D02*
X108119048Y-55645819D01*
X108119048Y-55645819D02*
X107928572Y-55645819D01*
X107928572Y-55645819D02*
X107833334Y-55598200D01*
X107833334Y-55598200D02*
X107785715Y-55550580D01*
X107785715Y-55550580D02*
X107738096Y-55455342D01*
X107738096Y-55455342D02*
X107738096Y-55169628D01*
X107738096Y-55169628D02*
X107785715Y-55074390D01*
X107785715Y-55074390D02*
X107833334Y-55026771D01*
X107833334Y-55026771D02*
X107928572Y-54979152D01*
X107928572Y-54979152D02*
X108119048Y-54979152D01*
X108119048Y-54979152D02*
X108214286Y-55026771D01*
X108690477Y-55645819D02*
X108690477Y-54979152D01*
X108690477Y-55169628D02*
X108738096Y-55074390D01*
X108738096Y-55074390D02*
X108785715Y-55026771D01*
X108785715Y-55026771D02*
X108880953Y-54979152D01*
X108880953Y-54979152D02*
X108976191Y-54979152D01*
X109452382Y-55645819D02*
X109357144Y-55598200D01*
X109357144Y-55598200D02*
X109309525Y-55550580D01*
X109309525Y-55550580D02*
X109261906Y-55455342D01*
X109261906Y-55455342D02*
X109261906Y-55169628D01*
X109261906Y-55169628D02*
X109309525Y-55074390D01*
X109309525Y-55074390D02*
X109357144Y-55026771D01*
X109357144Y-55026771D02*
X109452382Y-54979152D01*
X109452382Y-54979152D02*
X109595239Y-54979152D01*
X109595239Y-54979152D02*
X109690477Y-55026771D01*
X109690477Y-55026771D02*
X109738096Y-55074390D01*
X109738096Y-55074390D02*
X109785715Y-55169628D01*
X109785715Y-55169628D02*
X109785715Y-55455342D01*
X109785715Y-55455342D02*
X109738096Y-55550580D01*
X109738096Y-55550580D02*
X109690477Y-55598200D01*
X109690477Y-55598200D02*
X109595239Y-55645819D01*
X109595239Y-55645819D02*
X109452382Y-55645819D01*
X110214287Y-55645819D02*
X110214287Y-54645819D01*
X110214287Y-55026771D02*
X110309525Y-54979152D01*
X110309525Y-54979152D02*
X110500001Y-54979152D01*
X110500001Y-54979152D02*
X110595239Y-55026771D01*
X110595239Y-55026771D02*
X110642858Y-55074390D01*
X110642858Y-55074390D02*
X110690477Y-55169628D01*
X110690477Y-55169628D02*
X110690477Y-55455342D01*
X110690477Y-55455342D02*
X110642858Y-55550580D01*
X110642858Y-55550580D02*
X110595239Y-55598200D01*
X110595239Y-55598200D02*
X110500001Y-55645819D01*
X110500001Y-55645819D02*
X110309525Y-55645819D01*
X110309525Y-55645819D02*
X110214287Y-55598200D01*
X111738096Y-55169628D02*
X111690477Y-55122009D01*
X111690477Y-55122009D02*
X111595239Y-55074390D01*
X111595239Y-55074390D02*
X111500001Y-55074390D01*
X111500001Y-55074390D02*
X111404763Y-55122009D01*
X111404763Y-55122009D02*
X111357144Y-55169628D01*
X111357144Y-55169628D02*
X111309525Y-55264866D01*
X111309525Y-55264866D02*
X111309525Y-55360104D01*
X111309525Y-55360104D02*
X111357144Y-55455342D01*
X111357144Y-55455342D02*
X111404763Y-55502961D01*
X111404763Y-55502961D02*
X111500001Y-55550580D01*
X111500001Y-55550580D02*
X111595239Y-55550580D01*
X111595239Y-55550580D02*
X111690477Y-55502961D01*
X111690477Y-55502961D02*
X111738096Y-55455342D01*
X111738096Y-55074390D02*
X111738096Y-55455342D01*
X111738096Y-55455342D02*
X111785715Y-55502961D01*
X111785715Y-55502961D02*
X111833334Y-55502961D01*
X111833334Y-55502961D02*
X111928573Y-55455342D01*
X111928573Y-55455342D02*
X111976192Y-55360104D01*
X111976192Y-55360104D02*
X111976192Y-55122009D01*
X111976192Y-55122009D02*
X111880954Y-54979152D01*
X111880954Y-54979152D02*
X111738096Y-54883914D01*
X111738096Y-54883914D02*
X111547620Y-54836295D01*
X111547620Y-54836295D02*
X111357144Y-54883914D01*
X111357144Y-54883914D02*
X111214287Y-54979152D01*
X111214287Y-54979152D02*
X111119049Y-55122009D01*
X111119049Y-55122009D02*
X111071430Y-55312485D01*
X111071430Y-55312485D02*
X111119049Y-55502961D01*
X111119049Y-55502961D02*
X111214287Y-55645819D01*
X111214287Y-55645819D02*
X111357144Y-55741057D01*
X111357144Y-55741057D02*
X111547620Y-55788676D01*
X111547620Y-55788676D02*
X111738096Y-55741057D01*
X111738096Y-55741057D02*
X111880954Y-55645819D01*
X112404763Y-55645819D02*
X112404763Y-54979152D01*
X112404763Y-55074390D02*
X112452382Y-55026771D01*
X112452382Y-55026771D02*
X112547620Y-54979152D01*
X112547620Y-54979152D02*
X112690477Y-54979152D01*
X112690477Y-54979152D02*
X112785715Y-55026771D01*
X112785715Y-55026771D02*
X112833334Y-55122009D01*
X112833334Y-55122009D02*
X112833334Y-55645819D01*
X112833334Y-55122009D02*
X112880953Y-55026771D01*
X112880953Y-55026771D02*
X112976191Y-54979152D01*
X112976191Y-54979152D02*
X113119048Y-54979152D01*
X113119048Y-54979152D02*
X113214287Y-55026771D01*
X113214287Y-55026771D02*
X113261906Y-55122009D01*
X113261906Y-55122009D02*
X113261906Y-55645819D01*
X114166667Y-55645819D02*
X114166667Y-55122009D01*
X114166667Y-55122009D02*
X114119048Y-55026771D01*
X114119048Y-55026771D02*
X114023810Y-54979152D01*
X114023810Y-54979152D02*
X113833334Y-54979152D01*
X113833334Y-54979152D02*
X113738096Y-55026771D01*
X114166667Y-55598200D02*
X114071429Y-55645819D01*
X114071429Y-55645819D02*
X113833334Y-55645819D01*
X113833334Y-55645819D02*
X113738096Y-55598200D01*
X113738096Y-55598200D02*
X113690477Y-55502961D01*
X113690477Y-55502961D02*
X113690477Y-55407723D01*
X113690477Y-55407723D02*
X113738096Y-55312485D01*
X113738096Y-55312485D02*
X113833334Y-55264866D01*
X113833334Y-55264866D02*
X114071429Y-55264866D01*
X114071429Y-55264866D02*
X114166667Y-55217247D01*
X115071429Y-55598200D02*
X114976191Y-55645819D01*
X114976191Y-55645819D02*
X114785715Y-55645819D01*
X114785715Y-55645819D02*
X114690477Y-55598200D01*
X114690477Y-55598200D02*
X114642858Y-55550580D01*
X114642858Y-55550580D02*
X114595239Y-55455342D01*
X114595239Y-55455342D02*
X114595239Y-55169628D01*
X114595239Y-55169628D02*
X114642858Y-55074390D01*
X114642858Y-55074390D02*
X114690477Y-55026771D01*
X114690477Y-55026771D02*
X114785715Y-54979152D01*
X114785715Y-54979152D02*
X114976191Y-54979152D01*
X114976191Y-54979152D02*
X115071429Y-55026771D01*
X115500001Y-55550580D02*
X115547620Y-55598200D01*
X115547620Y-55598200D02*
X115500001Y-55645819D01*
X115500001Y-55645819D02*
X115452382Y-55598200D01*
X115452382Y-55598200D02*
X115500001Y-55550580D01*
X115500001Y-55550580D02*
X115500001Y-55645819D01*
X116404762Y-55598200D02*
X116309524Y-55645819D01*
X116309524Y-55645819D02*
X116119048Y-55645819D01*
X116119048Y-55645819D02*
X116023810Y-55598200D01*
X116023810Y-55598200D02*
X115976191Y-55550580D01*
X115976191Y-55550580D02*
X115928572Y-55455342D01*
X115928572Y-55455342D02*
X115928572Y-55169628D01*
X115928572Y-55169628D02*
X115976191Y-55074390D01*
X115976191Y-55074390D02*
X116023810Y-55026771D01*
X116023810Y-55026771D02*
X116119048Y-54979152D01*
X116119048Y-54979152D02*
X116309524Y-54979152D01*
X116309524Y-54979152D02*
X116404762Y-55026771D01*
X116976191Y-55645819D02*
X116880953Y-55598200D01*
X116880953Y-55598200D02*
X116833334Y-55550580D01*
X116833334Y-55550580D02*
X116785715Y-55455342D01*
X116785715Y-55455342D02*
X116785715Y-55169628D01*
X116785715Y-55169628D02*
X116833334Y-55074390D01*
X116833334Y-55074390D02*
X116880953Y-55026771D01*
X116880953Y-55026771D02*
X116976191Y-54979152D01*
X116976191Y-54979152D02*
X117119048Y-54979152D01*
X117119048Y-54979152D02*
X117214286Y-55026771D01*
X117214286Y-55026771D02*
X117261905Y-55074390D01*
X117261905Y-55074390D02*
X117309524Y-55169628D01*
X117309524Y-55169628D02*
X117309524Y-55455342D01*
X117309524Y-55455342D02*
X117261905Y-55550580D01*
X117261905Y-55550580D02*
X117214286Y-55598200D01*
X117214286Y-55598200D02*
X117119048Y-55645819D01*
X117119048Y-55645819D02*
X116976191Y-55645819D01*
X117738096Y-55645819D02*
X117738096Y-54979152D01*
X117738096Y-55074390D02*
X117785715Y-55026771D01*
X117785715Y-55026771D02*
X117880953Y-54979152D01*
X117880953Y-54979152D02*
X118023810Y-54979152D01*
X118023810Y-54979152D02*
X118119048Y-55026771D01*
X118119048Y-55026771D02*
X118166667Y-55122009D01*
X118166667Y-55122009D02*
X118166667Y-55645819D01*
X118166667Y-55122009D02*
X118214286Y-55026771D01*
X118214286Y-55026771D02*
X118309524Y-54979152D01*
X118309524Y-54979152D02*
X118452381Y-54979152D01*
X118452381Y-54979152D02*
X118547620Y-55026771D01*
X118547620Y-55026771D02*
X118595239Y-55122009D01*
X118595239Y-55122009D02*
X118595239Y-55645819D01*
X56238095Y-102122438D02*
X56142857Y-102074819D01*
X56142857Y-102074819D02*
X56000000Y-102074819D01*
X56000000Y-102074819D02*
X55857143Y-102122438D01*
X55857143Y-102122438D02*
X55761905Y-102217676D01*
X55761905Y-102217676D02*
X55714286Y-102312914D01*
X55714286Y-102312914D02*
X55666667Y-102503390D01*
X55666667Y-102503390D02*
X55666667Y-102646247D01*
X55666667Y-102646247D02*
X55714286Y-102836723D01*
X55714286Y-102836723D02*
X55761905Y-102931961D01*
X55761905Y-102931961D02*
X55857143Y-103027200D01*
X55857143Y-103027200D02*
X56000000Y-103074819D01*
X56000000Y-103074819D02*
X56095238Y-103074819D01*
X56095238Y-103074819D02*
X56238095Y-103027200D01*
X56238095Y-103027200D02*
X56285714Y-102979580D01*
X56285714Y-102979580D02*
X56285714Y-102646247D01*
X56285714Y-102646247D02*
X56095238Y-102646247D01*
X56714286Y-103074819D02*
X56714286Y-102074819D01*
X56714286Y-102074819D02*
X57285714Y-103074819D01*
X57285714Y-103074819D02*
X57285714Y-102074819D01*
X57761905Y-103074819D02*
X57761905Y-102074819D01*
X57761905Y-102074819D02*
X58000000Y-102074819D01*
X58000000Y-102074819D02*
X58142857Y-102122438D01*
X58142857Y-102122438D02*
X58238095Y-102217676D01*
X58238095Y-102217676D02*
X58285714Y-102312914D01*
X58285714Y-102312914D02*
X58333333Y-102503390D01*
X58333333Y-102503390D02*
X58333333Y-102646247D01*
X58333333Y-102646247D02*
X58285714Y-102836723D01*
X58285714Y-102836723D02*
X58238095Y-102931961D01*
X58238095Y-102931961D02*
X58142857Y-103027200D01*
X58142857Y-103027200D02*
X58000000Y-103074819D01*
X58000000Y-103074819D02*
X57761905Y-103074819D01*
X108904762Y-52867819D02*
X109238095Y-53867819D01*
X109238095Y-53867819D02*
X109571428Y-52867819D01*
X110428571Y-53867819D02*
X109857143Y-53867819D01*
X110142857Y-53867819D02*
X110142857Y-52867819D01*
X110142857Y-52867819D02*
X110047619Y-53010676D01*
X110047619Y-53010676D02*
X109952381Y-53105914D01*
X109952381Y-53105914D02*
X109857143Y-53153533D01*
X111571429Y-52963057D02*
X111619048Y-52915438D01*
X111619048Y-52915438D02*
X111714286Y-52867819D01*
X111714286Y-52867819D02*
X111952381Y-52867819D01*
X111952381Y-52867819D02*
X112047619Y-52915438D01*
X112047619Y-52915438D02*
X112095238Y-52963057D01*
X112095238Y-52963057D02*
X112142857Y-53058295D01*
X112142857Y-53058295D02*
X112142857Y-53153533D01*
X112142857Y-53153533D02*
X112095238Y-53296390D01*
X112095238Y-53296390D02*
X111523810Y-53867819D01*
X111523810Y-53867819D02*
X112142857Y-53867819D01*
X112761905Y-52867819D02*
X112857143Y-52867819D01*
X112857143Y-52867819D02*
X112952381Y-52915438D01*
X112952381Y-52915438D02*
X113000000Y-52963057D01*
X113000000Y-52963057D02*
X113047619Y-53058295D01*
X113047619Y-53058295D02*
X113095238Y-53248771D01*
X113095238Y-53248771D02*
X113095238Y-53486866D01*
X113095238Y-53486866D02*
X113047619Y-53677342D01*
X113047619Y-53677342D02*
X113000000Y-53772580D01*
X113000000Y-53772580D02*
X112952381Y-53820200D01*
X112952381Y-53820200D02*
X112857143Y-53867819D01*
X112857143Y-53867819D02*
X112761905Y-53867819D01*
X112761905Y-53867819D02*
X112666667Y-53820200D01*
X112666667Y-53820200D02*
X112619048Y-53772580D01*
X112619048Y-53772580D02*
X112571429Y-53677342D01*
X112571429Y-53677342D02*
X112523810Y-53486866D01*
X112523810Y-53486866D02*
X112523810Y-53248771D01*
X112523810Y-53248771D02*
X112571429Y-53058295D01*
X112571429Y-53058295D02*
X112619048Y-52963057D01*
X112619048Y-52963057D02*
X112666667Y-52915438D01*
X112666667Y-52915438D02*
X112761905Y-52867819D01*
X113476191Y-52963057D02*
X113523810Y-52915438D01*
X113523810Y-52915438D02*
X113619048Y-52867819D01*
X113619048Y-52867819D02*
X113857143Y-52867819D01*
X113857143Y-52867819D02*
X113952381Y-52915438D01*
X113952381Y-52915438D02*
X114000000Y-52963057D01*
X114000000Y-52963057D02*
X114047619Y-53058295D01*
X114047619Y-53058295D02*
X114047619Y-53153533D01*
X114047619Y-53153533D02*
X114000000Y-53296390D01*
X114000000Y-53296390D02*
X113428572Y-53867819D01*
X113428572Y-53867819D02*
X114047619Y-53867819D01*
X114904762Y-52867819D02*
X114714286Y-52867819D01*
X114714286Y-52867819D02*
X114619048Y-52915438D01*
X114619048Y-52915438D02*
X114571429Y-52963057D01*
X114571429Y-52963057D02*
X114476191Y-53105914D01*
X114476191Y-53105914D02*
X114428572Y-53296390D01*
X114428572Y-53296390D02*
X114428572Y-53677342D01*
X114428572Y-53677342D02*
X114476191Y-53772580D01*
X114476191Y-53772580D02*
X114523810Y-53820200D01*
X114523810Y-53820200D02*
X114619048Y-53867819D01*
X114619048Y-53867819D02*
X114809524Y-53867819D01*
X114809524Y-53867819D02*
X114904762Y-53820200D01*
X114904762Y-53820200D02*
X114952381Y-53772580D01*
X114952381Y-53772580D02*
X115000000Y-53677342D01*
X115000000Y-53677342D02*
X115000000Y-53439247D01*
X115000000Y-53439247D02*
X114952381Y-53344009D01*
X114952381Y-53344009D02*
X114904762Y-53296390D01*
X114904762Y-53296390D02*
X114809524Y-53248771D01*
X114809524Y-53248771D02*
X114619048Y-53248771D01*
X114619048Y-53248771D02*
X114523810Y-53296390D01*
X114523810Y-53296390D02*
X114476191Y-53344009D01*
X114476191Y-53344009D02*
X114428572Y-53439247D01*
D12*
X102750000Y-50892614D02*
X103250000Y-50892614D01*
X103464286Y-51678328D02*
X102750000Y-51678328D01*
X102750000Y-51678328D02*
X102750000Y-50178328D01*
X102750000Y-50178328D02*
X103464286Y-50178328D01*
X104035715Y-51606900D02*
X104250001Y-51678328D01*
X104250001Y-51678328D02*
X104607143Y-51678328D01*
X104607143Y-51678328D02*
X104750001Y-51606900D01*
X104750001Y-51606900D02*
X104821429Y-51535471D01*
X104821429Y-51535471D02*
X104892858Y-51392614D01*
X104892858Y-51392614D02*
X104892858Y-51249757D01*
X104892858Y-51249757D02*
X104821429Y-51106900D01*
X104821429Y-51106900D02*
X104750001Y-51035471D01*
X104750001Y-51035471D02*
X104607143Y-50964042D01*
X104607143Y-50964042D02*
X104321429Y-50892614D01*
X104321429Y-50892614D02*
X104178572Y-50821185D01*
X104178572Y-50821185D02*
X104107143Y-50749757D01*
X104107143Y-50749757D02*
X104035715Y-50606900D01*
X104035715Y-50606900D02*
X104035715Y-50464042D01*
X104035715Y-50464042D02*
X104107143Y-50321185D01*
X104107143Y-50321185D02*
X104178572Y-50249757D01*
X104178572Y-50249757D02*
X104321429Y-50178328D01*
X104321429Y-50178328D02*
X104678572Y-50178328D01*
X104678572Y-50178328D02*
X104892858Y-50249757D01*
X105535714Y-51678328D02*
X105535714Y-50178328D01*
X105535714Y-50178328D02*
X106107143Y-50178328D01*
X106107143Y-50178328D02*
X106250000Y-50249757D01*
X106250000Y-50249757D02*
X106321429Y-50321185D01*
X106321429Y-50321185D02*
X106392857Y-50464042D01*
X106392857Y-50464042D02*
X106392857Y-50678328D01*
X106392857Y-50678328D02*
X106321429Y-50821185D01*
X106321429Y-50821185D02*
X106250000Y-50892614D01*
X106250000Y-50892614D02*
X106107143Y-50964042D01*
X106107143Y-50964042D02*
X105535714Y-50964042D01*
X107035714Y-51678328D02*
X107035714Y-50178328D01*
X107035714Y-50892614D02*
X107892857Y-50892614D01*
X107892857Y-51678328D02*
X107892857Y-50178328D01*
X108821429Y-51678328D02*
X108678572Y-51606900D01*
X108678572Y-51606900D02*
X108607143Y-51535471D01*
X108607143Y-51535471D02*
X108535715Y-51392614D01*
X108535715Y-51392614D02*
X108535715Y-50964042D01*
X108535715Y-50964042D02*
X108607143Y-50821185D01*
X108607143Y-50821185D02*
X108678572Y-50749757D01*
X108678572Y-50749757D02*
X108821429Y-50678328D01*
X108821429Y-50678328D02*
X109035715Y-50678328D01*
X109035715Y-50678328D02*
X109178572Y-50749757D01*
X109178572Y-50749757D02*
X109250001Y-50821185D01*
X109250001Y-50821185D02*
X109321429Y-50964042D01*
X109321429Y-50964042D02*
X109321429Y-51392614D01*
X109321429Y-51392614D02*
X109250001Y-51535471D01*
X109250001Y-51535471D02*
X109178572Y-51606900D01*
X109178572Y-51606900D02*
X109035715Y-51678328D01*
X109035715Y-51678328D02*
X108821429Y-51678328D01*
X109964286Y-51678328D02*
X109964286Y-50678328D01*
X109964286Y-50821185D02*
X110035715Y-50749757D01*
X110035715Y-50749757D02*
X110178572Y-50678328D01*
X110178572Y-50678328D02*
X110392858Y-50678328D01*
X110392858Y-50678328D02*
X110535715Y-50749757D01*
X110535715Y-50749757D02*
X110607144Y-50892614D01*
X110607144Y-50892614D02*
X110607144Y-51678328D01*
X110607144Y-50892614D02*
X110678572Y-50749757D01*
X110678572Y-50749757D02*
X110821429Y-50678328D01*
X110821429Y-50678328D02*
X111035715Y-50678328D01*
X111035715Y-50678328D02*
X111178572Y-50749757D01*
X111178572Y-50749757D02*
X111250001Y-50892614D01*
X111250001Y-50892614D02*
X111250001Y-51678328D01*
X112535715Y-51606900D02*
X112392858Y-51678328D01*
X112392858Y-51678328D02*
X112107144Y-51678328D01*
X112107144Y-51678328D02*
X111964286Y-51606900D01*
X111964286Y-51606900D02*
X111892858Y-51464042D01*
X111892858Y-51464042D02*
X111892858Y-50892614D01*
X111892858Y-50892614D02*
X111964286Y-50749757D01*
X111964286Y-50749757D02*
X112107144Y-50678328D01*
X112107144Y-50678328D02*
X112392858Y-50678328D01*
X112392858Y-50678328D02*
X112535715Y-50749757D01*
X112535715Y-50749757D02*
X112607144Y-50892614D01*
X112607144Y-50892614D02*
X112607144Y-51035471D01*
X112607144Y-51035471D02*
X111892858Y-51178328D01*
X114321429Y-51606900D02*
X114535715Y-51678328D01*
X114535715Y-51678328D02*
X114892857Y-51678328D01*
X114892857Y-51678328D02*
X115035715Y-51606900D01*
X115035715Y-51606900D02*
X115107143Y-51535471D01*
X115107143Y-51535471D02*
X115178572Y-51392614D01*
X115178572Y-51392614D02*
X115178572Y-51249757D01*
X115178572Y-51249757D02*
X115107143Y-51106900D01*
X115107143Y-51106900D02*
X115035715Y-51035471D01*
X115035715Y-51035471D02*
X114892857Y-50964042D01*
X114892857Y-50964042D02*
X114607143Y-50892614D01*
X114607143Y-50892614D02*
X114464286Y-50821185D01*
X114464286Y-50821185D02*
X114392857Y-50749757D01*
X114392857Y-50749757D02*
X114321429Y-50606900D01*
X114321429Y-50606900D02*
X114321429Y-50464042D01*
X114321429Y-50464042D02*
X114392857Y-50321185D01*
X114392857Y-50321185D02*
X114464286Y-50249757D01*
X114464286Y-50249757D02*
X114607143Y-50178328D01*
X114607143Y-50178328D02*
X114964286Y-50178328D01*
X114964286Y-50178328D02*
X115178572Y-50249757D01*
X116392857Y-51606900D02*
X116250000Y-51678328D01*
X116250000Y-51678328D02*
X115964286Y-51678328D01*
X115964286Y-51678328D02*
X115821428Y-51606900D01*
X115821428Y-51606900D02*
X115750000Y-51464042D01*
X115750000Y-51464042D02*
X115750000Y-50892614D01*
X115750000Y-50892614D02*
X115821428Y-50749757D01*
X115821428Y-50749757D02*
X115964286Y-50678328D01*
X115964286Y-50678328D02*
X116250000Y-50678328D01*
X116250000Y-50678328D02*
X116392857Y-50749757D01*
X116392857Y-50749757D02*
X116464286Y-50892614D01*
X116464286Y-50892614D02*
X116464286Y-51035471D01*
X116464286Y-51035471D02*
X115750000Y-51178328D01*
X117107142Y-50678328D02*
X117107142Y-51678328D01*
X117107142Y-50821185D02*
X117178571Y-50749757D01*
X117178571Y-50749757D02*
X117321428Y-50678328D01*
X117321428Y-50678328D02*
X117535714Y-50678328D01*
X117535714Y-50678328D02*
X117678571Y-50749757D01*
X117678571Y-50749757D02*
X117750000Y-50892614D01*
X117750000Y-50892614D02*
X117750000Y-51678328D01*
X118392857Y-51606900D02*
X118535714Y-51678328D01*
X118535714Y-51678328D02*
X118821428Y-51678328D01*
X118821428Y-51678328D02*
X118964285Y-51606900D01*
X118964285Y-51606900D02*
X119035714Y-51464042D01*
X119035714Y-51464042D02*
X119035714Y-51392614D01*
X119035714Y-51392614D02*
X118964285Y-51249757D01*
X118964285Y-51249757D02*
X118821428Y-51178328D01*
X118821428Y-51178328D02*
X118607143Y-51178328D01*
X118607143Y-51178328D02*
X118464285Y-51106900D01*
X118464285Y-51106900D02*
X118392857Y-50964042D01*
X118392857Y-50964042D02*
X118392857Y-50892614D01*
X118392857Y-50892614D02*
X118464285Y-50749757D01*
X118464285Y-50749757D02*
X118607143Y-50678328D01*
X118607143Y-50678328D02*
X118821428Y-50678328D01*
X118821428Y-50678328D02*
X118964285Y-50749757D01*
X119892857Y-51678328D02*
X119750000Y-51606900D01*
X119750000Y-51606900D02*
X119678571Y-51535471D01*
X119678571Y-51535471D02*
X119607143Y-51392614D01*
X119607143Y-51392614D02*
X119607143Y-50964042D01*
X119607143Y-50964042D02*
X119678571Y-50821185D01*
X119678571Y-50821185D02*
X119750000Y-50749757D01*
X119750000Y-50749757D02*
X119892857Y-50678328D01*
X119892857Y-50678328D02*
X120107143Y-50678328D01*
X120107143Y-50678328D02*
X120250000Y-50749757D01*
X120250000Y-50749757D02*
X120321429Y-50821185D01*
X120321429Y-50821185D02*
X120392857Y-50964042D01*
X120392857Y-50964042D02*
X120392857Y-51392614D01*
X120392857Y-51392614D02*
X120321429Y-51535471D01*
X120321429Y-51535471D02*
X120250000Y-51606900D01*
X120250000Y-51606900D02*
X120107143Y-51678328D01*
X120107143Y-51678328D02*
X119892857Y-51678328D01*
X121035714Y-51678328D02*
X121035714Y-50678328D01*
X121035714Y-50964042D02*
X121107143Y-50821185D01*
X121107143Y-50821185D02*
X121178572Y-50749757D01*
X121178572Y-50749757D02*
X121321429Y-50678328D01*
X121321429Y-50678328D02*
X121464286Y-50678328D01*
D11*
X92431009Y-118428571D02*
X92478628Y-118285714D01*
X92478628Y-118285714D02*
X92526247Y-118238095D01*
X92526247Y-118238095D02*
X92621485Y-118190476D01*
X92621485Y-118190476D02*
X92764342Y-118190476D01*
X92764342Y-118190476D02*
X92859580Y-118238095D01*
X92859580Y-118238095D02*
X92907200Y-118285714D01*
X92907200Y-118285714D02*
X92954819Y-118380952D01*
X92954819Y-118380952D02*
X92954819Y-118761904D01*
X92954819Y-118761904D02*
X91954819Y-118761904D01*
X91954819Y-118761904D02*
X91954819Y-118428571D01*
X91954819Y-118428571D02*
X92002438Y-118333333D01*
X92002438Y-118333333D02*
X92050057Y-118285714D01*
X92050057Y-118285714D02*
X92145295Y-118238095D01*
X92145295Y-118238095D02*
X92240533Y-118238095D01*
X92240533Y-118238095D02*
X92335771Y-118285714D01*
X92335771Y-118285714D02*
X92383390Y-118333333D01*
X92383390Y-118333333D02*
X92431009Y-118428571D01*
X92431009Y-118428571D02*
X92431009Y-118761904D01*
X91954819Y-117761904D02*
X92764342Y-117761904D01*
X92764342Y-117761904D02*
X92859580Y-117714285D01*
X92859580Y-117714285D02*
X92907200Y-117666666D01*
X92907200Y-117666666D02*
X92954819Y-117571428D01*
X92954819Y-117571428D02*
X92954819Y-117380952D01*
X92954819Y-117380952D02*
X92907200Y-117285714D01*
X92907200Y-117285714D02*
X92859580Y-117238095D01*
X92859580Y-117238095D02*
X92764342Y-117190476D01*
X92764342Y-117190476D02*
X91954819Y-117190476D01*
X92907200Y-116761904D02*
X92954819Y-116619047D01*
X92954819Y-116619047D02*
X92954819Y-116380952D01*
X92954819Y-116380952D02*
X92907200Y-116285714D01*
X92907200Y-116285714D02*
X92859580Y-116238095D01*
X92859580Y-116238095D02*
X92764342Y-116190476D01*
X92764342Y-116190476D02*
X92669104Y-116190476D01*
X92669104Y-116190476D02*
X92573866Y-116238095D01*
X92573866Y-116238095D02*
X92526247Y-116285714D01*
X92526247Y-116285714D02*
X92478628Y-116380952D01*
X92478628Y-116380952D02*
X92431009Y-116571428D01*
X92431009Y-116571428D02*
X92383390Y-116666666D01*
X92383390Y-116666666D02*
X92335771Y-116714285D01*
X92335771Y-116714285D02*
X92240533Y-116761904D01*
X92240533Y-116761904D02*
X92145295Y-116761904D01*
X92145295Y-116761904D02*
X92050057Y-116714285D01*
X92050057Y-116714285D02*
X92002438Y-116666666D01*
X92002438Y-116666666D02*
X91954819Y-116571428D01*
X91954819Y-116571428D02*
X91954819Y-116333333D01*
X91954819Y-116333333D02*
X92002438Y-116190476D01*
X96954819Y-118738094D02*
X96954819Y-118119047D01*
X96954819Y-118119047D02*
X97335771Y-118452380D01*
X97335771Y-118452380D02*
X97335771Y-118309523D01*
X97335771Y-118309523D02*
X97383390Y-118214285D01*
X97383390Y-118214285D02*
X97431009Y-118166666D01*
X97431009Y-118166666D02*
X97526247Y-118119047D01*
X97526247Y-118119047D02*
X97764342Y-118119047D01*
X97764342Y-118119047D02*
X97859580Y-118166666D01*
X97859580Y-118166666D02*
X97907200Y-118214285D01*
X97907200Y-118214285D02*
X97954819Y-118309523D01*
X97954819Y-118309523D02*
X97954819Y-118595237D01*
X97954819Y-118595237D02*
X97907200Y-118690475D01*
X97907200Y-118690475D02*
X97859580Y-118738094D01*
X96954819Y-117833332D02*
X97954819Y-117499999D01*
X97954819Y-117499999D02*
X96954819Y-117166666D01*
X96954819Y-116928570D02*
X96954819Y-116309523D01*
X96954819Y-116309523D02*
X97335771Y-116642856D01*
X97335771Y-116642856D02*
X97335771Y-116499999D01*
X97335771Y-116499999D02*
X97383390Y-116404761D01*
X97383390Y-116404761D02*
X97431009Y-116357142D01*
X97431009Y-116357142D02*
X97526247Y-116309523D01*
X97526247Y-116309523D02*
X97764342Y-116309523D01*
X97764342Y-116309523D02*
X97859580Y-116357142D01*
X97859580Y-116357142D02*
X97907200Y-116404761D01*
X97907200Y-116404761D02*
X97954819Y-116499999D01*
X97954819Y-116499999D02*
X97954819Y-116785713D01*
X97954819Y-116785713D02*
X97907200Y-116880951D01*
X97907200Y-116880951D02*
X97859580Y-116928570D01*
X69502438Y-118261904D02*
X69454819Y-118357142D01*
X69454819Y-118357142D02*
X69454819Y-118499999D01*
X69454819Y-118499999D02*
X69502438Y-118642856D01*
X69502438Y-118642856D02*
X69597676Y-118738094D01*
X69597676Y-118738094D02*
X69692914Y-118785713D01*
X69692914Y-118785713D02*
X69883390Y-118833332D01*
X69883390Y-118833332D02*
X70026247Y-118833332D01*
X70026247Y-118833332D02*
X70216723Y-118785713D01*
X70216723Y-118785713D02*
X70311961Y-118738094D01*
X70311961Y-118738094D02*
X70407200Y-118642856D01*
X70407200Y-118642856D02*
X70454819Y-118499999D01*
X70454819Y-118499999D02*
X70454819Y-118404761D01*
X70454819Y-118404761D02*
X70407200Y-118261904D01*
X70407200Y-118261904D02*
X70359580Y-118214285D01*
X70359580Y-118214285D02*
X70026247Y-118214285D01*
X70026247Y-118214285D02*
X70026247Y-118404761D01*
X70454819Y-117785713D02*
X69454819Y-117785713D01*
X69454819Y-117785713D02*
X70454819Y-117214285D01*
X70454819Y-117214285D02*
X69454819Y-117214285D01*
X70454819Y-116738094D02*
X69454819Y-116738094D01*
X69454819Y-116738094D02*
X69454819Y-116499999D01*
X69454819Y-116499999D02*
X69502438Y-116357142D01*
X69502438Y-116357142D02*
X69597676Y-116261904D01*
X69597676Y-116261904D02*
X69692914Y-116214285D01*
X69692914Y-116214285D02*
X69883390Y-116166666D01*
X69883390Y-116166666D02*
X70026247Y-116166666D01*
X70026247Y-116166666D02*
X70216723Y-116214285D01*
X70216723Y-116214285D02*
X70311961Y-116261904D01*
X70311961Y-116261904D02*
X70407200Y-116357142D01*
X70407200Y-116357142D02*
X70454819Y-116499999D01*
X70454819Y-116499999D02*
X70454819Y-116738094D01*
X70928571Y-113954819D02*
X70357143Y-113954819D01*
X70642857Y-113954819D02*
X70642857Y-112954819D01*
X70642857Y-112954819D02*
X70547619Y-113097676D01*
X70547619Y-113097676D02*
X70452381Y-113192914D01*
X70452381Y-113192914D02*
X70357143Y-113240533D01*
X71261905Y-112954819D02*
X71500000Y-113954819D01*
X71500000Y-113954819D02*
X71690476Y-113240533D01*
X71690476Y-113240533D02*
X71880952Y-113954819D01*
X71880952Y-113954819D02*
X72119048Y-112954819D01*
X72500000Y-113954819D02*
X72500000Y-112954819D01*
X73547618Y-113954819D02*
X73214285Y-113478628D01*
X72976190Y-113954819D02*
X72976190Y-112954819D01*
X72976190Y-112954819D02*
X73357142Y-112954819D01*
X73357142Y-112954819D02*
X73452380Y-113002438D01*
X73452380Y-113002438D02*
X73499999Y-113050057D01*
X73499999Y-113050057D02*
X73547618Y-113145295D01*
X73547618Y-113145295D02*
X73547618Y-113288152D01*
X73547618Y-113288152D02*
X73499999Y-113383390D01*
X73499999Y-113383390D02*
X73452380Y-113431009D01*
X73452380Y-113431009D02*
X73357142Y-113478628D01*
X73357142Y-113478628D02*
X72976190Y-113478628D01*
X73976190Y-113431009D02*
X74309523Y-113431009D01*
X74452380Y-113954819D02*
X73976190Y-113954819D01*
X73976190Y-113954819D02*
X73976190Y-112954819D01*
X73976190Y-112954819D02*
X74452380Y-112954819D01*
X74880952Y-113573866D02*
X75642857Y-113573866D01*
X76452380Y-113431009D02*
X76595237Y-113478628D01*
X76595237Y-113478628D02*
X76642856Y-113526247D01*
X76642856Y-113526247D02*
X76690475Y-113621485D01*
X76690475Y-113621485D02*
X76690475Y-113764342D01*
X76690475Y-113764342D02*
X76642856Y-113859580D01*
X76642856Y-113859580D02*
X76595237Y-113907200D01*
X76595237Y-113907200D02*
X76499999Y-113954819D01*
X76499999Y-113954819D02*
X76119047Y-113954819D01*
X76119047Y-113954819D02*
X76119047Y-112954819D01*
X76119047Y-112954819D02*
X76452380Y-112954819D01*
X76452380Y-112954819D02*
X76547618Y-113002438D01*
X76547618Y-113002438D02*
X76595237Y-113050057D01*
X76595237Y-113050057D02*
X76642856Y-113145295D01*
X76642856Y-113145295D02*
X76642856Y-113240533D01*
X76642856Y-113240533D02*
X76595237Y-113335771D01*
X76595237Y-113335771D02*
X76547618Y-113383390D01*
X76547618Y-113383390D02*
X76452380Y-113431009D01*
X76452380Y-113431009D02*
X76119047Y-113431009D01*
X77119047Y-112954819D02*
X77119047Y-113764342D01*
X77119047Y-113764342D02*
X77166666Y-113859580D01*
X77166666Y-113859580D02*
X77214285Y-113907200D01*
X77214285Y-113907200D02*
X77309523Y-113954819D01*
X77309523Y-113954819D02*
X77499999Y-113954819D01*
X77499999Y-113954819D02*
X77595237Y-113907200D01*
X77595237Y-113907200D02*
X77642856Y-113859580D01*
X77642856Y-113859580D02*
X77690475Y-113764342D01*
X77690475Y-113764342D02*
X77690475Y-112954819D01*
X78119047Y-113907200D02*
X78261904Y-113954819D01*
X78261904Y-113954819D02*
X78499999Y-113954819D01*
X78499999Y-113954819D02*
X78595237Y-113907200D01*
X78595237Y-113907200D02*
X78642856Y-113859580D01*
X78642856Y-113859580D02*
X78690475Y-113764342D01*
X78690475Y-113764342D02*
X78690475Y-113669104D01*
X78690475Y-113669104D02*
X78642856Y-113573866D01*
X78642856Y-113573866D02*
X78595237Y-113526247D01*
X78595237Y-113526247D02*
X78499999Y-113478628D01*
X78499999Y-113478628D02*
X78309523Y-113431009D01*
X78309523Y-113431009D02*
X78214285Y-113383390D01*
X78214285Y-113383390D02*
X78166666Y-113335771D01*
X78166666Y-113335771D02*
X78119047Y-113240533D01*
X78119047Y-113240533D02*
X78119047Y-113145295D01*
X78119047Y-113145295D02*
X78166666Y-113050057D01*
X78166666Y-113050057D02*
X78214285Y-113002438D01*
X78214285Y-113002438D02*
X78309523Y-112954819D01*
X78309523Y-112954819D02*
X78547618Y-112954819D01*
X78547618Y-112954819D02*
X78690475Y-113002438D01*
X79642856Y-113954819D02*
X79071428Y-113954819D01*
X79357142Y-113954819D02*
X79357142Y-112954819D01*
X79357142Y-112954819D02*
X79261904Y-113097676D01*
X79261904Y-113097676D02*
X79166666Y-113192914D01*
X79166666Y-113192914D02*
X79071428Y-113240533D01*
X74931009Y-118428571D02*
X74978628Y-118285714D01*
X74978628Y-118285714D02*
X75026247Y-118238095D01*
X75026247Y-118238095D02*
X75121485Y-118190476D01*
X75121485Y-118190476D02*
X75264342Y-118190476D01*
X75264342Y-118190476D02*
X75359580Y-118238095D01*
X75359580Y-118238095D02*
X75407200Y-118285714D01*
X75407200Y-118285714D02*
X75454819Y-118380952D01*
X75454819Y-118380952D02*
X75454819Y-118761904D01*
X75454819Y-118761904D02*
X74454819Y-118761904D01*
X74454819Y-118761904D02*
X74454819Y-118428571D01*
X74454819Y-118428571D02*
X74502438Y-118333333D01*
X74502438Y-118333333D02*
X74550057Y-118285714D01*
X74550057Y-118285714D02*
X74645295Y-118238095D01*
X74645295Y-118238095D02*
X74740533Y-118238095D01*
X74740533Y-118238095D02*
X74835771Y-118285714D01*
X74835771Y-118285714D02*
X74883390Y-118333333D01*
X74883390Y-118333333D02*
X74931009Y-118428571D01*
X74931009Y-118428571D02*
X74931009Y-118761904D01*
X74454819Y-117761904D02*
X75264342Y-117761904D01*
X75264342Y-117761904D02*
X75359580Y-117714285D01*
X75359580Y-117714285D02*
X75407200Y-117666666D01*
X75407200Y-117666666D02*
X75454819Y-117571428D01*
X75454819Y-117571428D02*
X75454819Y-117380952D01*
X75454819Y-117380952D02*
X75407200Y-117285714D01*
X75407200Y-117285714D02*
X75359580Y-117238095D01*
X75359580Y-117238095D02*
X75264342Y-117190476D01*
X75264342Y-117190476D02*
X74454819Y-117190476D01*
X75407200Y-116761904D02*
X75454819Y-116619047D01*
X75454819Y-116619047D02*
X75454819Y-116380952D01*
X75454819Y-116380952D02*
X75407200Y-116285714D01*
X75407200Y-116285714D02*
X75359580Y-116238095D01*
X75359580Y-116238095D02*
X75264342Y-116190476D01*
X75264342Y-116190476D02*
X75169104Y-116190476D01*
X75169104Y-116190476D02*
X75073866Y-116238095D01*
X75073866Y-116238095D02*
X75026247Y-116285714D01*
X75026247Y-116285714D02*
X74978628Y-116380952D01*
X74978628Y-116380952D02*
X74931009Y-116571428D01*
X74931009Y-116571428D02*
X74883390Y-116666666D01*
X74883390Y-116666666D02*
X74835771Y-116714285D01*
X74835771Y-116714285D02*
X74740533Y-116761904D01*
X74740533Y-116761904D02*
X74645295Y-116761904D01*
X74645295Y-116761904D02*
X74550057Y-116714285D01*
X74550057Y-116714285D02*
X74502438Y-116666666D01*
X74502438Y-116666666D02*
X74454819Y-116571428D01*
X74454819Y-116571428D02*
X74454819Y-116333333D01*
X74454819Y-116333333D02*
X74502438Y-116190476D01*
X109785714Y-113954819D02*
X109785714Y-112954819D01*
X110214285Y-113050057D02*
X110261904Y-113002438D01*
X110261904Y-113002438D02*
X110357142Y-112954819D01*
X110357142Y-112954819D02*
X110595237Y-112954819D01*
X110595237Y-112954819D02*
X110690475Y-113002438D01*
X110690475Y-113002438D02*
X110738094Y-113050057D01*
X110738094Y-113050057D02*
X110785713Y-113145295D01*
X110785713Y-113145295D02*
X110785713Y-113240533D01*
X110785713Y-113240533D02*
X110738094Y-113383390D01*
X110738094Y-113383390D02*
X110166666Y-113954819D01*
X110166666Y-113954819D02*
X110785713Y-113954819D01*
X111785713Y-113859580D02*
X111738094Y-113907200D01*
X111738094Y-113907200D02*
X111595237Y-113954819D01*
X111595237Y-113954819D02*
X111499999Y-113954819D01*
X111499999Y-113954819D02*
X111357142Y-113907200D01*
X111357142Y-113907200D02*
X111261904Y-113811961D01*
X111261904Y-113811961D02*
X111214285Y-113716723D01*
X111214285Y-113716723D02*
X111166666Y-113526247D01*
X111166666Y-113526247D02*
X111166666Y-113383390D01*
X111166666Y-113383390D02*
X111214285Y-113192914D01*
X111214285Y-113192914D02*
X111261904Y-113097676D01*
X111261904Y-113097676D02*
X111357142Y-113002438D01*
X111357142Y-113002438D02*
X111499999Y-112954819D01*
X111499999Y-112954819D02*
X111595237Y-112954819D01*
X111595237Y-112954819D02*
X111738094Y-113002438D01*
X111738094Y-113002438D02*
X111785713Y-113050057D01*
X113309523Y-113431009D02*
X113452380Y-113478628D01*
X113452380Y-113478628D02*
X113499999Y-113526247D01*
X113499999Y-113526247D02*
X113547618Y-113621485D01*
X113547618Y-113621485D02*
X113547618Y-113764342D01*
X113547618Y-113764342D02*
X113499999Y-113859580D01*
X113499999Y-113859580D02*
X113452380Y-113907200D01*
X113452380Y-113907200D02*
X113357142Y-113954819D01*
X113357142Y-113954819D02*
X112976190Y-113954819D01*
X112976190Y-113954819D02*
X112976190Y-112954819D01*
X112976190Y-112954819D02*
X113309523Y-112954819D01*
X113309523Y-112954819D02*
X113404761Y-113002438D01*
X113404761Y-113002438D02*
X113452380Y-113050057D01*
X113452380Y-113050057D02*
X113499999Y-113145295D01*
X113499999Y-113145295D02*
X113499999Y-113240533D01*
X113499999Y-113240533D02*
X113452380Y-113335771D01*
X113452380Y-113335771D02*
X113404761Y-113383390D01*
X113404761Y-113383390D02*
X113309523Y-113431009D01*
X113309523Y-113431009D02*
X112976190Y-113431009D01*
X114404761Y-113288152D02*
X114404761Y-113954819D01*
X113976190Y-113288152D02*
X113976190Y-113811961D01*
X113976190Y-113811961D02*
X114023809Y-113907200D01*
X114023809Y-113907200D02*
X114119047Y-113954819D01*
X114119047Y-113954819D02*
X114261904Y-113954819D01*
X114261904Y-113954819D02*
X114357142Y-113907200D01*
X114357142Y-113907200D02*
X114404761Y-113859580D01*
X114833333Y-113907200D02*
X114928571Y-113954819D01*
X114928571Y-113954819D02*
X115119047Y-113954819D01*
X115119047Y-113954819D02*
X115214285Y-113907200D01*
X115214285Y-113907200D02*
X115261904Y-113811961D01*
X115261904Y-113811961D02*
X115261904Y-113764342D01*
X115261904Y-113764342D02*
X115214285Y-113669104D01*
X115214285Y-113669104D02*
X115119047Y-113621485D01*
X115119047Y-113621485D02*
X114976190Y-113621485D01*
X114976190Y-113621485D02*
X114880952Y-113573866D01*
X114880952Y-113573866D02*
X114833333Y-113478628D01*
X114833333Y-113478628D02*
X114833333Y-113431009D01*
X114833333Y-113431009D02*
X114880952Y-113335771D01*
X114880952Y-113335771D02*
X114976190Y-113288152D01*
X114976190Y-113288152D02*
X115119047Y-113288152D01*
X115119047Y-113288152D02*
X115214285Y-113335771D01*
X104502438Y-118261904D02*
X104454819Y-118357142D01*
X104454819Y-118357142D02*
X104454819Y-118499999D01*
X104454819Y-118499999D02*
X104502438Y-118642856D01*
X104502438Y-118642856D02*
X104597676Y-118738094D01*
X104597676Y-118738094D02*
X104692914Y-118785713D01*
X104692914Y-118785713D02*
X104883390Y-118833332D01*
X104883390Y-118833332D02*
X105026247Y-118833332D01*
X105026247Y-118833332D02*
X105216723Y-118785713D01*
X105216723Y-118785713D02*
X105311961Y-118738094D01*
X105311961Y-118738094D02*
X105407200Y-118642856D01*
X105407200Y-118642856D02*
X105454819Y-118499999D01*
X105454819Y-118499999D02*
X105454819Y-118404761D01*
X105454819Y-118404761D02*
X105407200Y-118261904D01*
X105407200Y-118261904D02*
X105359580Y-118214285D01*
X105359580Y-118214285D02*
X105026247Y-118214285D01*
X105026247Y-118214285D02*
X105026247Y-118404761D01*
X105454819Y-117785713D02*
X104454819Y-117785713D01*
X104454819Y-117785713D02*
X105454819Y-117214285D01*
X105454819Y-117214285D02*
X104454819Y-117214285D01*
X105454819Y-116738094D02*
X104454819Y-116738094D01*
X104454819Y-116738094D02*
X104454819Y-116499999D01*
X104454819Y-116499999D02*
X104502438Y-116357142D01*
X104502438Y-116357142D02*
X104597676Y-116261904D01*
X104597676Y-116261904D02*
X104692914Y-116214285D01*
X104692914Y-116214285D02*
X104883390Y-116166666D01*
X104883390Y-116166666D02*
X105026247Y-116166666D01*
X105026247Y-116166666D02*
X105216723Y-116214285D01*
X105216723Y-116214285D02*
X105311961Y-116261904D01*
X105311961Y-116261904D02*
X105407200Y-116357142D01*
X105407200Y-116357142D02*
X105454819Y-116499999D01*
X105454819Y-116499999D02*
X105454819Y-116738094D01*
X87002438Y-118261904D02*
X86954819Y-118357142D01*
X86954819Y-118357142D02*
X86954819Y-118499999D01*
X86954819Y-118499999D02*
X87002438Y-118642856D01*
X87002438Y-118642856D02*
X87097676Y-118738094D01*
X87097676Y-118738094D02*
X87192914Y-118785713D01*
X87192914Y-118785713D02*
X87383390Y-118833332D01*
X87383390Y-118833332D02*
X87526247Y-118833332D01*
X87526247Y-118833332D02*
X87716723Y-118785713D01*
X87716723Y-118785713D02*
X87811961Y-118738094D01*
X87811961Y-118738094D02*
X87907200Y-118642856D01*
X87907200Y-118642856D02*
X87954819Y-118499999D01*
X87954819Y-118499999D02*
X87954819Y-118404761D01*
X87954819Y-118404761D02*
X87907200Y-118261904D01*
X87907200Y-118261904D02*
X87859580Y-118214285D01*
X87859580Y-118214285D02*
X87526247Y-118214285D01*
X87526247Y-118214285D02*
X87526247Y-118404761D01*
X87954819Y-117785713D02*
X86954819Y-117785713D01*
X86954819Y-117785713D02*
X87954819Y-117214285D01*
X87954819Y-117214285D02*
X86954819Y-117214285D01*
X87954819Y-116738094D02*
X86954819Y-116738094D01*
X86954819Y-116738094D02*
X86954819Y-116499999D01*
X86954819Y-116499999D02*
X87002438Y-116357142D01*
X87002438Y-116357142D02*
X87097676Y-116261904D01*
X87097676Y-116261904D02*
X87192914Y-116214285D01*
X87192914Y-116214285D02*
X87383390Y-116166666D01*
X87383390Y-116166666D02*
X87526247Y-116166666D01*
X87526247Y-116166666D02*
X87716723Y-116214285D01*
X87716723Y-116214285D02*
X87811961Y-116261904D01*
X87811961Y-116261904D02*
X87907200Y-116357142D01*
X87907200Y-116357142D02*
X87954819Y-116499999D01*
X87954819Y-116499999D02*
X87954819Y-116738094D01*
X66857142Y-65084819D02*
X66523809Y-64608628D01*
X66285714Y-65084819D02*
X66285714Y-64084819D01*
X66285714Y-64084819D02*
X66666666Y-64084819D01*
X66666666Y-64084819D02*
X66761904Y-64132438D01*
X66761904Y-64132438D02*
X66809523Y-64180057D01*
X66809523Y-64180057D02*
X66857142Y-64275295D01*
X66857142Y-64275295D02*
X66857142Y-64418152D01*
X66857142Y-64418152D02*
X66809523Y-64513390D01*
X66809523Y-64513390D02*
X66761904Y-64561009D01*
X66761904Y-64561009D02*
X66666666Y-64608628D01*
X66666666Y-64608628D02*
X66285714Y-64608628D01*
X67809523Y-65084819D02*
X67238095Y-65084819D01*
X67523809Y-65084819D02*
X67523809Y-64084819D01*
X67523809Y-64084819D02*
X67428571Y-64227676D01*
X67428571Y-64227676D02*
X67333333Y-64322914D01*
X67333333Y-64322914D02*
X67238095Y-64370533D01*
X68761904Y-65084819D02*
X68190476Y-65084819D01*
X68476190Y-65084819D02*
X68476190Y-64084819D01*
X68476190Y-64084819D02*
X68380952Y-64227676D01*
X68380952Y-64227676D02*
X68285714Y-64322914D01*
X68285714Y-64322914D02*
X68190476Y-64370533D01*
X53333333Y-60084819D02*
X53000000Y-59608628D01*
X52761905Y-60084819D02*
X52761905Y-59084819D01*
X52761905Y-59084819D02*
X53142857Y-59084819D01*
X53142857Y-59084819D02*
X53238095Y-59132438D01*
X53238095Y-59132438D02*
X53285714Y-59180057D01*
X53285714Y-59180057D02*
X53333333Y-59275295D01*
X53333333Y-59275295D02*
X53333333Y-59418152D01*
X53333333Y-59418152D02*
X53285714Y-59513390D01*
X53285714Y-59513390D02*
X53238095Y-59561009D01*
X53238095Y-59561009D02*
X53142857Y-59608628D01*
X53142857Y-59608628D02*
X52761905Y-59608628D01*
X54190476Y-59084819D02*
X54000000Y-59084819D01*
X54000000Y-59084819D02*
X53904762Y-59132438D01*
X53904762Y-59132438D02*
X53857143Y-59180057D01*
X53857143Y-59180057D02*
X53761905Y-59322914D01*
X53761905Y-59322914D02*
X53714286Y-59513390D01*
X53714286Y-59513390D02*
X53714286Y-59894342D01*
X53714286Y-59894342D02*
X53761905Y-59989580D01*
X53761905Y-59989580D02*
X53809524Y-60037200D01*
X53809524Y-60037200D02*
X53904762Y-60084819D01*
X53904762Y-60084819D02*
X54095238Y-60084819D01*
X54095238Y-60084819D02*
X54190476Y-60037200D01*
X54190476Y-60037200D02*
X54238095Y-59989580D01*
X54238095Y-59989580D02*
X54285714Y-59894342D01*
X54285714Y-59894342D02*
X54285714Y-59656247D01*
X54285714Y-59656247D02*
X54238095Y-59561009D01*
X54238095Y-59561009D02*
X54190476Y-59513390D01*
X54190476Y-59513390D02*
X54095238Y-59465771D01*
X54095238Y-59465771D02*
X53904762Y-59465771D01*
X53904762Y-59465771D02*
X53809524Y-59513390D01*
X53809524Y-59513390D02*
X53761905Y-59561009D01*
X53761905Y-59561009D02*
X53714286Y-59656247D01*
X51236033Y-98609580D02*
X51188414Y-98657200D01*
X51188414Y-98657200D02*
X51045557Y-98704819D01*
X51045557Y-98704819D02*
X50950319Y-98704819D01*
X50950319Y-98704819D02*
X50807462Y-98657200D01*
X50807462Y-98657200D02*
X50712224Y-98561961D01*
X50712224Y-98561961D02*
X50664605Y-98466723D01*
X50664605Y-98466723D02*
X50616986Y-98276247D01*
X50616986Y-98276247D02*
X50616986Y-98133390D01*
X50616986Y-98133390D02*
X50664605Y-97942914D01*
X50664605Y-97942914D02*
X50712224Y-97847676D01*
X50712224Y-97847676D02*
X50807462Y-97752438D01*
X50807462Y-97752438D02*
X50950319Y-97704819D01*
X50950319Y-97704819D02*
X51045557Y-97704819D01*
X51045557Y-97704819D02*
X51188414Y-97752438D01*
X51188414Y-97752438D02*
X51236033Y-97800057D01*
X52188414Y-98704819D02*
X51616986Y-98704819D01*
X51902700Y-98704819D02*
X51902700Y-97704819D01*
X51902700Y-97704819D02*
X51807462Y-97847676D01*
X51807462Y-97847676D02*
X51712224Y-97942914D01*
X51712224Y-97942914D02*
X51616986Y-97990533D01*
X71333333Y-86359580D02*
X71285714Y-86407200D01*
X71285714Y-86407200D02*
X71142857Y-86454819D01*
X71142857Y-86454819D02*
X71047619Y-86454819D01*
X71047619Y-86454819D02*
X70904762Y-86407200D01*
X70904762Y-86407200D02*
X70809524Y-86311961D01*
X70809524Y-86311961D02*
X70761905Y-86216723D01*
X70761905Y-86216723D02*
X70714286Y-86026247D01*
X70714286Y-86026247D02*
X70714286Y-85883390D01*
X70714286Y-85883390D02*
X70761905Y-85692914D01*
X70761905Y-85692914D02*
X70809524Y-85597676D01*
X70809524Y-85597676D02*
X70904762Y-85502438D01*
X70904762Y-85502438D02*
X71047619Y-85454819D01*
X71047619Y-85454819D02*
X71142857Y-85454819D01*
X71142857Y-85454819D02*
X71285714Y-85502438D01*
X71285714Y-85502438D02*
X71333333Y-85550057D01*
X71666667Y-85454819D02*
X72285714Y-85454819D01*
X72285714Y-85454819D02*
X71952381Y-85835771D01*
X71952381Y-85835771D02*
X72095238Y-85835771D01*
X72095238Y-85835771D02*
X72190476Y-85883390D01*
X72190476Y-85883390D02*
X72238095Y-85931009D01*
X72238095Y-85931009D02*
X72285714Y-86026247D01*
X72285714Y-86026247D02*
X72285714Y-86264342D01*
X72285714Y-86264342D02*
X72238095Y-86359580D01*
X72238095Y-86359580D02*
X72190476Y-86407200D01*
X72190476Y-86407200D02*
X72095238Y-86454819D01*
X72095238Y-86454819D02*
X71809524Y-86454819D01*
X71809524Y-86454819D02*
X71714286Y-86407200D01*
X71714286Y-86407200D02*
X71666667Y-86359580D01*
X122333333Y-64584819D02*
X122000000Y-64108628D01*
X121761905Y-64584819D02*
X121761905Y-63584819D01*
X121761905Y-63584819D02*
X122142857Y-63584819D01*
X122142857Y-63584819D02*
X122238095Y-63632438D01*
X122238095Y-63632438D02*
X122285714Y-63680057D01*
X122285714Y-63680057D02*
X122333333Y-63775295D01*
X122333333Y-63775295D02*
X122333333Y-63918152D01*
X122333333Y-63918152D02*
X122285714Y-64013390D01*
X122285714Y-64013390D02*
X122238095Y-64061009D01*
X122238095Y-64061009D02*
X122142857Y-64108628D01*
X122142857Y-64108628D02*
X121761905Y-64108628D01*
X122809524Y-64584819D02*
X123000000Y-64584819D01*
X123000000Y-64584819D02*
X123095238Y-64537200D01*
X123095238Y-64537200D02*
X123142857Y-64489580D01*
X123142857Y-64489580D02*
X123238095Y-64346723D01*
X123238095Y-64346723D02*
X123285714Y-64156247D01*
X123285714Y-64156247D02*
X123285714Y-63775295D01*
X123285714Y-63775295D02*
X123238095Y-63680057D01*
X123238095Y-63680057D02*
X123190476Y-63632438D01*
X123190476Y-63632438D02*
X123095238Y-63584819D01*
X123095238Y-63584819D02*
X122904762Y-63584819D01*
X122904762Y-63584819D02*
X122809524Y-63632438D01*
X122809524Y-63632438D02*
X122761905Y-63680057D01*
X122761905Y-63680057D02*
X122714286Y-63775295D01*
X122714286Y-63775295D02*
X122714286Y-64013390D01*
X122714286Y-64013390D02*
X122761905Y-64108628D01*
X122761905Y-64108628D02*
X122809524Y-64156247D01*
X122809524Y-64156247D02*
X122904762Y-64203866D01*
X122904762Y-64203866D02*
X123095238Y-64203866D01*
X123095238Y-64203866D02*
X123190476Y-64156247D01*
X123190476Y-64156247D02*
X123238095Y-64108628D01*
X123238095Y-64108628D02*
X123285714Y-64013390D01*
X52488095Y-84954819D02*
X52488095Y-85764342D01*
X52488095Y-85764342D02*
X52535714Y-85859580D01*
X52535714Y-85859580D02*
X52583333Y-85907200D01*
X52583333Y-85907200D02*
X52678571Y-85954819D01*
X52678571Y-85954819D02*
X52869047Y-85954819D01*
X52869047Y-85954819D02*
X52964285Y-85907200D01*
X52964285Y-85907200D02*
X53011904Y-85859580D01*
X53011904Y-85859580D02*
X53059523Y-85764342D01*
X53059523Y-85764342D02*
X53059523Y-84954819D01*
X54059523Y-85954819D02*
X53488095Y-85954819D01*
X53773809Y-85954819D02*
X53773809Y-84954819D01*
X53773809Y-84954819D02*
X53678571Y-85097676D01*
X53678571Y-85097676D02*
X53583333Y-85192914D01*
X53583333Y-85192914D02*
X53488095Y-85240533D01*
X68333333Y-80584819D02*
X68000000Y-80108628D01*
X67761905Y-80584819D02*
X67761905Y-79584819D01*
X67761905Y-79584819D02*
X68142857Y-79584819D01*
X68142857Y-79584819D02*
X68238095Y-79632438D01*
X68238095Y-79632438D02*
X68285714Y-79680057D01*
X68285714Y-79680057D02*
X68333333Y-79775295D01*
X68333333Y-79775295D02*
X68333333Y-79918152D01*
X68333333Y-79918152D02*
X68285714Y-80013390D01*
X68285714Y-80013390D02*
X68238095Y-80061009D01*
X68238095Y-80061009D02*
X68142857Y-80108628D01*
X68142857Y-80108628D02*
X67761905Y-80108628D01*
X68714286Y-79680057D02*
X68761905Y-79632438D01*
X68761905Y-79632438D02*
X68857143Y-79584819D01*
X68857143Y-79584819D02*
X69095238Y-79584819D01*
X69095238Y-79584819D02*
X69190476Y-79632438D01*
X69190476Y-79632438D02*
X69238095Y-79680057D01*
X69238095Y-79680057D02*
X69285714Y-79775295D01*
X69285714Y-79775295D02*
X69285714Y-79870533D01*
X69285714Y-79870533D02*
X69238095Y-80013390D01*
X69238095Y-80013390D02*
X68666667Y-80584819D01*
X68666667Y-80584819D02*
X69285714Y-80584819D01*
X71333333Y-92859580D02*
X71285714Y-92907200D01*
X71285714Y-92907200D02*
X71142857Y-92954819D01*
X71142857Y-92954819D02*
X71047619Y-92954819D01*
X71047619Y-92954819D02*
X70904762Y-92907200D01*
X70904762Y-92907200D02*
X70809524Y-92811961D01*
X70809524Y-92811961D02*
X70761905Y-92716723D01*
X70761905Y-92716723D02*
X70714286Y-92526247D01*
X70714286Y-92526247D02*
X70714286Y-92383390D01*
X70714286Y-92383390D02*
X70761905Y-92192914D01*
X70761905Y-92192914D02*
X70809524Y-92097676D01*
X70809524Y-92097676D02*
X70904762Y-92002438D01*
X70904762Y-92002438D02*
X71047619Y-91954819D01*
X71047619Y-91954819D02*
X71142857Y-91954819D01*
X71142857Y-91954819D02*
X71285714Y-92002438D01*
X71285714Y-92002438D02*
X71333333Y-92050057D01*
X71714286Y-92050057D02*
X71761905Y-92002438D01*
X71761905Y-92002438D02*
X71857143Y-91954819D01*
X71857143Y-91954819D02*
X72095238Y-91954819D01*
X72095238Y-91954819D02*
X72190476Y-92002438D01*
X72190476Y-92002438D02*
X72238095Y-92050057D01*
X72238095Y-92050057D02*
X72285714Y-92145295D01*
X72285714Y-92145295D02*
X72285714Y-92240533D01*
X72285714Y-92240533D02*
X72238095Y-92383390D01*
X72238095Y-92383390D02*
X71666667Y-92954819D01*
X71666667Y-92954819D02*
X72285714Y-92954819D01*
X121857142Y-69084819D02*
X121523809Y-68608628D01*
X121285714Y-69084819D02*
X121285714Y-68084819D01*
X121285714Y-68084819D02*
X121666666Y-68084819D01*
X121666666Y-68084819D02*
X121761904Y-68132438D01*
X121761904Y-68132438D02*
X121809523Y-68180057D01*
X121809523Y-68180057D02*
X121857142Y-68275295D01*
X121857142Y-68275295D02*
X121857142Y-68418152D01*
X121857142Y-68418152D02*
X121809523Y-68513390D01*
X121809523Y-68513390D02*
X121761904Y-68561009D01*
X121761904Y-68561009D02*
X121666666Y-68608628D01*
X121666666Y-68608628D02*
X121285714Y-68608628D01*
X122809523Y-69084819D02*
X122238095Y-69084819D01*
X122523809Y-69084819D02*
X122523809Y-68084819D01*
X122523809Y-68084819D02*
X122428571Y-68227676D01*
X122428571Y-68227676D02*
X122333333Y-68322914D01*
X122333333Y-68322914D02*
X122238095Y-68370533D01*
X123142857Y-68084819D02*
X123761904Y-68084819D01*
X123761904Y-68084819D02*
X123428571Y-68465771D01*
X123428571Y-68465771D02*
X123571428Y-68465771D01*
X123571428Y-68465771D02*
X123666666Y-68513390D01*
X123666666Y-68513390D02*
X123714285Y-68561009D01*
X123714285Y-68561009D02*
X123761904Y-68656247D01*
X123761904Y-68656247D02*
X123761904Y-68894342D01*
X123761904Y-68894342D02*
X123714285Y-68989580D01*
X123714285Y-68989580D02*
X123666666Y-69037200D01*
X123666666Y-69037200D02*
X123571428Y-69084819D01*
X123571428Y-69084819D02*
X123285714Y-69084819D01*
X123285714Y-69084819D02*
X123190476Y-69037200D01*
X123190476Y-69037200D02*
X123142857Y-68989580D01*
X63084819Y-92666666D02*
X62608628Y-92999999D01*
X63084819Y-93238094D02*
X62084819Y-93238094D01*
X62084819Y-93238094D02*
X62084819Y-92857142D01*
X62084819Y-92857142D02*
X62132438Y-92761904D01*
X62132438Y-92761904D02*
X62180057Y-92714285D01*
X62180057Y-92714285D02*
X62275295Y-92666666D01*
X62275295Y-92666666D02*
X62418152Y-92666666D01*
X62418152Y-92666666D02*
X62513390Y-92714285D01*
X62513390Y-92714285D02*
X62561009Y-92761904D01*
X62561009Y-92761904D02*
X62608628Y-92857142D01*
X62608628Y-92857142D02*
X62608628Y-93238094D01*
X63084819Y-91714285D02*
X63084819Y-92285713D01*
X63084819Y-91999999D02*
X62084819Y-91999999D01*
X62084819Y-91999999D02*
X62227676Y-92095237D01*
X62227676Y-92095237D02*
X62322914Y-92190475D01*
X62322914Y-92190475D02*
X62370533Y-92285713D01*
X108833333Y-64584819D02*
X108500000Y-64108628D01*
X108261905Y-64584819D02*
X108261905Y-63584819D01*
X108261905Y-63584819D02*
X108642857Y-63584819D01*
X108642857Y-63584819D02*
X108738095Y-63632438D01*
X108738095Y-63632438D02*
X108785714Y-63680057D01*
X108785714Y-63680057D02*
X108833333Y-63775295D01*
X108833333Y-63775295D02*
X108833333Y-63918152D01*
X108833333Y-63918152D02*
X108785714Y-64013390D01*
X108785714Y-64013390D02*
X108738095Y-64061009D01*
X108738095Y-64061009D02*
X108642857Y-64108628D01*
X108642857Y-64108628D02*
X108261905Y-64108628D01*
X109404762Y-64013390D02*
X109309524Y-63965771D01*
X109309524Y-63965771D02*
X109261905Y-63918152D01*
X109261905Y-63918152D02*
X109214286Y-63822914D01*
X109214286Y-63822914D02*
X109214286Y-63775295D01*
X109214286Y-63775295D02*
X109261905Y-63680057D01*
X109261905Y-63680057D02*
X109309524Y-63632438D01*
X109309524Y-63632438D02*
X109404762Y-63584819D01*
X109404762Y-63584819D02*
X109595238Y-63584819D01*
X109595238Y-63584819D02*
X109690476Y-63632438D01*
X109690476Y-63632438D02*
X109738095Y-63680057D01*
X109738095Y-63680057D02*
X109785714Y-63775295D01*
X109785714Y-63775295D02*
X109785714Y-63822914D01*
X109785714Y-63822914D02*
X109738095Y-63918152D01*
X109738095Y-63918152D02*
X109690476Y-63965771D01*
X109690476Y-63965771D02*
X109595238Y-64013390D01*
X109595238Y-64013390D02*
X109404762Y-64013390D01*
X109404762Y-64013390D02*
X109309524Y-64061009D01*
X109309524Y-64061009D02*
X109261905Y-64108628D01*
X109261905Y-64108628D02*
X109214286Y-64203866D01*
X109214286Y-64203866D02*
X109214286Y-64394342D01*
X109214286Y-64394342D02*
X109261905Y-64489580D01*
X109261905Y-64489580D02*
X109309524Y-64537200D01*
X109309524Y-64537200D02*
X109404762Y-64584819D01*
X109404762Y-64584819D02*
X109595238Y-64584819D01*
X109595238Y-64584819D02*
X109690476Y-64537200D01*
X109690476Y-64537200D02*
X109738095Y-64489580D01*
X109738095Y-64489580D02*
X109785714Y-64394342D01*
X109785714Y-64394342D02*
X109785714Y-64203866D01*
X109785714Y-64203866D02*
X109738095Y-64108628D01*
X109738095Y-64108628D02*
X109690476Y-64061009D01*
X109690476Y-64061009D02*
X109595238Y-64013390D01*
X122333333Y-59954819D02*
X122000000Y-59478628D01*
X121761905Y-59954819D02*
X121761905Y-58954819D01*
X121761905Y-58954819D02*
X122142857Y-58954819D01*
X122142857Y-58954819D02*
X122238095Y-59002438D01*
X122238095Y-59002438D02*
X122285714Y-59050057D01*
X122285714Y-59050057D02*
X122333333Y-59145295D01*
X122333333Y-59145295D02*
X122333333Y-59288152D01*
X122333333Y-59288152D02*
X122285714Y-59383390D01*
X122285714Y-59383390D02*
X122238095Y-59431009D01*
X122238095Y-59431009D02*
X122142857Y-59478628D01*
X122142857Y-59478628D02*
X121761905Y-59478628D01*
X123238095Y-58954819D02*
X122761905Y-58954819D01*
X122761905Y-58954819D02*
X122714286Y-59431009D01*
X122714286Y-59431009D02*
X122761905Y-59383390D01*
X122761905Y-59383390D02*
X122857143Y-59335771D01*
X122857143Y-59335771D02*
X123095238Y-59335771D01*
X123095238Y-59335771D02*
X123190476Y-59383390D01*
X123190476Y-59383390D02*
X123238095Y-59431009D01*
X123238095Y-59431009D02*
X123285714Y-59526247D01*
X123285714Y-59526247D02*
X123285714Y-59764342D01*
X123285714Y-59764342D02*
X123238095Y-59859580D01*
X123238095Y-59859580D02*
X123190476Y-59907200D01*
X123190476Y-59907200D02*
X123095238Y-59954819D01*
X123095238Y-59954819D02*
X122857143Y-59954819D01*
X122857143Y-59954819D02*
X122761905Y-59907200D01*
X122761905Y-59907200D02*
X122714286Y-59859580D01*
X112166666Y-99834819D02*
X112166666Y-100549104D01*
X112166666Y-100549104D02*
X112119047Y-100691961D01*
X112119047Y-100691961D02*
X112023809Y-100787200D01*
X112023809Y-100787200D02*
X111880952Y-100834819D01*
X111880952Y-100834819D02*
X111785714Y-100834819D01*
X113119047Y-99834819D02*
X112642857Y-99834819D01*
X112642857Y-99834819D02*
X112595238Y-100311009D01*
X112595238Y-100311009D02*
X112642857Y-100263390D01*
X112642857Y-100263390D02*
X112738095Y-100215771D01*
X112738095Y-100215771D02*
X112976190Y-100215771D01*
X112976190Y-100215771D02*
X113071428Y-100263390D01*
X113071428Y-100263390D02*
X113119047Y-100311009D01*
X113119047Y-100311009D02*
X113166666Y-100406247D01*
X113166666Y-100406247D02*
X113166666Y-100644342D01*
X113166666Y-100644342D02*
X113119047Y-100739580D01*
X113119047Y-100739580D02*
X113071428Y-100787200D01*
X113071428Y-100787200D02*
X112976190Y-100834819D01*
X112976190Y-100834819D02*
X112738095Y-100834819D01*
X112738095Y-100834819D02*
X112642857Y-100787200D01*
X112642857Y-100787200D02*
X112595238Y-100739580D01*
X68333333Y-75584819D02*
X68000000Y-75108628D01*
X67761905Y-75584819D02*
X67761905Y-74584819D01*
X67761905Y-74584819D02*
X68142857Y-74584819D01*
X68142857Y-74584819D02*
X68238095Y-74632438D01*
X68238095Y-74632438D02*
X68285714Y-74680057D01*
X68285714Y-74680057D02*
X68333333Y-74775295D01*
X68333333Y-74775295D02*
X68333333Y-74918152D01*
X68333333Y-74918152D02*
X68285714Y-75013390D01*
X68285714Y-75013390D02*
X68238095Y-75061009D01*
X68238095Y-75061009D02*
X68142857Y-75108628D01*
X68142857Y-75108628D02*
X67761905Y-75108628D01*
X68666667Y-74584819D02*
X69285714Y-74584819D01*
X69285714Y-74584819D02*
X68952381Y-74965771D01*
X68952381Y-74965771D02*
X69095238Y-74965771D01*
X69095238Y-74965771D02*
X69190476Y-75013390D01*
X69190476Y-75013390D02*
X69238095Y-75061009D01*
X69238095Y-75061009D02*
X69285714Y-75156247D01*
X69285714Y-75156247D02*
X69285714Y-75394342D01*
X69285714Y-75394342D02*
X69238095Y-75489580D01*
X69238095Y-75489580D02*
X69190476Y-75537200D01*
X69190476Y-75537200D02*
X69095238Y-75584819D01*
X69095238Y-75584819D02*
X68809524Y-75584819D01*
X68809524Y-75584819D02*
X68714286Y-75537200D01*
X68714286Y-75537200D02*
X68666667Y-75489580D01*
X67413333Y-60084819D02*
X67080000Y-59608628D01*
X66841905Y-60084819D02*
X66841905Y-59084819D01*
X66841905Y-59084819D02*
X67222857Y-59084819D01*
X67222857Y-59084819D02*
X67318095Y-59132438D01*
X67318095Y-59132438D02*
X67365714Y-59180057D01*
X67365714Y-59180057D02*
X67413333Y-59275295D01*
X67413333Y-59275295D02*
X67413333Y-59418152D01*
X67413333Y-59418152D02*
X67365714Y-59513390D01*
X67365714Y-59513390D02*
X67318095Y-59561009D01*
X67318095Y-59561009D02*
X67222857Y-59608628D01*
X67222857Y-59608628D02*
X66841905Y-59608628D01*
X67746667Y-59084819D02*
X68413333Y-59084819D01*
X68413333Y-59084819D02*
X67984762Y-60084819D01*
X57454819Y-93488094D02*
X56454819Y-93488094D01*
X56454819Y-93488094D02*
X56454819Y-93249999D01*
X56454819Y-93249999D02*
X56502438Y-93107142D01*
X56502438Y-93107142D02*
X56597676Y-93011904D01*
X56597676Y-93011904D02*
X56692914Y-92964285D01*
X56692914Y-92964285D02*
X56883390Y-92916666D01*
X56883390Y-92916666D02*
X57026247Y-92916666D01*
X57026247Y-92916666D02*
X57216723Y-92964285D01*
X57216723Y-92964285D02*
X57311961Y-93011904D01*
X57311961Y-93011904D02*
X57407200Y-93107142D01*
X57407200Y-93107142D02*
X57454819Y-93249999D01*
X57454819Y-93249999D02*
X57454819Y-93488094D01*
X57454819Y-91964285D02*
X57454819Y-92535713D01*
X57454819Y-92249999D02*
X56454819Y-92249999D01*
X56454819Y-92249999D02*
X56597676Y-92345237D01*
X56597676Y-92345237D02*
X56692914Y-92440475D01*
X56692914Y-92440475D02*
X56740533Y-92535713D01*
X62054819Y-87601904D02*
X61054819Y-87601904D01*
X62054819Y-87030476D02*
X61483390Y-87459047D01*
X61054819Y-87030476D02*
X61626247Y-87601904D01*
X88213666Y-54128819D02*
X88213666Y-54843104D01*
X88213666Y-54843104D02*
X88166047Y-54985961D01*
X88166047Y-54985961D02*
X88070809Y-55081200D01*
X88070809Y-55081200D02*
X87927952Y-55128819D01*
X87927952Y-55128819D02*
X87832714Y-55128819D01*
X88642238Y-54224057D02*
X88689857Y-54176438D01*
X88689857Y-54176438D02*
X88785095Y-54128819D01*
X88785095Y-54128819D02*
X89023190Y-54128819D01*
X89023190Y-54128819D02*
X89118428Y-54176438D01*
X89118428Y-54176438D02*
X89166047Y-54224057D01*
X89166047Y-54224057D02*
X89213666Y-54319295D01*
X89213666Y-54319295D02*
X89213666Y-54414533D01*
X89213666Y-54414533D02*
X89166047Y-54557390D01*
X89166047Y-54557390D02*
X88594619Y-55128819D01*
X88594619Y-55128819D02*
X89213666Y-55128819D01*
X80106523Y-57378819D02*
X80106523Y-56378819D01*
X80106523Y-56378819D02*
X80487475Y-56378819D01*
X80487475Y-56378819D02*
X80582713Y-56426438D01*
X80582713Y-56426438D02*
X80630332Y-56474057D01*
X80630332Y-56474057D02*
X80677951Y-56569295D01*
X80677951Y-56569295D02*
X80677951Y-56712152D01*
X80677951Y-56712152D02*
X80630332Y-56807390D01*
X80630332Y-56807390D02*
X80582713Y-56855009D01*
X80582713Y-56855009D02*
X80487475Y-56902628D01*
X80487475Y-56902628D02*
X80106523Y-56902628D01*
X81106523Y-57378819D02*
X81106523Y-56712152D01*
X81106523Y-56378819D02*
X81058904Y-56426438D01*
X81058904Y-56426438D02*
X81106523Y-56474057D01*
X81106523Y-56474057D02*
X81154142Y-56426438D01*
X81154142Y-56426438D02*
X81106523Y-56378819D01*
X81106523Y-56378819D02*
X81106523Y-56474057D01*
X81582713Y-57378819D02*
X81582713Y-56712152D01*
X81582713Y-56378819D02*
X81535094Y-56426438D01*
X81535094Y-56426438D02*
X81582713Y-56474057D01*
X81582713Y-56474057D02*
X81630332Y-56426438D01*
X81630332Y-56426438D02*
X81582713Y-56378819D01*
X81582713Y-56378819D02*
X81582713Y-56474057D01*
X82487474Y-57331200D02*
X82392236Y-57378819D01*
X82392236Y-57378819D02*
X82201760Y-57378819D01*
X82201760Y-57378819D02*
X82106522Y-57331200D01*
X82106522Y-57331200D02*
X82058903Y-57283580D01*
X82058903Y-57283580D02*
X82011284Y-57188342D01*
X82011284Y-57188342D02*
X82011284Y-56902628D01*
X82011284Y-56902628D02*
X82058903Y-56807390D01*
X82058903Y-56807390D02*
X82106522Y-56759771D01*
X82106522Y-56759771D02*
X82201760Y-56712152D01*
X82201760Y-56712152D02*
X82392236Y-56712152D01*
X82392236Y-56712152D02*
X82487474Y-56759771D01*
X83058903Y-57378819D02*
X82963665Y-57331200D01*
X82963665Y-57331200D02*
X82916046Y-57283580D01*
X82916046Y-57283580D02*
X82868427Y-57188342D01*
X82868427Y-57188342D02*
X82868427Y-56902628D01*
X82868427Y-56902628D02*
X82916046Y-56807390D01*
X82916046Y-56807390D02*
X82963665Y-56759771D01*
X82963665Y-56759771D02*
X83058903Y-56712152D01*
X83058903Y-56712152D02*
X83201760Y-56712152D01*
X83201760Y-56712152D02*
X83296998Y-56759771D01*
X83296998Y-56759771D02*
X83344617Y-56807390D01*
X83344617Y-56807390D02*
X83392236Y-56902628D01*
X83392236Y-56902628D02*
X83392236Y-57188342D01*
X83392236Y-57188342D02*
X83344617Y-57283580D01*
X83344617Y-57283580D02*
X83296998Y-57331200D01*
X83296998Y-57331200D02*
X83201760Y-57378819D01*
X83201760Y-57378819D02*
X83058903Y-57378819D01*
X83820808Y-57378819D02*
X83820808Y-56378819D01*
X83820808Y-56378819D02*
X84058903Y-56378819D01*
X84058903Y-56378819D02*
X84201760Y-56426438D01*
X84201760Y-56426438D02*
X84296998Y-56521676D01*
X84296998Y-56521676D02*
X84344617Y-56616914D01*
X84344617Y-56616914D02*
X84392236Y-56807390D01*
X84392236Y-56807390D02*
X84392236Y-56950247D01*
X84392236Y-56950247D02*
X84344617Y-57140723D01*
X84344617Y-57140723D02*
X84296998Y-57235961D01*
X84296998Y-57235961D02*
X84201760Y-57331200D01*
X84201760Y-57331200D02*
X84058903Y-57378819D01*
X84058903Y-57378819D02*
X83820808Y-57378819D01*
X85201760Y-57331200D02*
X85106522Y-57378819D01*
X85106522Y-57378819D02*
X84916046Y-57378819D01*
X84916046Y-57378819D02*
X84820808Y-57331200D01*
X84820808Y-57331200D02*
X84773189Y-57235961D01*
X84773189Y-57235961D02*
X84773189Y-56855009D01*
X84773189Y-56855009D02*
X84820808Y-56759771D01*
X84820808Y-56759771D02*
X84916046Y-56712152D01*
X84916046Y-56712152D02*
X85106522Y-56712152D01*
X85106522Y-56712152D02*
X85201760Y-56759771D01*
X85201760Y-56759771D02*
X85249379Y-56855009D01*
X85249379Y-56855009D02*
X85249379Y-56950247D01*
X85249379Y-56950247D02*
X84773189Y-57045485D01*
X85582713Y-56712152D02*
X85820808Y-57378819D01*
X85820808Y-57378819D02*
X86058903Y-56712152D01*
X87392237Y-56378819D02*
X87582713Y-56378819D01*
X87582713Y-56378819D02*
X87677951Y-56426438D01*
X87677951Y-56426438D02*
X87773189Y-56521676D01*
X87773189Y-56521676D02*
X87820808Y-56712152D01*
X87820808Y-56712152D02*
X87820808Y-57045485D01*
X87820808Y-57045485D02*
X87773189Y-57235961D01*
X87773189Y-57235961D02*
X87677951Y-57331200D01*
X87677951Y-57331200D02*
X87582713Y-57378819D01*
X87582713Y-57378819D02*
X87392237Y-57378819D01*
X87392237Y-57378819D02*
X87296999Y-57331200D01*
X87296999Y-57331200D02*
X87201761Y-57235961D01*
X87201761Y-57235961D02*
X87154142Y-57045485D01*
X87154142Y-57045485D02*
X87154142Y-56712152D01*
X87154142Y-56712152D02*
X87201761Y-56521676D01*
X87201761Y-56521676D02*
X87296999Y-56426438D01*
X87296999Y-56426438D02*
X87392237Y-56378819D01*
X88725570Y-57378819D02*
X88249380Y-57378819D01*
X88249380Y-57378819D02*
X88249380Y-56378819D01*
X89058904Y-56855009D02*
X89392237Y-56855009D01*
X89535094Y-57378819D02*
X89058904Y-57378819D01*
X89058904Y-57378819D02*
X89058904Y-56378819D01*
X89058904Y-56378819D02*
X89535094Y-56378819D01*
X89963666Y-57378819D02*
X89963666Y-56378819D01*
X89963666Y-56378819D02*
X90201761Y-56378819D01*
X90201761Y-56378819D02*
X90344618Y-56426438D01*
X90344618Y-56426438D02*
X90439856Y-56521676D01*
X90439856Y-56521676D02*
X90487475Y-56616914D01*
X90487475Y-56616914D02*
X90535094Y-56807390D01*
X90535094Y-56807390D02*
X90535094Y-56950247D01*
X90535094Y-56950247D02*
X90487475Y-57140723D01*
X90487475Y-57140723D02*
X90439856Y-57235961D01*
X90439856Y-57235961D02*
X90344618Y-57331200D01*
X90344618Y-57331200D02*
X90201761Y-57378819D01*
X90201761Y-57378819D02*
X89963666Y-57378819D01*
X91725571Y-57378819D02*
X91725571Y-56378819D01*
X91725571Y-56378819D02*
X92058904Y-57093104D01*
X92058904Y-57093104D02*
X92392237Y-56378819D01*
X92392237Y-56378819D02*
X92392237Y-57378819D01*
X93011285Y-57378819D02*
X92916047Y-57331200D01*
X92916047Y-57331200D02*
X92868428Y-57283580D01*
X92868428Y-57283580D02*
X92820809Y-57188342D01*
X92820809Y-57188342D02*
X92820809Y-56902628D01*
X92820809Y-56902628D02*
X92868428Y-56807390D01*
X92868428Y-56807390D02*
X92916047Y-56759771D01*
X92916047Y-56759771D02*
X93011285Y-56712152D01*
X93011285Y-56712152D02*
X93154142Y-56712152D01*
X93154142Y-56712152D02*
X93249380Y-56759771D01*
X93249380Y-56759771D02*
X93296999Y-56807390D01*
X93296999Y-56807390D02*
X93344618Y-56902628D01*
X93344618Y-56902628D02*
X93344618Y-57188342D01*
X93344618Y-57188342D02*
X93296999Y-57283580D01*
X93296999Y-57283580D02*
X93249380Y-57331200D01*
X93249380Y-57331200D02*
X93154142Y-57378819D01*
X93154142Y-57378819D02*
X93011285Y-57378819D01*
X94201761Y-57378819D02*
X94201761Y-56378819D01*
X94201761Y-57331200D02*
X94106523Y-57378819D01*
X94106523Y-57378819D02*
X93916047Y-57378819D01*
X93916047Y-57378819D02*
X93820809Y-57331200D01*
X93820809Y-57331200D02*
X93773190Y-57283580D01*
X93773190Y-57283580D02*
X93725571Y-57188342D01*
X93725571Y-57188342D02*
X93725571Y-56902628D01*
X93725571Y-56902628D02*
X93773190Y-56807390D01*
X93773190Y-56807390D02*
X93820809Y-56759771D01*
X93820809Y-56759771D02*
X93916047Y-56712152D01*
X93916047Y-56712152D02*
X94106523Y-56712152D01*
X94106523Y-56712152D02*
X94201761Y-56759771D01*
X95106523Y-56712152D02*
X95106523Y-57378819D01*
X94677952Y-56712152D02*
X94677952Y-57235961D01*
X94677952Y-57235961D02*
X94725571Y-57331200D01*
X94725571Y-57331200D02*
X94820809Y-57378819D01*
X94820809Y-57378819D02*
X94963666Y-57378819D01*
X94963666Y-57378819D02*
X95058904Y-57331200D01*
X95058904Y-57331200D02*
X95106523Y-57283580D01*
X95725571Y-57378819D02*
X95630333Y-57331200D01*
X95630333Y-57331200D02*
X95582714Y-57235961D01*
X95582714Y-57235961D02*
X95582714Y-56378819D01*
X96487476Y-57331200D02*
X96392238Y-57378819D01*
X96392238Y-57378819D02*
X96201762Y-57378819D01*
X96201762Y-57378819D02*
X96106524Y-57331200D01*
X96106524Y-57331200D02*
X96058905Y-57235961D01*
X96058905Y-57235961D02*
X96058905Y-56855009D01*
X96058905Y-56855009D02*
X96106524Y-56759771D01*
X96106524Y-56759771D02*
X96201762Y-56712152D01*
X96201762Y-56712152D02*
X96392238Y-56712152D01*
X96392238Y-56712152D02*
X96487476Y-56759771D01*
X96487476Y-56759771D02*
X96535095Y-56855009D01*
X96535095Y-56855009D02*
X96535095Y-56950247D01*
X96535095Y-56950247D02*
X96058905Y-57045485D01*
X96714819Y-86941904D02*
X97524342Y-86941904D01*
X97524342Y-86941904D02*
X97619580Y-86894285D01*
X97619580Y-86894285D02*
X97667200Y-86846666D01*
X97667200Y-86846666D02*
X97714819Y-86751428D01*
X97714819Y-86751428D02*
X97714819Y-86560952D01*
X97714819Y-86560952D02*
X97667200Y-86465714D01*
X97667200Y-86465714D02*
X97619580Y-86418095D01*
X97619580Y-86418095D02*
X97524342Y-86370476D01*
X97524342Y-86370476D02*
X96714819Y-86370476D01*
X96810057Y-85941904D02*
X96762438Y-85894285D01*
X96762438Y-85894285D02*
X96714819Y-85799047D01*
X96714819Y-85799047D02*
X96714819Y-85560952D01*
X96714819Y-85560952D02*
X96762438Y-85465714D01*
X96762438Y-85465714D02*
X96810057Y-85418095D01*
X96810057Y-85418095D02*
X96905295Y-85370476D01*
X96905295Y-85370476D02*
X97000533Y-85370476D01*
X97000533Y-85370476D02*
X97143390Y-85418095D01*
X97143390Y-85418095D02*
X97714819Y-85989523D01*
X97714819Y-85989523D02*
X97714819Y-85370476D01*
X108357142Y-69084819D02*
X108023809Y-68608628D01*
X107785714Y-69084819D02*
X107785714Y-68084819D01*
X107785714Y-68084819D02*
X108166666Y-68084819D01*
X108166666Y-68084819D02*
X108261904Y-68132438D01*
X108261904Y-68132438D02*
X108309523Y-68180057D01*
X108309523Y-68180057D02*
X108357142Y-68275295D01*
X108357142Y-68275295D02*
X108357142Y-68418152D01*
X108357142Y-68418152D02*
X108309523Y-68513390D01*
X108309523Y-68513390D02*
X108261904Y-68561009D01*
X108261904Y-68561009D02*
X108166666Y-68608628D01*
X108166666Y-68608628D02*
X107785714Y-68608628D01*
X109309523Y-69084819D02*
X108738095Y-69084819D01*
X109023809Y-69084819D02*
X109023809Y-68084819D01*
X109023809Y-68084819D02*
X108928571Y-68227676D01*
X108928571Y-68227676D02*
X108833333Y-68322914D01*
X108833333Y-68322914D02*
X108738095Y-68370533D01*
X109690476Y-68180057D02*
X109738095Y-68132438D01*
X109738095Y-68132438D02*
X109833333Y-68084819D01*
X109833333Y-68084819D02*
X110071428Y-68084819D01*
X110071428Y-68084819D02*
X110166666Y-68132438D01*
X110166666Y-68132438D02*
X110214285Y-68180057D01*
X110214285Y-68180057D02*
X110261904Y-68275295D01*
X110261904Y-68275295D02*
X110261904Y-68370533D01*
X110261904Y-68370533D02*
X110214285Y-68513390D01*
X110214285Y-68513390D02*
X109642857Y-69084819D01*
X109642857Y-69084819D02*
X110261904Y-69084819D01*
X52857142Y-65084819D02*
X52523809Y-64608628D01*
X52285714Y-65084819D02*
X52285714Y-64084819D01*
X52285714Y-64084819D02*
X52666666Y-64084819D01*
X52666666Y-64084819D02*
X52761904Y-64132438D01*
X52761904Y-64132438D02*
X52809523Y-64180057D01*
X52809523Y-64180057D02*
X52857142Y-64275295D01*
X52857142Y-64275295D02*
X52857142Y-64418152D01*
X52857142Y-64418152D02*
X52809523Y-64513390D01*
X52809523Y-64513390D02*
X52761904Y-64561009D01*
X52761904Y-64561009D02*
X52666666Y-64608628D01*
X52666666Y-64608628D02*
X52285714Y-64608628D01*
X53809523Y-65084819D02*
X53238095Y-65084819D01*
X53523809Y-65084819D02*
X53523809Y-64084819D01*
X53523809Y-64084819D02*
X53428571Y-64227676D01*
X53428571Y-64227676D02*
X53333333Y-64322914D01*
X53333333Y-64322914D02*
X53238095Y-64370533D01*
X54428571Y-64084819D02*
X54523809Y-64084819D01*
X54523809Y-64084819D02*
X54619047Y-64132438D01*
X54619047Y-64132438D02*
X54666666Y-64180057D01*
X54666666Y-64180057D02*
X54714285Y-64275295D01*
X54714285Y-64275295D02*
X54761904Y-64465771D01*
X54761904Y-64465771D02*
X54761904Y-64703866D01*
X54761904Y-64703866D02*
X54714285Y-64894342D01*
X54714285Y-64894342D02*
X54666666Y-64989580D01*
X54666666Y-64989580D02*
X54619047Y-65037200D01*
X54619047Y-65037200D02*
X54523809Y-65084819D01*
X54523809Y-65084819D02*
X54428571Y-65084819D01*
X54428571Y-65084819D02*
X54333333Y-65037200D01*
X54333333Y-65037200D02*
X54285714Y-64989580D01*
X54285714Y-64989580D02*
X54238095Y-64894342D01*
X54238095Y-64894342D02*
X54190476Y-64703866D01*
X54190476Y-64703866D02*
X54190476Y-64465771D01*
X54190476Y-64465771D02*
X54238095Y-64275295D01*
X54238095Y-64275295D02*
X54285714Y-64180057D01*
X54285714Y-64180057D02*
X54333333Y-64132438D01*
X54333333Y-64132438D02*
X54428571Y-64084819D01*
X74666666Y-99834819D02*
X74666666Y-100549104D01*
X74666666Y-100549104D02*
X74619047Y-100691961D01*
X74619047Y-100691961D02*
X74523809Y-100787200D01*
X74523809Y-100787200D02*
X74380952Y-100834819D01*
X74380952Y-100834819D02*
X74285714Y-100834819D01*
X75047619Y-99834819D02*
X75666666Y-99834819D01*
X75666666Y-99834819D02*
X75333333Y-100215771D01*
X75333333Y-100215771D02*
X75476190Y-100215771D01*
X75476190Y-100215771D02*
X75571428Y-100263390D01*
X75571428Y-100263390D02*
X75619047Y-100311009D01*
X75619047Y-100311009D02*
X75666666Y-100406247D01*
X75666666Y-100406247D02*
X75666666Y-100644342D01*
X75666666Y-100644342D02*
X75619047Y-100739580D01*
X75619047Y-100739580D02*
X75571428Y-100787200D01*
X75571428Y-100787200D02*
X75476190Y-100834819D01*
X75476190Y-100834819D02*
X75190476Y-100834819D01*
X75190476Y-100834819D02*
X75095238Y-100787200D01*
X75095238Y-100787200D02*
X75047619Y-100739580D01*
X92166666Y-99834819D02*
X92166666Y-100549104D01*
X92166666Y-100549104D02*
X92119047Y-100691961D01*
X92119047Y-100691961D02*
X92023809Y-100787200D01*
X92023809Y-100787200D02*
X91880952Y-100834819D01*
X91880952Y-100834819D02*
X91785714Y-100834819D01*
X93071428Y-100168152D02*
X93071428Y-100834819D01*
X92833333Y-99787200D02*
X92595238Y-100501485D01*
X92595238Y-100501485D02*
X93214285Y-100501485D01*
X66261905Y-70454819D02*
X66261905Y-69454819D01*
X66261905Y-69454819D02*
X66500000Y-69454819D01*
X66500000Y-69454819D02*
X66642857Y-69502438D01*
X66642857Y-69502438D02*
X66738095Y-69597676D01*
X66738095Y-69597676D02*
X66785714Y-69692914D01*
X66785714Y-69692914D02*
X66833333Y-69883390D01*
X66833333Y-69883390D02*
X66833333Y-70026247D01*
X66833333Y-70026247D02*
X66785714Y-70216723D01*
X66785714Y-70216723D02*
X66738095Y-70311961D01*
X66738095Y-70311961D02*
X66642857Y-70407200D01*
X66642857Y-70407200D02*
X66500000Y-70454819D01*
X66500000Y-70454819D02*
X66261905Y-70454819D01*
X67166667Y-69454819D02*
X67785714Y-69454819D01*
X67785714Y-69454819D02*
X67452381Y-69835771D01*
X67452381Y-69835771D02*
X67595238Y-69835771D01*
X67595238Y-69835771D02*
X67690476Y-69883390D01*
X67690476Y-69883390D02*
X67738095Y-69931009D01*
X67738095Y-69931009D02*
X67785714Y-70026247D01*
X67785714Y-70026247D02*
X67785714Y-70264342D01*
X67785714Y-70264342D02*
X67738095Y-70359580D01*
X67738095Y-70359580D02*
X67690476Y-70407200D01*
X67690476Y-70407200D02*
X67595238Y-70454819D01*
X67595238Y-70454819D02*
X67309524Y-70454819D01*
X67309524Y-70454819D02*
X67214286Y-70407200D01*
X67214286Y-70407200D02*
X67166667Y-70359580D01*
X72318095Y-75054819D02*
X72318095Y-74054819D01*
X72889523Y-75054819D02*
X72460952Y-74483390D01*
X72889523Y-74054819D02*
X72318095Y-74626247D01*
X108833333Y-59954819D02*
X108500000Y-59478628D01*
X108261905Y-59954819D02*
X108261905Y-58954819D01*
X108261905Y-58954819D02*
X108642857Y-58954819D01*
X108642857Y-58954819D02*
X108738095Y-59002438D01*
X108738095Y-59002438D02*
X108785714Y-59050057D01*
X108785714Y-59050057D02*
X108833333Y-59145295D01*
X108833333Y-59145295D02*
X108833333Y-59288152D01*
X108833333Y-59288152D02*
X108785714Y-59383390D01*
X108785714Y-59383390D02*
X108738095Y-59431009D01*
X108738095Y-59431009D02*
X108642857Y-59478628D01*
X108642857Y-59478628D02*
X108261905Y-59478628D01*
X109690476Y-59288152D02*
X109690476Y-59954819D01*
X109452381Y-58907200D02*
X109214286Y-59621485D01*
X109214286Y-59621485D02*
X109833333Y-59621485D01*
X52261905Y-70454819D02*
X52261905Y-69454819D01*
X52261905Y-69454819D02*
X52500000Y-69454819D01*
X52500000Y-69454819D02*
X52642857Y-69502438D01*
X52642857Y-69502438D02*
X52738095Y-69597676D01*
X52738095Y-69597676D02*
X52785714Y-69692914D01*
X52785714Y-69692914D02*
X52833333Y-69883390D01*
X52833333Y-69883390D02*
X52833333Y-70026247D01*
X52833333Y-70026247D02*
X52785714Y-70216723D01*
X52785714Y-70216723D02*
X52738095Y-70311961D01*
X52738095Y-70311961D02*
X52642857Y-70407200D01*
X52642857Y-70407200D02*
X52500000Y-70454819D01*
X52500000Y-70454819D02*
X52261905Y-70454819D01*
X53214286Y-69550057D02*
X53261905Y-69502438D01*
X53261905Y-69502438D02*
X53357143Y-69454819D01*
X53357143Y-69454819D02*
X53595238Y-69454819D01*
X53595238Y-69454819D02*
X53690476Y-69502438D01*
X53690476Y-69502438D02*
X53738095Y-69550057D01*
X53738095Y-69550057D02*
X53785714Y-69645295D01*
X53785714Y-69645295D02*
X53785714Y-69740533D01*
X53785714Y-69740533D02*
X53738095Y-69883390D01*
X53738095Y-69883390D02*
X53166667Y-70454819D01*
X53166667Y-70454819D02*
X53785714Y-70454819D01*
X58318095Y-75054819D02*
X58318095Y-74054819D01*
X58889523Y-75054819D02*
X58460952Y-74483390D01*
X58889523Y-74054819D02*
X58318095Y-74626247D01*
X59666666Y-99834819D02*
X59666666Y-100549104D01*
X59666666Y-100549104D02*
X59619047Y-100691961D01*
X59619047Y-100691961D02*
X59523809Y-100787200D01*
X59523809Y-100787200D02*
X59380952Y-100834819D01*
X59380952Y-100834819D02*
X59285714Y-100834819D01*
X60666666Y-100834819D02*
X60095238Y-100834819D01*
X60380952Y-100834819D02*
X60380952Y-99834819D01*
X60380952Y-99834819D02*
X60285714Y-99977676D01*
X60285714Y-99977676D02*
X60190476Y-100072914D01*
X60190476Y-100072914D02*
X60095238Y-100120533D01*
D13*
%TO.C,R11*%
X63460000Y-67000000D02*
X64230000Y-67000000D01*
X71540000Y-67000000D02*
X70770000Y-67000000D01*
X64230000Y-65630000D02*
X70770000Y-65630000D01*
X70770000Y-68370000D01*
X64230000Y-68370000D01*
X64230000Y-65630000D01*
%TO.C,R6*%
X49460000Y-62000000D02*
X50230000Y-62000000D01*
X57540000Y-62000000D02*
X56770000Y-62000000D01*
X50230000Y-60630000D02*
X56770000Y-60630000D01*
X56770000Y-63370000D01*
X50230000Y-63370000D01*
X50230000Y-60630000D01*
%TO.C,C1*%
X47322700Y-93533000D02*
X47322700Y-92467000D01*
X47362700Y-93768000D02*
X47362700Y-92232000D01*
X47402700Y-93947000D02*
X47402700Y-92053000D01*
X47442700Y-94097000D02*
X47442700Y-91903000D01*
X47482700Y-94228000D02*
X47482700Y-91772000D01*
X47522700Y-94346000D02*
X47522700Y-91654000D01*
X47562700Y-94453000D02*
X47562700Y-91547000D01*
X47602700Y-94552000D02*
X47602700Y-91448000D01*
X47642700Y-94644000D02*
X47642700Y-91356000D01*
X47682700Y-94731000D02*
X47682700Y-91269000D01*
X47722700Y-94813000D02*
X47722700Y-91187000D01*
X47762700Y-94890000D02*
X47762700Y-91110000D01*
X47802700Y-94964000D02*
X47802700Y-91036000D01*
X47842700Y-95034000D02*
X47842700Y-90966000D01*
X47882700Y-95101000D02*
X47882700Y-90899000D01*
X47922700Y-95165000D02*
X47922700Y-90835000D01*
X47962700Y-95227000D02*
X47962700Y-90773000D01*
X48002700Y-95287000D02*
X48002700Y-90713000D01*
X48042700Y-95344000D02*
X48042700Y-90656000D01*
X48082700Y-95400000D02*
X48082700Y-90600000D01*
X48122700Y-95453000D02*
X48122700Y-90547000D01*
X48162700Y-95505000D02*
X48162700Y-90495000D01*
X48202700Y-95555000D02*
X48202700Y-90445000D01*
X48242700Y-95604000D02*
X48242700Y-90396000D01*
X48282700Y-95651000D02*
X48282700Y-90349000D01*
X48322700Y-95696000D02*
X48322700Y-90304000D01*
X48362700Y-95741000D02*
X48362700Y-90259000D01*
X48402700Y-95784000D02*
X48402700Y-90216000D01*
X48442700Y-95826000D02*
X48442700Y-90174000D01*
X48482700Y-95867000D02*
X48482700Y-90133000D01*
X48522700Y-95906000D02*
X48522700Y-90094000D01*
X48562700Y-95945000D02*
X48562700Y-90055000D01*
X48602700Y-95982000D02*
X48602700Y-90018000D01*
X48642700Y-91960000D02*
X48642700Y-89981000D01*
X48642700Y-96019000D02*
X48642700Y-94040000D01*
X48682700Y-91960000D02*
X48682700Y-89945000D01*
X48682700Y-96055000D02*
X48682700Y-94040000D01*
X48722700Y-91960000D02*
X48722700Y-89911000D01*
X48722700Y-96089000D02*
X48722700Y-94040000D01*
X48762700Y-91960000D02*
X48762700Y-89877000D01*
X48762700Y-96123000D02*
X48762700Y-94040000D01*
X48802700Y-91960000D02*
X48802700Y-89844000D01*
X48802700Y-96156000D02*
X48802700Y-94040000D01*
X48842700Y-91960000D02*
X48842700Y-89812000D01*
X48842700Y-96188000D02*
X48842700Y-94040000D01*
X48882700Y-91960000D02*
X48882700Y-89781000D01*
X48882700Y-96219000D02*
X48882700Y-94040000D01*
X48922700Y-91960000D02*
X48922700Y-89750000D01*
X48922700Y-96250000D02*
X48922700Y-94040000D01*
X48962700Y-91960000D02*
X48962700Y-89720000D01*
X48962700Y-96280000D02*
X48962700Y-94040000D01*
X49002700Y-91960000D02*
X49002700Y-89691000D01*
X49002700Y-96309000D02*
X49002700Y-94040000D01*
X49042700Y-91960000D02*
X49042700Y-89663000D01*
X49042700Y-96337000D02*
X49042700Y-94040000D01*
X49082700Y-91960000D02*
X49082700Y-89635000D01*
X49082700Y-96365000D02*
X49082700Y-94040000D01*
X49122700Y-91960000D02*
X49122700Y-89608000D01*
X49122700Y-96392000D02*
X49122700Y-94040000D01*
X49162700Y-91960000D02*
X49162700Y-89582000D01*
X49162700Y-96418000D02*
X49162700Y-94040000D01*
X49202700Y-91960000D02*
X49202700Y-89557000D01*
X49202700Y-96443000D02*
X49202700Y-94040000D01*
X49242700Y-91960000D02*
X49242700Y-89532000D01*
X49242700Y-96468000D02*
X49242700Y-94040000D01*
X49282700Y-91960000D02*
X49282700Y-89507000D01*
X49282700Y-96493000D02*
X49282700Y-94040000D01*
X49322700Y-91960000D02*
X49322700Y-89484000D01*
X49322700Y-96516000D02*
X49322700Y-94040000D01*
X49362700Y-91960000D02*
X49362700Y-89461000D01*
X49362700Y-96539000D02*
X49362700Y-94040000D01*
X49402700Y-91960000D02*
X49402700Y-89438000D01*
X49402700Y-96562000D02*
X49402700Y-94040000D01*
X49442700Y-91960000D02*
X49442700Y-89416000D01*
X49442700Y-96584000D02*
X49442700Y-94040000D01*
X49482700Y-91960000D02*
X49482700Y-89395000D01*
X49482700Y-96605000D02*
X49482700Y-94040000D01*
X49522700Y-91960000D02*
X49522700Y-89374000D01*
X49522700Y-96626000D02*
X49522700Y-94040000D01*
X49562700Y-91960000D02*
X49562700Y-89354000D01*
X49562700Y-96646000D02*
X49562700Y-94040000D01*
X49602700Y-91960000D02*
X49602700Y-89334000D01*
X49602700Y-96666000D02*
X49602700Y-94040000D01*
X49642700Y-91960000D02*
X49642700Y-89315000D01*
X49642700Y-96685000D02*
X49642700Y-94040000D01*
X49682700Y-91960000D02*
X49682700Y-89296000D01*
X49682700Y-96704000D02*
X49682700Y-94040000D01*
X49722700Y-91960000D02*
X49722700Y-89278000D01*
X49722700Y-96722000D02*
X49722700Y-94040000D01*
X49762700Y-91960000D02*
X49762700Y-89260000D01*
X49762700Y-96740000D02*
X49762700Y-94040000D01*
X49802700Y-91960000D02*
X49802700Y-89243000D01*
X49802700Y-96757000D02*
X49802700Y-94040000D01*
X49842700Y-91960000D02*
X49842700Y-89227000D01*
X49842700Y-96773000D02*
X49842700Y-94040000D01*
X49882700Y-91960000D02*
X49882700Y-89211000D01*
X49882700Y-96789000D02*
X49882700Y-94040000D01*
X49922700Y-91960000D02*
X49922700Y-89195000D01*
X49922700Y-96805000D02*
X49922700Y-94040000D01*
X49962700Y-91960000D02*
X49962700Y-89180000D01*
X49962700Y-96820000D02*
X49962700Y-94040000D01*
X50002700Y-91960000D02*
X50002700Y-89165000D01*
X50002700Y-96835000D02*
X50002700Y-94040000D01*
X50042700Y-91960000D02*
X50042700Y-89151000D01*
X50042700Y-96849000D02*
X50042700Y-94040000D01*
X50082700Y-91960000D02*
X50082700Y-89137000D01*
X50082700Y-96863000D02*
X50082700Y-94040000D01*
X50122700Y-91960000D02*
X50122700Y-89124000D01*
X50122700Y-96876000D02*
X50122700Y-94040000D01*
X50162700Y-91960000D02*
X50162700Y-89111000D01*
X50162700Y-96889000D02*
X50162700Y-94040000D01*
X50202700Y-91960000D02*
X50202700Y-89099000D01*
X50202700Y-96901000D02*
X50202700Y-94040000D01*
X50242700Y-91960000D02*
X50242700Y-89087000D01*
X50242700Y-96913000D02*
X50242700Y-94040000D01*
X50282700Y-91960000D02*
X50282700Y-89075000D01*
X50282700Y-96925000D02*
X50282700Y-94040000D01*
X50322700Y-91960000D02*
X50322700Y-89064000D01*
X50322700Y-96936000D02*
X50322700Y-94040000D01*
X50362700Y-91960000D02*
X50362700Y-89053000D01*
X50362700Y-96947000D02*
X50362700Y-94040000D01*
X50402700Y-91960000D02*
X50402700Y-89043000D01*
X50402700Y-96957000D02*
X50402700Y-94040000D01*
X50442700Y-91960000D02*
X50442700Y-89033000D01*
X50442700Y-96967000D02*
X50442700Y-94040000D01*
X50482700Y-91960000D02*
X50482700Y-89024000D01*
X50482700Y-96976000D02*
X50482700Y-94040000D01*
X50522700Y-91960000D02*
X50522700Y-89015000D01*
X50522700Y-96985000D02*
X50522700Y-94040000D01*
X50562700Y-91960000D02*
X50562700Y-89007000D01*
X50562700Y-96993000D02*
X50562700Y-94040000D01*
X50602700Y-91960000D02*
X50602700Y-88998000D01*
X50602700Y-97002000D02*
X50602700Y-94040000D01*
X50642700Y-91960000D02*
X50642700Y-88991000D01*
X50642700Y-97009000D02*
X50642700Y-94040000D01*
X50682700Y-91960000D02*
X50682700Y-88983000D01*
X50682700Y-97017000D02*
X50682700Y-94040000D01*
X50722700Y-97023000D02*
X50722700Y-88977000D01*
X50762700Y-97030000D02*
X50762700Y-88970000D01*
X50802700Y-97036000D02*
X50802700Y-88964000D01*
X50842700Y-97042000D02*
X50842700Y-88958000D01*
X50882700Y-97047000D02*
X50882700Y-88953000D01*
X50922700Y-97052000D02*
X50922700Y-88948000D01*
X50962700Y-97056000D02*
X50962700Y-88944000D01*
X51002700Y-97061000D02*
X51002700Y-88939000D01*
X51042700Y-97064000D02*
X51042700Y-88936000D01*
X51082700Y-97068000D02*
X51082700Y-88932000D01*
X51122700Y-97070000D02*
X51122700Y-88930000D01*
X51162700Y-97073000D02*
X51162700Y-88927000D01*
X51202700Y-97075000D02*
X51202700Y-88925000D01*
X51242700Y-97077000D02*
X51242700Y-88923000D01*
X51282700Y-97078000D02*
X51282700Y-88922000D01*
X51322700Y-97079000D02*
X51322700Y-88921000D01*
X51362700Y-97080000D02*
X51362700Y-88920000D01*
X51402700Y-97080000D02*
X51402700Y-88920000D01*
X55412398Y-95715000D02*
X55412398Y-94915000D01*
X55812398Y-95315000D02*
X55012398Y-95315000D01*
X55522700Y-93000000D02*
G75*
G02*
X47282700Y-93000000I-4120000J0D01*
G01*
X47282700Y-93000000D02*
G75*
G02*
X55522700Y-93000000I4120000J0D01*
G01*
%TO.C,C3*%
X68880000Y-87130000D02*
X74120000Y-87130000D01*
X68880000Y-87467000D02*
X68880000Y-87130000D01*
X68880000Y-89870000D02*
X68880000Y-89533000D01*
X74120000Y-87130000D02*
X74120000Y-87467000D01*
X74120000Y-89533000D02*
X74120000Y-89870000D01*
X74120000Y-89870000D02*
X68880000Y-89870000D01*
%TO.C,R9*%
X118460000Y-66500000D02*
X119230000Y-66500000D01*
X126540000Y-66500000D02*
X125770000Y-66500000D01*
X119230000Y-65130000D02*
X125770000Y-65130000D01*
X125770000Y-67870000D01*
X119230000Y-67870000D01*
X119230000Y-65130000D01*
%TO.C,U1*%
X48170000Y-84330000D02*
X48170000Y-80460000D01*
X48170000Y-84330000D02*
X58450000Y-84330000D01*
X48230000Y-80460000D02*
X58450000Y-80460000D01*
X58450000Y-84330000D02*
X58450000Y-80460000D01*
%TO.C,R2*%
X64460000Y-82500000D02*
X65230000Y-82500000D01*
X72540000Y-82500000D02*
X71770000Y-82500000D01*
X65230000Y-81130000D02*
X71770000Y-81130000D01*
X71770000Y-83870000D01*
X65230000Y-83870000D01*
X65230000Y-81130000D01*
%TO.C,C2*%
X68880000Y-93630000D02*
X74120000Y-93630000D01*
X68880000Y-93967000D02*
X68880000Y-93630000D01*
X68880000Y-96370000D02*
X68880000Y-96033000D01*
X74120000Y-93630000D02*
X74120000Y-93967000D01*
X74120000Y-96033000D02*
X74120000Y-96370000D01*
X74120000Y-96370000D02*
X68880000Y-96370000D01*
%TO.C,R13*%
X118460000Y-71000000D02*
X119230000Y-71000000D01*
X126540000Y-71000000D02*
X125770000Y-71000000D01*
X119230000Y-69630000D02*
X125770000Y-69630000D01*
X125770000Y-72370000D01*
X119230000Y-72370000D01*
X119230000Y-69630000D01*
%TO.C,R1*%
X65000000Y-88460000D02*
X65000000Y-89230000D01*
X65000000Y-96540000D02*
X65000000Y-95770000D01*
X63630000Y-95770000D02*
X66370000Y-95770000D01*
X66370000Y-89230000D01*
X63630000Y-89230000D01*
X63630000Y-95770000D01*
%TO.C,R8*%
X104960000Y-66500000D02*
X105730000Y-66500000D01*
X113040000Y-66500000D02*
X112270000Y-66500000D01*
X105730000Y-65130000D02*
X112270000Y-65130000D01*
X112270000Y-67870000D01*
X105730000Y-67870000D01*
X105730000Y-65130000D01*
%TO.C,R5*%
X118460000Y-62000000D02*
X119230000Y-62000000D01*
X126540000Y-62000000D02*
X125770000Y-62000000D01*
X125770000Y-63370000D02*
X119230000Y-63370000D01*
X119230000Y-60630000D01*
X125770000Y-60630000D01*
X125770000Y-63370000D01*
%TO.C,J5*%
X102380000Y-101380000D02*
X122620000Y-101380000D01*
X102380000Y-109000000D02*
X122620000Y-109000000D01*
X102380000Y-110100000D02*
X122620000Y-110100000D01*
X102380000Y-110620000D02*
X102380000Y-101380000D01*
X104700000Y-110620000D02*
X102380000Y-110620000D01*
X122620000Y-101380000D02*
X122620000Y-110620000D01*
X122620000Y-110620000D02*
X105300000Y-110620000D01*
X105440000Y-111230000D02*
X104560000Y-111230000D01*
X105000000Y-110620000D01*
X105440000Y-111230000D01*
G36*
X105440000Y-111230000D02*
G01*
X104560000Y-111230000D01*
X105000000Y-110620000D01*
X105440000Y-111230000D01*
G37*
%TO.C,R3*%
X64460000Y-77500000D02*
X65230000Y-77500000D01*
X72540000Y-77500000D02*
X71770000Y-77500000D01*
X65230000Y-76130000D02*
X71770000Y-76130000D01*
X71770000Y-78870000D01*
X65230000Y-78870000D01*
X65230000Y-76130000D01*
%TO.C,R7*%
X63540000Y-62000000D02*
X64310000Y-62000000D01*
X71620000Y-62000000D02*
X70850000Y-62000000D01*
X64310000Y-60630000D02*
X70850000Y-60630000D01*
X70850000Y-63370000D01*
X64310000Y-63370000D01*
X64310000Y-60630000D01*
%TO.C,D1*%
X59500000Y-88680000D02*
X59500000Y-89700000D01*
X59500000Y-96160000D02*
X59500000Y-95140000D01*
X60970000Y-90480000D02*
X58030000Y-90480000D01*
X60970000Y-90600000D02*
X58030000Y-90600000D01*
X60970000Y-90720000D02*
X58030000Y-90720000D01*
X60970000Y-89700000D02*
X58030000Y-89700000D01*
X58030000Y-95140000D01*
X60970000Y-95140000D01*
X60970000Y-89700000D01*
%TO.C,R12*%
X104960000Y-71000000D02*
X105730000Y-71000000D01*
X113040000Y-71000000D02*
X112270000Y-71000000D01*
X105730000Y-69630000D02*
X112270000Y-69630000D01*
X112270000Y-72370000D01*
X105730000Y-72370000D01*
X105730000Y-69630000D01*
%TO.C,R10*%
X49460000Y-67000000D02*
X50230000Y-67000000D01*
X57540000Y-67000000D02*
X56770000Y-67000000D01*
X50230000Y-65630000D02*
X56770000Y-65630000D01*
X56770000Y-68370000D01*
X50230000Y-68370000D01*
X50230000Y-65630000D01*
%TO.C,J3*%
X67380000Y-101380000D02*
X82620000Y-101380000D01*
X67380000Y-109000000D02*
X82620000Y-109000000D01*
X67380000Y-110100000D02*
X82620000Y-110100000D01*
X67380000Y-110620000D02*
X67380000Y-101380000D01*
X69700000Y-110620000D02*
X67380000Y-110620000D01*
X82620000Y-101380000D02*
X82620000Y-110620000D01*
X82620000Y-110620000D02*
X70300000Y-110620000D01*
X70440000Y-111230000D02*
X69560000Y-111230000D01*
X70000000Y-110620000D01*
X70440000Y-111230000D01*
G36*
X70440000Y-111230000D02*
G01*
X69560000Y-111230000D01*
X70000000Y-110620000D01*
X70440000Y-111230000D01*
G37*
%TO.C,J4*%
X84880000Y-101380000D02*
X100120000Y-101380000D01*
X84880000Y-109000000D02*
X100120000Y-109000000D01*
X84880000Y-110100000D02*
X100120000Y-110100000D01*
X84880000Y-110620000D02*
X84880000Y-101380000D01*
X87200000Y-110620000D02*
X84880000Y-110620000D01*
X100120000Y-101380000D02*
X100120000Y-110620000D01*
X100120000Y-110620000D02*
X87800000Y-110620000D01*
X87940000Y-111230000D02*
X87060000Y-111230000D01*
X87500000Y-110620000D01*
X87940000Y-111230000D01*
G36*
X87940000Y-111230000D02*
G01*
X87060000Y-111230000D01*
X87500000Y-110620000D01*
X87940000Y-111230000D01*
G37*
%TO.C,D3*%
X63760000Y-72500000D02*
X64780000Y-72500000D01*
X69200000Y-73970000D02*
X69200000Y-71030000D01*
X69320000Y-73970000D02*
X69320000Y-71030000D01*
X69440000Y-73970000D02*
X69440000Y-71030000D01*
X71240000Y-72500000D02*
X70220000Y-72500000D01*
X70220000Y-73970000D02*
X64780000Y-73970000D01*
X64780000Y-71030000D01*
X70220000Y-71030000D01*
X70220000Y-73970000D01*
%TO.C,R4*%
X104960000Y-62000000D02*
X105730000Y-62000000D01*
X113040000Y-62000000D02*
X112270000Y-62000000D01*
X112270000Y-63370000D02*
X105730000Y-63370000D01*
X105730000Y-60630000D01*
X112270000Y-60630000D01*
X112270000Y-63370000D01*
%TO.C,D2*%
X49760000Y-72500000D02*
X50780000Y-72500000D01*
X55200000Y-73970000D02*
X55200000Y-71030000D01*
X55320000Y-73970000D02*
X55320000Y-71030000D01*
X55440000Y-73970000D02*
X55440000Y-71030000D01*
X57240000Y-72500000D02*
X56220000Y-72500000D01*
X56220000Y-73970000D02*
X50780000Y-73970000D01*
X50780000Y-71030000D01*
X56220000Y-71030000D01*
X56220000Y-73970000D01*
%TO.C,J1*%
X54880000Y-101380000D02*
X65120000Y-101380000D01*
X54880000Y-109000000D02*
X65120000Y-109000000D01*
X54880000Y-110100000D02*
X65120000Y-110100000D01*
X54880000Y-110620000D02*
X54880000Y-101380000D01*
X57200000Y-110620000D02*
X54880000Y-110620000D01*
X65120000Y-101380000D02*
X65120000Y-110620000D01*
X65120000Y-110620000D02*
X57800000Y-110620000D01*
X57940000Y-111230000D02*
X57060000Y-111230000D01*
X57500000Y-110620000D01*
X57940000Y-111230000D01*
G36*
X57940000Y-111230000D02*
G01*
X57060000Y-111230000D01*
X57500000Y-110620000D01*
X57940000Y-111230000D01*
G37*
%TD*%
M02*
