M48
; DRILL file {KiCad 9.0.7} date 2026-02-23T21:29:13+1100
; FORMAT={-:-/ absolute / metric / decimal}
; #@! TF.CreationDate,2026-02-23T21:29:13+11:00
; #@! TF.GenerationSoftware,Kicad,Pcbnew,9.0.7
; #@! TF.FileFunction,Plated,1,2,PTH
FMAT,2
METRIC
; #@! TA.AperFunction,Plated,PTH,ViaDrill
T1C0.400
; #@! TA.AperFunction,Plated,PTH,ComponentDrill
T2C0.800
; #@! TA.AperFunction,Plated,PTH,ComponentDrill
T3C0.900
; #@! TA.AperFunction,Plated,PTH,ComponentDrill
T4C1.000
; #@! TA.AperFunction,Plated,PTH,ComponentDrill
T5C1.100
; #@! TA.AperFunction,Plated,PTH,ComponentDrill
T6C1.300
; #@! TA.AperFunction,Plated,PTH,ComponentDrill
T7C3.200
%
G90
G05
T1
X62.739Y-80.495
X81.876Y-94.257
T2
X48.42Y-62.0
X48.42Y-67.0
X49.653Y-93.0
X53.153Y-93.0
X58.58Y-62.0
X58.58Y-67.0
X62.42Y-67.0
X62.5Y-62.0
X63.42Y-77.5
X63.42Y-82.5
X65.0Y-87.42
X65.0Y-97.58
X69.0Y-88.5
X69.0Y-95.0
X72.58Y-67.0
X72.66Y-62.0
X73.58Y-77.5
X73.58Y-82.5
X74.0Y-88.5
X74.0Y-95.0
X103.92Y-62.0
X103.92Y-66.5
X103.92Y-71.0
X114.08Y-62.0
X114.08Y-66.5
X114.08Y-71.0
X117.42Y-62.0
X117.42Y-66.5
X117.42Y-71.0
X127.58Y-62.0
X127.58Y-66.5
X127.58Y-71.0
T3
X84.68Y-96.5
X87.22Y-96.5
X89.76Y-96.5
X92.3Y-96.5
X94.84Y-76.18
X94.84Y-96.5
X97.38Y-76.18
X97.38Y-96.5
X99.92Y-76.18
X99.92Y-96.5
X102.46Y-76.18
X102.46Y-96.5
X105.0Y-76.18
X105.0Y-96.5
X107.54Y-76.18
X107.54Y-96.5
X110.08Y-76.18
X110.08Y-96.5
X112.62Y-76.18
X112.62Y-96.5
X115.16Y-76.18
X115.16Y-96.5
X117.7Y-76.18
X117.7Y-96.5
X120.24Y-76.18
X120.24Y-96.5
X122.78Y-76.18
X122.78Y-96.5
T4
X49.5Y-83.0
X52.04Y-83.0
X54.58Y-83.0
X57.12Y-83.0
X84.5Y-48.646
X87.04Y-48.646
X89.58Y-48.646
X92.12Y-48.646
T5
X48.42Y-72.5
X58.58Y-72.5
X59.5Y-87.34
X59.5Y-97.5
X62.42Y-72.5
X72.58Y-72.5
T6
X57.5Y-105.5
X62.5Y-105.5
X70.0Y-105.5
X75.0Y-105.5
X80.0Y-105.5
X87.5Y-105.5
X92.5Y-105.5
X97.5Y-105.5
X105.0Y-105.5
X110.0Y-105.5
X115.0Y-105.5
X120.0Y-105.5
T7
X50.0Y-50.0
X50.0Y-57.0
X50.0Y-111.0
X50.0Y-118.0
X127.0Y-50.0
X127.0Y-57.0
X127.0Y-111.0
X127.0Y-118.0
M30
