%TF.GenerationSoftware,KiCad,Pcbnew,9.0.7*%
%TF.CreationDate,2026-02-23T21:28:53+11:00*%
%TF.ProjectId,esphome-sensor,65737068-6f6d-4652-9d73-656e736f722e,rev?*%
%TF.SameCoordinates,Original*%
%TF.FileFunction,Copper,L2,Bot*%
%TF.FilePolarity,Positive*%
%FSLAX46Y46*%
G04 Gerber Fmt 4.6, Leading zero omitted, Abs format (unit mm)*
G04 Created by KiCad (PCBNEW 9.0.7) date 2026-02-23 21:28:53*
%MOMM*%
%LPD*%
G01*
G04 APERTURE LIST*
G04 Aperture macros list*
%AMRoundRect*
0 Rectangle with rounded corners*
0 $1 Rounding radius*
0 $2 $3 $4 $5 $6 $7 $8 $9 X,Y pos of 4 corners*
0 Add a 4 corners polygon primitive as box body*
4,1,4,$2,$3,$4,$5,$6,$7,$8,$9,$2,$3,0*
0 Add four circle primitives for the rounded corners*
1,1,$1+$1,$2,$3*
1,1,$1+$1,$4,$5*
1,1,$1+$1,$6,$7*
1,1,$1+$1,$8,$9*
0 Add four rect primitives between the rounded corners*
20,1,$1+$1,$2,$3,$4,$5,0*
20,1,$1+$1,$4,$5,$6,$7,0*
20,1,$1+$1,$6,$7,$8,$9,0*
20,1,$1+$1,$8,$9,$2,$3,0*%
G04 Aperture macros list end*
%TA.AperFunction,ComponentPad*%
%ADD10C,6.400000*%
%TD*%
%TA.AperFunction,ComponentPad*%
%ADD11C,1.600000*%
%TD*%
%TA.AperFunction,ComponentPad*%
%ADD12RoundRect,0.250000X0.550000X0.550000X-0.550000X0.550000X-0.550000X-0.550000X0.550000X-0.550000X0*%
%TD*%
%TA.AperFunction,ComponentPad*%
%ADD13R,1.700000X1.700000*%
%TD*%
%TA.AperFunction,ComponentPad*%
%ADD14O,1.700000X1.700000*%
%TD*%
%TA.AperFunction,ComponentPad*%
%ADD15RoundRect,0.250000X-1.050000X-1.050000X1.050000X-1.050000X1.050000X1.050000X-1.050000X1.050000X0*%
%TD*%
%TA.AperFunction,ComponentPad*%
%ADD16C,2.600000*%
%TD*%
%TA.AperFunction,ComponentPad*%
%ADD17RoundRect,0.249999X-0.850001X0.850001X-0.850001X-0.850001X0.850001X-0.850001X0.850001X0.850001X0*%
%TD*%
%TA.AperFunction,ComponentPad*%
%ADD18C,2.200000*%
%TD*%
%TA.AperFunction,ComponentPad*%
%ADD19C,1.700000*%
%TD*%
%TA.AperFunction,ComponentPad*%
%ADD20C,1.500000*%
%TD*%
%TA.AperFunction,ComponentPad*%
%ADD21RoundRect,0.249999X0.850001X0.850001X-0.850001X0.850001X-0.850001X-0.850001X0.850001X-0.850001X0*%
%TD*%
%TA.AperFunction,ViaPad*%
%ADD22C,0.800000*%
%TD*%
%TA.AperFunction,Conductor*%
%ADD23C,0.400000*%
%TD*%
%TA.AperFunction,Conductor*%
%ADD24C,1.500000*%
%TD*%
%TA.AperFunction,Conductor*%
%ADD25C,0.800000*%
%TD*%
%TA.AperFunction,Conductor*%
%ADD26C,1.000000*%
%TD*%
G04 APERTURE END LIST*
D10*
%TO.P,H8,1*%
%TO.N,N/C*%
X127000000Y-111000000D03*
%TD*%
%TO.P,H7,1*%
%TO.N,N/C*%
X50000000Y-111000000D03*
%TD*%
%TO.P,H6,1*%
%TO.N,N/C*%
X127000000Y-57000000D03*
%TD*%
%TO.P,H5,1*%
%TO.N,N/C*%
X50000000Y-57000000D03*
%TD*%
%TO.P,H2,1*%
%TO.N,N/C*%
X127000000Y-50000000D03*
%TD*%
D11*
%TO.P,R11,1*%
%TO.N,/1WIRE_BUS2*%
X62420000Y-67000000D03*
%TO.P,R11,2*%
%TO.N,/1WIRE_BUS2_PROT*%
X72580000Y-67000000D03*
%TD*%
%TO.P,R6,1*%
%TO.N,/1WIRE_BUS1_PROT*%
X48420000Y-62000000D03*
%TO.P,R6,2*%
%TO.N,/3V3_PROT_1WIRE*%
X58580000Y-62000000D03*
%TD*%
D12*
%TO.P,C1,1*%
%TO.N,/+BATT_PROT*%
X53152700Y-93000000D03*
D11*
%TO.P,C1,2*%
%TO.N,GND*%
X49652700Y-93000000D03*
%TD*%
%TO.P,C3,1*%
%TO.N,/3V3_PROT_I2C*%
X69000000Y-88500000D03*
%TO.P,C3,2*%
%TO.N,GND*%
X74000000Y-88500000D03*
%TD*%
%TO.P,R9,1*%
%TO.N,/SCL_PROT*%
X117420000Y-66500000D03*
%TO.P,R9,2*%
%TO.N,/3V3_2*%
X127580000Y-66500000D03*
%TD*%
D10*
%TO.P,H3,1*%
%TO.N,N/C*%
X50000000Y-118000000D03*
%TD*%
D13*
%TO.P,U1,1,SHDN*%
%TO.N,unconnected-(U1-SHDN-Pad1)*%
X49500000Y-83000000D03*
D14*
%TO.P,U1,2,VIN*%
%TO.N,/+BATT_PROT*%
X52040000Y-83000000D03*
%TO.P,U1,3,GND*%
%TO.N,GND*%
X54580000Y-83000000D03*
%TO.P,U1,4,VOUT*%
%TO.N,+5V*%
X57120000Y-83000000D03*
%TD*%
D11*
%TO.P,R2,1*%
%TO.N,/3V3_2*%
X63420000Y-82500000D03*
%TO.P,R2,2*%
%TO.N,/3V3_PROT_1WIRE*%
X73580000Y-82500000D03*
%TD*%
%TO.P,C2,1*%
%TO.N,/3V3_PROT_1WIRE*%
X69000000Y-95000000D03*
%TO.P,C2,2*%
%TO.N,GND*%
X74000000Y-95000000D03*
%TD*%
D10*
%TO.P,H4,1*%
%TO.N,N/C*%
X127000000Y-118000000D03*
%TD*%
D11*
%TO.P,R13,1*%
%TO.N,/SCL*%
X117420000Y-71000000D03*
%TO.P,R13,2*%
%TO.N,/SCL_PROT*%
X127580000Y-71000000D03*
%TD*%
%TO.P,R1,1*%
%TO.N,/+BATT*%
X65000000Y-97580000D03*
%TO.P,R1,2*%
%TO.N,+5V*%
X65000000Y-87420000D03*
%TD*%
D10*
%TO.P,H1,1*%
%TO.N,N/C*%
X50000000Y-50000000D03*
%TD*%
D11*
%TO.P,R8,1*%
%TO.N,/SDA_PROT*%
X103920000Y-66500000D03*
%TO.P,R8,2*%
%TO.N,/3V3_2*%
X114080000Y-66500000D03*
%TD*%
%TO.P,R5,1*%
%TO.N,/SDA*%
X127580000Y-62000000D03*
%TO.P,R5,2*%
%TO.N,+3V3*%
X117420000Y-62000000D03*
%TD*%
D15*
%TO.P,J5,1,Pin_1*%
%TO.N,GND*%
X105000000Y-105500000D03*
D16*
%TO.P,J5,2,Pin_2*%
%TO.N,/3V3_PROT_I2C*%
X110000000Y-105500000D03*
%TO.P,J5,3,Pin_3*%
%TO.N,/SDA_PROT*%
X115000000Y-105500000D03*
%TO.P,J5,4,Pin_4*%
%TO.N,/SCL_PROT*%
X120000000Y-105500000D03*
%TD*%
D11*
%TO.P,R3,1*%
%TO.N,/3V3_2*%
X63420000Y-77500000D03*
%TO.P,R3,2*%
%TO.N,/3V3_PROT_I2C*%
X73580000Y-77500000D03*
%TD*%
%TO.P,R7,1*%
%TO.N,/1WIRE_BUS2_PROT*%
X62500000Y-62000000D03*
%TO.P,R7,2*%
%TO.N,/3V3_PROT_1WIRE*%
X72660000Y-62000000D03*
%TD*%
D17*
%TO.P,D1,1,K*%
%TO.N,/+BATT_PROT*%
X59500000Y-87340000D03*
D18*
%TO.P,D1,2,A*%
%TO.N,/+BATT*%
X59500000Y-97500000D03*
%TD*%
D19*
%TO.P,J2,1,Pin_1*%
%TO.N,GND*%
X84500000Y-48646000D03*
D14*
%TO.P,J2,2,Pin_2*%
%TO.N,+3V3*%
X87040000Y-48646000D03*
%TO.P,J2,3,Pin_3*%
%TO.N,/SDA*%
X89580000Y-48646000D03*
%TO.P,J2,4,Pin_4*%
%TO.N,/SCL*%
X92120000Y-48646000D03*
%TD*%
D20*
%TO.P,U2,1,VBAT*%
%TO.N,unconnected-(U2-VBAT-Pad1)*%
X94840000Y-76180000D03*
%TO.P,U2,2,EN*%
%TO.N,unconnected-(U2-EN-Pad2)*%
X97380000Y-76180000D03*
%TO.P,U2,3,5V*%
%TO.N,+5V*%
X99920000Y-76180000D03*
%TO.P,U2,4,IO11*%
%TO.N,unconnected-(U2-IO11-Pad4)*%
X102460000Y-76180000D03*
%TO.P,U2,5,IO10*%
%TO.N,unconnected-(U2-IO10-Pad5)*%
X105000000Y-76180000D03*
%TO.P,U2,6,IO7*%
%TO.N,unconnected-(U2-IO7-Pad6)*%
X107540000Y-76180000D03*
%TO.P,U2,7,IO3*%
%TO.N,unconnected-(U2-IO3-Pad7)*%
X110080000Y-76180000D03*
%TO.P,U2,8,IO1*%
%TO.N,unconnected-(U2-IO1-Pad8)*%
X112620000Y-76180000D03*
%TO.P,U2,9,IO38*%
%TO.N,unconnected-(U2-IO38-Pad9)*%
X115160000Y-76180000D03*
%TO.P,U2,10,IO33*%
%TO.N,unconnected-(U2-IO33-Pad10)*%
X117700000Y-76180000D03*
%TO.P,U2,11,IO9*%
%TO.N,/SCL*%
X120240000Y-76180000D03*
%TO.P,U2,12,IO8*%
%TO.N,/SDA*%
X122780000Y-76180000D03*
%TO.P,U2,13,LDO2_OUT*%
%TO.N,/3V3_2*%
X122780000Y-96500000D03*
%TO.P,U2,14,TX*%
%TO.N,unconnected-(U2-TX-Pad14)*%
X120240000Y-96500000D03*
%TO.P,U2,15,RX*%
%TO.N,unconnected-(U2-RX-Pad15)*%
X117700000Y-96500000D03*
%TO.P,U2,16,IO37*%
%TO.N,unconnected-(U2-IO37-Pad16)*%
X115160000Y-96500000D03*
%TO.P,U2,17,IO35*%
%TO.N,unconnected-(U2-IO35-Pad17)*%
X112620000Y-96500000D03*
%TO.P,U2,18,IO36*%
%TO.N,unconnected-(U2-IO36-Pad18)*%
X110080000Y-96500000D03*
%TO.P,U2,19,IO5*%
%TO.N,/1WIRE_BUS1*%
X107540000Y-96500000D03*
%TO.P,U2,20,IO6*%
%TO.N,/1WIRE_BUS2*%
X105000000Y-96500000D03*
%TO.P,U2,21,IO12*%
%TO.N,unconnected-(U2-IO12-Pad21)*%
X102460000Y-96500000D03*
%TO.P,U2,22,IO14*%
%TO.N,unconnected-(U2-IO14-Pad22)*%
X99920000Y-96500000D03*
%TO.P,U2,23,IO18*%
%TO.N,unconnected-(U2-IO18-Pad23)*%
X97380000Y-96500000D03*
%TO.P,U2,24,IO17*%
%TO.N,unconnected-(U2-IO17-Pad24)*%
X94840000Y-96500000D03*
%TO.P,U2,25,GND*%
%TO.N,GND*%
X92300000Y-96500000D03*
%TO.P,U2,26,IO0*%
%TO.N,unconnected-(U2-IO0-Pad26)*%
X89760000Y-96500000D03*
%TO.P,U2,27,3V3*%
%TO.N,+3V3*%
X87220000Y-96500000D03*
%TO.P,U2,28,RST*%
%TO.N,unconnected-(U2-RST-Pad28)*%
X84680000Y-96500000D03*
%TD*%
D11*
%TO.P,R12,1*%
%TO.N,/SDA*%
X103920000Y-71000000D03*
%TO.P,R12,2*%
%TO.N,/SDA_PROT*%
X114080000Y-71000000D03*
%TD*%
%TO.P,R10,1*%
%TO.N,/1WIRE_BUS1*%
X48420000Y-67000000D03*
%TO.P,R10,2*%
%TO.N,/1WIRE_BUS1_PROT*%
X58580000Y-67000000D03*
%TD*%
D15*
%TO.P,J3,1,Pin_1*%
%TO.N,GND*%
X70000000Y-105500000D03*
D16*
%TO.P,J3,2,Pin_2*%
%TO.N,/1WIRE_BUS1_PROT*%
X75000000Y-105500000D03*
%TO.P,J3,3,Pin_3*%
%TO.N,/3V3_PROT_1WIRE*%
X80000000Y-105500000D03*
%TD*%
D15*
%TO.P,J4,1,Pin_1*%
%TO.N,GND*%
X87500000Y-105500000D03*
D16*
%TO.P,J4,2,Pin_2*%
%TO.N,/1WIRE_BUS2_PROT*%
X92500000Y-105500000D03*
%TO.P,J4,3,Pin_3*%
%TO.N,/3V3_PROT_1WIRE*%
X97500000Y-105500000D03*
%TD*%
D21*
%TO.P,D3,1,K*%
%TO.N,/1WIRE_BUS2*%
X72580000Y-72500000D03*
D18*
%TO.P,D3,2,A*%
%TO.N,GND*%
X62420000Y-72500000D03*
%TD*%
D11*
%TO.P,R4,1*%
%TO.N,/SCL*%
X114080000Y-62000000D03*
%TO.P,R4,2*%
%TO.N,+3V3*%
X103920000Y-62000000D03*
%TD*%
D21*
%TO.P,D2,1,K*%
%TO.N,/1WIRE_BUS1*%
X58580000Y-72500000D03*
D18*
%TO.P,D2,2,A*%
%TO.N,GND*%
X48420000Y-72500000D03*
%TD*%
D15*
%TO.P,J1,1,Pin_1*%
%TO.N,GND*%
X57500000Y-105500000D03*
D16*
%TO.P,J1,2,Pin_2*%
%TO.N,/+BATT*%
X62500000Y-105500000D03*
%TD*%
D22*
%TO.N,/1WIRE_BUS2*%
X81876200Y-94257400D03*
%TO.N,/1WIRE_BUS1*%
X62739300Y-80494500D03*
%TD*%
D23*
%TO.N,/SCL*%
X92120000Y-51620000D02*
X92120000Y-48646000D01*
X95500000Y-55000000D02*
X92120000Y-51620000D01*
X107080000Y-55000000D02*
X95500000Y-55000000D01*
X114080000Y-62000000D02*
X107080000Y-55000000D01*
D24*
%TO.N,GND*%
X80500000Y-55000000D02*
X84500000Y-51000000D01*
X84500000Y-51000000D02*
X84500000Y-48646000D01*
X77183712Y-55000000D02*
X80500000Y-55000000D01*
X62420000Y-69763712D02*
X77183712Y-55000000D01*
X62420000Y-72500000D02*
X62420000Y-69763712D01*
D25*
%TO.N,/3V3_2*%
X63741000Y-77821000D02*
X63420000Y-77500000D01*
X63741000Y-82179000D02*
X63741000Y-77821000D01*
X63420000Y-82500000D02*
X63741000Y-82179000D01*
%TO.N,/3V3_PROT_I2C*%
X69000000Y-82080000D02*
X73580000Y-77500000D01*
X69000000Y-88500000D02*
X69000000Y-82080000D01*
D23*
%TO.N,/SCL_PROT*%
X121393100Y-70473100D02*
X117420000Y-66500000D01*
X121393100Y-104106900D02*
X121393100Y-70473100D01*
X120000000Y-105500000D02*
X121393100Y-104106900D01*
%TO.N,/1WIRE_BUS2*%
X81876200Y-81796200D02*
X81876200Y-94257400D01*
X72580000Y-72500000D02*
X81876200Y-81796200D01*
%TO.N,/1WIRE_BUS1*%
X53080000Y-67000000D02*
X48420000Y-67000000D01*
X58580000Y-72500000D02*
X53080000Y-67000000D01*
X58580000Y-76335200D02*
X62739300Y-80494500D01*
X58580000Y-72500000D02*
X58580000Y-76335200D01*
%TO.N,/1WIRE_BUS2_PROT*%
X82796400Y-77216400D02*
X72580000Y-67000000D01*
X82796400Y-103820300D02*
X82796400Y-77216400D01*
X86182300Y-107206200D02*
X82796400Y-103820300D01*
X90793800Y-107206200D02*
X86182300Y-107206200D01*
X92500000Y-105500000D02*
X90793800Y-107206200D01*
%TO.N,/1WIRE_BUS1_PROT*%
X73261200Y-107238800D02*
X75000000Y-105500000D01*
X68681700Y-107238800D02*
X73261200Y-107238800D01*
X66221000Y-104778100D02*
X68681700Y-107238800D01*
X66221000Y-78427900D02*
X66221000Y-104778100D01*
X60749600Y-72956500D02*
X66221000Y-78427900D01*
X60749600Y-69169600D02*
X60749600Y-72956500D01*
X58580000Y-67000000D02*
X60749600Y-69169600D01*
D25*
%TO.N,/3V3_PROT_1WIRE*%
X80000000Y-88920000D02*
X80000000Y-105500000D01*
X73580000Y-82500000D02*
X80000000Y-88920000D01*
X72486300Y-83593700D02*
X73580000Y-82500000D01*
X72486300Y-91513700D02*
X72486300Y-83593700D01*
X69000000Y-95000000D02*
X72486300Y-91513700D01*
X67545600Y-67114400D02*
X72660000Y-62000000D01*
X67545600Y-93545600D02*
X67545600Y-67114400D01*
X69000000Y-95000000D02*
X67545600Y-93545600D01*
D23*
%TO.N,/SDA_PROT*%
X113985000Y-71095000D02*
X114080000Y-71000000D01*
X113985000Y-104485000D02*
X113985000Y-71095000D01*
X115000000Y-105500000D02*
X113985000Y-104485000D01*
%TO.N,/SDA*%
X122780000Y-66800000D02*
X122780000Y-76180000D01*
X127580000Y-62000000D02*
X122780000Y-66800000D01*
X89580000Y-56660000D02*
X89580000Y-48646000D01*
X103920000Y-71000000D02*
X89580000Y-56660000D01*
D25*
%TO.N,+3V3*%
X87040000Y-96320000D02*
X87040000Y-48646000D01*
X87220000Y-96500000D02*
X87040000Y-96320000D01*
D23*
%TO.N,/SCL*%
X115750000Y-69330000D02*
X117420000Y-71000000D01*
X115750000Y-63670000D02*
X115750000Y-69330000D01*
X114080000Y-62000000D02*
X115750000Y-63670000D01*
X120240000Y-73820000D02*
X120240000Y-76180000D01*
X117420000Y-71000000D02*
X120240000Y-73820000D01*
D26*
%TO.N,/+BATT*%
X62500000Y-100080000D02*
X65000000Y-97580000D01*
X62500000Y-105500000D02*
X62500000Y-100080000D01*
D24*
%TO.N,GND*%
X70000000Y-99000000D02*
X74000000Y-95000000D01*
X70000000Y-105500000D02*
X70000000Y-99000000D01*
X74000000Y-95000000D02*
X74000000Y-88500000D01*
X87500000Y-101300000D02*
X92300000Y-96500000D01*
X87500000Y-105500000D02*
X87500000Y-101300000D01*
X47698300Y-73221700D02*
X48420000Y-72500000D01*
X47698300Y-91045600D02*
X47698300Y-73221700D01*
X49652700Y-93000000D02*
X47698300Y-91045600D01*
X101300000Y-105500000D02*
X92300000Y-96500000D01*
X105000000Y-105500000D02*
X101300000Y-105500000D01*
X54580000Y-83000000D02*
X54580000Y-84801700D01*
X54953300Y-102953300D02*
X57500000Y-105500000D01*
X54953300Y-94759800D02*
X54953300Y-102953300D01*
X54953300Y-85175000D02*
X54953300Y-94759800D01*
X54580000Y-84801700D02*
X54953300Y-85175000D01*
X51412500Y-94759800D02*
X54953300Y-94759800D01*
X49652700Y-93000000D02*
X51412500Y-94759800D01*
%TD*%
%TA.AperFunction,Conductor*%
%TO.N,GND*%
G36*
X126053042Y-46520185D02*
G01*
X126098797Y-46572989D01*
X126108741Y-46642147D01*
X126079716Y-46705703D01*
X126021999Y-46743160D01*
X125952049Y-46764378D01*
X125853022Y-46794418D01*
X125544343Y-46922278D01*
X125544338Y-46922280D01*
X125249696Y-47079769D01*
X125249678Y-47079780D01*
X124971890Y-47265393D01*
X124971876Y-47265403D01*
X124713604Y-47477361D01*
X124477361Y-47713604D01*
X124265403Y-47971876D01*
X124265393Y-47971890D01*
X124079780Y-48249678D01*
X124079769Y-48249696D01*
X123922280Y-48544338D01*
X123922278Y-48544343D01*
X123794418Y-48853022D01*
X123697428Y-49172758D01*
X123697425Y-49172769D01*
X123632250Y-49500434D01*
X123632247Y-49500451D01*
X123608496Y-49741603D01*
X123602684Y-49800622D01*
X123599500Y-49832947D01*
X123599500Y-50167052D01*
X123632247Y-50499548D01*
X123632250Y-50499565D01*
X123697425Y-50827230D01*
X123697428Y-50827241D01*
X123794418Y-51146977D01*
X123922278Y-51455656D01*
X123922280Y-51455661D01*
X124079769Y-51750303D01*
X124079780Y-51750321D01*
X124265393Y-52028109D01*
X124265403Y-52028123D01*
X124477361Y-52286395D01*
X124713604Y-52522638D01*
X124713609Y-52522642D01*
X124713610Y-52522643D01*
X124971882Y-52734601D01*
X125249685Y-52920224D01*
X125249694Y-52920229D01*
X125249696Y-52920230D01*
X125544338Y-53077719D01*
X125544340Y-53077719D01*
X125544346Y-53077723D01*
X125853024Y-53205582D01*
X126172749Y-53302569D01*
X126172755Y-53302570D01*
X126172758Y-53302571D01*
X126172769Y-53302574D01*
X126378243Y-53343444D01*
X126500441Y-53367751D01*
X126500450Y-53367751D01*
X126500451Y-53367752D01*
X126590252Y-53376597D01*
X126655039Y-53402758D01*
X126695398Y-53459792D01*
X126698515Y-53529592D01*
X126663400Y-53589997D01*
X126601203Y-53621828D01*
X126590252Y-53623403D01*
X126500451Y-53632247D01*
X126500434Y-53632250D01*
X126172769Y-53697425D01*
X126172758Y-53697428D01*
X125853022Y-53794418D01*
X125544343Y-53922278D01*
X125544338Y-53922280D01*
X125249696Y-54079769D01*
X125249678Y-54079780D01*
X124971890Y-54265393D01*
X124971876Y-54265403D01*
X124713604Y-54477361D01*
X124477361Y-54713604D01*
X124265403Y-54971876D01*
X124265393Y-54971890D01*
X124079780Y-55249678D01*
X124079769Y-55249696D01*
X123922280Y-55544338D01*
X123922278Y-55544343D01*
X123794418Y-55853022D01*
X123697428Y-56172758D01*
X123697425Y-56172769D01*
X123632250Y-56500434D01*
X123632247Y-56500451D01*
X123599500Y-56832947D01*
X123599500Y-57167052D01*
X123632247Y-57499548D01*
X123632250Y-57499565D01*
X123697425Y-57827230D01*
X123697428Y-57827241D01*
X123794418Y-58146977D01*
X123922278Y-58455656D01*
X123922280Y-58455661D01*
X124079769Y-58750303D01*
X124079780Y-58750321D01*
X124265393Y-59028109D01*
X124265403Y-59028123D01*
X124477361Y-59286395D01*
X124713604Y-59522638D01*
X124713609Y-59522642D01*
X124713610Y-59522643D01*
X124971882Y-59734601D01*
X125249685Y-59920224D01*
X125249694Y-59920229D01*
X125249696Y-59920230D01*
X125544338Y-60077719D01*
X125544340Y-60077719D01*
X125544346Y-60077723D01*
X125853024Y-60205582D01*
X126172749Y-60302569D01*
X126172755Y-60302570D01*
X126172758Y-60302571D01*
X126172769Y-60302574D01*
X126378243Y-60343444D01*
X126500441Y-60367751D01*
X126832944Y-60400500D01*
X126832947Y-60400500D01*
X127167053Y-60400500D01*
X127167056Y-60400500D01*
X127499559Y-60367751D01*
X127661757Y-60335487D01*
X127827230Y-60302574D01*
X127827241Y-60302571D01*
X127827241Y-60302570D01*
X127827251Y-60302569D01*
X128146976Y-60205582D01*
X128455654Y-60077723D01*
X128750315Y-59920224D01*
X129028118Y-59734601D01*
X129286390Y-59522643D01*
X129522643Y-59286390D01*
X129734601Y-59028118D01*
X129920224Y-58750315D01*
X130077723Y-58455654D01*
X130205582Y-58146976D01*
X130256840Y-57977998D01*
X130295137Y-57919562D01*
X130358949Y-57891106D01*
X130428016Y-57901666D01*
X130480409Y-57947890D01*
X130499500Y-58013996D01*
X130499500Y-74376000D01*
X130479815Y-74443039D01*
X130427011Y-74488794D01*
X130375500Y-74500000D01*
X124500000Y-74500000D01*
X124500000Y-107000000D01*
X130375500Y-107000000D01*
X130442539Y-107019685D01*
X130488294Y-107072489D01*
X130499500Y-107124000D01*
X130499500Y-109986003D01*
X130479815Y-110053042D01*
X130427011Y-110098797D01*
X130357853Y-110108741D01*
X130294297Y-110079716D01*
X130256839Y-110021998D01*
X130245920Y-109986003D01*
X130205582Y-109853024D01*
X130077723Y-109544346D01*
X129920224Y-109249685D01*
X129734601Y-108971882D01*
X129522643Y-108713610D01*
X129522642Y-108713609D01*
X129522638Y-108713604D01*
X129286395Y-108477361D01*
X129028123Y-108265403D01*
X129028122Y-108265402D01*
X129028118Y-108265399D01*
X128750315Y-108079776D01*
X128750310Y-108079773D01*
X128750303Y-108079769D01*
X128455661Y-107922280D01*
X128455656Y-107922278D01*
X128146977Y-107794418D01*
X127827241Y-107697428D01*
X127827230Y-107697425D01*
X127499565Y-107632250D01*
X127499548Y-107632247D01*
X127240148Y-107606699D01*
X127167056Y-107599500D01*
X126832944Y-107599500D01*
X126759852Y-107606699D01*
X126500451Y-107632247D01*
X126500434Y-107632250D01*
X126172769Y-107697425D01*
X126172758Y-107697428D01*
X125853022Y-107794418D01*
X125544343Y-107922278D01*
X125544338Y-107922280D01*
X125249696Y-108079769D01*
X125249678Y-108079780D01*
X124971890Y-108265393D01*
X124971876Y-108265403D01*
X124713604Y-108477361D01*
X124477361Y-108713604D01*
X124265403Y-108971876D01*
X124265393Y-108971890D01*
X124079780Y-109249678D01*
X124079769Y-109249696D01*
X123922280Y-109544338D01*
X123922278Y-109544343D01*
X123794418Y-109853022D01*
X123697428Y-110172758D01*
X123697425Y-110172769D01*
X123632250Y-110500434D01*
X123632247Y-110500451D01*
X123599500Y-110832947D01*
X123599500Y-111167052D01*
X123632247Y-111499548D01*
X123632250Y-111499565D01*
X123697425Y-111827230D01*
X123697428Y-111827241D01*
X123794418Y-112146977D01*
X123922278Y-112455656D01*
X123922280Y-112455661D01*
X124079769Y-112750303D01*
X124079780Y-112750321D01*
X124265393Y-113028109D01*
X124265403Y-113028123D01*
X124477361Y-113286395D01*
X124713604Y-113522638D01*
X124713609Y-113522642D01*
X124713610Y-113522643D01*
X124971882Y-113734601D01*
X125249685Y-113920224D01*
X125249694Y-113920229D01*
X125249696Y-113920230D01*
X125544338Y-114077719D01*
X125544340Y-114077719D01*
X125544346Y-114077723D01*
X125853024Y-114205582D01*
X126172749Y-114302569D01*
X126172755Y-114302570D01*
X126172758Y-114302571D01*
X126172769Y-114302574D01*
X126378243Y-114343444D01*
X126500441Y-114367751D01*
X126500450Y-114367751D01*
X126500451Y-114367752D01*
X126590252Y-114376597D01*
X126655039Y-114402758D01*
X126695398Y-114459792D01*
X126698515Y-114529592D01*
X126663400Y-114589997D01*
X126601203Y-114621828D01*
X126590252Y-114623403D01*
X126500451Y-114632247D01*
X126500434Y-114632250D01*
X126172769Y-114697425D01*
X126172758Y-114697428D01*
X125853022Y-114794418D01*
X125544343Y-114922278D01*
X125544338Y-114922280D01*
X125249696Y-115079769D01*
X125249678Y-115079780D01*
X124971890Y-115265393D01*
X124971876Y-115265403D01*
X124713604Y-115477361D01*
X124477361Y-115713604D01*
X124265403Y-115971876D01*
X124265393Y-115971890D01*
X124079780Y-116249678D01*
X124079769Y-116249696D01*
X123922280Y-116544338D01*
X123922278Y-116544343D01*
X123794418Y-116853022D01*
X123697428Y-117172758D01*
X123697425Y-117172769D01*
X123632250Y-117500434D01*
X123632247Y-117500451D01*
X123599500Y-117832947D01*
X123599500Y-118167052D01*
X123632247Y-118499548D01*
X123632250Y-118499565D01*
X123697425Y-118827230D01*
X123697428Y-118827241D01*
X123794418Y-119146977D01*
X123922278Y-119455656D01*
X123922280Y-119455661D01*
X124079769Y-119750303D01*
X124079780Y-119750321D01*
X124265393Y-120028109D01*
X124265403Y-120028123D01*
X124477361Y-120286395D01*
X124713604Y-120522638D01*
X124713609Y-120522642D01*
X124713610Y-120522643D01*
X124971882Y-120734601D01*
X125249685Y-120920224D01*
X125249694Y-120920229D01*
X125249696Y-120920230D01*
X125544338Y-121077719D01*
X125544340Y-121077719D01*
X125544346Y-121077723D01*
X125853024Y-121205582D01*
X126021999Y-121256839D01*
X126080437Y-121295137D01*
X126108893Y-121358949D01*
X126098333Y-121428016D01*
X126052109Y-121480409D01*
X125986003Y-121499500D01*
X51013997Y-121499500D01*
X50946958Y-121479815D01*
X50901203Y-121427011D01*
X50891259Y-121357853D01*
X50920284Y-121294297D01*
X50978000Y-121256839D01*
X51146976Y-121205582D01*
X51455654Y-121077723D01*
X51750315Y-120920224D01*
X52028118Y-120734601D01*
X52286390Y-120522643D01*
X52522643Y-120286390D01*
X52734601Y-120028118D01*
X52920224Y-119750315D01*
X53077723Y-119455654D01*
X53205582Y-119146976D01*
X53302569Y-118827251D01*
X53302571Y-118827241D01*
X53302574Y-118827230D01*
X53335487Y-118661757D01*
X53367751Y-118499559D01*
X53400500Y-118167056D01*
X53400500Y-117832944D01*
X53367751Y-117500441D01*
X53343444Y-117378243D01*
X53302574Y-117172769D01*
X53302571Y-117172758D01*
X53302570Y-117172755D01*
X53302569Y-117172749D01*
X53205582Y-116853024D01*
X53077723Y-116544346D01*
X52920224Y-116249685D01*
X52734601Y-115971882D01*
X52522643Y-115713610D01*
X52522642Y-115713609D01*
X52522638Y-115713604D01*
X52286395Y-115477361D01*
X52028123Y-115265403D01*
X52028122Y-115265402D01*
X52028118Y-115265399D01*
X51750315Y-115079776D01*
X51750310Y-115079773D01*
X51750303Y-115079769D01*
X51455661Y-114922280D01*
X51455656Y-114922278D01*
X51146977Y-114794418D01*
X50827241Y-114697428D01*
X50827230Y-114697425D01*
X50499565Y-114632250D01*
X50499548Y-114632247D01*
X50409747Y-114623403D01*
X50344960Y-114597242D01*
X50304601Y-114540208D01*
X50301484Y-114470408D01*
X50336598Y-114410003D01*
X50398796Y-114378172D01*
X50409747Y-114376597D01*
X50473626Y-114370305D01*
X50499559Y-114367751D01*
X50661757Y-114335487D01*
X50827230Y-114302574D01*
X50827241Y-114302571D01*
X50827241Y-114302570D01*
X50827251Y-114302569D01*
X51146976Y-114205582D01*
X51455654Y-114077723D01*
X51750315Y-113920224D01*
X52028118Y-113734601D01*
X52286390Y-113522643D01*
X52522643Y-113286390D01*
X52734601Y-113028118D01*
X52920224Y-112750315D01*
X53077723Y-112455654D01*
X53205582Y-112146976D01*
X53302569Y-111827251D01*
X53302571Y-111827241D01*
X53302574Y-111827230D01*
X53335487Y-111661757D01*
X53367751Y-111499559D01*
X53400500Y-111167056D01*
X53400500Y-110832944D01*
X53367751Y-110500441D01*
X53343444Y-110378243D01*
X53302574Y-110172769D01*
X53302571Y-110172758D01*
X53302570Y-110172755D01*
X53302569Y-110172749D01*
X53205582Y-109853024D01*
X53077723Y-109544346D01*
X52920224Y-109249685D01*
X52734601Y-108971882D01*
X52522643Y-108713610D01*
X52522642Y-108713609D01*
X52522638Y-108713604D01*
X52286395Y-108477361D01*
X52028123Y-108265403D01*
X52028122Y-108265402D01*
X52028118Y-108265399D01*
X51750315Y-108079776D01*
X51750310Y-108079773D01*
X51750303Y-108079769D01*
X51455661Y-107922280D01*
X51455656Y-107922278D01*
X51146977Y-107794418D01*
X50827241Y-107697428D01*
X50827230Y-107697425D01*
X50499565Y-107632250D01*
X50499548Y-107632247D01*
X50240148Y-107606699D01*
X50167056Y-107599500D01*
X49832944Y-107599500D01*
X49759852Y-107606699D01*
X49500451Y-107632247D01*
X49500434Y-107632250D01*
X49172769Y-107697425D01*
X49172758Y-107697428D01*
X48853022Y-107794418D01*
X48544343Y-107922278D01*
X48544338Y-107922280D01*
X48249696Y-108079769D01*
X48249678Y-108079780D01*
X47971890Y-108265393D01*
X47971876Y-108265403D01*
X47713604Y-108477361D01*
X47477361Y-108713604D01*
X47265403Y-108971876D01*
X47265393Y-108971890D01*
X47079780Y-109249678D01*
X47079769Y-109249696D01*
X46922280Y-109544338D01*
X46922278Y-109544343D01*
X46794418Y-109853022D01*
X46764378Y-109952049D01*
X46754080Y-109986003D01*
X46743161Y-110021998D01*
X46704863Y-110080437D01*
X46641051Y-110108893D01*
X46571984Y-110098333D01*
X46519591Y-110052109D01*
X46500500Y-109986003D01*
X46500500Y-104400013D01*
X55700000Y-104400013D01*
X55700000Y-105250000D01*
X56899999Y-105250000D01*
X56874979Y-105310402D01*
X56850000Y-105435981D01*
X56850000Y-105564019D01*
X56874979Y-105689598D01*
X56899999Y-105750000D01*
X55700001Y-105750000D01*
X55700001Y-106599986D01*
X55710494Y-106702697D01*
X55765641Y-106869119D01*
X55765643Y-106869124D01*
X55857684Y-107018345D01*
X55981654Y-107142315D01*
X56130875Y-107234356D01*
X56130880Y-107234358D01*
X56297302Y-107289505D01*
X56297309Y-107289506D01*
X56400019Y-107299999D01*
X57249999Y-107299999D01*
X57250000Y-107299998D01*
X57250000Y-106100001D01*
X57310402Y-106125021D01*
X57435981Y-106150000D01*
X57564019Y-106150000D01*
X57689598Y-106125021D01*
X57750000Y-106100001D01*
X57750000Y-107299999D01*
X58599972Y-107299999D01*
X58599986Y-107299998D01*
X58702697Y-107289505D01*
X58869119Y-107234358D01*
X58869124Y-107234356D01*
X59018345Y-107142315D01*
X59142315Y-107018345D01*
X59234356Y-106869124D01*
X59234358Y-106869119D01*
X59289505Y-106702697D01*
X59289506Y-106702690D01*
X59299999Y-106599986D01*
X59300000Y-106599973D01*
X59300000Y-105750000D01*
X58100001Y-105750000D01*
X58125021Y-105689598D01*
X58150000Y-105564019D01*
X58150000Y-105435981D01*
X58125021Y-105310402D01*
X58100001Y-105250000D01*
X59299999Y-105250000D01*
X59299999Y-104400028D01*
X59299998Y-104400013D01*
X59289505Y-104297302D01*
X59234358Y-104130880D01*
X59234356Y-104130875D01*
X59142315Y-103981654D01*
X59018345Y-103857684D01*
X58869124Y-103765643D01*
X58869119Y-103765641D01*
X58702697Y-103710494D01*
X58702690Y-103710493D01*
X58599986Y-103700000D01*
X57750000Y-103700000D01*
X57750000Y-104899998D01*
X57689598Y-104874979D01*
X57564019Y-104850000D01*
X57435981Y-104850000D01*
X57310402Y-104874979D01*
X57250000Y-104899998D01*
X57250000Y-103700000D01*
X56400028Y-103700000D01*
X56400012Y-103700001D01*
X56297302Y-103710494D01*
X56130880Y-103765641D01*
X56130875Y-103765643D01*
X55981654Y-103857684D01*
X55857684Y-103981654D01*
X55765643Y-104130875D01*
X55765641Y-104130880D01*
X55710494Y-104297302D01*
X55710493Y-104297309D01*
X55700000Y-104400013D01*
X46500500Y-104400013D01*
X46500500Y-97397648D01*
X58199500Y-97397648D01*
X58199500Y-97602351D01*
X58231522Y-97804534D01*
X58294781Y-97999223D01*
X58387715Y-98181613D01*
X58508028Y-98347213D01*
X58652786Y-98491971D01*
X58778539Y-98583334D01*
X58818390Y-98612287D01*
X58934607Y-98671503D01*
X59000776Y-98705218D01*
X59000778Y-98705218D01*
X59000781Y-98705220D01*
X59105137Y-98739127D01*
X59195465Y-98768477D01*
X59296557Y-98784488D01*
X59397648Y-98800500D01*
X59397649Y-98800500D01*
X59602351Y-98800500D01*
X59602352Y-98800500D01*
X59804534Y-98768477D01*
X59999219Y-98705220D01*
X60181610Y-98612287D01*
X60278285Y-98542049D01*
X60347213Y-98491971D01*
X60347215Y-98491968D01*
X60347219Y-98491966D01*
X60491966Y-98347219D01*
X60491968Y-98347215D01*
X60491971Y-98347213D01*
X60544732Y-98274590D01*
X60612287Y-98181610D01*
X60705220Y-97999219D01*
X60768477Y-97804534D01*
X60800500Y-97602352D01*
X60800500Y-97397648D01*
X60768477Y-97195466D01*
X60705220Y-97000781D01*
X60705218Y-97000778D01*
X60705218Y-97000776D01*
X60630203Y-96853553D01*
X60612287Y-96818390D01*
X60582392Y-96777243D01*
X60491971Y-96652786D01*
X60347213Y-96508028D01*
X60181613Y-96387715D01*
X60181612Y-96387714D01*
X60181610Y-96387713D01*
X60124653Y-96358691D01*
X59999223Y-96294781D01*
X59804534Y-96231522D01*
X59629995Y-96203878D01*
X59602352Y-96199500D01*
X59397648Y-96199500D01*
X59373329Y-96203351D01*
X59195465Y-96231522D01*
X59000776Y-96294781D01*
X58818386Y-96387715D01*
X58652786Y-96508028D01*
X58508028Y-96652786D01*
X58387715Y-96818386D01*
X58294781Y-97000776D01*
X58231522Y-97195465D01*
X58199500Y-97397648D01*
X46500500Y-97397648D01*
X46500500Y-92897682D01*
X48352700Y-92897682D01*
X48352700Y-93102317D01*
X48384709Y-93304417D01*
X48447944Y-93499031D01*
X48540841Y-93681350D01*
X48540847Y-93681359D01*
X48573223Y-93725921D01*
X48573224Y-93725922D01*
X49252700Y-93046446D01*
X49252700Y-93052661D01*
X49279959Y-93154394D01*
X49332620Y-93245606D01*
X49407094Y-93320080D01*
X49498306Y-93372741D01*
X49600039Y-93400000D01*
X49606253Y-93400000D01*
X48926776Y-94079474D01*
X48971350Y-94111859D01*
X49153668Y-94204755D01*
X49348282Y-94267990D01*
X49550383Y-94300000D01*
X49755017Y-94300000D01*
X49957117Y-94267990D01*
X50151731Y-94204755D01*
X50334049Y-94111859D01*
X50378621Y-94079474D01*
X49699147Y-93400000D01*
X49705361Y-93400000D01*
X49807094Y-93372741D01*
X49898306Y-93320080D01*
X49972780Y-93245606D01*
X50025441Y-93154394D01*
X50052700Y-93052661D01*
X50052700Y-93046447D01*
X50732174Y-93725921D01*
X50764559Y-93681349D01*
X50857455Y-93499031D01*
X50920690Y-93304417D01*
X50952700Y-93102317D01*
X50952700Y-92897682D01*
X50920690Y-92695582D01*
X50857455Y-92500968D01*
X50831042Y-92449130D01*
X50803833Y-92395730D01*
X52152200Y-92395730D01*
X52152200Y-93604269D01*
X52155053Y-93634699D01*
X52155053Y-93634701D01*
X52197954Y-93757302D01*
X52199907Y-93762882D01*
X52280550Y-93872150D01*
X52389818Y-93952793D01*
X52432545Y-93967744D01*
X52517999Y-93997646D01*
X52548430Y-94000500D01*
X52548434Y-94000500D01*
X53756970Y-94000500D01*
X53787399Y-93997646D01*
X53787401Y-93997646D01*
X53851490Y-93975219D01*
X53915582Y-93952793D01*
X54024850Y-93872150D01*
X54105493Y-93762882D01*
X54134023Y-93681349D01*
X54150346Y-93634701D01*
X54150346Y-93634699D01*
X54153200Y-93604269D01*
X54153200Y-92395730D01*
X54150346Y-92365300D01*
X54150346Y-92365298D01*
X54105493Y-92237119D01*
X54105492Y-92237117D01*
X54024850Y-92127850D01*
X53915582Y-92047207D01*
X53915580Y-92047206D01*
X53787400Y-92002353D01*
X53756970Y-91999500D01*
X53756966Y-91999500D01*
X52548434Y-91999500D01*
X52548430Y-91999500D01*
X52518000Y-92002353D01*
X52517998Y-92002353D01*
X52389819Y-92047206D01*
X52389817Y-92047207D01*
X52280550Y-92127850D01*
X52199907Y-92237117D01*
X52199906Y-92237119D01*
X52155053Y-92365298D01*
X52155053Y-92365300D01*
X52152200Y-92395730D01*
X50803833Y-92395730D01*
X50764559Y-92318650D01*
X50732174Y-92274077D01*
X50732174Y-92274076D01*
X50052700Y-92953551D01*
X50052700Y-92947339D01*
X50025441Y-92845606D01*
X49972780Y-92754394D01*
X49898306Y-92679920D01*
X49807094Y-92627259D01*
X49705361Y-92600000D01*
X49699146Y-92600000D01*
X50378622Y-91920524D01*
X50378621Y-91920523D01*
X50334059Y-91888147D01*
X50334050Y-91888141D01*
X50151731Y-91795244D01*
X49957117Y-91732009D01*
X49755017Y-91700000D01*
X49550383Y-91700000D01*
X49348282Y-91732009D01*
X49153668Y-91795244D01*
X48971344Y-91888143D01*
X48926777Y-91920523D01*
X48926777Y-91920524D01*
X49606254Y-92600000D01*
X49600039Y-92600000D01*
X49498306Y-92627259D01*
X49407094Y-92679920D01*
X49332620Y-92754394D01*
X49279959Y-92845606D01*
X49252700Y-92947339D01*
X49252700Y-92953553D01*
X48573224Y-92274077D01*
X48573223Y-92274077D01*
X48540843Y-92318644D01*
X48447944Y-92500968D01*
X48384709Y-92695582D01*
X48352700Y-92897682D01*
X46500500Y-92897682D01*
X46500500Y-86435729D01*
X58199500Y-86435729D01*
X58199500Y-88244260D01*
X58199501Y-88244266D01*
X58202354Y-88274700D01*
X58202354Y-88274702D01*
X58202355Y-88274703D01*
X58202355Y-88274705D01*
X58247206Y-88402882D01*
X58327849Y-88512150D01*
X58380877Y-88551286D01*
X58437117Y-88592793D01*
X58453550Y-88598543D01*
X58565298Y-88637646D01*
X58572323Y-88638304D01*
X58595733Y-88640500D01*
X60404266Y-88640499D01*
X60434700Y-88637646D01*
X60562883Y-88592793D01*
X60672150Y-88512150D01*
X60752793Y-88402883D01*
X60775219Y-88338791D01*
X60797646Y-88274702D01*
X60797646Y-88274700D01*
X60799632Y-88253521D01*
X60800500Y-88244267D01*
X60800499Y-86435734D01*
X60797646Y-86405300D01*
X60752793Y-86277117D01*
X60672150Y-86167849D01*
X60598123Y-86113215D01*
X60562883Y-86087207D01*
X60562881Y-86087206D01*
X60434701Y-86042353D01*
X60404270Y-86039500D01*
X58595739Y-86039500D01*
X58581751Y-86040811D01*
X58565300Y-86042354D01*
X58565297Y-86042354D01*
X58565296Y-86042355D01*
X58565294Y-86042355D01*
X58437117Y-86087206D01*
X58327849Y-86167849D01*
X58247206Y-86277118D01*
X58202353Y-86405297D01*
X58202353Y-86405299D01*
X58199500Y-86435729D01*
X46500500Y-86435729D01*
X46500500Y-82130247D01*
X48449500Y-82130247D01*
X48449500Y-83869752D01*
X48461131Y-83928229D01*
X48461132Y-83928230D01*
X48505447Y-83994552D01*
X48571769Y-84038867D01*
X48571770Y-84038868D01*
X48630247Y-84050499D01*
X48630250Y-84050500D01*
X48630252Y-84050500D01*
X50369750Y-84050500D01*
X50369751Y-84050499D01*
X50384568Y-84047552D01*
X50428229Y-84038868D01*
X50428229Y-84038867D01*
X50428231Y-84038867D01*
X50494552Y-83994552D01*
X50538867Y-83928231D01*
X50538867Y-83928229D01*
X50538868Y-83928229D01*
X50550499Y-83869752D01*
X50550500Y-83869750D01*
X50550500Y-82896530D01*
X50989500Y-82896530D01*
X50989500Y-83103469D01*
X51029868Y-83306412D01*
X51029870Y-83306420D01*
X51095939Y-83465925D01*
X51109059Y-83497598D01*
X51166541Y-83583626D01*
X51224024Y-83669657D01*
X51370342Y-83815975D01*
X51370345Y-83815977D01*
X51542402Y-83930941D01*
X51733580Y-84010130D01*
X51878052Y-84038867D01*
X51936530Y-84050499D01*
X51936534Y-84050500D01*
X51936535Y-84050500D01*
X52143466Y-84050500D01*
X52143467Y-84050499D01*
X52346420Y-84010130D01*
X52537598Y-83930941D01*
X52709655Y-83815977D01*
X52855977Y-83669655D01*
X52970941Y-83497598D01*
X53039165Y-83332889D01*
X53083004Y-83278488D01*
X53149298Y-83256423D01*
X53216998Y-83273702D01*
X53264609Y-83324839D01*
X53271656Y-83342026D01*
X53328904Y-83518216D01*
X53425379Y-83707557D01*
X53550272Y-83879459D01*
X53550276Y-83879464D01*
X53700535Y-84029723D01*
X53700540Y-84029727D01*
X53872442Y-84154620D01*
X54061782Y-84251095D01*
X54263871Y-84316757D01*
X54330000Y-84327231D01*
X54330000Y-83433012D01*
X54387007Y-83465925D01*
X54514174Y-83500000D01*
X54645826Y-83500000D01*
X54772993Y-83465925D01*
X54830000Y-83433012D01*
X54830000Y-84327230D01*
X54896126Y-84316757D01*
X54896129Y-84316757D01*
X55098217Y-84251095D01*
X55287557Y-84154620D01*
X55459459Y-84029727D01*
X55459464Y-84029723D01*
X55609723Y-83879464D01*
X55609727Y-83879459D01*
X55734620Y-83707557D01*
X55831095Y-83518217D01*
X55888343Y-83342026D01*
X55927780Y-83284351D01*
X55992139Y-83257152D01*
X56060985Y-83269066D01*
X56112461Y-83316310D01*
X56120833Y-83332887D01*
X56143095Y-83386632D01*
X56175939Y-83465925D01*
X56189059Y-83497598D01*
X56246541Y-83583626D01*
X56304024Y-83669657D01*
X56450342Y-83815975D01*
X56450345Y-83815977D01*
X56622402Y-83930941D01*
X56813580Y-84010130D01*
X56958052Y-84038867D01*
X57016530Y-84050499D01*
X57016534Y-84050500D01*
X57016535Y-84050500D01*
X57223466Y-84050500D01*
X57223467Y-84050499D01*
X57426420Y-84010130D01*
X57617598Y-83930941D01*
X57789655Y-83815977D01*
X57935977Y-83669655D01*
X58050941Y-83497598D01*
X58130130Y-83306420D01*
X58170500Y-83103465D01*
X58170500Y-82896535D01*
X58130130Y-82693580D01*
X58050941Y-82502402D01*
X57935977Y-82330345D01*
X57935975Y-82330342D01*
X57789657Y-82184024D01*
X57694638Y-82120535D01*
X57617598Y-82069059D01*
X57426420Y-81989870D01*
X57426412Y-81989868D01*
X57223469Y-81949500D01*
X57223465Y-81949500D01*
X57016535Y-81949500D01*
X57016530Y-81949500D01*
X56813587Y-81989868D01*
X56813579Y-81989870D01*
X56622403Y-82069058D01*
X56450342Y-82184024D01*
X56304024Y-82330342D01*
X56189057Y-82502403D01*
X56120835Y-82667108D01*
X56076994Y-82721511D01*
X56010700Y-82743576D01*
X55943000Y-82726297D01*
X55895390Y-82675159D01*
X55888343Y-82657973D01*
X55831095Y-82481782D01*
X55734620Y-82292442D01*
X55609727Y-82120540D01*
X55609723Y-82120535D01*
X55459464Y-81970276D01*
X55459459Y-81970272D01*
X55287557Y-81845379D01*
X55098215Y-81748903D01*
X54896124Y-81683241D01*
X54830000Y-81672768D01*
X54830000Y-82566988D01*
X54772993Y-82534075D01*
X54645826Y-82500000D01*
X54514174Y-82500000D01*
X54387007Y-82534075D01*
X54330000Y-82566988D01*
X54330000Y-81672768D01*
X54329999Y-81672768D01*
X54263875Y-81683241D01*
X54061784Y-81748903D01*
X53872442Y-81845379D01*
X53700540Y-81970272D01*
X53700535Y-81970276D01*
X53550276Y-82120535D01*
X53550272Y-82120540D01*
X53425379Y-82292442D01*
X53328905Y-82481781D01*
X53271656Y-82657974D01*
X53232218Y-82715649D01*
X53167859Y-82742847D01*
X53099013Y-82730932D01*
X53047537Y-82683688D01*
X53039164Y-82667107D01*
X53039095Y-82666941D01*
X53013456Y-82605043D01*
X52970943Y-82502405D01*
X52855975Y-82330342D01*
X52709657Y-82184024D01*
X52614638Y-82120535D01*
X52537598Y-82069059D01*
X52346420Y-81989870D01*
X52346412Y-81989868D01*
X52143469Y-81949500D01*
X52143465Y-81949500D01*
X51936535Y-81949500D01*
X51936530Y-81949500D01*
X51733587Y-81989868D01*
X51733579Y-81989870D01*
X51542403Y-82069058D01*
X51370342Y-82184024D01*
X51224024Y-82330342D01*
X51109058Y-82502403D01*
X51029870Y-82693579D01*
X51029868Y-82693587D01*
X50989500Y-82896530D01*
X50550500Y-82896530D01*
X50550500Y-82130249D01*
X50550499Y-82130247D01*
X50538868Y-82071770D01*
X50538867Y-82071769D01*
X50494552Y-82005447D01*
X50428230Y-81961132D01*
X50428229Y-81961131D01*
X50369752Y-81949500D01*
X50369748Y-81949500D01*
X48630252Y-81949500D01*
X48630247Y-81949500D01*
X48571770Y-81961131D01*
X48571769Y-81961132D01*
X48505447Y-82005447D01*
X48461132Y-82071769D01*
X48461131Y-82071770D01*
X48449500Y-82130247D01*
X46500500Y-82130247D01*
X46500500Y-72374071D01*
X46820000Y-72374071D01*
X46820000Y-72625928D01*
X46859397Y-72874669D01*
X46937219Y-73114184D01*
X47051557Y-73338583D01*
X47125748Y-73440697D01*
X47125748Y-73440698D01*
X47896212Y-72670233D01*
X47907482Y-72712292D01*
X47979890Y-72837708D01*
X48082292Y-72940110D01*
X48207708Y-73012518D01*
X48249765Y-73023787D01*
X47479300Y-73794250D01*
X47581416Y-73868442D01*
X47805815Y-73982780D01*
X48045330Y-74060602D01*
X48294072Y-74100000D01*
X48545928Y-74100000D01*
X48794669Y-74060602D01*
X49034184Y-73982780D01*
X49258575Y-73868446D01*
X49258581Y-73868442D01*
X49360697Y-73794250D01*
X49360698Y-73794250D01*
X48590234Y-73023787D01*
X48632292Y-73012518D01*
X48757708Y-72940110D01*
X48860110Y-72837708D01*
X48932518Y-72712292D01*
X48943787Y-72670234D01*
X49714250Y-73440698D01*
X49714250Y-73440697D01*
X49788442Y-73338581D01*
X49788446Y-73338575D01*
X49902780Y-73114184D01*
X49980602Y-72874669D01*
X50020000Y-72625928D01*
X50020000Y-72374071D01*
X49980602Y-72125330D01*
X49902780Y-71885815D01*
X49788442Y-71661416D01*
X49714250Y-71559301D01*
X49714250Y-71559300D01*
X48943787Y-72329764D01*
X48932518Y-72287708D01*
X48860110Y-72162292D01*
X48757708Y-72059890D01*
X48632292Y-71987482D01*
X48590232Y-71976212D01*
X49360698Y-71205748D01*
X49258583Y-71131557D01*
X49034184Y-71017219D01*
X48794669Y-70939397D01*
X48545928Y-70900000D01*
X48294072Y-70900000D01*
X48045330Y-70939397D01*
X47805815Y-71017219D01*
X47581413Y-71131559D01*
X47479301Y-71205747D01*
X47479300Y-71205748D01*
X48249765Y-71976212D01*
X48207708Y-71987482D01*
X48082292Y-72059890D01*
X47979890Y-72162292D01*
X47907482Y-72287708D01*
X47896212Y-72329765D01*
X47125748Y-71559300D01*
X47125747Y-71559301D01*
X47051559Y-71661413D01*
X46937219Y-71885815D01*
X46859397Y-72125330D01*
X46820000Y-72374071D01*
X46500500Y-72374071D01*
X46500500Y-67098543D01*
X47419499Y-67098543D01*
X47457947Y-67291829D01*
X47457950Y-67291839D01*
X47533364Y-67473907D01*
X47533371Y-67473920D01*
X47642860Y-67637781D01*
X47642863Y-67637785D01*
X47782214Y-67777136D01*
X47782218Y-67777139D01*
X47946079Y-67886628D01*
X47946092Y-67886635D01*
X48128160Y-67962049D01*
X48128165Y-67962051D01*
X48128169Y-67962051D01*
X48128170Y-67962052D01*
X48321456Y-68000500D01*
X48321459Y-68000500D01*
X48518543Y-68000500D01*
X48648582Y-67974632D01*
X48711835Y-67962051D01*
X48893914Y-67886632D01*
X49057782Y-67777139D01*
X49197139Y-67637782D01*
X49306632Y-67473914D01*
X49306634Y-67473907D01*
X49309502Y-67468544D01*
X49311381Y-67469548D01*
X49349159Y-67422655D01*
X49415450Y-67400580D01*
X49419895Y-67400500D01*
X52862745Y-67400500D01*
X52929784Y-67420185D01*
X52950426Y-67436819D01*
X57243181Y-71729573D01*
X57276666Y-71790896D01*
X57279500Y-71817254D01*
X57279500Y-73404260D01*
X57279501Y-73404266D01*
X57282354Y-73434700D01*
X57282354Y-73434702D01*
X57282355Y-73434703D01*
X57282355Y-73434705D01*
X57327206Y-73562882D01*
X57407849Y-73672150D01*
X57462483Y-73712471D01*
X57517117Y-73752793D01*
X57558499Y-73767273D01*
X57645298Y-73797646D01*
X57652323Y-73798304D01*
X57675733Y-73800500D01*
X58055500Y-73800499D01*
X58122539Y-73820183D01*
X58168294Y-73872987D01*
X58179500Y-73924499D01*
X58179500Y-76387926D01*
X58206793Y-76489789D01*
X58212400Y-76499500D01*
X58259520Y-76581113D01*
X58259522Y-76581115D01*
X62102481Y-80424074D01*
X62135966Y-80485397D01*
X62138800Y-80511755D01*
X62138800Y-80573556D01*
X62179723Y-80726283D01*
X62179726Y-80726290D01*
X62258775Y-80863209D01*
X62258779Y-80863214D01*
X62258780Y-80863216D01*
X62370584Y-80975020D01*
X62370586Y-80975021D01*
X62370590Y-80975024D01*
X62503872Y-81051973D01*
X62507516Y-81054077D01*
X62660243Y-81095000D01*
X62660245Y-81095000D01*
X62818355Y-81095000D01*
X62818357Y-81095000D01*
X62971084Y-81054077D01*
X62971085Y-81054076D01*
X62978935Y-81051973D01*
X62979426Y-81053805D01*
X63038509Y-81047450D01*
X63100990Y-81078720D01*
X63136646Y-81138807D01*
X63140500Y-81169481D01*
X63140500Y-81449985D01*
X63120815Y-81517024D01*
X63068011Y-81562779D01*
X63063953Y-81564546D01*
X62946088Y-81613366D01*
X62946079Y-81613371D01*
X62782218Y-81722860D01*
X62782214Y-81722863D01*
X62642863Y-81862214D01*
X62642860Y-81862218D01*
X62533371Y-82026079D01*
X62533364Y-82026092D01*
X62457950Y-82208160D01*
X62457947Y-82208170D01*
X62419500Y-82401456D01*
X62419500Y-82401459D01*
X62419500Y-82598541D01*
X62419500Y-82598543D01*
X62419499Y-82598543D01*
X62457947Y-82791829D01*
X62457950Y-82791839D01*
X62533364Y-82973907D01*
X62533371Y-82973920D01*
X62642860Y-83137781D01*
X62642863Y-83137785D01*
X62782215Y-83277137D01*
X62946079Y-83386628D01*
X62946092Y-83386635D01*
X63128160Y-83462049D01*
X63128165Y-83462051D01*
X63128169Y-83462051D01*
X63128170Y-83462052D01*
X63321456Y-83500500D01*
X63321459Y-83500500D01*
X63518543Y-83500500D01*
X63692359Y-83465925D01*
X63711835Y-83462051D01*
X63893914Y-83386632D01*
X64057782Y-83277139D01*
X64057781Y-83277139D01*
X64057785Y-83277137D01*
X64057785Y-83277136D01*
X64197136Y-83137785D01*
X64197139Y-83137782D01*
X64306632Y-82973914D01*
X64382051Y-82791835D01*
X64420229Y-82599903D01*
X64420500Y-82598543D01*
X64420500Y-82401456D01*
X64382052Y-82208171D01*
X64382052Y-82208170D01*
X64382051Y-82208165D01*
X64350937Y-82133048D01*
X64341500Y-82085600D01*
X64341500Y-77914398D01*
X64350938Y-77866947D01*
X64382051Y-77791835D01*
X64411753Y-77642517D01*
X64420500Y-77598543D01*
X64420500Y-77493155D01*
X64440185Y-77426116D01*
X64492989Y-77380361D01*
X64562147Y-77370417D01*
X64625703Y-77399442D01*
X64632181Y-77405474D01*
X65784181Y-78557474D01*
X65817666Y-78618797D01*
X65820500Y-78645155D01*
X65820500Y-86532961D01*
X65800815Y-86600000D01*
X65748011Y-86645755D01*
X65678853Y-86655699D01*
X65627609Y-86636063D01*
X65473920Y-86533371D01*
X65473907Y-86533364D01*
X65291839Y-86457950D01*
X65291829Y-86457947D01*
X65098543Y-86419500D01*
X65098541Y-86419500D01*
X64901459Y-86419500D01*
X64901457Y-86419500D01*
X64708170Y-86457947D01*
X64708160Y-86457950D01*
X64526092Y-86533364D01*
X64526079Y-86533371D01*
X64362218Y-86642860D01*
X64362214Y-86642863D01*
X64222863Y-86782214D01*
X64222860Y-86782218D01*
X64113371Y-86946079D01*
X64113364Y-86946092D01*
X64037950Y-87128160D01*
X64037947Y-87128170D01*
X63999500Y-87321456D01*
X63999500Y-87321459D01*
X63999500Y-87518541D01*
X63999500Y-87518543D01*
X63999499Y-87518543D01*
X64037947Y-87711829D01*
X64037950Y-87711839D01*
X64113364Y-87893907D01*
X64113371Y-87893920D01*
X64222860Y-88057781D01*
X64222863Y-88057785D01*
X64362214Y-88197136D01*
X64362218Y-88197139D01*
X64526079Y-88306628D01*
X64526092Y-88306635D01*
X64708160Y-88382049D01*
X64708165Y-88382051D01*
X64708169Y-88382051D01*
X64708170Y-88382052D01*
X64901456Y-88420500D01*
X64901459Y-88420500D01*
X65098543Y-88420500D01*
X65228582Y-88394632D01*
X65291835Y-88382051D01*
X65473914Y-88306632D01*
X65627610Y-88203935D01*
X65694286Y-88183058D01*
X65761666Y-88201542D01*
X65808357Y-88253521D01*
X65820500Y-88307038D01*
X65820500Y-96692961D01*
X65800815Y-96760000D01*
X65748011Y-96805755D01*
X65678853Y-96815699D01*
X65627609Y-96796063D01*
X65473920Y-96693371D01*
X65473907Y-96693364D01*
X65291839Y-96617950D01*
X65291829Y-96617947D01*
X65098543Y-96579500D01*
X65098541Y-96579500D01*
X64901459Y-96579500D01*
X64901457Y-96579500D01*
X64708170Y-96617947D01*
X64708160Y-96617950D01*
X64526092Y-96693364D01*
X64526079Y-96693371D01*
X64362218Y-96802860D01*
X64362214Y-96802863D01*
X64222863Y-96942214D01*
X64222860Y-96942218D01*
X64113371Y-97106079D01*
X64113364Y-97106092D01*
X64037950Y-97288160D01*
X64037947Y-97288170D01*
X63999500Y-97481456D01*
X63999500Y-97538480D01*
X63979815Y-97605519D01*
X63963181Y-97626161D01*
X61955888Y-99633453D01*
X61955887Y-99633454D01*
X61879222Y-99748192D01*
X61826421Y-99875667D01*
X61826418Y-99875677D01*
X61799500Y-100011004D01*
X61799500Y-104096883D01*
X61779815Y-104163922D01*
X61731799Y-104207366D01*
X61713569Y-104216655D01*
X61651861Y-104261489D01*
X61522490Y-104355483D01*
X61522488Y-104355485D01*
X61522487Y-104355485D01*
X61355485Y-104522487D01*
X61355485Y-104522488D01*
X61355483Y-104522490D01*
X61308466Y-104587203D01*
X61216657Y-104713566D01*
X61109433Y-104924003D01*
X61036446Y-105148631D01*
X60999500Y-105381902D01*
X60999500Y-105618097D01*
X61036446Y-105851368D01*
X61109433Y-106075996D01*
X61216657Y-106286433D01*
X61355483Y-106477510D01*
X61522490Y-106644517D01*
X61713567Y-106783343D01*
X61812991Y-106834002D01*
X61924003Y-106890566D01*
X61924005Y-106890566D01*
X61924008Y-106890568D01*
X62044412Y-106929689D01*
X62148631Y-106963553D01*
X62381903Y-107000500D01*
X62381908Y-107000500D01*
X62618097Y-107000500D01*
X62851368Y-106963553D01*
X63075992Y-106890568D01*
X63286433Y-106783343D01*
X63477510Y-106644517D01*
X63644517Y-106477510D01*
X63783343Y-106286433D01*
X63890568Y-106075992D01*
X63963553Y-105851368D01*
X63989175Y-105689598D01*
X64000500Y-105618097D01*
X64000500Y-105381902D01*
X63963553Y-105148631D01*
X63913671Y-104995112D01*
X63890568Y-104924008D01*
X63890566Y-104924005D01*
X63890566Y-104924003D01*
X63834002Y-104812991D01*
X63783343Y-104713567D01*
X63644517Y-104522490D01*
X63477510Y-104355483D01*
X63286433Y-104216657D01*
X63286432Y-104216656D01*
X63286430Y-104216655D01*
X63268201Y-104207366D01*
X63217407Y-104159390D01*
X63200500Y-104096883D01*
X63200500Y-100421519D01*
X63220185Y-100354480D01*
X63236819Y-100333838D01*
X64953838Y-98616819D01*
X65015161Y-98583334D01*
X65041519Y-98580500D01*
X65098543Y-98580500D01*
X65228582Y-98554632D01*
X65291835Y-98542051D01*
X65473914Y-98466632D01*
X65627610Y-98363935D01*
X65694286Y-98343058D01*
X65761666Y-98361542D01*
X65808357Y-98413521D01*
X65820500Y-98467038D01*
X65820500Y-104830826D01*
X65847793Y-104932689D01*
X65874156Y-104978350D01*
X65900520Y-105024013D01*
X68361219Y-107484712D01*
X68361220Y-107484713D01*
X68435787Y-107559280D01*
X68527113Y-107612007D01*
X68628973Y-107639300D01*
X68628975Y-107639300D01*
X73313925Y-107639300D01*
X73313927Y-107639300D01*
X73415788Y-107612007D01*
X73507113Y-107559280D01*
X74195893Y-106870498D01*
X74257214Y-106837015D01*
X74326905Y-106841999D01*
X74339867Y-106847696D01*
X74424003Y-106890566D01*
X74424005Y-106890566D01*
X74424008Y-106890568D01*
X74544412Y-106929689D01*
X74648631Y-106963553D01*
X74881903Y-107000500D01*
X74881908Y-107000500D01*
X75118097Y-107000500D01*
X75351368Y-106963553D01*
X75575992Y-106890568D01*
X75786433Y-106783343D01*
X75977510Y-106644517D01*
X76144517Y-106477510D01*
X76283343Y-106286433D01*
X76390568Y-106075992D01*
X76463553Y-105851368D01*
X76489175Y-105689598D01*
X76500500Y-105618097D01*
X76500500Y-105381902D01*
X76463553Y-105148631D01*
X76413671Y-104995112D01*
X76390568Y-104924008D01*
X76390566Y-104924005D01*
X76390566Y-104924003D01*
X76334002Y-104812991D01*
X76283343Y-104713567D01*
X76144517Y-104522490D01*
X75977510Y-104355483D01*
X75786433Y-104216657D01*
X75786429Y-104216655D01*
X75575996Y-104109433D01*
X75351368Y-104036446D01*
X75118097Y-103999500D01*
X75118092Y-103999500D01*
X74881908Y-103999500D01*
X74881903Y-103999500D01*
X74648631Y-104036446D01*
X74424003Y-104109433D01*
X74213566Y-104216657D01*
X74151861Y-104261489D01*
X74022490Y-104355483D01*
X74022488Y-104355485D01*
X74022487Y-104355485D01*
X73855485Y-104522487D01*
X73855485Y-104522488D01*
X73855483Y-104522490D01*
X73808466Y-104587203D01*
X73716657Y-104713566D01*
X73609433Y-104924003D01*
X73536446Y-105148631D01*
X73499500Y-105381902D01*
X73499500Y-105618097D01*
X73536446Y-105851368D01*
X73609434Y-106075999D01*
X73652302Y-106160132D01*
X73665198Y-106228801D01*
X73638921Y-106293542D01*
X73629498Y-106304107D01*
X73131626Y-106801981D01*
X73070303Y-106835466D01*
X73043945Y-106838300D01*
X71912966Y-106838300D01*
X71845927Y-106818615D01*
X71800172Y-106765811D01*
X71789608Y-106701697D01*
X71799999Y-106599986D01*
X71800000Y-106599973D01*
X71800000Y-105750000D01*
X70600001Y-105750000D01*
X70625021Y-105689598D01*
X70650000Y-105564019D01*
X70650000Y-105435981D01*
X70625021Y-105310402D01*
X70600001Y-105250000D01*
X71799999Y-105250000D01*
X71799999Y-104400028D01*
X71799998Y-104400013D01*
X71789505Y-104297302D01*
X71734358Y-104130880D01*
X71734356Y-104130875D01*
X71642315Y-103981654D01*
X71518345Y-103857684D01*
X71369124Y-103765643D01*
X71369119Y-103765641D01*
X71202697Y-103710494D01*
X71202690Y-103710493D01*
X71099986Y-103700000D01*
X70250000Y-103700000D01*
X70250000Y-104899998D01*
X70189598Y-104874979D01*
X70064019Y-104850000D01*
X69935981Y-104850000D01*
X69810402Y-104874979D01*
X69750000Y-104899998D01*
X69750000Y-103700000D01*
X68900028Y-103700000D01*
X68900012Y-103700001D01*
X68797302Y-103710494D01*
X68630880Y-103765641D01*
X68630875Y-103765643D01*
X68481654Y-103857684D01*
X68357684Y-103981654D01*
X68265643Y-104130875D01*
X68265641Y-104130880D01*
X68210494Y-104297302D01*
X68210493Y-104297309D01*
X68200000Y-104400013D01*
X68200000Y-105250000D01*
X69399999Y-105250000D01*
X69374979Y-105310402D01*
X69350000Y-105435981D01*
X69350000Y-105564019D01*
X69374979Y-105689598D01*
X69399999Y-105750000D01*
X68200000Y-105750000D01*
X68200000Y-105891346D01*
X68180315Y-105958385D01*
X68127511Y-106004140D01*
X68058352Y-106014083D01*
X67994797Y-105985058D01*
X67988319Y-105979026D01*
X66657819Y-104648526D01*
X66643115Y-104621598D01*
X66626523Y-104595780D01*
X66625631Y-104589579D01*
X66624334Y-104587203D01*
X66621500Y-104560845D01*
X66621500Y-93624654D01*
X66945098Y-93624654D01*
X66982136Y-93762882D01*
X66986023Y-93777385D01*
X67003063Y-93806899D01*
X67003064Y-93806901D01*
X67003065Y-93806901D01*
X67050282Y-93888684D01*
X67065079Y-93914314D01*
X67065081Y-93914317D01*
X67183949Y-94033185D01*
X67183955Y-94033190D01*
X67963181Y-94812416D01*
X67996666Y-94873739D01*
X67999500Y-94900097D01*
X67999500Y-94901459D01*
X67999500Y-95098541D01*
X67999500Y-95098543D01*
X67999499Y-95098543D01*
X68037947Y-95291829D01*
X68037950Y-95291839D01*
X68113364Y-95473907D01*
X68113371Y-95473920D01*
X68222860Y-95637781D01*
X68222863Y-95637785D01*
X68362214Y-95777136D01*
X68362218Y-95777139D01*
X68526079Y-95886628D01*
X68526092Y-95886635D01*
X68676345Y-95948871D01*
X68708165Y-95962051D01*
X68708169Y-95962051D01*
X68708170Y-95962052D01*
X68901456Y-96000500D01*
X68901459Y-96000500D01*
X69098543Y-96000500D01*
X69250269Y-95970319D01*
X69291835Y-95962051D01*
X69353181Y-95936641D01*
X69399021Y-95917654D01*
X69473907Y-95886635D01*
X69473907Y-95886634D01*
X69473914Y-95886632D01*
X69637782Y-95777139D01*
X69777139Y-95637782D01*
X69886632Y-95473914D01*
X69962051Y-95291835D01*
X70000500Y-95098541D01*
X70000500Y-94901459D01*
X70000500Y-94900096D01*
X70001209Y-94897682D01*
X72700000Y-94897682D01*
X72700000Y-95102317D01*
X72732009Y-95304417D01*
X72795244Y-95499031D01*
X72888141Y-95681350D01*
X72888147Y-95681359D01*
X72920523Y-95725921D01*
X72920524Y-95725922D01*
X73600000Y-95046446D01*
X73600000Y-95052661D01*
X73627259Y-95154394D01*
X73679920Y-95245606D01*
X73754394Y-95320080D01*
X73845606Y-95372741D01*
X73947339Y-95400000D01*
X73953553Y-95400000D01*
X73274076Y-96079474D01*
X73318650Y-96111859D01*
X73500968Y-96204755D01*
X73695582Y-96267990D01*
X73897683Y-96300000D01*
X74102317Y-96300000D01*
X74304417Y-96267990D01*
X74499031Y-96204755D01*
X74681349Y-96111859D01*
X74725921Y-96079474D01*
X74046447Y-95400000D01*
X74052661Y-95400000D01*
X74154394Y-95372741D01*
X74245606Y-95320080D01*
X74320080Y-95245606D01*
X74372741Y-95154394D01*
X74400000Y-95052661D01*
X74400000Y-95046448D01*
X75079474Y-95725922D01*
X75079474Y-95725921D01*
X75111859Y-95681349D01*
X75204755Y-95499031D01*
X75267990Y-95304417D01*
X75300000Y-95102317D01*
X75300000Y-94897682D01*
X75267990Y-94695582D01*
X75204755Y-94500968D01*
X75111859Y-94318650D01*
X75079474Y-94274077D01*
X75079474Y-94274076D01*
X74400000Y-94953551D01*
X74400000Y-94947339D01*
X74372741Y-94845606D01*
X74320080Y-94754394D01*
X74245606Y-94679920D01*
X74154394Y-94627259D01*
X74052661Y-94600000D01*
X74046446Y-94600000D01*
X74725922Y-93920524D01*
X74725921Y-93920523D01*
X74681359Y-93888147D01*
X74681350Y-93888141D01*
X74499031Y-93795244D01*
X74304417Y-93732009D01*
X74102317Y-93700000D01*
X73897683Y-93700000D01*
X73695582Y-93732009D01*
X73500968Y-93795244D01*
X73318644Y-93888143D01*
X73274077Y-93920523D01*
X73274077Y-93920524D01*
X73953554Y-94600000D01*
X73947339Y-94600000D01*
X73845606Y-94627259D01*
X73754394Y-94679920D01*
X73679920Y-94754394D01*
X73627259Y-94845606D01*
X73600000Y-94947339D01*
X73600000Y-94953553D01*
X72920524Y-94274077D01*
X72920523Y-94274077D01*
X72888143Y-94318644D01*
X72795244Y-94500968D01*
X72732009Y-94695582D01*
X72700000Y-94897682D01*
X70001209Y-94897682D01*
X70009144Y-94870655D01*
X70015668Y-94840669D01*
X70019422Y-94835653D01*
X70020185Y-94833057D01*
X70036819Y-94812415D01*
X70044099Y-94805135D01*
X70969133Y-93880102D01*
X72221976Y-92627259D01*
X72966820Y-91882416D01*
X73045877Y-91745484D01*
X73086801Y-91592757D01*
X73086801Y-91434642D01*
X73086801Y-91427047D01*
X73086800Y-91427029D01*
X73086800Y-89686774D01*
X73106485Y-89619735D01*
X73159289Y-89573980D01*
X73228447Y-89564036D01*
X73283686Y-89586456D01*
X73318650Y-89611859D01*
X73500968Y-89704755D01*
X73695582Y-89767990D01*
X73897683Y-89800000D01*
X74102317Y-89800000D01*
X74304417Y-89767990D01*
X74499031Y-89704755D01*
X74681349Y-89611859D01*
X74725921Y-89579474D01*
X74046447Y-88900000D01*
X74052661Y-88900000D01*
X74154394Y-88872741D01*
X74245606Y-88820080D01*
X74320080Y-88745606D01*
X74372741Y-88654394D01*
X74400000Y-88552661D01*
X74400000Y-88546448D01*
X75079474Y-89225922D01*
X75079474Y-89225921D01*
X75111859Y-89181349D01*
X75204755Y-88999031D01*
X75267990Y-88804417D01*
X75300000Y-88602317D01*
X75300000Y-88397682D01*
X75267990Y-88195582D01*
X75204755Y-88000968D01*
X75111859Y-87818650D01*
X75079474Y-87774077D01*
X75079474Y-87774076D01*
X74400000Y-88453551D01*
X74400000Y-88447339D01*
X74372741Y-88345606D01*
X74320080Y-88254394D01*
X74245606Y-88179920D01*
X74154394Y-88127259D01*
X74052661Y-88100000D01*
X74046446Y-88100000D01*
X74725922Y-87420524D01*
X74725921Y-87420523D01*
X74681359Y-87388147D01*
X74681350Y-87388141D01*
X74499031Y-87295244D01*
X74304417Y-87232009D01*
X74102317Y-87200000D01*
X73897683Y-87200000D01*
X73695582Y-87232009D01*
X73500968Y-87295244D01*
X73318648Y-87388141D01*
X73283684Y-87413544D01*
X73217878Y-87437023D01*
X73149824Y-87421197D01*
X73101130Y-87371091D01*
X73086800Y-87313225D01*
X73086800Y-83893796D01*
X73106485Y-83826757D01*
X73123115Y-83806119D01*
X73392415Y-83536818D01*
X73419342Y-83522115D01*
X73445161Y-83505523D01*
X73451361Y-83504631D01*
X73453738Y-83503334D01*
X73480096Y-83500500D01*
X73679903Y-83500500D01*
X73746942Y-83520185D01*
X73767584Y-83536819D01*
X79363181Y-89132416D01*
X79396666Y-89193739D01*
X79399500Y-89220097D01*
X79399500Y-104045931D01*
X79379815Y-104112970D01*
X79331796Y-104156415D01*
X79213568Y-104216655D01*
X79102569Y-104297302D01*
X79022490Y-104355483D01*
X79022488Y-104355485D01*
X79022487Y-104355485D01*
X78855485Y-104522487D01*
X78855485Y-104522488D01*
X78855483Y-104522490D01*
X78808466Y-104587203D01*
X78716657Y-104713566D01*
X78609433Y-104924003D01*
X78536446Y-105148631D01*
X78499500Y-105381902D01*
X78499500Y-105618097D01*
X78536446Y-105851368D01*
X78609433Y-106075996D01*
X78716657Y-106286433D01*
X78855483Y-106477510D01*
X79022490Y-106644517D01*
X79213567Y-106783343D01*
X79312991Y-106834002D01*
X79424003Y-106890566D01*
X79424005Y-106890566D01*
X79424008Y-106890568D01*
X79544412Y-106929689D01*
X79648631Y-106963553D01*
X79881903Y-107000500D01*
X79881908Y-107000500D01*
X80118097Y-107000500D01*
X80351368Y-106963553D01*
X80575992Y-106890568D01*
X80786433Y-106783343D01*
X80977510Y-106644517D01*
X81144517Y-106477510D01*
X81283343Y-106286433D01*
X81390568Y-106075992D01*
X81463553Y-105851368D01*
X81489175Y-105689598D01*
X81500500Y-105618097D01*
X81500500Y-105381902D01*
X81463553Y-105148631D01*
X81413671Y-104995112D01*
X81390568Y-104924008D01*
X81390566Y-104924005D01*
X81390566Y-104924003D01*
X81334002Y-104812991D01*
X81283343Y-104713567D01*
X81144517Y-104522490D01*
X80977510Y-104355483D01*
X80848139Y-104261489D01*
X80786431Y-104216655D01*
X80668204Y-104156415D01*
X80617409Y-104108441D01*
X80600500Y-104045931D01*
X80600500Y-88840945D01*
X80600500Y-88840943D01*
X80571251Y-88731784D01*
X80559577Y-88688215D01*
X80530381Y-88637646D01*
X80480520Y-88551284D01*
X80368716Y-88439480D01*
X80368715Y-88439479D01*
X80364385Y-88435149D01*
X80364374Y-88435139D01*
X74616819Y-82687584D01*
X74583334Y-82626261D01*
X74580500Y-82599903D01*
X74580500Y-82401456D01*
X74542052Y-82208170D01*
X74542051Y-82208169D01*
X74542051Y-82208165D01*
X74521710Y-82159057D01*
X74466635Y-82026092D01*
X74466628Y-82026079D01*
X74357139Y-81862218D01*
X74357136Y-81862214D01*
X74217785Y-81722863D01*
X74217781Y-81722860D01*
X74053920Y-81613371D01*
X74053907Y-81613364D01*
X73871839Y-81537950D01*
X73871829Y-81537947D01*
X73678543Y-81499500D01*
X73678541Y-81499500D01*
X73481459Y-81499500D01*
X73481457Y-81499500D01*
X73288170Y-81537947D01*
X73288160Y-81537950D01*
X73106092Y-81613364D01*
X73106079Y-81613371D01*
X72942218Y-81722860D01*
X72942214Y-81722863D01*
X72802863Y-81862214D01*
X72802860Y-81862218D01*
X72693371Y-82026079D01*
X72693364Y-82026092D01*
X72617950Y-82208160D01*
X72617947Y-82208170D01*
X72579500Y-82401456D01*
X72579500Y-82599902D01*
X72559815Y-82666941D01*
X72543181Y-82687583D01*
X72005781Y-83224982D01*
X72005779Y-83224985D01*
X71975670Y-83277137D01*
X71975669Y-83277139D01*
X71926723Y-83361914D01*
X71926723Y-83361915D01*
X71885799Y-83514643D01*
X71885799Y-83514645D01*
X71885799Y-83682746D01*
X71885800Y-83682759D01*
X71885800Y-91213602D01*
X71866115Y-91280641D01*
X71849481Y-91301283D01*
X69187583Y-93963181D01*
X69160655Y-93977884D01*
X69134837Y-93994477D01*
X69128636Y-93995368D01*
X69126260Y-93996666D01*
X69099902Y-93999500D01*
X68900097Y-93999500D01*
X68833058Y-93979815D01*
X68812416Y-93963181D01*
X68182419Y-93333184D01*
X68148934Y-93271861D01*
X68146100Y-93245503D01*
X68146100Y-89360384D01*
X68165785Y-89293345D01*
X68218589Y-89247590D01*
X68287747Y-89237646D01*
X68351303Y-89266671D01*
X68357781Y-89272703D01*
X68362214Y-89277136D01*
X68362218Y-89277139D01*
X68526079Y-89386628D01*
X68526092Y-89386635D01*
X68708160Y-89462049D01*
X68708165Y-89462051D01*
X68708169Y-89462051D01*
X68708170Y-89462052D01*
X68901456Y-89500500D01*
X68901459Y-89500500D01*
X69098543Y-89500500D01*
X69228582Y-89474632D01*
X69291835Y-89462051D01*
X69473914Y-89386632D01*
X69637782Y-89277139D01*
X69777139Y-89137782D01*
X69886632Y-88973914D01*
X69962051Y-88791835D01*
X69992154Y-88640499D01*
X70000500Y-88598543D01*
X70000500Y-88401456D01*
X69962052Y-88208170D01*
X69962051Y-88208169D01*
X69962051Y-88208165D01*
X69956839Y-88195582D01*
X69886635Y-88026092D01*
X69886628Y-88026079D01*
X69777139Y-87862218D01*
X69777136Y-87862214D01*
X69636819Y-87721897D01*
X69603334Y-87660574D01*
X69600500Y-87634216D01*
X69600500Y-82380096D01*
X69620185Y-82313057D01*
X69636814Y-82292420D01*
X73392415Y-78536818D01*
X73453738Y-78503334D01*
X73480096Y-78500500D01*
X73678543Y-78500500D01*
X73808582Y-78474632D01*
X73871835Y-78462051D01*
X74053914Y-78386632D01*
X74217782Y-78277139D01*
X74357139Y-78137782D01*
X74466632Y-77973914D01*
X74542051Y-77791835D01*
X74571753Y-77642517D01*
X74580500Y-77598543D01*
X74580500Y-77401456D01*
X74542052Y-77208170D01*
X74542051Y-77208169D01*
X74542051Y-77208165D01*
X74523622Y-77163673D01*
X74466635Y-77026092D01*
X74466628Y-77026079D01*
X74357139Y-76862218D01*
X74357136Y-76862214D01*
X74217785Y-76722863D01*
X74217781Y-76722860D01*
X74053920Y-76613371D01*
X74053907Y-76613364D01*
X73871839Y-76537950D01*
X73871829Y-76537947D01*
X73678543Y-76499500D01*
X73678541Y-76499500D01*
X73481459Y-76499500D01*
X73481457Y-76499500D01*
X73288170Y-76537947D01*
X73288160Y-76537950D01*
X73106092Y-76613364D01*
X73106079Y-76613371D01*
X72942218Y-76722860D01*
X72942214Y-76722863D01*
X72802863Y-76862214D01*
X72802860Y-76862218D01*
X72693371Y-77026079D01*
X72693364Y-77026092D01*
X72617950Y-77208160D01*
X72617947Y-77208170D01*
X72579500Y-77401456D01*
X72579500Y-77599902D01*
X72559815Y-77666941D01*
X72543181Y-77687583D01*
X68519481Y-81711282D01*
X68519479Y-81711284D01*
X68506417Y-81733909D01*
X68500896Y-81743473D01*
X68440423Y-81848215D01*
X68399499Y-82000943D01*
X68399499Y-82000945D01*
X68399499Y-82169046D01*
X68399500Y-82169059D01*
X68399500Y-87634216D01*
X68390855Y-87663656D01*
X68384332Y-87693643D01*
X68380577Y-87698658D01*
X68379815Y-87701255D01*
X68363181Y-87721897D01*
X68357781Y-87727297D01*
X68296458Y-87760782D01*
X68226766Y-87755798D01*
X68170833Y-87713926D01*
X68146416Y-87648462D01*
X68146100Y-87639616D01*
X68146100Y-71595729D01*
X71279500Y-71595729D01*
X71279500Y-73404260D01*
X71279501Y-73404266D01*
X71282354Y-73434700D01*
X71282354Y-73434702D01*
X71282355Y-73434703D01*
X71282355Y-73434705D01*
X71327206Y-73562882D01*
X71407849Y-73672150D01*
X71462483Y-73712471D01*
X71517117Y-73752793D01*
X71558499Y-73767273D01*
X71645298Y-73797646D01*
X71652323Y-73798304D01*
X71675733Y-73800500D01*
X73262744Y-73800499D01*
X73329783Y-73820184D01*
X73350425Y-73836818D01*
X81439381Y-81925774D01*
X81472866Y-81987097D01*
X81475700Y-82013455D01*
X81475700Y-93757302D01*
X81456015Y-93824341D01*
X81439381Y-93844983D01*
X81395681Y-93888682D01*
X81395675Y-93888690D01*
X81316626Y-94025609D01*
X81316623Y-94025616D01*
X81275700Y-94178343D01*
X81275700Y-94336456D01*
X81316623Y-94489183D01*
X81316626Y-94489190D01*
X81395675Y-94626109D01*
X81395679Y-94626114D01*
X81395680Y-94626116D01*
X81507484Y-94737920D01*
X81507486Y-94737921D01*
X81507490Y-94737924D01*
X81623905Y-94805135D01*
X81644416Y-94816977D01*
X81797143Y-94857900D01*
X81797145Y-94857900D01*
X81955255Y-94857900D01*
X81955257Y-94857900D01*
X82107984Y-94816977D01*
X82209900Y-94758135D01*
X82277800Y-94741663D01*
X82343827Y-94764516D01*
X82387018Y-94819437D01*
X82395900Y-94865523D01*
X82395900Y-103767573D01*
X82395900Y-103873027D01*
X82408241Y-103919084D01*
X82423193Y-103974889D01*
X82427099Y-103981654D01*
X82475920Y-104066213D01*
X85861818Y-107452110D01*
X85861820Y-107452113D01*
X85936387Y-107526680D01*
X85992852Y-107559280D01*
X86001460Y-107564250D01*
X86001464Y-107564253D01*
X86027707Y-107579404D01*
X86027710Y-107579406D01*
X86027712Y-107579406D01*
X86027713Y-107579407D01*
X86129573Y-107606701D01*
X86129575Y-107606701D01*
X86242623Y-107606701D01*
X86242639Y-107606700D01*
X90846525Y-107606700D01*
X90846527Y-107606700D01*
X90948388Y-107579407D01*
X91039713Y-107526680D01*
X91695893Y-106870498D01*
X91757214Y-106837015D01*
X91826905Y-106841999D01*
X91839867Y-106847696D01*
X91924003Y-106890566D01*
X91924005Y-106890566D01*
X91924008Y-106890568D01*
X92044412Y-106929689D01*
X92148631Y-106963553D01*
X92381903Y-107000500D01*
X92381908Y-107000500D01*
X92618097Y-107000500D01*
X92851368Y-106963553D01*
X93075992Y-106890568D01*
X93286433Y-106783343D01*
X93477510Y-106644517D01*
X93644517Y-106477510D01*
X93783343Y-106286433D01*
X93890568Y-106075992D01*
X93963553Y-105851368D01*
X93989175Y-105689598D01*
X94000500Y-105618097D01*
X94000500Y-105381902D01*
X95999500Y-105381902D01*
X95999500Y-105618097D01*
X96036446Y-105851368D01*
X96109433Y-106075996D01*
X96216657Y-106286433D01*
X96355483Y-106477510D01*
X96522490Y-106644517D01*
X96713567Y-106783343D01*
X96812991Y-106834002D01*
X96924003Y-106890566D01*
X96924005Y-106890566D01*
X96924008Y-106890568D01*
X97044412Y-106929689D01*
X97148631Y-106963553D01*
X97381903Y-107000500D01*
X97381908Y-107000500D01*
X97618097Y-107000500D01*
X97851368Y-106963553D01*
X98075992Y-106890568D01*
X98286433Y-106783343D01*
X98477510Y-106644517D01*
X98644517Y-106477510D01*
X98783343Y-106286433D01*
X98890568Y-106075992D01*
X98963553Y-105851368D01*
X98989175Y-105689598D01*
X98990816Y-105679240D01*
X99000500Y-105618097D01*
X99000500Y-105381902D01*
X98963553Y-105148631D01*
X98913671Y-104995112D01*
X98890568Y-104924008D01*
X98890566Y-104924005D01*
X98890566Y-104924003D01*
X98834002Y-104812991D01*
X98783343Y-104713567D01*
X98644517Y-104522490D01*
X98522040Y-104400013D01*
X103200000Y-104400013D01*
X103200000Y-105250000D01*
X104399999Y-105250000D01*
X104374979Y-105310402D01*
X104350000Y-105435981D01*
X104350000Y-105564019D01*
X104374979Y-105689598D01*
X104399999Y-105750000D01*
X103200001Y-105750000D01*
X103200001Y-106599986D01*
X103210494Y-106702697D01*
X103265641Y-106869119D01*
X103265643Y-106869124D01*
X103357684Y-107018345D01*
X103481654Y-107142315D01*
X103630875Y-107234356D01*
X103630880Y-107234358D01*
X103797302Y-107289505D01*
X103797309Y-107289506D01*
X103900019Y-107299999D01*
X104749999Y-107299999D01*
X104750000Y-107299998D01*
X104750000Y-106100001D01*
X104810402Y-106125021D01*
X104935981Y-106150000D01*
X105064019Y-106150000D01*
X105189598Y-106125021D01*
X105250000Y-106100001D01*
X105250000Y-107299999D01*
X106099972Y-107299999D01*
X106099986Y-107299998D01*
X106202697Y-107289505D01*
X106369119Y-107234358D01*
X106369124Y-107234356D01*
X106518345Y-107142315D01*
X106642315Y-107018345D01*
X106734356Y-106869124D01*
X106734358Y-106869119D01*
X106789505Y-106702697D01*
X106789506Y-106702690D01*
X106799999Y-106599986D01*
X106800000Y-106599973D01*
X106800000Y-105750000D01*
X105600001Y-105750000D01*
X105625021Y-105689598D01*
X105650000Y-105564019D01*
X105650000Y-105435981D01*
X105639243Y-105381902D01*
X108499500Y-105381902D01*
X108499500Y-105618097D01*
X108536446Y-105851368D01*
X108609433Y-106075996D01*
X108716657Y-106286433D01*
X108855483Y-106477510D01*
X109022490Y-106644517D01*
X109213567Y-106783343D01*
X109312991Y-106834002D01*
X109424003Y-106890566D01*
X109424005Y-106890566D01*
X109424008Y-106890568D01*
X109544412Y-106929689D01*
X109648631Y-106963553D01*
X109881903Y-107000500D01*
X109881908Y-107000500D01*
X110118097Y-107000500D01*
X110351368Y-106963553D01*
X110575992Y-106890568D01*
X110786433Y-106783343D01*
X110977510Y-106644517D01*
X111144517Y-106477510D01*
X111283343Y-106286433D01*
X111390568Y-106075992D01*
X111463553Y-105851368D01*
X111489175Y-105689598D01*
X111500500Y-105618097D01*
X111500500Y-105381902D01*
X111463553Y-105148631D01*
X111413671Y-104995112D01*
X111390568Y-104924008D01*
X111390566Y-104924005D01*
X111390566Y-104924003D01*
X111334002Y-104812991D01*
X111283343Y-104713567D01*
X111144517Y-104522490D01*
X110977510Y-104355483D01*
X110786433Y-104216657D01*
X110786429Y-104216655D01*
X110575996Y-104109433D01*
X110351368Y-104036446D01*
X110118097Y-103999500D01*
X110118092Y-103999500D01*
X109881908Y-103999500D01*
X109881903Y-103999500D01*
X109648631Y-104036446D01*
X109424003Y-104109433D01*
X109213566Y-104216657D01*
X109151861Y-104261489D01*
X109022490Y-104355483D01*
X109022488Y-104355485D01*
X109022487Y-104355485D01*
X108855485Y-104522487D01*
X108855485Y-104522488D01*
X108855483Y-104522490D01*
X108808466Y-104587203D01*
X108716657Y-104713566D01*
X108609433Y-104924003D01*
X108536446Y-105148631D01*
X108499500Y-105381902D01*
X105639243Y-105381902D01*
X105625021Y-105310402D01*
X105600001Y-105250000D01*
X106799999Y-105250000D01*
X106799999Y-104400028D01*
X106799998Y-104400013D01*
X106789505Y-104297302D01*
X106734358Y-104130880D01*
X106734356Y-104130875D01*
X106642315Y-103981654D01*
X106518345Y-103857684D01*
X106369124Y-103765643D01*
X106369119Y-103765641D01*
X106202697Y-103710494D01*
X106202690Y-103710493D01*
X106099986Y-103700000D01*
X105250000Y-103700000D01*
X105250000Y-104899998D01*
X105189598Y-104874979D01*
X105064019Y-104850000D01*
X104935981Y-104850000D01*
X104810402Y-104874979D01*
X104750000Y-104899998D01*
X104750000Y-103700000D01*
X103900028Y-103700000D01*
X103900012Y-103700001D01*
X103797302Y-103710494D01*
X103630880Y-103765641D01*
X103630875Y-103765643D01*
X103481654Y-103857684D01*
X103357684Y-103981654D01*
X103265643Y-104130875D01*
X103265641Y-104130880D01*
X103210494Y-104297302D01*
X103210493Y-104297309D01*
X103200000Y-104400013D01*
X98522040Y-104400013D01*
X98477510Y-104355483D01*
X98286433Y-104216657D01*
X98286429Y-104216655D01*
X98075996Y-104109433D01*
X97851368Y-104036446D01*
X97618097Y-103999500D01*
X97618092Y-103999500D01*
X97381908Y-103999500D01*
X97381903Y-103999500D01*
X97148631Y-104036446D01*
X96924003Y-104109433D01*
X96713566Y-104216657D01*
X96651861Y-104261489D01*
X96522490Y-104355483D01*
X96522488Y-104355485D01*
X96522487Y-104355485D01*
X96355485Y-104522487D01*
X96355485Y-104522488D01*
X96355483Y-104522490D01*
X96308466Y-104587203D01*
X96216657Y-104713566D01*
X96109433Y-104924003D01*
X96036446Y-105148631D01*
X95999500Y-105381902D01*
X94000500Y-105381902D01*
X93963553Y-105148631D01*
X93913671Y-104995112D01*
X93890568Y-104924008D01*
X93890566Y-104924005D01*
X93890566Y-104924003D01*
X93834002Y-104812991D01*
X93783343Y-104713567D01*
X93644517Y-104522490D01*
X93477510Y-104355483D01*
X93286433Y-104216657D01*
X93286429Y-104216655D01*
X93075996Y-104109433D01*
X92851368Y-104036446D01*
X92618097Y-103999500D01*
X92618092Y-103999500D01*
X92381908Y-103999500D01*
X92381903Y-103999500D01*
X92148631Y-104036446D01*
X91924003Y-104109433D01*
X91713566Y-104216657D01*
X91651861Y-104261489D01*
X91522490Y-104355483D01*
X91522488Y-104355485D01*
X91522487Y-104355485D01*
X91355485Y-104522487D01*
X91355485Y-104522488D01*
X91355483Y-104522490D01*
X91308466Y-104587203D01*
X91216657Y-104713566D01*
X91109433Y-104924003D01*
X91036446Y-105148631D01*
X90999500Y-105381902D01*
X90999500Y-105618097D01*
X91036446Y-105851368D01*
X91109434Y-106075999D01*
X91152302Y-106160132D01*
X91165198Y-106228801D01*
X91138921Y-106293542D01*
X91129498Y-106304107D01*
X90664226Y-106769381D01*
X90602903Y-106802866D01*
X90576545Y-106805700D01*
X89416297Y-106805700D01*
X89349258Y-106786015D01*
X89303503Y-106733211D01*
X89292939Y-106669098D01*
X89299999Y-106599988D01*
X89300000Y-106599973D01*
X89300000Y-105750000D01*
X88100001Y-105750000D01*
X88125021Y-105689598D01*
X88150000Y-105564019D01*
X88150000Y-105435981D01*
X88125021Y-105310402D01*
X88100001Y-105250000D01*
X89299999Y-105250000D01*
X89299999Y-104400028D01*
X89299998Y-104400013D01*
X89289505Y-104297302D01*
X89234358Y-104130880D01*
X89234356Y-104130875D01*
X89142315Y-103981654D01*
X89018345Y-103857684D01*
X88869124Y-103765643D01*
X88869119Y-103765641D01*
X88702697Y-103710494D01*
X88702690Y-103710493D01*
X88599986Y-103700000D01*
X87750000Y-103700000D01*
X87750000Y-104899998D01*
X87689598Y-104874979D01*
X87564019Y-104850000D01*
X87435981Y-104850000D01*
X87310402Y-104874979D01*
X87250000Y-104899998D01*
X87250000Y-103700000D01*
X86400028Y-103700000D01*
X86400012Y-103700001D01*
X86297302Y-103710494D01*
X86130880Y-103765641D01*
X86130875Y-103765643D01*
X85981654Y-103857684D01*
X85857684Y-103981654D01*
X85765643Y-104130875D01*
X85765641Y-104130880D01*
X85710494Y-104297302D01*
X85710493Y-104297309D01*
X85700000Y-104400013D01*
X85700000Y-105250000D01*
X86899999Y-105250000D01*
X86874979Y-105310402D01*
X86850000Y-105435981D01*
X86850000Y-105564019D01*
X86874979Y-105689598D01*
X86899999Y-105750000D01*
X85700000Y-105750000D01*
X85700000Y-105858147D01*
X85680315Y-105925186D01*
X85627511Y-105970941D01*
X85558352Y-105980884D01*
X85494797Y-105951858D01*
X85488319Y-105945827D01*
X84027038Y-104484545D01*
X83233219Y-103690726D01*
X83199734Y-103629403D01*
X83196900Y-103603045D01*
X83196900Y-96406379D01*
X83729500Y-96406379D01*
X83729500Y-96593620D01*
X83766025Y-96777243D01*
X83766027Y-96777251D01*
X83837676Y-96950228D01*
X83837681Y-96950237D01*
X83941697Y-97105907D01*
X83941700Y-97105911D01*
X84074088Y-97238299D01*
X84074092Y-97238302D01*
X84229762Y-97342318D01*
X84229768Y-97342321D01*
X84229769Y-97342322D01*
X84402749Y-97413973D01*
X84586379Y-97450499D01*
X84586383Y-97450500D01*
X84586384Y-97450500D01*
X84773617Y-97450500D01*
X84773618Y-97450499D01*
X84957251Y-97413973D01*
X85130231Y-97342322D01*
X85285908Y-97238302D01*
X85418302Y-97105908D01*
X85522322Y-96950231D01*
X85593973Y-96777251D01*
X85630500Y-96593616D01*
X85630500Y-96406384D01*
X85630499Y-96406381D01*
X85630499Y-96406379D01*
X85629552Y-96401617D01*
X85593973Y-96222749D01*
X85522322Y-96049769D01*
X85522321Y-96049768D01*
X85522318Y-96049762D01*
X85418302Y-95894092D01*
X85418299Y-95894088D01*
X85285911Y-95761700D01*
X85285907Y-95761697D01*
X85130237Y-95657681D01*
X85130228Y-95657676D01*
X84957251Y-95586027D01*
X84957243Y-95586025D01*
X84773620Y-95549500D01*
X84773616Y-95549500D01*
X84586384Y-95549500D01*
X84586379Y-95549500D01*
X84402756Y-95586025D01*
X84402748Y-95586027D01*
X84229771Y-95657676D01*
X84229762Y-95657681D01*
X84074092Y-95761697D01*
X84074088Y-95761700D01*
X83941700Y-95894088D01*
X83941697Y-95894092D01*
X83837681Y-96049762D01*
X83837676Y-96049771D01*
X83766027Y-96222748D01*
X83766025Y-96222756D01*
X83729500Y-96406379D01*
X83196900Y-96406379D01*
X83196900Y-77163675D01*
X83196900Y-77163673D01*
X83169607Y-77061813D01*
X83116880Y-76970487D01*
X83042313Y-76895920D01*
X73570228Y-67423835D01*
X73536743Y-67362512D01*
X73541357Y-67297987D01*
X73540283Y-67297662D01*
X73541719Y-67292927D01*
X73541727Y-67292820D01*
X73541835Y-67292543D01*
X73542049Y-67291839D01*
X73542051Y-67291835D01*
X73554632Y-67228582D01*
X73580500Y-67098543D01*
X73580500Y-66901456D01*
X73542052Y-66708170D01*
X73542051Y-66708169D01*
X73542051Y-66708165D01*
X73530187Y-66679522D01*
X73466635Y-66526092D01*
X73466628Y-66526079D01*
X73357139Y-66362218D01*
X73357136Y-66362214D01*
X73217785Y-66222863D01*
X73217781Y-66222860D01*
X73053920Y-66113371D01*
X73053907Y-66113364D01*
X72871839Y-66037950D01*
X72871829Y-66037947D01*
X72678543Y-65999500D01*
X72678541Y-65999500D01*
X72481459Y-65999500D01*
X72481457Y-65999500D01*
X72288170Y-66037947D01*
X72288160Y-66037950D01*
X72106092Y-66113364D01*
X72106079Y-66113371D01*
X71942218Y-66222860D01*
X71942214Y-66222863D01*
X71802863Y-66362214D01*
X71802860Y-66362218D01*
X71693371Y-66526079D01*
X71693364Y-66526092D01*
X71617950Y-66708160D01*
X71617947Y-66708170D01*
X71579500Y-66901456D01*
X71579500Y-66901459D01*
X71579500Y-67098541D01*
X71579500Y-67098543D01*
X71579499Y-67098543D01*
X71617947Y-67291829D01*
X71617950Y-67291839D01*
X71693364Y-67473907D01*
X71693371Y-67473920D01*
X71802860Y-67637781D01*
X71802863Y-67637785D01*
X71942214Y-67777136D01*
X71942218Y-67777139D01*
X72106079Y-67886628D01*
X72106092Y-67886635D01*
X72288160Y-67962049D01*
X72288165Y-67962051D01*
X72288169Y-67962051D01*
X72288170Y-67962052D01*
X72481456Y-68000500D01*
X72481459Y-68000500D01*
X72678543Y-68000500D01*
X72808582Y-67974632D01*
X72871835Y-67962051D01*
X72871842Y-67962047D01*
X72877662Y-67960283D01*
X72878281Y-67962325D01*
X72938131Y-67955872D01*
X73000620Y-67987127D01*
X73003835Y-67990228D01*
X82359581Y-77345974D01*
X82393066Y-77407297D01*
X82395900Y-77433655D01*
X82395900Y-81450145D01*
X82376215Y-81517184D01*
X82323411Y-81562939D01*
X82254253Y-81572883D01*
X82190697Y-81543858D01*
X82184219Y-81537826D01*
X73916818Y-73270425D01*
X73883333Y-73209102D01*
X73880499Y-73182744D01*
X73880499Y-71595739D01*
X73880499Y-71595734D01*
X73877646Y-71565300D01*
X73832793Y-71437117D01*
X73777732Y-71362512D01*
X73752150Y-71327849D01*
X73678123Y-71273215D01*
X73642883Y-71247207D01*
X73642881Y-71247206D01*
X73514701Y-71202353D01*
X73484270Y-71199500D01*
X71675739Y-71199500D01*
X71661751Y-71200811D01*
X71645300Y-71202354D01*
X71645297Y-71202354D01*
X71645296Y-71202355D01*
X71645294Y-71202355D01*
X71517117Y-71247206D01*
X71407849Y-71327849D01*
X71327206Y-71437118D01*
X71282353Y-71565297D01*
X71282353Y-71565299D01*
X71279500Y-71595729D01*
X68146100Y-71595729D01*
X68146100Y-67414496D01*
X68165785Y-67347457D01*
X68182414Y-67326820D01*
X72472415Y-63036818D01*
X72533738Y-63003334D01*
X72560096Y-63000500D01*
X72758543Y-63000500D01*
X72888582Y-62974632D01*
X72951835Y-62962051D01*
X73133914Y-62886632D01*
X73297782Y-62777139D01*
X73437139Y-62637782D01*
X73546632Y-62473914D01*
X73622051Y-62291835D01*
X73651753Y-62142517D01*
X73660500Y-62098543D01*
X73660500Y-61901456D01*
X73622052Y-61708170D01*
X73622051Y-61708166D01*
X73622051Y-61708165D01*
X73619501Y-61702009D01*
X73546635Y-61526092D01*
X73546628Y-61526079D01*
X73437139Y-61362218D01*
X73437136Y-61362214D01*
X73297785Y-61222863D01*
X73297781Y-61222860D01*
X73133920Y-61113371D01*
X73133907Y-61113364D01*
X72951839Y-61037950D01*
X72951829Y-61037947D01*
X72758543Y-60999500D01*
X72758541Y-60999500D01*
X72561459Y-60999500D01*
X72561457Y-60999500D01*
X72368170Y-61037947D01*
X72368160Y-61037950D01*
X72186092Y-61113364D01*
X72186079Y-61113371D01*
X72022218Y-61222860D01*
X72022214Y-61222863D01*
X71882863Y-61362214D01*
X71882860Y-61362218D01*
X71773371Y-61526079D01*
X71773364Y-61526092D01*
X71697950Y-61708160D01*
X71697947Y-61708170D01*
X71659500Y-61901456D01*
X71659500Y-62099902D01*
X71639815Y-62166941D01*
X71623181Y-62187583D01*
X67065080Y-66745683D01*
X67062567Y-66750036D01*
X67060229Y-66754087D01*
X67001705Y-66855451D01*
X66997630Y-66862512D01*
X66986023Y-66882615D01*
X66945099Y-67035343D01*
X66945099Y-67193457D01*
X66945099Y-67193459D01*
X66945100Y-67203453D01*
X66945100Y-93458930D01*
X66945099Y-93458948D01*
X66945099Y-93624654D01*
X66945098Y-93624654D01*
X66621500Y-93624654D01*
X66621500Y-78375175D01*
X66621500Y-78375173D01*
X66594207Y-78273313D01*
X66594207Y-78273312D01*
X66541480Y-78181987D01*
X62643394Y-74283901D01*
X62609909Y-74222578D01*
X62614893Y-74152886D01*
X62656765Y-74096953D01*
X62711678Y-74073747D01*
X62794668Y-74060603D01*
X63034184Y-73982780D01*
X63258575Y-73868446D01*
X63258581Y-73868442D01*
X63360697Y-73794250D01*
X63360698Y-73794250D01*
X62590234Y-73023787D01*
X62632292Y-73012518D01*
X62757708Y-72940110D01*
X62860110Y-72837708D01*
X62932518Y-72712292D01*
X62943787Y-72670235D01*
X63714250Y-73440698D01*
X63714250Y-73440697D01*
X63788442Y-73338581D01*
X63788446Y-73338575D01*
X63902780Y-73114184D01*
X63980602Y-72874669D01*
X64020000Y-72625928D01*
X64020000Y-72374071D01*
X63980602Y-72125330D01*
X63902780Y-71885815D01*
X63788442Y-71661416D01*
X63714250Y-71559301D01*
X63714250Y-71559300D01*
X62943787Y-72329764D01*
X62932518Y-72287708D01*
X62860110Y-72162292D01*
X62757708Y-72059890D01*
X62632292Y-71987482D01*
X62590232Y-71976212D01*
X63360698Y-71205748D01*
X63258583Y-71131557D01*
X63034184Y-71017219D01*
X62794669Y-70939397D01*
X62545928Y-70900000D01*
X62294072Y-70900000D01*
X62045330Y-70939397D01*
X61805815Y-71017219D01*
X61581413Y-71131559D01*
X61479301Y-71205747D01*
X61479300Y-71205748D01*
X62249765Y-71976212D01*
X62207708Y-71987482D01*
X62082292Y-72059890D01*
X61979890Y-72162292D01*
X61907482Y-72287708D01*
X61896212Y-72329766D01*
X61186419Y-71619972D01*
X61152934Y-71558649D01*
X61150100Y-71532291D01*
X61150100Y-69232329D01*
X61150101Y-69232316D01*
X61150101Y-69116875D01*
X61150101Y-69116873D01*
X61122807Y-69015012D01*
X61073436Y-68929500D01*
X61070080Y-68923687D01*
X60995513Y-68849120D01*
X60995510Y-68849118D01*
X59570228Y-67423835D01*
X59536743Y-67362512D01*
X59541357Y-67297987D01*
X59540283Y-67297662D01*
X59541719Y-67292927D01*
X59541727Y-67292820D01*
X59541835Y-67292543D01*
X59542049Y-67291839D01*
X59542051Y-67291835D01*
X59554632Y-67228582D01*
X59580500Y-67098543D01*
X61419499Y-67098543D01*
X61457947Y-67291829D01*
X61457950Y-67291839D01*
X61533364Y-67473907D01*
X61533371Y-67473920D01*
X61642860Y-67637781D01*
X61642863Y-67637785D01*
X61782214Y-67777136D01*
X61782218Y-67777139D01*
X61946079Y-67886628D01*
X61946092Y-67886635D01*
X62128160Y-67962049D01*
X62128165Y-67962051D01*
X62128169Y-67962051D01*
X62128170Y-67962052D01*
X62321456Y-68000500D01*
X62321459Y-68000500D01*
X62518543Y-68000500D01*
X62648582Y-67974632D01*
X62711835Y-67962051D01*
X62893914Y-67886632D01*
X63057782Y-67777139D01*
X63197139Y-67637782D01*
X63306632Y-67473914D01*
X63308441Y-67469548D01*
X63367562Y-67326815D01*
X63382051Y-67291835D01*
X63394632Y-67228582D01*
X63420500Y-67098543D01*
X63420500Y-66901456D01*
X63382052Y-66708170D01*
X63382051Y-66708169D01*
X63382051Y-66708165D01*
X63370187Y-66679522D01*
X63306635Y-66526092D01*
X63306628Y-66526079D01*
X63197139Y-66362218D01*
X63197136Y-66362214D01*
X63057785Y-66222863D01*
X63057781Y-66222860D01*
X62893920Y-66113371D01*
X62893907Y-66113364D01*
X62711839Y-66037950D01*
X62711829Y-66037947D01*
X62518543Y-65999500D01*
X62518541Y-65999500D01*
X62321459Y-65999500D01*
X62321457Y-65999500D01*
X62128170Y-66037947D01*
X62128160Y-66037950D01*
X61946092Y-66113364D01*
X61946079Y-66113371D01*
X61782218Y-66222860D01*
X61782214Y-66222863D01*
X61642863Y-66362214D01*
X61642860Y-66362218D01*
X61533371Y-66526079D01*
X61533364Y-66526092D01*
X61457950Y-66708160D01*
X61457947Y-66708170D01*
X61419500Y-66901456D01*
X61419500Y-66901459D01*
X61419500Y-67098541D01*
X61419500Y-67098543D01*
X61419499Y-67098543D01*
X59580500Y-67098543D01*
X59580500Y-66901456D01*
X59542052Y-66708170D01*
X59542051Y-66708169D01*
X59542051Y-66708165D01*
X59530187Y-66679522D01*
X59466635Y-66526092D01*
X59466628Y-66526079D01*
X59357139Y-66362218D01*
X59357136Y-66362214D01*
X59217785Y-66222863D01*
X59217781Y-66222860D01*
X59053920Y-66113371D01*
X59053907Y-66113364D01*
X58871839Y-66037950D01*
X58871829Y-66037947D01*
X58678543Y-65999500D01*
X58678541Y-65999500D01*
X58481459Y-65999500D01*
X58481457Y-65999500D01*
X58288170Y-66037947D01*
X58288160Y-66037950D01*
X58106092Y-66113364D01*
X58106079Y-66113371D01*
X57942218Y-66222860D01*
X57942214Y-66222863D01*
X57802863Y-66362214D01*
X57802860Y-66362218D01*
X57693371Y-66526079D01*
X57693364Y-66526092D01*
X57617950Y-66708160D01*
X57617947Y-66708170D01*
X57579500Y-66901456D01*
X57579500Y-66901459D01*
X57579500Y-67098541D01*
X57579500Y-67098543D01*
X57579499Y-67098543D01*
X57617947Y-67291829D01*
X57617950Y-67291839D01*
X57693364Y-67473907D01*
X57693371Y-67473920D01*
X57802860Y-67637781D01*
X57802863Y-67637785D01*
X57942214Y-67777136D01*
X57942218Y-67777139D01*
X58106079Y-67886628D01*
X58106092Y-67886635D01*
X58288160Y-67962049D01*
X58288165Y-67962051D01*
X58288169Y-67962051D01*
X58288170Y-67962052D01*
X58481456Y-68000500D01*
X58481459Y-68000500D01*
X58678543Y-68000500D01*
X58808582Y-67974632D01*
X58871835Y-67962051D01*
X58871842Y-67962047D01*
X58877662Y-67960283D01*
X58878281Y-67962325D01*
X58938131Y-67955872D01*
X59000620Y-67987127D01*
X59003835Y-67990228D01*
X60312781Y-69299173D01*
X60346266Y-69360496D01*
X60349100Y-69386854D01*
X60349100Y-73009226D01*
X60376393Y-73111089D01*
X60378180Y-73114184D01*
X60429120Y-73202413D01*
X60429122Y-73202415D01*
X63514526Y-76287819D01*
X63548011Y-76349142D01*
X63543027Y-76418834D01*
X63501155Y-76474767D01*
X63435691Y-76499184D01*
X63426845Y-76499500D01*
X63321457Y-76499500D01*
X63128170Y-76537947D01*
X63128160Y-76537950D01*
X62946092Y-76613364D01*
X62946079Y-76613371D01*
X62782218Y-76722860D01*
X62782214Y-76722863D01*
X62642863Y-76862214D01*
X62642860Y-76862218D01*
X62533371Y-77026079D01*
X62533364Y-77026092D01*
X62457950Y-77208160D01*
X62457947Y-77208170D01*
X62419500Y-77401456D01*
X62419500Y-77401459D01*
X62419500Y-77598541D01*
X62419500Y-77598543D01*
X62419499Y-77598543D01*
X62457947Y-77791829D01*
X62457950Y-77791839D01*
X62533364Y-77973907D01*
X62533371Y-77973920D01*
X62642860Y-78137781D01*
X62642863Y-78137785D01*
X62782214Y-78277136D01*
X62782218Y-78277139D01*
X62946079Y-78386628D01*
X62946091Y-78386635D01*
X63034246Y-78423149D01*
X63063952Y-78435453D01*
X63118356Y-78479293D01*
X63140421Y-78545587D01*
X63140500Y-78550014D01*
X63140500Y-79819518D01*
X63120815Y-79886557D01*
X63068011Y-79932312D01*
X62998853Y-79942256D01*
X62978993Y-79936808D01*
X62978935Y-79937027D01*
X62971085Y-79934923D01*
X62971084Y-79934923D01*
X62818357Y-79894000D01*
X62818356Y-79894000D01*
X62756555Y-79894000D01*
X62689516Y-79874315D01*
X62668874Y-79857681D01*
X59016819Y-76205626D01*
X58983334Y-76144303D01*
X58980500Y-76117945D01*
X58980500Y-73924499D01*
X59000185Y-73857460D01*
X59052989Y-73811705D01*
X59104500Y-73800499D01*
X59484260Y-73800499D01*
X59484266Y-73800499D01*
X59514700Y-73797646D01*
X59642883Y-73752793D01*
X59752150Y-73672150D01*
X59832793Y-73562883D01*
X59855219Y-73498791D01*
X59877646Y-73434702D01*
X59877646Y-73434700D01*
X59880500Y-73404267D01*
X59880499Y-71595734D01*
X59877646Y-71565300D01*
X59832793Y-71437117D01*
X59777732Y-71362512D01*
X59752150Y-71327849D01*
X59678123Y-71273215D01*
X59642883Y-71247207D01*
X59642881Y-71247206D01*
X59514701Y-71202353D01*
X59484271Y-71199500D01*
X59484267Y-71199500D01*
X57897255Y-71199500D01*
X57830216Y-71179815D01*
X57809574Y-71163181D01*
X53325915Y-66679522D01*
X53325913Y-66679520D01*
X53266837Y-66645412D01*
X53234589Y-66626793D01*
X53183657Y-66613146D01*
X53132727Y-66599500D01*
X53132726Y-66599500D01*
X49419895Y-66599500D01*
X49352856Y-66579815D01*
X49310493Y-66530926D01*
X49309502Y-66531456D01*
X49307166Y-66527086D01*
X49307101Y-66527011D01*
X49306990Y-66526756D01*
X49306628Y-66526079D01*
X49197139Y-66362218D01*
X49197136Y-66362214D01*
X49057785Y-66222863D01*
X49057781Y-66222860D01*
X48893920Y-66113371D01*
X48893907Y-66113364D01*
X48711839Y-66037950D01*
X48711829Y-66037947D01*
X48518543Y-65999500D01*
X48518541Y-65999500D01*
X48321459Y-65999500D01*
X48321457Y-65999500D01*
X48128170Y-66037947D01*
X48128160Y-66037950D01*
X47946092Y-66113364D01*
X47946079Y-66113371D01*
X47782218Y-66222860D01*
X47782214Y-66222863D01*
X47642863Y-66362214D01*
X47642860Y-66362218D01*
X47533371Y-66526079D01*
X47533364Y-66526092D01*
X47457950Y-66708160D01*
X47457947Y-66708170D01*
X47419500Y-66901456D01*
X47419500Y-66901459D01*
X47419500Y-67098541D01*
X47419500Y-67098543D01*
X47419499Y-67098543D01*
X46500500Y-67098543D01*
X46500500Y-62098543D01*
X47419499Y-62098543D01*
X47457947Y-62291829D01*
X47457950Y-62291839D01*
X47533364Y-62473907D01*
X47533371Y-62473920D01*
X47642860Y-62637781D01*
X47642863Y-62637785D01*
X47782214Y-62777136D01*
X47782218Y-62777139D01*
X47946079Y-62886628D01*
X47946092Y-62886635D01*
X48127363Y-62961719D01*
X48128165Y-62962051D01*
X48128169Y-62962051D01*
X48128170Y-62962052D01*
X48321456Y-63000500D01*
X48321459Y-63000500D01*
X48518543Y-63000500D01*
X48648582Y-62974632D01*
X48711835Y-62962051D01*
X48893914Y-62886632D01*
X49057782Y-62777139D01*
X49197139Y-62637782D01*
X49306632Y-62473914D01*
X49382051Y-62291835D01*
X49411753Y-62142517D01*
X49420500Y-62098543D01*
X57579499Y-62098543D01*
X57617947Y-62291829D01*
X57617950Y-62291839D01*
X57693364Y-62473907D01*
X57693371Y-62473920D01*
X57802860Y-62637781D01*
X57802863Y-62637785D01*
X57942214Y-62777136D01*
X57942218Y-62777139D01*
X58106079Y-62886628D01*
X58106092Y-62886635D01*
X58287363Y-62961719D01*
X58288165Y-62962051D01*
X58288169Y-62962051D01*
X58288170Y-62962052D01*
X58481456Y-63000500D01*
X58481459Y-63000500D01*
X58678543Y-63000500D01*
X58808582Y-62974632D01*
X58871835Y-62962051D01*
X59053914Y-62886632D01*
X59217782Y-62777139D01*
X59357139Y-62637782D01*
X59466632Y-62473914D01*
X59542051Y-62291835D01*
X59571753Y-62142517D01*
X59580500Y-62098543D01*
X61499499Y-62098543D01*
X61537947Y-62291829D01*
X61537950Y-62291839D01*
X61613364Y-62473907D01*
X61613371Y-62473920D01*
X61722860Y-62637781D01*
X61722863Y-62637785D01*
X61862214Y-62777136D01*
X61862218Y-62777139D01*
X62026079Y-62886628D01*
X62026092Y-62886635D01*
X62207363Y-62961719D01*
X62208165Y-62962051D01*
X62208169Y-62962051D01*
X62208170Y-62962052D01*
X62401456Y-63000500D01*
X62401459Y-63000500D01*
X62598543Y-63000500D01*
X62728582Y-62974632D01*
X62791835Y-62962051D01*
X62973914Y-62886632D01*
X63137782Y-62777139D01*
X63277139Y-62637782D01*
X63386632Y-62473914D01*
X63462051Y-62291835D01*
X63491753Y-62142517D01*
X63500500Y-62098543D01*
X63500500Y-61901456D01*
X63462052Y-61708170D01*
X63462051Y-61708166D01*
X63462051Y-61708165D01*
X63459501Y-61702009D01*
X63386635Y-61526092D01*
X63386628Y-61526079D01*
X63277139Y-61362218D01*
X63277136Y-61362214D01*
X63137785Y-61222863D01*
X63137781Y-61222860D01*
X62973920Y-61113371D01*
X62973907Y-61113364D01*
X62791839Y-61037950D01*
X62791829Y-61037947D01*
X62598543Y-60999500D01*
X62598541Y-60999500D01*
X62401459Y-60999500D01*
X62401457Y-60999500D01*
X62208170Y-61037947D01*
X62208160Y-61037950D01*
X62026092Y-61113364D01*
X62026079Y-61113371D01*
X61862218Y-61222860D01*
X61862214Y-61222863D01*
X61722863Y-61362214D01*
X61722860Y-61362218D01*
X61613371Y-61526079D01*
X61613364Y-61526092D01*
X61537950Y-61708160D01*
X61537947Y-61708170D01*
X61499500Y-61901456D01*
X61499500Y-61901459D01*
X61499500Y-62098541D01*
X61499500Y-62098543D01*
X61499499Y-62098543D01*
X59580500Y-62098543D01*
X59580500Y-61901456D01*
X59542052Y-61708170D01*
X59542051Y-61708166D01*
X59542051Y-61708165D01*
X59539501Y-61702009D01*
X59466635Y-61526092D01*
X59466628Y-61526079D01*
X59357139Y-61362218D01*
X59357136Y-61362214D01*
X59217785Y-61222863D01*
X59217781Y-61222860D01*
X59053920Y-61113371D01*
X59053907Y-61113364D01*
X58871839Y-61037950D01*
X58871829Y-61037947D01*
X58678543Y-60999500D01*
X58678541Y-60999500D01*
X58481459Y-60999500D01*
X58481457Y-60999500D01*
X58288170Y-61037947D01*
X58288160Y-61037950D01*
X58106092Y-61113364D01*
X58106079Y-61113371D01*
X57942218Y-61222860D01*
X57942214Y-61222863D01*
X57802863Y-61362214D01*
X57802860Y-61362218D01*
X57693371Y-61526079D01*
X57693364Y-61526092D01*
X57617950Y-61708160D01*
X57617947Y-61708170D01*
X57579500Y-61901456D01*
X57579500Y-61901459D01*
X57579500Y-62098541D01*
X57579500Y-62098543D01*
X57579499Y-62098543D01*
X49420500Y-62098543D01*
X49420500Y-61901456D01*
X49382052Y-61708170D01*
X49382051Y-61708166D01*
X49382051Y-61708165D01*
X49379501Y-61702009D01*
X49306635Y-61526092D01*
X49306628Y-61526079D01*
X49197139Y-61362218D01*
X49197136Y-61362214D01*
X49057785Y-61222863D01*
X49057781Y-61222860D01*
X48893920Y-61113371D01*
X48893907Y-61113364D01*
X48711839Y-61037950D01*
X48711829Y-61037947D01*
X48518543Y-60999500D01*
X48518541Y-60999500D01*
X48321459Y-60999500D01*
X48321457Y-60999500D01*
X48128170Y-61037947D01*
X48128160Y-61037950D01*
X47946092Y-61113364D01*
X47946079Y-61113371D01*
X47782218Y-61222860D01*
X47782214Y-61222863D01*
X47642863Y-61362214D01*
X47642860Y-61362218D01*
X47533371Y-61526079D01*
X47533364Y-61526092D01*
X47457950Y-61708160D01*
X47457947Y-61708170D01*
X47419500Y-61901456D01*
X47419500Y-61901459D01*
X47419500Y-62098541D01*
X47419500Y-62098543D01*
X47419499Y-62098543D01*
X46500500Y-62098543D01*
X46500500Y-58013996D01*
X46520185Y-57946957D01*
X46572989Y-57901202D01*
X46642147Y-57891258D01*
X46705703Y-57920283D01*
X46743159Y-57977998D01*
X46779398Y-58097463D01*
X46794418Y-58146977D01*
X46922278Y-58455656D01*
X46922280Y-58455661D01*
X47079769Y-58750303D01*
X47079780Y-58750321D01*
X47265393Y-59028109D01*
X47265403Y-59028123D01*
X47477361Y-59286395D01*
X47713604Y-59522638D01*
X47713609Y-59522642D01*
X47713610Y-59522643D01*
X47971882Y-59734601D01*
X48249685Y-59920224D01*
X48249694Y-59920229D01*
X48249696Y-59920230D01*
X48544338Y-60077719D01*
X48544340Y-60077719D01*
X48544346Y-60077723D01*
X48853024Y-60205582D01*
X49172749Y-60302569D01*
X49172755Y-60302570D01*
X49172758Y-60302571D01*
X49172769Y-60302574D01*
X49378243Y-60343444D01*
X49500441Y-60367751D01*
X49832944Y-60400500D01*
X49832947Y-60400500D01*
X50167053Y-60400500D01*
X50167056Y-60400500D01*
X50499559Y-60367751D01*
X50661757Y-60335487D01*
X50827230Y-60302574D01*
X50827241Y-60302571D01*
X50827241Y-60302570D01*
X50827251Y-60302569D01*
X51146976Y-60205582D01*
X51455654Y-60077723D01*
X51750315Y-59920224D01*
X52028118Y-59734601D01*
X52286390Y-59522643D01*
X52522643Y-59286390D01*
X52734601Y-59028118D01*
X52920224Y-58750315D01*
X53077723Y-58455654D01*
X53205582Y-58146976D01*
X53302569Y-57827251D01*
X53302571Y-57827241D01*
X53302574Y-57827230D01*
X53335487Y-57661757D01*
X53367751Y-57499559D01*
X53400500Y-57167056D01*
X53400500Y-56832944D01*
X53367751Y-56500441D01*
X53343444Y-56378243D01*
X53302574Y-56172769D01*
X53302571Y-56172758D01*
X53302570Y-56172755D01*
X53302569Y-56172749D01*
X53205582Y-55853024D01*
X53077723Y-55544346D01*
X53000835Y-55400499D01*
X52920230Y-55249696D01*
X52920229Y-55249694D01*
X52920224Y-55249685D01*
X52734601Y-54971882D01*
X52522643Y-54713610D01*
X52522642Y-54713609D01*
X52522638Y-54713604D01*
X52286395Y-54477361D01*
X52028123Y-54265403D01*
X52028122Y-54265402D01*
X52028118Y-54265399D01*
X51750315Y-54079776D01*
X51750310Y-54079773D01*
X51750303Y-54079769D01*
X51455661Y-53922280D01*
X51455656Y-53922278D01*
X51146977Y-53794418D01*
X50827241Y-53697428D01*
X50827230Y-53697425D01*
X50499565Y-53632250D01*
X50499548Y-53632247D01*
X50409747Y-53623403D01*
X50344960Y-53597242D01*
X50304601Y-53540208D01*
X50301484Y-53470408D01*
X50336598Y-53410003D01*
X50398796Y-53378172D01*
X50409747Y-53376597D01*
X50473626Y-53370305D01*
X50499559Y-53367751D01*
X50661757Y-53335487D01*
X50827230Y-53302574D01*
X50827241Y-53302571D01*
X50827241Y-53302570D01*
X50827251Y-53302569D01*
X51146976Y-53205582D01*
X51455654Y-53077723D01*
X51750315Y-52920224D01*
X52028118Y-52734601D01*
X52286390Y-52522643D01*
X52522643Y-52286390D01*
X52734601Y-52028118D01*
X52920224Y-51750315D01*
X53077723Y-51455654D01*
X53205582Y-51146976D01*
X53302569Y-50827251D01*
X53302571Y-50827241D01*
X53302574Y-50827230D01*
X53352055Y-50578467D01*
X53367751Y-50499559D01*
X53390407Y-50269528D01*
X75796500Y-50269528D01*
X75796500Y-50578471D01*
X75831086Y-50885437D01*
X75831089Y-50885455D01*
X75899831Y-51186635D01*
X75899835Y-51186647D01*
X76001862Y-51478222D01*
X76001868Y-51478236D01*
X76135903Y-51756562D01*
X76147230Y-51774589D01*
X76300265Y-52018143D01*
X76492880Y-52259674D01*
X76711326Y-52478120D01*
X76952857Y-52670735D01*
X77214435Y-52835095D01*
X77492771Y-52969135D01*
X77492777Y-52969137D01*
X77784352Y-53071164D01*
X77784364Y-53071168D01*
X78085548Y-53139911D01*
X78085554Y-53139911D01*
X78085562Y-53139913D01*
X78290206Y-53162970D01*
X78392529Y-53174499D01*
X78392532Y-53174500D01*
X78392535Y-53174500D01*
X78701468Y-53174500D01*
X78701469Y-53174499D01*
X78858356Y-53156822D01*
X79008437Y-53139913D01*
X79008442Y-53139912D01*
X79008452Y-53139911D01*
X79309636Y-53071168D01*
X79601229Y-52969135D01*
X79879565Y-52835095D01*
X80141143Y-52670735D01*
X80382674Y-52478120D01*
X80601120Y-52259674D01*
X80793735Y-52018143D01*
X80958095Y-51756565D01*
X81092135Y-51478229D01*
X81194168Y-51186636D01*
X81262911Y-50885452D01*
X81297500Y-50578465D01*
X81297500Y-50269535D01*
X81262911Y-49962548D01*
X81194168Y-49661364D01*
X81137858Y-49500441D01*
X81105413Y-49407717D01*
X81092135Y-49369771D01*
X80983214Y-49143596D01*
X80958096Y-49091437D01*
X80958095Y-49091435D01*
X80793735Y-48829857D01*
X80620153Y-48612193D01*
X80620153Y-48612191D01*
X80601126Y-48588332D01*
X80552547Y-48539753D01*
X83150000Y-48539753D01*
X83150000Y-48752246D01*
X83183242Y-48962127D01*
X83183242Y-48962130D01*
X83248904Y-49164217D01*
X83345375Y-49353550D01*
X83384728Y-49407716D01*
X84017037Y-48775408D01*
X84034075Y-48838993D01*
X84099901Y-48953007D01*
X84192993Y-49046099D01*
X84307007Y-49111925D01*
X84370590Y-49128962D01*
X83738282Y-49761269D01*
X83738282Y-49761270D01*
X83792449Y-49800624D01*
X83981782Y-49897095D01*
X84183870Y-49962757D01*
X84393754Y-49996000D01*
X84606246Y-49996000D01*
X84816127Y-49962757D01*
X84816130Y-49962757D01*
X85018217Y-49897095D01*
X85207554Y-49800622D01*
X85261716Y-49761270D01*
X85261717Y-49761270D01*
X84629408Y-49128962D01*
X84692993Y-49111925D01*
X84807007Y-49046099D01*
X84900099Y-48953007D01*
X84965925Y-48838993D01*
X84982962Y-48775408D01*
X85615270Y-49407717D01*
X85615270Y-49407716D01*
X85654622Y-49353554D01*
X85751095Y-49164217D01*
X85808343Y-48988026D01*
X85847780Y-48930351D01*
X85912139Y-48903152D01*
X85980985Y-48915066D01*
X86032461Y-48962310D01*
X86040835Y-48978891D01*
X86095939Y-49111925D01*
X86109059Y-49143598D01*
X86166541Y-49229626D01*
X86224024Y-49315657D01*
X86370339Y-49461972D01*
X86370343Y-49461975D01*
X86370345Y-49461977D01*
X86384387Y-49471359D01*
X86429194Y-49524969D01*
X86439500Y-49574463D01*
X86439500Y-95919629D01*
X86419815Y-95986668D01*
X86418603Y-95988518D01*
X86377678Y-96049768D01*
X86306027Y-96222748D01*
X86306025Y-96222756D01*
X86269500Y-96406379D01*
X86269500Y-96593620D01*
X86306025Y-96777243D01*
X86306027Y-96777251D01*
X86377676Y-96950228D01*
X86377681Y-96950237D01*
X86481697Y-97105907D01*
X86481700Y-97105911D01*
X86614088Y-97238299D01*
X86614092Y-97238302D01*
X86769762Y-97342318D01*
X86769768Y-97342321D01*
X86769769Y-97342322D01*
X86942749Y-97413973D01*
X87126379Y-97450499D01*
X87126383Y-97450500D01*
X87126384Y-97450500D01*
X87313617Y-97450500D01*
X87313618Y-97450499D01*
X87497251Y-97413973D01*
X87670231Y-97342322D01*
X87825908Y-97238302D01*
X87958302Y-97105908D01*
X88062322Y-96950231D01*
X88133973Y-96777251D01*
X88170500Y-96593616D01*
X88170500Y-96406384D01*
X88170499Y-96406381D01*
X88170499Y-96406379D01*
X88809500Y-96406379D01*
X88809500Y-96593620D01*
X88846025Y-96777243D01*
X88846027Y-96777251D01*
X88917676Y-96950228D01*
X88917681Y-96950237D01*
X89021697Y-97105907D01*
X89021700Y-97105911D01*
X89154088Y-97238299D01*
X89154092Y-97238302D01*
X89309762Y-97342318D01*
X89309768Y-97342321D01*
X89309769Y-97342322D01*
X89482749Y-97413973D01*
X89666379Y-97450499D01*
X89666383Y-97450500D01*
X89666384Y-97450500D01*
X89853617Y-97450500D01*
X89853618Y-97450499D01*
X90037251Y-97413973D01*
X90210231Y-97342322D01*
X90365908Y-97238302D01*
X90498302Y-97105908D01*
X90602322Y-96950231D01*
X90673973Y-96777251D01*
X90710500Y-96593616D01*
X90710500Y-96406384D01*
X90710500Y-96406383D01*
X90710500Y-96406381D01*
X90709552Y-96401617D01*
X91050000Y-96401617D01*
X91050000Y-96598382D01*
X91080778Y-96792705D01*
X91141581Y-96979835D01*
X91230905Y-97155145D01*
X91256319Y-97190125D01*
X91256320Y-97190125D01*
X91857861Y-96588584D01*
X91880667Y-96673694D01*
X91939910Y-96776306D01*
X92023694Y-96860090D01*
X92126306Y-96919333D01*
X92211414Y-96942137D01*
X91609873Y-97543677D01*
X91609873Y-97543678D01*
X91644858Y-97569096D01*
X91820164Y-97658418D01*
X92007294Y-97719221D01*
X92201618Y-97750000D01*
X92398382Y-97750000D01*
X92592705Y-97719221D01*
X92779835Y-97658418D01*
X92955143Y-97569095D01*
X92990125Y-97543678D01*
X92990126Y-97543678D01*
X92388585Y-96942137D01*
X92473694Y-96919333D01*
X92576306Y-96860090D01*
X92660090Y-96776306D01*
X92719333Y-96673694D01*
X92742137Y-96588585D01*
X93343678Y-97190126D01*
X93343678Y-97190125D01*
X93369095Y-97155143D01*
X93458418Y-96979835D01*
X93519221Y-96792705D01*
X93550000Y-96598382D01*
X93550000Y-96406379D01*
X93889500Y-96406379D01*
X93889500Y-96593620D01*
X93926025Y-96777243D01*
X93926027Y-96777251D01*
X93997676Y-96950228D01*
X93997681Y-96950237D01*
X94101697Y-97105907D01*
X94101700Y-97105911D01*
X94234088Y-97238299D01*
X94234092Y-97238302D01*
X94389762Y-97342318D01*
X94389768Y-97342321D01*
X94389769Y-97342322D01*
X94562749Y-97413973D01*
X94746379Y-97450499D01*
X94746383Y-97450500D01*
X94746384Y-97450500D01*
X94933617Y-97450500D01*
X94933618Y-97450499D01*
X95117251Y-97413973D01*
X95290231Y-97342322D01*
X95445908Y-97238302D01*
X95578302Y-97105908D01*
X95682322Y-96950231D01*
X95753973Y-96777251D01*
X95790500Y-96593616D01*
X95790500Y-96406384D01*
X95790499Y-96406381D01*
X95790499Y-96406379D01*
X96429500Y-96406379D01*
X96429500Y-96593620D01*
X96466025Y-96777243D01*
X96466027Y-96777251D01*
X96537676Y-96950228D01*
X96537681Y-96950237D01*
X96641697Y-97105907D01*
X96641700Y-97105911D01*
X96774088Y-97238299D01*
X96774092Y-97238302D01*
X96929762Y-97342318D01*
X96929768Y-97342321D01*
X96929769Y-97342322D01*
X97102749Y-97413973D01*
X97286379Y-97450499D01*
X97286383Y-97450500D01*
X97286384Y-97450500D01*
X97473617Y-97450500D01*
X97473618Y-97450499D01*
X97657251Y-97413973D01*
X97830231Y-97342322D01*
X97985908Y-97238302D01*
X98118302Y-97105908D01*
X98222322Y-96950231D01*
X98293973Y-96777251D01*
X98330500Y-96593616D01*
X98330500Y-96406384D01*
X98330499Y-96406381D01*
X98330499Y-96406379D01*
X98969500Y-96406379D01*
X98969500Y-96593620D01*
X99006025Y-96777243D01*
X99006027Y-96777251D01*
X99077676Y-96950228D01*
X99077681Y-96950237D01*
X99181697Y-97105907D01*
X99181700Y-97105911D01*
X99314088Y-97238299D01*
X99314092Y-97238302D01*
X99469762Y-97342318D01*
X99469768Y-97342321D01*
X99469769Y-97342322D01*
X99642749Y-97413973D01*
X99826379Y-97450499D01*
X99826383Y-97450500D01*
X99826384Y-97450500D01*
X100013617Y-97450500D01*
X100013618Y-97450499D01*
X100197251Y-97413973D01*
X100370231Y-97342322D01*
X100525908Y-97238302D01*
X100658302Y-97105908D01*
X100762322Y-96950231D01*
X100833973Y-96777251D01*
X100870500Y-96593616D01*
X100870500Y-96406384D01*
X100870499Y-96406381D01*
X100870499Y-96406379D01*
X101509500Y-96406379D01*
X101509500Y-96593620D01*
X101546025Y-96777243D01*
X101546027Y-96777251D01*
X101617676Y-96950228D01*
X101617681Y-96950237D01*
X101721697Y-97105907D01*
X101721700Y-97105911D01*
X101854088Y-97238299D01*
X101854092Y-97238302D01*
X102009762Y-97342318D01*
X102009768Y-97342321D01*
X102009769Y-97342322D01*
X102182749Y-97413973D01*
X102366379Y-97450499D01*
X102366383Y-97450500D01*
X102366384Y-97450500D01*
X102553617Y-97450500D01*
X102553618Y-97450499D01*
X102737251Y-97413973D01*
X102910231Y-97342322D01*
X103065908Y-97238302D01*
X103198302Y-97105908D01*
X103302322Y-96950231D01*
X103373973Y-96777251D01*
X103410500Y-96593616D01*
X103410500Y-96406384D01*
X103410499Y-96406381D01*
X103410499Y-96406379D01*
X104049500Y-96406379D01*
X104049500Y-96593620D01*
X104086025Y-96777243D01*
X104086027Y-96777251D01*
X104157676Y-96950228D01*
X104157681Y-96950237D01*
X104261697Y-97105907D01*
X104261700Y-97105911D01*
X104394088Y-97238299D01*
X104394092Y-97238302D01*
X104549762Y-97342318D01*
X104549768Y-97342321D01*
X104549769Y-97342322D01*
X104722749Y-97413973D01*
X104906379Y-97450499D01*
X104906383Y-97450500D01*
X104906384Y-97450500D01*
X105093617Y-97450500D01*
X105093618Y-97450499D01*
X105277251Y-97413973D01*
X105450231Y-97342322D01*
X105605908Y-97238302D01*
X105738302Y-97105908D01*
X105842322Y-96950231D01*
X105913973Y-96777251D01*
X105950500Y-96593616D01*
X105950500Y-96406384D01*
X105950499Y-96406381D01*
X105950499Y-96406379D01*
X106589500Y-96406379D01*
X106589500Y-96593620D01*
X106626025Y-96777243D01*
X106626027Y-96777251D01*
X106697676Y-96950228D01*
X106697681Y-96950237D01*
X106801697Y-97105907D01*
X106801700Y-97105911D01*
X106934088Y-97238299D01*
X106934092Y-97238302D01*
X107089762Y-97342318D01*
X107089768Y-97342321D01*
X107089769Y-97342322D01*
X107262749Y-97413973D01*
X107446379Y-97450499D01*
X107446383Y-97450500D01*
X107446384Y-97450500D01*
X107633617Y-97450500D01*
X107633618Y-97450499D01*
X107817251Y-97413973D01*
X107990231Y-97342322D01*
X108145908Y-97238302D01*
X108278302Y-97105908D01*
X108382322Y-96950231D01*
X108453973Y-96777251D01*
X108490500Y-96593616D01*
X108490500Y-96406384D01*
X108490499Y-96406381D01*
X108490499Y-96406379D01*
X109129500Y-96406379D01*
X109129500Y-96593620D01*
X109166025Y-96777243D01*
X109166027Y-96777251D01*
X109237676Y-96950228D01*
X109237681Y-96950237D01*
X109341697Y-97105907D01*
X109341700Y-97105911D01*
X109474088Y-97238299D01*
X109474092Y-97238302D01*
X109629762Y-97342318D01*
X109629768Y-97342321D01*
X109629769Y-97342322D01*
X109802749Y-97413973D01*
X109986379Y-97450499D01*
X109986383Y-97450500D01*
X109986384Y-97450500D01*
X110173617Y-97450500D01*
X110173618Y-97450499D01*
X110357251Y-97413973D01*
X110530231Y-97342322D01*
X110685908Y-97238302D01*
X110818302Y-97105908D01*
X110922322Y-96950231D01*
X110993973Y-96777251D01*
X111030500Y-96593616D01*
X111030500Y-96406384D01*
X111030499Y-96406381D01*
X111030499Y-96406379D01*
X111029552Y-96401617D01*
X110993973Y-96222749D01*
X110922322Y-96049769D01*
X110922321Y-96049768D01*
X110922318Y-96049762D01*
X110818302Y-95894092D01*
X110818299Y-95894088D01*
X110685911Y-95761700D01*
X110685907Y-95761697D01*
X110530237Y-95657681D01*
X110530228Y-95657676D01*
X110357251Y-95586027D01*
X110357243Y-95586025D01*
X110173620Y-95549500D01*
X110173616Y-95549500D01*
X109986384Y-95549500D01*
X109986379Y-95549500D01*
X109802756Y-95586025D01*
X109802748Y-95586027D01*
X109629771Y-95657676D01*
X109629762Y-95657681D01*
X109474092Y-95761697D01*
X109474088Y-95761700D01*
X109341700Y-95894088D01*
X109341697Y-95894092D01*
X109237681Y-96049762D01*
X109237676Y-96049771D01*
X109166027Y-96222748D01*
X109166025Y-96222756D01*
X109129500Y-96406379D01*
X108490499Y-96406379D01*
X108489552Y-96401617D01*
X108453973Y-96222749D01*
X108382322Y-96049769D01*
X108382321Y-96049768D01*
X108382318Y-96049762D01*
X108278302Y-95894092D01*
X108278299Y-95894088D01*
X108145911Y-95761700D01*
X108145907Y-95761697D01*
X107990237Y-95657681D01*
X107990228Y-95657676D01*
X107817251Y-95586027D01*
X107817243Y-95586025D01*
X107633620Y-95549500D01*
X107633616Y-95549500D01*
X107446384Y-95549500D01*
X107446379Y-95549500D01*
X107262756Y-95586025D01*
X107262748Y-95586027D01*
X107089771Y-95657676D01*
X107089762Y-95657681D01*
X106934092Y-95761697D01*
X106934088Y-95761700D01*
X106801700Y-95894088D01*
X106801697Y-95894092D01*
X106697681Y-96049762D01*
X106697676Y-96049771D01*
X106626027Y-96222748D01*
X106626025Y-96222756D01*
X106589500Y-96406379D01*
X105950499Y-96406379D01*
X105949552Y-96401617D01*
X105913973Y-96222749D01*
X105842322Y-96049769D01*
X105842321Y-96049768D01*
X105842318Y-96049762D01*
X105738302Y-95894092D01*
X105738299Y-95894088D01*
X105605911Y-95761700D01*
X105605907Y-95761697D01*
X105450237Y-95657681D01*
X105450228Y-95657676D01*
X105277251Y-95586027D01*
X105277243Y-95586025D01*
X105093620Y-95549500D01*
X105093616Y-95549500D01*
X104906384Y-95549500D01*
X104906379Y-95549500D01*
X104722756Y-95586025D01*
X104722748Y-95586027D01*
X104549771Y-95657676D01*
X104549762Y-95657681D01*
X104394092Y-95761697D01*
X104394088Y-95761700D01*
X104261700Y-95894088D01*
X104261697Y-95894092D01*
X104157681Y-96049762D01*
X104157676Y-96049771D01*
X104086027Y-96222748D01*
X104086025Y-96222756D01*
X104049500Y-96406379D01*
X103410499Y-96406379D01*
X103409552Y-96401617D01*
X103373973Y-96222749D01*
X103302322Y-96049769D01*
X103302321Y-96049768D01*
X103302318Y-96049762D01*
X103198302Y-95894092D01*
X103198299Y-95894088D01*
X103065911Y-95761700D01*
X103065907Y-95761697D01*
X102910237Y-95657681D01*
X102910228Y-95657676D01*
X102737251Y-95586027D01*
X102737243Y-95586025D01*
X102553620Y-95549500D01*
X102553616Y-95549500D01*
X102366384Y-95549500D01*
X102366379Y-95549500D01*
X102182756Y-95586025D01*
X102182748Y-95586027D01*
X102009771Y-95657676D01*
X102009762Y-95657681D01*
X101854092Y-95761697D01*
X101854088Y-95761700D01*
X101721700Y-95894088D01*
X101721697Y-95894092D01*
X101617681Y-96049762D01*
X101617676Y-96049771D01*
X101546027Y-96222748D01*
X101546025Y-96222756D01*
X101509500Y-96406379D01*
X100870499Y-96406379D01*
X100869552Y-96401617D01*
X100833973Y-96222749D01*
X100762322Y-96049769D01*
X100762321Y-96049768D01*
X100762318Y-96049762D01*
X100658302Y-95894092D01*
X100658299Y-95894088D01*
X100525911Y-95761700D01*
X100525907Y-95761697D01*
X100370237Y-95657681D01*
X100370228Y-95657676D01*
X100197251Y-95586027D01*
X100197243Y-95586025D01*
X100013620Y-95549500D01*
X100013616Y-95549500D01*
X99826384Y-95549500D01*
X99826379Y-95549500D01*
X99642756Y-95586025D01*
X99642748Y-95586027D01*
X99469771Y-95657676D01*
X99469762Y-95657681D01*
X99314092Y-95761697D01*
X99314088Y-95761700D01*
X99181700Y-95894088D01*
X99181697Y-95894092D01*
X99077681Y-96049762D01*
X99077676Y-96049771D01*
X99006027Y-96222748D01*
X99006025Y-96222756D01*
X98969500Y-96406379D01*
X98330499Y-96406379D01*
X98329552Y-96401617D01*
X98293973Y-96222749D01*
X98222322Y-96049769D01*
X98222321Y-96049768D01*
X98222318Y-96049762D01*
X98118302Y-95894092D01*
X98118299Y-95894088D01*
X97985911Y-95761700D01*
X97985907Y-95761697D01*
X97830237Y-95657681D01*
X97830228Y-95657676D01*
X97657251Y-95586027D01*
X97657243Y-95586025D01*
X97473620Y-95549500D01*
X97473616Y-95549500D01*
X97286384Y-95549500D01*
X97286379Y-95549500D01*
X97102756Y-95586025D01*
X97102748Y-95586027D01*
X96929771Y-95657676D01*
X96929762Y-95657681D01*
X96774092Y-95761697D01*
X96774088Y-95761700D01*
X96641700Y-95894088D01*
X96641697Y-95894092D01*
X96537681Y-96049762D01*
X96537676Y-96049771D01*
X96466027Y-96222748D01*
X96466025Y-96222756D01*
X96429500Y-96406379D01*
X95790499Y-96406379D01*
X95789552Y-96401617D01*
X95753973Y-96222749D01*
X95682322Y-96049769D01*
X95682321Y-96049768D01*
X95682318Y-96049762D01*
X95578302Y-95894092D01*
X95578299Y-95894088D01*
X95445911Y-95761700D01*
X95445907Y-95761697D01*
X95290237Y-95657681D01*
X95290228Y-95657676D01*
X95117251Y-95586027D01*
X95117243Y-95586025D01*
X94933620Y-95549500D01*
X94933616Y-95549500D01*
X94746384Y-95549500D01*
X94746379Y-95549500D01*
X94562756Y-95586025D01*
X94562748Y-95586027D01*
X94389771Y-95657676D01*
X94389762Y-95657681D01*
X94234092Y-95761697D01*
X94234088Y-95761700D01*
X94101700Y-95894088D01*
X94101697Y-95894092D01*
X93997681Y-96049762D01*
X93997676Y-96049771D01*
X93926027Y-96222748D01*
X93926025Y-96222756D01*
X93889500Y-96406379D01*
X93550000Y-96406379D01*
X93550000Y-96401617D01*
X93519221Y-96207294D01*
X93458418Y-96020164D01*
X93369096Y-95844858D01*
X93343678Y-95809873D01*
X93343677Y-95809873D01*
X92742137Y-96411413D01*
X92719333Y-96326306D01*
X92660090Y-96223694D01*
X92576306Y-96139910D01*
X92473694Y-96080667D01*
X92388584Y-96057861D01*
X92990125Y-95456320D01*
X92990125Y-95456319D01*
X92955145Y-95430905D01*
X92779835Y-95341581D01*
X92592705Y-95280778D01*
X92398382Y-95250000D01*
X92201618Y-95250000D01*
X92007294Y-95280778D01*
X91820161Y-95341582D01*
X91644863Y-95430899D01*
X91644859Y-95430902D01*
X91609873Y-95456320D01*
X91609872Y-95456320D01*
X92211415Y-96057861D01*
X92126306Y-96080667D01*
X92023694Y-96139910D01*
X91939910Y-96223694D01*
X91880667Y-96326306D01*
X91857861Y-96411414D01*
X91256320Y-95809872D01*
X91256320Y-95809873D01*
X91230902Y-95844859D01*
X91230899Y-95844863D01*
X91141582Y-96020161D01*
X91080778Y-96207294D01*
X91050000Y-96401617D01*
X90709552Y-96401617D01*
X90673974Y-96222756D01*
X90673973Y-96222749D01*
X90602322Y-96049769D01*
X90602321Y-96049768D01*
X90602318Y-96049762D01*
X90498302Y-95894092D01*
X90498299Y-95894088D01*
X90365911Y-95761700D01*
X90365907Y-95761697D01*
X90210237Y-95657681D01*
X90210228Y-95657676D01*
X90114778Y-95618140D01*
X90037251Y-95586027D01*
X90037243Y-95586025D01*
X89853620Y-95549500D01*
X89853616Y-95549500D01*
X89666384Y-95549500D01*
X89666379Y-95549500D01*
X89482756Y-95586025D01*
X89482748Y-95586027D01*
X89309771Y-95657676D01*
X89309762Y-95657681D01*
X89154092Y-95761697D01*
X89154088Y-95761700D01*
X89021700Y-95894088D01*
X89021697Y-95894092D01*
X88917681Y-96049762D01*
X88917676Y-96049771D01*
X88846027Y-96222748D01*
X88846025Y-96222756D01*
X88809500Y-96406379D01*
X88170499Y-96406379D01*
X88169552Y-96401617D01*
X88133973Y-96222749D01*
X88062322Y-96049769D01*
X88062321Y-96049768D01*
X88062318Y-96049762D01*
X87958302Y-95894092D01*
X87958299Y-95894088D01*
X87825908Y-95761697D01*
X87695609Y-95674635D01*
X87650804Y-95621023D01*
X87640500Y-95571533D01*
X87640500Y-76086379D01*
X93889500Y-76086379D01*
X93889500Y-76273620D01*
X93926025Y-76457243D01*
X93926027Y-76457251D01*
X93997676Y-76630228D01*
X93997681Y-76630237D01*
X94101697Y-76785907D01*
X94101700Y-76785911D01*
X94234088Y-76918299D01*
X94234092Y-76918302D01*
X94389762Y-77022318D01*
X94389771Y-77022323D01*
X94426750Y-77037640D01*
X94562749Y-77093973D01*
X94683512Y-77117994D01*
X94746379Y-77130499D01*
X94746383Y-77130500D01*
X94746384Y-77130500D01*
X94933617Y-77130500D01*
X94933618Y-77130499D01*
X95117251Y-77093973D01*
X95290231Y-77022322D01*
X95445908Y-76918302D01*
X95578302Y-76785908D01*
X95682322Y-76630231D01*
X95753973Y-76457251D01*
X95790500Y-76273616D01*
X95790500Y-76086384D01*
X95790499Y-76086379D01*
X96429500Y-76086379D01*
X96429500Y-76273620D01*
X96466025Y-76457243D01*
X96466027Y-76457251D01*
X96537676Y-76630228D01*
X96537681Y-76630237D01*
X96641697Y-76785907D01*
X96641700Y-76785911D01*
X96774088Y-76918299D01*
X96774092Y-76918302D01*
X96929762Y-77022318D01*
X96929771Y-77022323D01*
X96966750Y-77037640D01*
X97102749Y-77093973D01*
X97223512Y-77117994D01*
X97286379Y-77130499D01*
X97286383Y-77130500D01*
X97286384Y-77130500D01*
X97473617Y-77130500D01*
X97473618Y-77130499D01*
X97657251Y-77093973D01*
X97830231Y-77022322D01*
X97985908Y-76918302D01*
X98118302Y-76785908D01*
X98222322Y-76630231D01*
X98293973Y-76457251D01*
X98330500Y-76273616D01*
X98330500Y-76086384D01*
X98330499Y-76086379D01*
X98969500Y-76086379D01*
X98969500Y-76273620D01*
X99006025Y-76457243D01*
X99006027Y-76457251D01*
X99077676Y-76630228D01*
X99077681Y-76630237D01*
X99181697Y-76785907D01*
X99181700Y-76785911D01*
X99314088Y-76918299D01*
X99314092Y-76918302D01*
X99469762Y-77022318D01*
X99469771Y-77022323D01*
X99506750Y-77037640D01*
X99642749Y-77093973D01*
X99763512Y-77117994D01*
X99826379Y-77130499D01*
X99826383Y-77130500D01*
X99826384Y-77130500D01*
X100013617Y-77130500D01*
X100013618Y-77130499D01*
X100197251Y-77093973D01*
X100370231Y-77022322D01*
X100525908Y-76918302D01*
X100658302Y-76785908D01*
X100762322Y-76630231D01*
X100833973Y-76457251D01*
X100870500Y-76273616D01*
X100870500Y-76086384D01*
X100870499Y-76086379D01*
X101509500Y-76086379D01*
X101509500Y-76273620D01*
X101546025Y-76457243D01*
X101546027Y-76457251D01*
X101617676Y-76630228D01*
X101617681Y-76630237D01*
X101721697Y-76785907D01*
X101721700Y-76785911D01*
X101854088Y-76918299D01*
X101854092Y-76918302D01*
X102009762Y-77022318D01*
X102009771Y-77022323D01*
X102046750Y-77037640D01*
X102182749Y-77093973D01*
X102303512Y-77117994D01*
X102366379Y-77130499D01*
X102366383Y-77130500D01*
X102366384Y-77130500D01*
X102553617Y-77130500D01*
X102553618Y-77130499D01*
X102737251Y-77093973D01*
X102910231Y-77022322D01*
X103065908Y-76918302D01*
X103198302Y-76785908D01*
X103302322Y-76630231D01*
X103373973Y-76457251D01*
X103410500Y-76273616D01*
X103410500Y-76086384D01*
X103410499Y-76086379D01*
X104049500Y-76086379D01*
X104049500Y-76273620D01*
X104086025Y-76457243D01*
X104086027Y-76457251D01*
X104157676Y-76630228D01*
X104157681Y-76630237D01*
X104261697Y-76785907D01*
X104261700Y-76785911D01*
X104394088Y-76918299D01*
X104394092Y-76918302D01*
X104549762Y-77022318D01*
X104549771Y-77022323D01*
X104586750Y-77037640D01*
X104722749Y-77093973D01*
X104843512Y-77117994D01*
X104906379Y-77130499D01*
X104906383Y-77130500D01*
X104906384Y-77130500D01*
X105093617Y-77130500D01*
X105093618Y-77130499D01*
X105277251Y-77093973D01*
X105450231Y-77022322D01*
X105605908Y-76918302D01*
X105738302Y-76785908D01*
X105842322Y-76630231D01*
X105913973Y-76457251D01*
X105950500Y-76273616D01*
X105950500Y-76086384D01*
X105950499Y-76086379D01*
X106589500Y-76086379D01*
X106589500Y-76273620D01*
X106626025Y-76457243D01*
X106626027Y-76457251D01*
X106697676Y-76630228D01*
X106697681Y-76630237D01*
X106801697Y-76785907D01*
X106801700Y-76785911D01*
X106934088Y-76918299D01*
X106934092Y-76918302D01*
X107089762Y-77022318D01*
X107089771Y-77022323D01*
X107126750Y-77037640D01*
X107262749Y-77093973D01*
X107383512Y-77117994D01*
X107446379Y-77130499D01*
X107446383Y-77130500D01*
X107446384Y-77130500D01*
X107633617Y-77130500D01*
X107633618Y-77130499D01*
X107817251Y-77093973D01*
X107990231Y-77022322D01*
X108145908Y-76918302D01*
X108278302Y-76785908D01*
X108382322Y-76630231D01*
X108453973Y-76457251D01*
X108490500Y-76273616D01*
X108490500Y-76086384D01*
X108490499Y-76086379D01*
X109129500Y-76086379D01*
X109129500Y-76273620D01*
X109166025Y-76457243D01*
X109166027Y-76457251D01*
X109237676Y-76630228D01*
X109237681Y-76630237D01*
X109341697Y-76785907D01*
X109341700Y-76785911D01*
X109474088Y-76918299D01*
X109474092Y-76918302D01*
X109629762Y-77022318D01*
X109629771Y-77022323D01*
X109666750Y-77037640D01*
X109802749Y-77093973D01*
X109923512Y-77117994D01*
X109986379Y-77130499D01*
X109986383Y-77130500D01*
X109986384Y-77130500D01*
X110173617Y-77130500D01*
X110173618Y-77130499D01*
X110357251Y-77093973D01*
X110530231Y-77022322D01*
X110685908Y-76918302D01*
X110818302Y-76785908D01*
X110922322Y-76630231D01*
X110993973Y-76457251D01*
X111030500Y-76273616D01*
X111030500Y-76086384D01*
X111030499Y-76086379D01*
X111669500Y-76086379D01*
X111669500Y-76273620D01*
X111706025Y-76457243D01*
X111706027Y-76457251D01*
X111777676Y-76630228D01*
X111777681Y-76630237D01*
X111881697Y-76785907D01*
X111881700Y-76785911D01*
X112014088Y-76918299D01*
X112014092Y-76918302D01*
X112169762Y-77022318D01*
X112169771Y-77022323D01*
X112206750Y-77037640D01*
X112342749Y-77093973D01*
X112463512Y-77117994D01*
X112526379Y-77130499D01*
X112526383Y-77130500D01*
X112526384Y-77130500D01*
X112713617Y-77130500D01*
X112713618Y-77130499D01*
X112897251Y-77093973D01*
X113070231Y-77022322D01*
X113225908Y-76918302D01*
X113358302Y-76785908D01*
X113358304Y-76785904D01*
X113362166Y-76781200D01*
X113363420Y-76782229D01*
X113411004Y-76742459D01*
X113480329Y-76733748D01*
X113543358Y-76763899D01*
X113580080Y-76823340D01*
X113584500Y-76856152D01*
X113584500Y-95823847D01*
X113564815Y-95890886D01*
X113512011Y-95936641D01*
X113442853Y-95946585D01*
X113379297Y-95917560D01*
X113362501Y-95898524D01*
X113362166Y-95898800D01*
X113358299Y-95894088D01*
X113225911Y-95761700D01*
X113225907Y-95761697D01*
X113070237Y-95657681D01*
X113070228Y-95657676D01*
X112897251Y-95586027D01*
X112897243Y-95586025D01*
X112713620Y-95549500D01*
X112713616Y-95549500D01*
X112526384Y-95549500D01*
X112526379Y-95549500D01*
X112342756Y-95586025D01*
X112342748Y-95586027D01*
X112169771Y-95657676D01*
X112169762Y-95657681D01*
X112014092Y-95761697D01*
X112014088Y-95761700D01*
X111881700Y-95894088D01*
X111881697Y-95894092D01*
X111777681Y-96049762D01*
X111777676Y-96049771D01*
X111706027Y-96222748D01*
X111706025Y-96222756D01*
X111669500Y-96406379D01*
X111669500Y-96593620D01*
X111706025Y-96777243D01*
X111706027Y-96777251D01*
X111777676Y-96950228D01*
X111777681Y-96950237D01*
X111881697Y-97105907D01*
X111881700Y-97105911D01*
X112014088Y-97238299D01*
X112014092Y-97238302D01*
X112169762Y-97342318D01*
X112169768Y-97342321D01*
X112169769Y-97342322D01*
X112342749Y-97413973D01*
X112526379Y-97450499D01*
X112526383Y-97450500D01*
X112526384Y-97450500D01*
X112713617Y-97450500D01*
X112713618Y-97450499D01*
X112897251Y-97413973D01*
X113070231Y-97342322D01*
X113225908Y-97238302D01*
X113358302Y-97105908D01*
X113358304Y-97105904D01*
X113362166Y-97101200D01*
X113363420Y-97102229D01*
X113411004Y-97062459D01*
X113480329Y-97053748D01*
X113543358Y-97083899D01*
X113580080Y-97143340D01*
X113584500Y-97176152D01*
X113584500Y-104432273D01*
X113584500Y-104537727D01*
X113606973Y-104621598D01*
X113611794Y-104639591D01*
X113653856Y-104712444D01*
X113670329Y-104780344D01*
X113656954Y-104830738D01*
X113609430Y-104924009D01*
X113609430Y-104924011D01*
X113536447Y-105148627D01*
X113536447Y-105148630D01*
X113499500Y-105381902D01*
X113499500Y-105618097D01*
X113536446Y-105851368D01*
X113609433Y-106075996D01*
X113716657Y-106286433D01*
X113855483Y-106477510D01*
X114022490Y-106644517D01*
X114213567Y-106783343D01*
X114312991Y-106834002D01*
X114424003Y-106890566D01*
X114424005Y-106890566D01*
X114424008Y-106890568D01*
X114544412Y-106929689D01*
X114648631Y-106963553D01*
X114881903Y-107000500D01*
X114881908Y-107000500D01*
X115118097Y-107000500D01*
X115351368Y-106963553D01*
X115575992Y-106890568D01*
X115786433Y-106783343D01*
X115977510Y-106644517D01*
X116144517Y-106477510D01*
X116283343Y-106286433D01*
X116390568Y-106075992D01*
X116463553Y-105851368D01*
X116489175Y-105689598D01*
X116500500Y-105618097D01*
X116500500Y-105381902D01*
X116463553Y-105148631D01*
X116413671Y-104995112D01*
X116390568Y-104924008D01*
X116390566Y-104924005D01*
X116390566Y-104924003D01*
X116334002Y-104812991D01*
X116283343Y-104713567D01*
X116144517Y-104522490D01*
X115977510Y-104355483D01*
X115786433Y-104216657D01*
X115786429Y-104216655D01*
X115575996Y-104109433D01*
X115351368Y-104036446D01*
X115118097Y-103999500D01*
X115118092Y-103999500D01*
X114881908Y-103999500D01*
X114881903Y-103999500D01*
X114648630Y-104036447D01*
X114648627Y-104036447D01*
X114547818Y-104069203D01*
X114477977Y-104071198D01*
X114418144Y-104035118D01*
X114387316Y-103972417D01*
X114385500Y-103951272D01*
X114385500Y-97357640D01*
X114405185Y-97290601D01*
X114457989Y-97244846D01*
X114527147Y-97234902D01*
X114578391Y-97254538D01*
X114709762Y-97342318D01*
X114709768Y-97342321D01*
X114709769Y-97342322D01*
X114882749Y-97413973D01*
X115066379Y-97450499D01*
X115066383Y-97450500D01*
X115066384Y-97450500D01*
X115253617Y-97450500D01*
X115253618Y-97450499D01*
X115437251Y-97413973D01*
X115610231Y-97342322D01*
X115765908Y-97238302D01*
X115898302Y-97105908D01*
X116002322Y-96950231D01*
X116073973Y-96777251D01*
X116110500Y-96593616D01*
X116110500Y-96406384D01*
X116110499Y-96406381D01*
X116110499Y-96406379D01*
X116749500Y-96406379D01*
X116749500Y-96593620D01*
X116786025Y-96777243D01*
X116786027Y-96777251D01*
X116857676Y-96950228D01*
X116857681Y-96950237D01*
X116961697Y-97105907D01*
X116961700Y-97105911D01*
X117094088Y-97238299D01*
X117094092Y-97238302D01*
X117249762Y-97342318D01*
X117249768Y-97342321D01*
X117249769Y-97342322D01*
X117422749Y-97413973D01*
X117606379Y-97450499D01*
X117606383Y-97450500D01*
X117606384Y-97450500D01*
X117793617Y-97450500D01*
X117793618Y-97450499D01*
X117977251Y-97413973D01*
X118150231Y-97342322D01*
X118305908Y-97238302D01*
X118438302Y-97105908D01*
X118542322Y-96950231D01*
X118613973Y-96777251D01*
X118650500Y-96593616D01*
X118650500Y-96406384D01*
X118650499Y-96406381D01*
X118650499Y-96406379D01*
X118649552Y-96401617D01*
X118613973Y-96222749D01*
X118542322Y-96049769D01*
X118542321Y-96049768D01*
X118542318Y-96049762D01*
X118438302Y-95894092D01*
X118438299Y-95894088D01*
X118305911Y-95761700D01*
X118305907Y-95761697D01*
X118150237Y-95657681D01*
X118150228Y-95657676D01*
X117977251Y-95586027D01*
X117977243Y-95586025D01*
X117793620Y-95549500D01*
X117793616Y-95549500D01*
X117606384Y-95549500D01*
X117606379Y-95549500D01*
X117422756Y-95586025D01*
X117422748Y-95586027D01*
X117249771Y-95657676D01*
X117249762Y-95657681D01*
X117094092Y-95761697D01*
X117094088Y-95761700D01*
X116961700Y-95894088D01*
X116961697Y-95894092D01*
X116857681Y-96049762D01*
X116857676Y-96049771D01*
X116786027Y-96222748D01*
X116786025Y-96222756D01*
X116749500Y-96406379D01*
X116110499Y-96406379D01*
X116109552Y-96401617D01*
X116073973Y-96222749D01*
X116002322Y-96049769D01*
X116002321Y-96049768D01*
X116002318Y-96049762D01*
X115898302Y-95894092D01*
X115898299Y-95894088D01*
X115765911Y-95761700D01*
X115765907Y-95761697D01*
X115610237Y-95657681D01*
X115610228Y-95657676D01*
X115437251Y-95586027D01*
X115437243Y-95586025D01*
X115253620Y-95549500D01*
X115253616Y-95549500D01*
X115066384Y-95549500D01*
X115066379Y-95549500D01*
X114882756Y-95586025D01*
X114882748Y-95586027D01*
X114709771Y-95657676D01*
X114709762Y-95657681D01*
X114578391Y-95745461D01*
X114511713Y-95766339D01*
X114444333Y-95747854D01*
X114397643Y-95695875D01*
X114385500Y-95642359D01*
X114385500Y-77037640D01*
X114405185Y-76970601D01*
X114457989Y-76924846D01*
X114527147Y-76914902D01*
X114578391Y-76934538D01*
X114709762Y-77022318D01*
X114709771Y-77022323D01*
X114746750Y-77037640D01*
X114882749Y-77093973D01*
X115003512Y-77117994D01*
X115066379Y-77130499D01*
X115066383Y-77130500D01*
X115066384Y-77130500D01*
X115253617Y-77130500D01*
X115253618Y-77130499D01*
X115437251Y-77093973D01*
X115610231Y-77022322D01*
X115765908Y-76918302D01*
X115898302Y-76785908D01*
X116002322Y-76630231D01*
X116073973Y-76457251D01*
X116110500Y-76273616D01*
X116110500Y-76086384D01*
X116110499Y-76086379D01*
X116749500Y-76086379D01*
X116749500Y-76273620D01*
X116786025Y-76457243D01*
X116786027Y-76457251D01*
X116857676Y-76630228D01*
X116857681Y-76630237D01*
X116961697Y-76785907D01*
X116961700Y-76785911D01*
X117094088Y-76918299D01*
X117094092Y-76918302D01*
X117249762Y-77022318D01*
X117249771Y-77022323D01*
X117286750Y-77037640D01*
X117422749Y-77093973D01*
X117543512Y-77117994D01*
X117606379Y-77130499D01*
X117606383Y-77130500D01*
X117606384Y-77130500D01*
X117793617Y-77130500D01*
X117793618Y-77130499D01*
X117977251Y-77093973D01*
X118150231Y-77022322D01*
X118305908Y-76918302D01*
X118438302Y-76785908D01*
X118542322Y-76630231D01*
X118613973Y-76457251D01*
X118650500Y-76273616D01*
X118650500Y-76086384D01*
X118613973Y-75902749D01*
X118542322Y-75729769D01*
X118542321Y-75729768D01*
X118542318Y-75729762D01*
X118438302Y-75574092D01*
X118438299Y-75574088D01*
X118305911Y-75441700D01*
X118305907Y-75441697D01*
X118150237Y-75337681D01*
X118150228Y-75337676D01*
X117977251Y-75266027D01*
X117977243Y-75266025D01*
X117793620Y-75229500D01*
X117793616Y-75229500D01*
X117606384Y-75229500D01*
X117606379Y-75229500D01*
X117422756Y-75266025D01*
X117422748Y-75266027D01*
X117249771Y-75337676D01*
X117249762Y-75337681D01*
X117094092Y-75441697D01*
X117094088Y-75441700D01*
X116961700Y-75574088D01*
X116961697Y-75574092D01*
X116857681Y-75729762D01*
X116857676Y-75729771D01*
X116786027Y-75902748D01*
X116786025Y-75902756D01*
X116749500Y-76086379D01*
X116110499Y-76086379D01*
X116073973Y-75902749D01*
X116002322Y-75729769D01*
X116002321Y-75729768D01*
X116002318Y-75729762D01*
X115898302Y-75574092D01*
X115898299Y-75574088D01*
X115765911Y-75441700D01*
X115765907Y-75441697D01*
X115610237Y-75337681D01*
X115610228Y-75337676D01*
X115437251Y-75266027D01*
X115437243Y-75266025D01*
X115253620Y-75229500D01*
X115253616Y-75229500D01*
X115066384Y-75229500D01*
X115066379Y-75229500D01*
X114882756Y-75266025D01*
X114882748Y-75266027D01*
X114709771Y-75337676D01*
X114709762Y-75337681D01*
X114578391Y-75425461D01*
X114511713Y-75446339D01*
X114444333Y-75427854D01*
X114397643Y-75375875D01*
X114385500Y-75322359D01*
X114385500Y-72039244D01*
X114405185Y-71972205D01*
X114457989Y-71926450D01*
X114462002Y-71924702D01*
X114553914Y-71886632D01*
X114717782Y-71777139D01*
X114857139Y-71637782D01*
X114966632Y-71473914D01*
X115042051Y-71291835D01*
X115060418Y-71199500D01*
X115080500Y-71098543D01*
X115080500Y-70901456D01*
X115042052Y-70708170D01*
X115042051Y-70708166D01*
X115042051Y-70708165D01*
X115013399Y-70638993D01*
X114966635Y-70526092D01*
X114966628Y-70526079D01*
X114857139Y-70362218D01*
X114857136Y-70362214D01*
X114717785Y-70222863D01*
X114717781Y-70222860D01*
X114553920Y-70113371D01*
X114553907Y-70113364D01*
X114371839Y-70037950D01*
X114371829Y-70037947D01*
X114178543Y-69999500D01*
X114178541Y-69999500D01*
X113981459Y-69999500D01*
X113981457Y-69999500D01*
X113788170Y-70037947D01*
X113788160Y-70037950D01*
X113606092Y-70113364D01*
X113606079Y-70113371D01*
X113442218Y-70222860D01*
X113442214Y-70222863D01*
X113302863Y-70362214D01*
X113302860Y-70362218D01*
X113193371Y-70526079D01*
X113193364Y-70526092D01*
X113117950Y-70708160D01*
X113117947Y-70708170D01*
X113079500Y-70901456D01*
X113079500Y-70901459D01*
X113079500Y-71098541D01*
X113079500Y-71098543D01*
X113079499Y-71098543D01*
X113117947Y-71291829D01*
X113117950Y-71291839D01*
X113193364Y-71473907D01*
X113193371Y-71473920D01*
X113302860Y-71637781D01*
X113302863Y-71637785D01*
X113442215Y-71777137D01*
X113442218Y-71777139D01*
X113529391Y-71835386D01*
X113574195Y-71888996D01*
X113584500Y-71938487D01*
X113584500Y-75503847D01*
X113564815Y-75570886D01*
X113512011Y-75616641D01*
X113442853Y-75626585D01*
X113379297Y-75597560D01*
X113362501Y-75578524D01*
X113362166Y-75578800D01*
X113358299Y-75574088D01*
X113225911Y-75441700D01*
X113225907Y-75441697D01*
X113070237Y-75337681D01*
X113070228Y-75337676D01*
X112897251Y-75266027D01*
X112897243Y-75266025D01*
X112713620Y-75229500D01*
X112713616Y-75229500D01*
X112526384Y-75229500D01*
X112526379Y-75229500D01*
X112342756Y-75266025D01*
X112342748Y-75266027D01*
X112169771Y-75337676D01*
X112169762Y-75337681D01*
X112014092Y-75441697D01*
X112014088Y-75441700D01*
X111881700Y-75574088D01*
X111881697Y-75574092D01*
X111777681Y-75729762D01*
X111777676Y-75729771D01*
X111706027Y-75902748D01*
X111706025Y-75902756D01*
X111669500Y-76086379D01*
X111030499Y-76086379D01*
X110993973Y-75902749D01*
X110922322Y-75729769D01*
X110922321Y-75729768D01*
X110922318Y-75729762D01*
X110818302Y-75574092D01*
X110818299Y-75574088D01*
X110685911Y-75441700D01*
X110685907Y-75441697D01*
X110530237Y-75337681D01*
X110530228Y-75337676D01*
X110357251Y-75266027D01*
X110357243Y-75266025D01*
X110173620Y-75229500D01*
X110173616Y-75229500D01*
X109986384Y-75229500D01*
X109986379Y-75229500D01*
X109802756Y-75266025D01*
X109802748Y-75266027D01*
X109629771Y-75337676D01*
X109629762Y-75337681D01*
X109474092Y-75441697D01*
X109474088Y-75441700D01*
X109341700Y-75574088D01*
X109341697Y-75574092D01*
X109237681Y-75729762D01*
X109237676Y-75729771D01*
X109166027Y-75902748D01*
X109166025Y-75902756D01*
X109129500Y-76086379D01*
X108490499Y-76086379D01*
X108453973Y-75902749D01*
X108382322Y-75729769D01*
X108382321Y-75729768D01*
X108382318Y-75729762D01*
X108278302Y-75574092D01*
X108278299Y-75574088D01*
X108145911Y-75441700D01*
X108145907Y-75441697D01*
X107990237Y-75337681D01*
X107990228Y-75337676D01*
X107817251Y-75266027D01*
X107817243Y-75266025D01*
X107633620Y-75229500D01*
X107633616Y-75229500D01*
X107446384Y-75229500D01*
X107446379Y-75229500D01*
X107262756Y-75266025D01*
X107262748Y-75266027D01*
X107089771Y-75337676D01*
X107089762Y-75337681D01*
X106934092Y-75441697D01*
X106934088Y-75441700D01*
X106801700Y-75574088D01*
X106801697Y-75574092D01*
X106697681Y-75729762D01*
X106697676Y-75729771D01*
X106626027Y-75902748D01*
X106626025Y-75902756D01*
X106589500Y-76086379D01*
X105950499Y-76086379D01*
X105913973Y-75902749D01*
X105842322Y-75729769D01*
X105842321Y-75729768D01*
X105842318Y-75729762D01*
X105738302Y-75574092D01*
X105738299Y-75574088D01*
X105605911Y-75441700D01*
X105605907Y-75441697D01*
X105450237Y-75337681D01*
X105450228Y-75337676D01*
X105277251Y-75266027D01*
X105277243Y-75266025D01*
X105093620Y-75229500D01*
X105093616Y-75229500D01*
X104906384Y-75229500D01*
X104906379Y-75229500D01*
X104722756Y-75266025D01*
X104722748Y-75266027D01*
X104549771Y-75337676D01*
X104549762Y-75337681D01*
X104394092Y-75441697D01*
X104394088Y-75441700D01*
X104261700Y-75574088D01*
X104261697Y-75574092D01*
X104157681Y-75729762D01*
X104157676Y-75729771D01*
X104086027Y-75902748D01*
X104086025Y-75902756D01*
X104049500Y-76086379D01*
X103410499Y-76086379D01*
X103373973Y-75902749D01*
X103302322Y-75729769D01*
X103302321Y-75729768D01*
X103302318Y-75729762D01*
X103198302Y-75574092D01*
X103198299Y-75574088D01*
X103065911Y-75441700D01*
X103065907Y-75441697D01*
X102910237Y-75337681D01*
X102910228Y-75337676D01*
X102737251Y-75266027D01*
X102737243Y-75266025D01*
X102553620Y-75229500D01*
X102553616Y-75229500D01*
X102366384Y-75229500D01*
X102366379Y-75229500D01*
X102182756Y-75266025D01*
X102182748Y-75266027D01*
X102009771Y-75337676D01*
X102009762Y-75337681D01*
X101854092Y-75441697D01*
X101854088Y-75441700D01*
X101721700Y-75574088D01*
X101721697Y-75574092D01*
X101617681Y-75729762D01*
X101617676Y-75729771D01*
X101546027Y-75902748D01*
X101546025Y-75902756D01*
X101509500Y-76086379D01*
X100870499Y-76086379D01*
X100833973Y-75902749D01*
X100762322Y-75729769D01*
X100762321Y-75729768D01*
X100762318Y-75729762D01*
X100658302Y-75574092D01*
X100658299Y-75574088D01*
X100525911Y-75441700D01*
X100525907Y-75441697D01*
X100370237Y-75337681D01*
X100370228Y-75337676D01*
X100197251Y-75266027D01*
X100197243Y-75266025D01*
X100013620Y-75229500D01*
X100013616Y-75229500D01*
X99826384Y-75229500D01*
X99826379Y-75229500D01*
X99642756Y-75266025D01*
X99642748Y-75266027D01*
X99469771Y-75337676D01*
X99469762Y-75337681D01*
X99314092Y-75441697D01*
X99314088Y-75441700D01*
X99181700Y-75574088D01*
X99181697Y-75574092D01*
X99077681Y-75729762D01*
X99077676Y-75729771D01*
X99006027Y-75902748D01*
X99006025Y-75902756D01*
X98969500Y-76086379D01*
X98330499Y-76086379D01*
X98293973Y-75902749D01*
X98222322Y-75729769D01*
X98222321Y-75729768D01*
X98222318Y-75729762D01*
X98118302Y-75574092D01*
X98118299Y-75574088D01*
X97985911Y-75441700D01*
X97985907Y-75441697D01*
X97830237Y-75337681D01*
X97830228Y-75337676D01*
X97657251Y-75266027D01*
X97657243Y-75266025D01*
X97473620Y-75229500D01*
X97473616Y-75229500D01*
X97286384Y-75229500D01*
X97286379Y-75229500D01*
X97102756Y-75266025D01*
X97102748Y-75266027D01*
X96929771Y-75337676D01*
X96929762Y-75337681D01*
X96774092Y-75441697D01*
X96774088Y-75441700D01*
X96641700Y-75574088D01*
X96641697Y-75574092D01*
X96537681Y-75729762D01*
X96537676Y-75729771D01*
X96466027Y-75902748D01*
X96466025Y-75902756D01*
X96429500Y-76086379D01*
X95790499Y-76086379D01*
X95753973Y-75902749D01*
X95682322Y-75729769D01*
X95682321Y-75729768D01*
X95682318Y-75729762D01*
X95578302Y-75574092D01*
X95578299Y-75574088D01*
X95445911Y-75441700D01*
X95445907Y-75441697D01*
X95290237Y-75337681D01*
X95290228Y-75337676D01*
X95117251Y-75266027D01*
X95117243Y-75266025D01*
X94933620Y-75229500D01*
X94933616Y-75229500D01*
X94746384Y-75229500D01*
X94746379Y-75229500D01*
X94562756Y-75266025D01*
X94562748Y-75266027D01*
X94389771Y-75337676D01*
X94389762Y-75337681D01*
X94234092Y-75441697D01*
X94234088Y-75441700D01*
X94101700Y-75574088D01*
X94101697Y-75574092D01*
X93997681Y-75729762D01*
X93997676Y-75729771D01*
X93926027Y-75902748D01*
X93926025Y-75902756D01*
X93889500Y-76086379D01*
X87640500Y-76086379D01*
X87640500Y-49574463D01*
X87660185Y-49507424D01*
X87695611Y-49471360D01*
X87709655Y-49461977D01*
X87855977Y-49315655D01*
X87970941Y-49143598D01*
X88050130Y-48952420D01*
X88090500Y-48749465D01*
X88090500Y-48542535D01*
X88090499Y-48542530D01*
X88529500Y-48542530D01*
X88529500Y-48749469D01*
X88569868Y-48952412D01*
X88569870Y-48952420D01*
X88635939Y-49111925D01*
X88649059Y-49143598D01*
X88706541Y-49229626D01*
X88764024Y-49315657D01*
X88910342Y-49461975D01*
X88910345Y-49461977D01*
X89082402Y-49576941D01*
X89102952Y-49585453D01*
X89157356Y-49629293D01*
X89179421Y-49695587D01*
X89179500Y-49700014D01*
X89179500Y-56712726D01*
X89206793Y-56814589D01*
X89233156Y-56860250D01*
X89259520Y-56905913D01*
X89259522Y-56905915D01*
X102929771Y-70576164D01*
X102963256Y-70637487D01*
X102958641Y-70702009D01*
X102959717Y-70702336D01*
X102958279Y-70707075D01*
X102958272Y-70707179D01*
X102958166Y-70707445D01*
X102957948Y-70708166D01*
X102919500Y-70901456D01*
X102919500Y-70901459D01*
X102919500Y-71098541D01*
X102919500Y-71098543D01*
X102919499Y-71098543D01*
X102957947Y-71291829D01*
X102957950Y-71291839D01*
X103033364Y-71473907D01*
X103033371Y-71473920D01*
X103142860Y-71637781D01*
X103142863Y-71637785D01*
X103282214Y-71777136D01*
X103282218Y-71777139D01*
X103446079Y-71886628D01*
X103446092Y-71886635D01*
X103628160Y-71962049D01*
X103628165Y-71962051D01*
X103628169Y-71962051D01*
X103628170Y-71962052D01*
X103821456Y-72000500D01*
X103821459Y-72000500D01*
X104018543Y-72000500D01*
X104160788Y-71972205D01*
X104211835Y-71962051D01*
X104393914Y-71886632D01*
X104557782Y-71777139D01*
X104697139Y-71637782D01*
X104806632Y-71473914D01*
X104882051Y-71291835D01*
X104900418Y-71199500D01*
X104920500Y-71098543D01*
X104920500Y-70901456D01*
X104882052Y-70708170D01*
X104882051Y-70708166D01*
X104882051Y-70708165D01*
X104853399Y-70638993D01*
X104806635Y-70526092D01*
X104806628Y-70526079D01*
X104697139Y-70362218D01*
X104697136Y-70362214D01*
X104557785Y-70222863D01*
X104557781Y-70222860D01*
X104393920Y-70113371D01*
X104393907Y-70113364D01*
X104211839Y-70037950D01*
X104211829Y-70037947D01*
X104018543Y-69999500D01*
X104018541Y-69999500D01*
X103821459Y-69999500D01*
X103821457Y-69999500D01*
X103628166Y-70037948D01*
X103622336Y-70039717D01*
X103621719Y-70037683D01*
X103561816Y-70044118D01*
X103499340Y-70012837D01*
X103496164Y-70009771D01*
X100084936Y-66598543D01*
X102919499Y-66598543D01*
X102957947Y-66791829D01*
X102957950Y-66791839D01*
X103033364Y-66973907D01*
X103033371Y-66973920D01*
X103142860Y-67137781D01*
X103142863Y-67137785D01*
X103282214Y-67277136D01*
X103282218Y-67277139D01*
X103446079Y-67386628D01*
X103446092Y-67386635D01*
X103628160Y-67462049D01*
X103628165Y-67462051D01*
X103628169Y-67462051D01*
X103628170Y-67462052D01*
X103821456Y-67500500D01*
X103821459Y-67500500D01*
X104018543Y-67500500D01*
X104152196Y-67473914D01*
X104211835Y-67462051D01*
X104393914Y-67386632D01*
X104557782Y-67277139D01*
X104697139Y-67137782D01*
X104806632Y-66973914D01*
X104882051Y-66791835D01*
X104913471Y-66633878D01*
X104920500Y-66598543D01*
X113079499Y-66598543D01*
X113117947Y-66791829D01*
X113117950Y-66791839D01*
X113193364Y-66973907D01*
X113193371Y-66973920D01*
X113302860Y-67137781D01*
X113302863Y-67137785D01*
X113442214Y-67277136D01*
X113442218Y-67277139D01*
X113606079Y-67386628D01*
X113606092Y-67386635D01*
X113788160Y-67462049D01*
X113788165Y-67462051D01*
X113788169Y-67462051D01*
X113788170Y-67462052D01*
X113981456Y-67500500D01*
X113981459Y-67500500D01*
X114178543Y-67500500D01*
X114312196Y-67473914D01*
X114371835Y-67462051D01*
X114553914Y-67386632D01*
X114717782Y-67277139D01*
X114857139Y-67137782D01*
X114966632Y-66973914D01*
X115042051Y-66791835D01*
X115073471Y-66633878D01*
X115080500Y-66598543D01*
X115080500Y-66401456D01*
X115042052Y-66208170D01*
X115042051Y-66208169D01*
X115042051Y-66208165D01*
X115042049Y-66208160D01*
X114966635Y-66026092D01*
X114966628Y-66026079D01*
X114857139Y-65862218D01*
X114857136Y-65862214D01*
X114717785Y-65722863D01*
X114717781Y-65722860D01*
X114553920Y-65613371D01*
X114553907Y-65613364D01*
X114371839Y-65537950D01*
X114371829Y-65537947D01*
X114178543Y-65499500D01*
X114178541Y-65499500D01*
X113981459Y-65499500D01*
X113981457Y-65499500D01*
X113788170Y-65537947D01*
X113788160Y-65537950D01*
X113606092Y-65613364D01*
X113606079Y-65613371D01*
X113442218Y-65722860D01*
X113442214Y-65722863D01*
X113302863Y-65862214D01*
X113302860Y-65862218D01*
X113193371Y-66026079D01*
X113193364Y-66026092D01*
X113117950Y-66208160D01*
X113117947Y-66208170D01*
X113079500Y-66401456D01*
X113079500Y-66401459D01*
X113079500Y-66598541D01*
X113079500Y-66598543D01*
X113079499Y-66598543D01*
X104920500Y-66598543D01*
X104920500Y-66401456D01*
X104882052Y-66208170D01*
X104882051Y-66208169D01*
X104882051Y-66208165D01*
X104882049Y-66208160D01*
X104806635Y-66026092D01*
X104806628Y-66026079D01*
X104697139Y-65862218D01*
X104697136Y-65862214D01*
X104557785Y-65722863D01*
X104557781Y-65722860D01*
X104393920Y-65613371D01*
X104393907Y-65613364D01*
X104211839Y-65537950D01*
X104211829Y-65537947D01*
X104018543Y-65499500D01*
X104018541Y-65499500D01*
X103821459Y-65499500D01*
X103821457Y-65499500D01*
X103628170Y-65537947D01*
X103628160Y-65537950D01*
X103446092Y-65613364D01*
X103446079Y-65613371D01*
X103282218Y-65722860D01*
X103282214Y-65722863D01*
X103142863Y-65862214D01*
X103142860Y-65862218D01*
X103033371Y-66026079D01*
X103033364Y-66026092D01*
X102957950Y-66208160D01*
X102957947Y-66208170D01*
X102919500Y-66401456D01*
X102919500Y-66401459D01*
X102919500Y-66598541D01*
X102919500Y-66598543D01*
X102919499Y-66598543D01*
X100084936Y-66598543D01*
X95584936Y-62098543D01*
X102919499Y-62098543D01*
X102957947Y-62291829D01*
X102957950Y-62291839D01*
X103033364Y-62473907D01*
X103033371Y-62473920D01*
X103142860Y-62637781D01*
X103142863Y-62637785D01*
X103282214Y-62777136D01*
X103282218Y-62777139D01*
X103446079Y-62886628D01*
X103446092Y-62886635D01*
X103627363Y-62961719D01*
X103628165Y-62962051D01*
X103628169Y-62962051D01*
X103628170Y-62962052D01*
X103821456Y-63000500D01*
X103821459Y-63000500D01*
X104018543Y-63000500D01*
X104148582Y-62974632D01*
X104211835Y-62962051D01*
X104393914Y-62886632D01*
X104557782Y-62777139D01*
X104697139Y-62637782D01*
X104806632Y-62473914D01*
X104882051Y-62291835D01*
X104911753Y-62142517D01*
X104920500Y-62098543D01*
X104920500Y-61901456D01*
X104882052Y-61708170D01*
X104882051Y-61708166D01*
X104882051Y-61708165D01*
X104879501Y-61702009D01*
X104806635Y-61526092D01*
X104806628Y-61526079D01*
X104697139Y-61362218D01*
X104697136Y-61362214D01*
X104557785Y-61222863D01*
X104557781Y-61222860D01*
X104393920Y-61113371D01*
X104393907Y-61113364D01*
X104211839Y-61037950D01*
X104211829Y-61037947D01*
X104018543Y-60999500D01*
X104018541Y-60999500D01*
X103821459Y-60999500D01*
X103821457Y-60999500D01*
X103628170Y-61037947D01*
X103628160Y-61037950D01*
X103446092Y-61113364D01*
X103446079Y-61113371D01*
X103282218Y-61222860D01*
X103282214Y-61222863D01*
X103142863Y-61362214D01*
X103142860Y-61362218D01*
X103033371Y-61526079D01*
X103033364Y-61526092D01*
X102957950Y-61708160D01*
X102957947Y-61708170D01*
X102919500Y-61901456D01*
X102919500Y-61901459D01*
X102919500Y-62098541D01*
X102919500Y-62098543D01*
X102919499Y-62098543D01*
X95584936Y-62098543D01*
X90016819Y-56530426D01*
X89983334Y-56469103D01*
X89980500Y-56442745D01*
X89980500Y-49700014D01*
X90000185Y-49632975D01*
X90052989Y-49587220D01*
X90057048Y-49585453D01*
X90077598Y-49576941D01*
X90249655Y-49461977D01*
X90395977Y-49315655D01*
X90510941Y-49143598D01*
X90590130Y-48952420D01*
X90630500Y-48749465D01*
X90630500Y-48542535D01*
X90630499Y-48542530D01*
X91069500Y-48542530D01*
X91069500Y-48749469D01*
X91109868Y-48952412D01*
X91109870Y-48952420D01*
X91175939Y-49111925D01*
X91189059Y-49143598D01*
X91246541Y-49229626D01*
X91304024Y-49315657D01*
X91450342Y-49461975D01*
X91450345Y-49461977D01*
X91622402Y-49576941D01*
X91642952Y-49585453D01*
X91697356Y-49629293D01*
X91719421Y-49695587D01*
X91719500Y-49700014D01*
X91719500Y-51672726D01*
X91746793Y-51774589D01*
X91773156Y-51820250D01*
X91799520Y-51865913D01*
X95254087Y-55320480D01*
X95345412Y-55373207D01*
X95447273Y-55400500D01*
X106862745Y-55400500D01*
X106929784Y-55420185D01*
X106950426Y-55436819D01*
X113089771Y-61576164D01*
X113123256Y-61637487D01*
X113118641Y-61702009D01*
X113119717Y-61702336D01*
X113118279Y-61707075D01*
X113118272Y-61707179D01*
X113118166Y-61707445D01*
X113117948Y-61708166D01*
X113079500Y-61901456D01*
X113079500Y-61901459D01*
X113079500Y-62098541D01*
X113079500Y-62098543D01*
X113079499Y-62098543D01*
X113117947Y-62291829D01*
X113117950Y-62291839D01*
X113193364Y-62473907D01*
X113193371Y-62473920D01*
X113302860Y-62637781D01*
X113302863Y-62637785D01*
X113442214Y-62777136D01*
X113442218Y-62777139D01*
X113606079Y-62886628D01*
X113606092Y-62886635D01*
X113787363Y-62961719D01*
X113788165Y-62962051D01*
X113788169Y-62962051D01*
X113788170Y-62962052D01*
X113981456Y-63000500D01*
X113981459Y-63000500D01*
X114178543Y-63000500D01*
X114308582Y-62974632D01*
X114371835Y-62962051D01*
X114371842Y-62962047D01*
X114377662Y-62960283D01*
X114378281Y-62962325D01*
X114438131Y-62955872D01*
X114500620Y-62987127D01*
X114503835Y-62990228D01*
X115313181Y-63799573D01*
X115346666Y-63860896D01*
X115349500Y-63887254D01*
X115349500Y-69382726D01*
X115376793Y-69484589D01*
X115403156Y-69530250D01*
X115429520Y-69575913D01*
X115429521Y-69575914D01*
X115429522Y-69575915D01*
X116429771Y-70576163D01*
X116463256Y-70637486D01*
X116458641Y-70702015D01*
X116459716Y-70702342D01*
X116458279Y-70707077D01*
X116458272Y-70707178D01*
X116458170Y-70707436D01*
X116457947Y-70708171D01*
X116419500Y-70901456D01*
X116419500Y-70901459D01*
X116419500Y-71098541D01*
X116419500Y-71098543D01*
X116419499Y-71098543D01*
X116457947Y-71291829D01*
X116457950Y-71291839D01*
X116533364Y-71473907D01*
X116533371Y-71473920D01*
X116642860Y-71637781D01*
X116642863Y-71637785D01*
X116782214Y-71777136D01*
X116782218Y-71777139D01*
X116946079Y-71886628D01*
X116946092Y-71886635D01*
X117128160Y-71962049D01*
X117128165Y-71962051D01*
X117128169Y-71962051D01*
X117128170Y-71962052D01*
X117321456Y-72000500D01*
X117321459Y-72000500D01*
X117518543Y-72000500D01*
X117660788Y-71972205D01*
X117711835Y-71962051D01*
X117711842Y-71962047D01*
X117717662Y-71960283D01*
X117718281Y-71962325D01*
X117778131Y-71955872D01*
X117840620Y-71987127D01*
X117843835Y-71990228D01*
X119803181Y-73949574D01*
X119836666Y-74010897D01*
X119839500Y-74037255D01*
X119839500Y-75238169D01*
X119819815Y-75305208D01*
X119784391Y-75341271D01*
X119634092Y-75441697D01*
X119634088Y-75441700D01*
X119501700Y-75574088D01*
X119501697Y-75574092D01*
X119397681Y-75729762D01*
X119397676Y-75729771D01*
X119326027Y-75902748D01*
X119326025Y-75902756D01*
X119289500Y-76086379D01*
X119289500Y-76273620D01*
X119326025Y-76457243D01*
X119326027Y-76457251D01*
X119397676Y-76630228D01*
X119397681Y-76630237D01*
X119501697Y-76785907D01*
X119501700Y-76785911D01*
X119634088Y-76918299D01*
X119634092Y-76918302D01*
X119789762Y-77022318D01*
X119789771Y-77022323D01*
X119826750Y-77037640D01*
X119962749Y-77093973D01*
X120083512Y-77117994D01*
X120146379Y-77130499D01*
X120146383Y-77130500D01*
X120146384Y-77130500D01*
X120333617Y-77130500D01*
X120333618Y-77130499D01*
X120517251Y-77093973D01*
X120690231Y-77022322D01*
X120799709Y-76949170D01*
X120866386Y-76928293D01*
X120933766Y-76946777D01*
X120980457Y-76998756D01*
X120992600Y-77052273D01*
X120992600Y-95627726D01*
X120972915Y-95694765D01*
X120920111Y-95740520D01*
X120850953Y-95750464D01*
X120799709Y-95730828D01*
X120690237Y-95657681D01*
X120690228Y-95657676D01*
X120517251Y-95586027D01*
X120517243Y-95586025D01*
X120333620Y-95549500D01*
X120333616Y-95549500D01*
X120146384Y-95549500D01*
X120146379Y-95549500D01*
X119962756Y-95586025D01*
X119962748Y-95586027D01*
X119789771Y-95657676D01*
X119789762Y-95657681D01*
X119634092Y-95761697D01*
X119634088Y-95761700D01*
X119501700Y-95894088D01*
X119501697Y-95894092D01*
X119397681Y-96049762D01*
X119397676Y-96049771D01*
X119326027Y-96222748D01*
X119326025Y-96222756D01*
X119289500Y-96406379D01*
X119289500Y-96593620D01*
X119326025Y-96777243D01*
X119326027Y-96777251D01*
X119397676Y-96950228D01*
X119397681Y-96950237D01*
X119501697Y-97105907D01*
X119501700Y-97105911D01*
X119634088Y-97238299D01*
X119634092Y-97238302D01*
X119789762Y-97342318D01*
X119789768Y-97342321D01*
X119789769Y-97342322D01*
X119962749Y-97413973D01*
X120146379Y-97450499D01*
X120146383Y-97450500D01*
X120146384Y-97450500D01*
X120333617Y-97450500D01*
X120333618Y-97450499D01*
X120517251Y-97413973D01*
X120690231Y-97342322D01*
X120799709Y-97269170D01*
X120866386Y-97248293D01*
X120933766Y-97266777D01*
X120980457Y-97318756D01*
X120992600Y-97372273D01*
X120992600Y-103889644D01*
X120983955Y-103919084D01*
X120977432Y-103949071D01*
X120973677Y-103954086D01*
X120972915Y-103956683D01*
X120956281Y-103977326D01*
X120804107Y-104129499D01*
X120742784Y-104162983D01*
X120673092Y-104157999D01*
X120660132Y-104152302D01*
X120575999Y-104109434D01*
X120351368Y-104036446D01*
X120118097Y-103999500D01*
X120118092Y-103999500D01*
X119881908Y-103999500D01*
X119881903Y-103999500D01*
X119648631Y-104036446D01*
X119424003Y-104109433D01*
X119213566Y-104216657D01*
X119151861Y-104261489D01*
X119022490Y-104355483D01*
X119022488Y-104355485D01*
X119022487Y-104355485D01*
X118855485Y-104522487D01*
X118855485Y-104522488D01*
X118855483Y-104522490D01*
X118808466Y-104587203D01*
X118716657Y-104713566D01*
X118609433Y-104924003D01*
X118536446Y-105148631D01*
X118499500Y-105381902D01*
X118499500Y-105618097D01*
X118536446Y-105851368D01*
X118609433Y-106075996D01*
X118716657Y-106286433D01*
X118855483Y-106477510D01*
X119022490Y-106644517D01*
X119213567Y-106783343D01*
X119312991Y-106834002D01*
X119424003Y-106890566D01*
X119424005Y-106890566D01*
X119424008Y-106890568D01*
X119544412Y-106929689D01*
X119648631Y-106963553D01*
X119881903Y-107000500D01*
X119881908Y-107000500D01*
X120118097Y-107000500D01*
X120351368Y-106963553D01*
X120575992Y-106890568D01*
X120786433Y-106783343D01*
X120977510Y-106644517D01*
X121144517Y-106477510D01*
X121283343Y-106286433D01*
X121390568Y-106075992D01*
X121463553Y-105851368D01*
X121489175Y-105689598D01*
X121500500Y-105618097D01*
X121500500Y-105381902D01*
X121463553Y-105148631D01*
X121413671Y-104995112D01*
X121390568Y-104924008D01*
X121390566Y-104924005D01*
X121390566Y-104924003D01*
X121347696Y-104839867D01*
X121334800Y-104771198D01*
X121361076Y-104706457D01*
X121370490Y-104695901D01*
X121713580Y-104352813D01*
X121766307Y-104261488D01*
X121793600Y-104159627D01*
X121793600Y-104054173D01*
X121793600Y-97143376D01*
X121813285Y-97076337D01*
X121866089Y-97030582D01*
X121935247Y-97020638D01*
X121998803Y-97049663D01*
X122020700Y-97074483D01*
X122026992Y-97083899D01*
X122041699Y-97105910D01*
X122174088Y-97238299D01*
X122174092Y-97238302D01*
X122329762Y-97342318D01*
X122329768Y-97342321D01*
X122329769Y-97342322D01*
X122502749Y-97413973D01*
X122686379Y-97450499D01*
X122686383Y-97450500D01*
X122686384Y-97450500D01*
X122873617Y-97450500D01*
X122873618Y-97450499D01*
X123057251Y-97413973D01*
X123230231Y-97342322D01*
X123385908Y-97238302D01*
X123518302Y-97105908D01*
X123622322Y-96950231D01*
X123693973Y-96777251D01*
X123730500Y-96593616D01*
X123730500Y-96406384D01*
X123730499Y-96406381D01*
X123730499Y-96406379D01*
X123729552Y-96401617D01*
X123693973Y-96222749D01*
X123622322Y-96049769D01*
X123622321Y-96049768D01*
X123622318Y-96049762D01*
X123518302Y-95894092D01*
X123518299Y-95894088D01*
X123385911Y-95761700D01*
X123385907Y-95761697D01*
X123230237Y-95657681D01*
X123230228Y-95657676D01*
X123057251Y-95586027D01*
X123057243Y-95586025D01*
X122873620Y-95549500D01*
X122873616Y-95549500D01*
X122686384Y-95549500D01*
X122686379Y-95549500D01*
X122502756Y-95586025D01*
X122502748Y-95586027D01*
X122329771Y-95657676D01*
X122329762Y-95657681D01*
X122174092Y-95761697D01*
X122174088Y-95761700D01*
X122041700Y-95894088D01*
X122041697Y-95894092D01*
X122020702Y-95925514D01*
X121967090Y-95970319D01*
X121897765Y-95979026D01*
X121834737Y-95948871D01*
X121798018Y-95889428D01*
X121793600Y-95856623D01*
X121793600Y-76823376D01*
X121813285Y-76756337D01*
X121866089Y-76710582D01*
X121935247Y-76700638D01*
X121998803Y-76729663D01*
X122020700Y-76754483D01*
X122026992Y-76763899D01*
X122041699Y-76785910D01*
X122174088Y-76918299D01*
X122174092Y-76918302D01*
X122329762Y-77022318D01*
X122329771Y-77022323D01*
X122366750Y-77037640D01*
X122502749Y-77093973D01*
X122623512Y-77117994D01*
X122686379Y-77130499D01*
X122686383Y-77130500D01*
X122686384Y-77130500D01*
X122873617Y-77130500D01*
X122873618Y-77130499D01*
X123057251Y-77093973D01*
X123230231Y-77022322D01*
X123385908Y-76918302D01*
X123518302Y-76785908D01*
X123622322Y-76630231D01*
X123693973Y-76457251D01*
X123730500Y-76273616D01*
X123730500Y-76086384D01*
X123693973Y-75902749D01*
X123622322Y-75729769D01*
X123622321Y-75729768D01*
X123622318Y-75729762D01*
X123518302Y-75574092D01*
X123518299Y-75574088D01*
X123385911Y-75441700D01*
X123385907Y-75441697D01*
X123235609Y-75341271D01*
X123190804Y-75287659D01*
X123180500Y-75238169D01*
X123180500Y-71098543D01*
X126579499Y-71098543D01*
X126617947Y-71291829D01*
X126617950Y-71291839D01*
X126693364Y-71473907D01*
X126693371Y-71473920D01*
X126802860Y-71637781D01*
X126802863Y-71637785D01*
X126942214Y-71777136D01*
X126942218Y-71777139D01*
X127106079Y-71886628D01*
X127106092Y-71886635D01*
X127288160Y-71962049D01*
X127288165Y-71962051D01*
X127288169Y-71962051D01*
X127288170Y-71962052D01*
X127481456Y-72000500D01*
X127481459Y-72000500D01*
X127678543Y-72000500D01*
X127820788Y-71972205D01*
X127871835Y-71962051D01*
X128053914Y-71886632D01*
X128217782Y-71777139D01*
X128357139Y-71637782D01*
X128466632Y-71473914D01*
X128542051Y-71291835D01*
X128560418Y-71199500D01*
X128580500Y-71098543D01*
X128580500Y-70901456D01*
X128542052Y-70708170D01*
X128542051Y-70708166D01*
X128542051Y-70708165D01*
X128513399Y-70638993D01*
X128466635Y-70526092D01*
X128466628Y-70526079D01*
X128357139Y-70362218D01*
X128357136Y-70362214D01*
X128217785Y-70222863D01*
X128217781Y-70222860D01*
X128053920Y-70113371D01*
X128053907Y-70113364D01*
X127871839Y-70037950D01*
X127871829Y-70037947D01*
X127678543Y-69999500D01*
X127678541Y-69999500D01*
X127481459Y-69999500D01*
X127481457Y-69999500D01*
X127288170Y-70037947D01*
X127288160Y-70037950D01*
X127106092Y-70113364D01*
X127106079Y-70113371D01*
X126942218Y-70222860D01*
X126942214Y-70222863D01*
X126802863Y-70362214D01*
X126802860Y-70362218D01*
X126693371Y-70526079D01*
X126693364Y-70526092D01*
X126617950Y-70708160D01*
X126617947Y-70708170D01*
X126579500Y-70901456D01*
X126579500Y-70901459D01*
X126579500Y-71098541D01*
X126579500Y-71098543D01*
X126579499Y-71098543D01*
X123180500Y-71098543D01*
X123180500Y-67017254D01*
X123200185Y-66950215D01*
X123216814Y-66929578D01*
X123547849Y-66598543D01*
X126579499Y-66598543D01*
X126617947Y-66791829D01*
X126617950Y-66791839D01*
X126693364Y-66973907D01*
X126693371Y-66973920D01*
X126802860Y-67137781D01*
X126802863Y-67137785D01*
X126942214Y-67277136D01*
X126942218Y-67277139D01*
X127106079Y-67386628D01*
X127106092Y-67386635D01*
X127288160Y-67462049D01*
X127288165Y-67462051D01*
X127288169Y-67462051D01*
X127288170Y-67462052D01*
X127481456Y-67500500D01*
X127481459Y-67500500D01*
X127678543Y-67500500D01*
X127812196Y-67473914D01*
X127871835Y-67462051D01*
X128053914Y-67386632D01*
X128217782Y-67277139D01*
X128357139Y-67137782D01*
X128466632Y-66973914D01*
X128542051Y-66791835D01*
X128573471Y-66633878D01*
X128580500Y-66598543D01*
X128580500Y-66401456D01*
X128542052Y-66208170D01*
X128542051Y-66208169D01*
X128542051Y-66208165D01*
X128542049Y-66208160D01*
X128466635Y-66026092D01*
X128466628Y-66026079D01*
X128357139Y-65862218D01*
X128357136Y-65862214D01*
X128217785Y-65722863D01*
X128217781Y-65722860D01*
X128053920Y-65613371D01*
X128053907Y-65613364D01*
X127871839Y-65537950D01*
X127871829Y-65537947D01*
X127678543Y-65499500D01*
X127678541Y-65499500D01*
X127481459Y-65499500D01*
X127481457Y-65499500D01*
X127288170Y-65537947D01*
X127288160Y-65537950D01*
X127106092Y-65613364D01*
X127106079Y-65613371D01*
X126942218Y-65722860D01*
X126942214Y-65722863D01*
X126802863Y-65862214D01*
X126802860Y-65862218D01*
X126693371Y-66026079D01*
X126693364Y-66026092D01*
X126617950Y-66208160D01*
X126617947Y-66208170D01*
X126579500Y-66401456D01*
X126579500Y-66401459D01*
X126579500Y-66598541D01*
X126579500Y-66598543D01*
X126579499Y-66598543D01*
X123547849Y-66598543D01*
X127156165Y-62990226D01*
X127217486Y-62956743D01*
X127282016Y-62961357D01*
X127282342Y-62960284D01*
X127287073Y-62961719D01*
X127287178Y-62961727D01*
X127287446Y-62961832D01*
X127288157Y-62962047D01*
X127288165Y-62962051D01*
X127335496Y-62971465D01*
X127481456Y-63000500D01*
X127481459Y-63000500D01*
X127678543Y-63000500D01*
X127808582Y-62974632D01*
X127871835Y-62962051D01*
X128053914Y-62886632D01*
X128217782Y-62777139D01*
X128357139Y-62637782D01*
X128466632Y-62473914D01*
X128542051Y-62291835D01*
X128571753Y-62142517D01*
X128580500Y-62098543D01*
X128580500Y-61901456D01*
X128542052Y-61708170D01*
X128542051Y-61708166D01*
X128542051Y-61708165D01*
X128539501Y-61702009D01*
X128466635Y-61526092D01*
X128466628Y-61526079D01*
X128357139Y-61362218D01*
X128357136Y-61362214D01*
X128217785Y-61222863D01*
X128217781Y-61222860D01*
X128053920Y-61113371D01*
X128053907Y-61113364D01*
X127871839Y-61037950D01*
X127871829Y-61037947D01*
X127678543Y-60999500D01*
X127678541Y-60999500D01*
X127481459Y-60999500D01*
X127481457Y-60999500D01*
X127288170Y-61037947D01*
X127288160Y-61037950D01*
X127106092Y-61113364D01*
X127106079Y-61113371D01*
X126942218Y-61222860D01*
X126942214Y-61222863D01*
X126802863Y-61362214D01*
X126802860Y-61362218D01*
X126693371Y-61526079D01*
X126693364Y-61526092D01*
X126617950Y-61708160D01*
X126617947Y-61708170D01*
X126579500Y-61901456D01*
X126579500Y-61901459D01*
X126579500Y-62098541D01*
X126579500Y-62098543D01*
X126579499Y-62098543D01*
X126617948Y-62291833D01*
X126619718Y-62297668D01*
X126617684Y-62298284D01*
X126624115Y-62358190D01*
X126592831Y-62420664D01*
X126589770Y-62423835D01*
X122459522Y-66554084D01*
X122459520Y-66554087D01*
X122433301Y-66599500D01*
X122406793Y-66645412D01*
X122397654Y-66679520D01*
X122397654Y-66679521D01*
X122397653Y-66679520D01*
X122379500Y-66747271D01*
X122379500Y-75238169D01*
X122359815Y-75305208D01*
X122324391Y-75341271D01*
X122174092Y-75441697D01*
X122174088Y-75441700D01*
X122041700Y-75574088D01*
X122041697Y-75574092D01*
X122020702Y-75605514D01*
X121967090Y-75650319D01*
X121897765Y-75659026D01*
X121834737Y-75628871D01*
X121798018Y-75569428D01*
X121793600Y-75536623D01*
X121793600Y-70420375D01*
X121793600Y-70420373D01*
X121766307Y-70318513D01*
X121766307Y-70318512D01*
X121713580Y-70227187D01*
X118410228Y-66923835D01*
X118376743Y-66862512D01*
X118381357Y-66797987D01*
X118380283Y-66797662D01*
X118381719Y-66792927D01*
X118381727Y-66792820D01*
X118381835Y-66792543D01*
X118382049Y-66791839D01*
X118382051Y-66791835D01*
X118413471Y-66633878D01*
X118420500Y-66598543D01*
X118420500Y-66401456D01*
X118382052Y-66208170D01*
X118382051Y-66208169D01*
X118382051Y-66208165D01*
X118382049Y-66208160D01*
X118306635Y-66026092D01*
X118306628Y-66026079D01*
X118197139Y-65862218D01*
X118197136Y-65862214D01*
X118057785Y-65722863D01*
X118057781Y-65722860D01*
X117893920Y-65613371D01*
X117893907Y-65613364D01*
X117711839Y-65537950D01*
X117711829Y-65537947D01*
X117518543Y-65499500D01*
X117518541Y-65499500D01*
X117321459Y-65499500D01*
X117321457Y-65499500D01*
X117128170Y-65537947D01*
X117128160Y-65537950D01*
X116946092Y-65613364D01*
X116946079Y-65613371D01*
X116782218Y-65722860D01*
X116782214Y-65722863D01*
X116642863Y-65862214D01*
X116642860Y-65862218D01*
X116533371Y-66026079D01*
X116533364Y-66026092D01*
X116457950Y-66208160D01*
X116457947Y-66208170D01*
X116419500Y-66401456D01*
X116419500Y-66401459D01*
X116419500Y-66598541D01*
X116419500Y-66598543D01*
X116419499Y-66598543D01*
X116457947Y-66791829D01*
X116457950Y-66791839D01*
X116533364Y-66973907D01*
X116533371Y-66973920D01*
X116642860Y-67137781D01*
X116642863Y-67137785D01*
X116782214Y-67277136D01*
X116782218Y-67277139D01*
X116946079Y-67386628D01*
X116946092Y-67386635D01*
X117128160Y-67462049D01*
X117128165Y-67462051D01*
X117128169Y-67462051D01*
X117128170Y-67462052D01*
X117321456Y-67500500D01*
X117321459Y-67500500D01*
X117518543Y-67500500D01*
X117652196Y-67473914D01*
X117711835Y-67462051D01*
X117711842Y-67462047D01*
X117717662Y-67460283D01*
X117718281Y-67462325D01*
X117778131Y-67455872D01*
X117840620Y-67487127D01*
X117843835Y-67490228D01*
X120956281Y-70602674D01*
X120989766Y-70663997D01*
X120992600Y-70690355D01*
X120992600Y-75307726D01*
X120989736Y-75317477D01*
X120991003Y-75327561D01*
X120980058Y-75350436D01*
X120972915Y-75374765D01*
X120965235Y-75381419D01*
X120960849Y-75390588D01*
X120939272Y-75403916D01*
X120920111Y-75420520D01*
X120910053Y-75421966D01*
X120901406Y-75427308D01*
X120876049Y-75426855D01*
X120850953Y-75430464D01*
X120839849Y-75426209D01*
X120831547Y-75426061D01*
X120799710Y-75410828D01*
X120695610Y-75341271D01*
X120650804Y-75287659D01*
X120640500Y-75238169D01*
X120640500Y-73767275D01*
X120640500Y-73767273D01*
X120613207Y-73665413D01*
X120613207Y-73665412D01*
X120560480Y-73574087D01*
X118410228Y-71423835D01*
X118376743Y-71362512D01*
X118381357Y-71297987D01*
X118380283Y-71297662D01*
X118381719Y-71292927D01*
X118381727Y-71292820D01*
X118381835Y-71292543D01*
X118382049Y-71291839D01*
X118382051Y-71291835D01*
X118400418Y-71199500D01*
X118420500Y-71098543D01*
X118420500Y-70901456D01*
X118382052Y-70708170D01*
X118382051Y-70708166D01*
X118382051Y-70708165D01*
X118353399Y-70638993D01*
X118306635Y-70526092D01*
X118306628Y-70526079D01*
X118197139Y-70362218D01*
X118197136Y-70362214D01*
X118057785Y-70222863D01*
X118057781Y-70222860D01*
X117893920Y-70113371D01*
X117893907Y-70113364D01*
X117711839Y-70037950D01*
X117711829Y-70037947D01*
X117518543Y-69999500D01*
X117518541Y-69999500D01*
X117321459Y-69999500D01*
X117321457Y-69999500D01*
X117128171Y-70037947D01*
X117122342Y-70039716D01*
X117121727Y-70037691D01*
X117061774Y-70044110D01*
X116999308Y-70012808D01*
X116996163Y-70009771D01*
X116186819Y-69200426D01*
X116153334Y-69139103D01*
X116150500Y-69112745D01*
X116150500Y-63732729D01*
X116150501Y-63732716D01*
X116150501Y-63617274D01*
X116150501Y-63617273D01*
X116123207Y-63515413D01*
X116070480Y-63424087D01*
X115995913Y-63349520D01*
X115995912Y-63349519D01*
X115991582Y-63345189D01*
X115991571Y-63345179D01*
X115070228Y-62423835D01*
X115036743Y-62362512D01*
X115041357Y-62297987D01*
X115040283Y-62297662D01*
X115041719Y-62292927D01*
X115041727Y-62292820D01*
X115041835Y-62292543D01*
X115042049Y-62291839D01*
X115042051Y-62291835D01*
X115071753Y-62142517D01*
X115080500Y-62098543D01*
X116419499Y-62098543D01*
X116457947Y-62291829D01*
X116457950Y-62291839D01*
X116533364Y-62473907D01*
X116533371Y-62473920D01*
X116642860Y-62637781D01*
X116642863Y-62637785D01*
X116782214Y-62777136D01*
X116782218Y-62777139D01*
X116946079Y-62886628D01*
X116946092Y-62886635D01*
X117127363Y-62961719D01*
X117128165Y-62962051D01*
X117128169Y-62962051D01*
X117128170Y-62962052D01*
X117321456Y-63000500D01*
X117321459Y-63000500D01*
X117518543Y-63000500D01*
X117648582Y-62974632D01*
X117711835Y-62962051D01*
X117893914Y-62886632D01*
X118057782Y-62777139D01*
X118197139Y-62637782D01*
X118306632Y-62473914D01*
X118382051Y-62291835D01*
X118411753Y-62142517D01*
X118420500Y-62098543D01*
X118420500Y-61901456D01*
X118382052Y-61708170D01*
X118382051Y-61708166D01*
X118382051Y-61708165D01*
X118379501Y-61702009D01*
X118306635Y-61526092D01*
X118306628Y-61526079D01*
X118197139Y-61362218D01*
X118197136Y-61362214D01*
X118057785Y-61222863D01*
X118057781Y-61222860D01*
X117893920Y-61113371D01*
X117893907Y-61113364D01*
X117711839Y-61037950D01*
X117711829Y-61037947D01*
X117518543Y-60999500D01*
X117518541Y-60999500D01*
X117321459Y-60999500D01*
X117321457Y-60999500D01*
X117128170Y-61037947D01*
X117128160Y-61037950D01*
X116946092Y-61113364D01*
X116946079Y-61113371D01*
X116782218Y-61222860D01*
X116782214Y-61222863D01*
X116642863Y-61362214D01*
X116642860Y-61362218D01*
X116533371Y-61526079D01*
X116533364Y-61526092D01*
X116457950Y-61708160D01*
X116457947Y-61708170D01*
X116419500Y-61901456D01*
X116419500Y-61901459D01*
X116419500Y-62098541D01*
X116419500Y-62098543D01*
X116419499Y-62098543D01*
X115080500Y-62098543D01*
X115080500Y-61901456D01*
X115042052Y-61708170D01*
X115042051Y-61708166D01*
X115042051Y-61708165D01*
X115039501Y-61702009D01*
X114966635Y-61526092D01*
X114966628Y-61526079D01*
X114857139Y-61362218D01*
X114857136Y-61362214D01*
X114717785Y-61222863D01*
X114717781Y-61222860D01*
X114553920Y-61113371D01*
X114553907Y-61113364D01*
X114371839Y-61037950D01*
X114371829Y-61037947D01*
X114178543Y-60999500D01*
X114178541Y-60999500D01*
X113981459Y-60999500D01*
X113981457Y-60999500D01*
X113788166Y-61037948D01*
X113782336Y-61039717D01*
X113781719Y-61037683D01*
X113721816Y-61044118D01*
X113659340Y-61012837D01*
X113656164Y-61009771D01*
X107325915Y-54679522D01*
X107325913Y-54679520D01*
X107280250Y-54653156D01*
X107234589Y-54626793D01*
X107183657Y-54613146D01*
X107132727Y-54599500D01*
X107132726Y-54599500D01*
X95717255Y-54599500D01*
X95650216Y-54579815D01*
X95629574Y-54563181D01*
X92556819Y-51490426D01*
X92523334Y-51429103D01*
X92520500Y-51402745D01*
X92520500Y-50269528D01*
X95196500Y-50269528D01*
X95196500Y-50578471D01*
X95231086Y-50885437D01*
X95231089Y-50885455D01*
X95299831Y-51186635D01*
X95299835Y-51186647D01*
X95401862Y-51478222D01*
X95401868Y-51478236D01*
X95535903Y-51756562D01*
X95547230Y-51774589D01*
X95700265Y-52018143D01*
X95892880Y-52259674D01*
X96111326Y-52478120D01*
X96352857Y-52670735D01*
X96614435Y-52835095D01*
X96892771Y-52969135D01*
X96892777Y-52969137D01*
X97184352Y-53071164D01*
X97184364Y-53071168D01*
X97485548Y-53139911D01*
X97485554Y-53139911D01*
X97485562Y-53139913D01*
X97690206Y-53162970D01*
X97792529Y-53174499D01*
X97792532Y-53174500D01*
X97792535Y-53174500D01*
X98101468Y-53174500D01*
X98101469Y-53174499D01*
X98258356Y-53156822D01*
X98408437Y-53139913D01*
X98408442Y-53139912D01*
X98408452Y-53139911D01*
X98709636Y-53071168D01*
X99001229Y-52969135D01*
X99279565Y-52835095D01*
X99541143Y-52670735D01*
X99782674Y-52478120D01*
X100001120Y-52259674D01*
X100193735Y-52018143D01*
X100358095Y-51756565D01*
X100492135Y-51478229D01*
X100594168Y-51186636D01*
X100662911Y-50885452D01*
X100697500Y-50578465D01*
X100697500Y-50269535D01*
X100662911Y-49962548D01*
X100594168Y-49661364D01*
X100537858Y-49500441D01*
X100505413Y-49407717D01*
X100492135Y-49369771D01*
X100383214Y-49143596D01*
X100358096Y-49091437D01*
X100358095Y-49091435D01*
X100193735Y-48829857D01*
X100001120Y-48588326D01*
X99782674Y-48369880D01*
X99779703Y-48367511D01*
X99631968Y-48249696D01*
X99541143Y-48177265D01*
X99279565Y-48012905D01*
X99279562Y-48012903D01*
X99001236Y-47878868D01*
X99001222Y-47878862D01*
X98709647Y-47776835D01*
X98709635Y-47776831D01*
X98408455Y-47708089D01*
X98408437Y-47708086D01*
X98101471Y-47673500D01*
X98101465Y-47673500D01*
X97792535Y-47673500D01*
X97792528Y-47673500D01*
X97485562Y-47708086D01*
X97485544Y-47708089D01*
X97184364Y-47776831D01*
X97184352Y-47776835D01*
X96892777Y-47878862D01*
X96892763Y-47878868D01*
X96614437Y-48012903D01*
X96352858Y-48177264D01*
X96111326Y-48369879D01*
X95892879Y-48588326D01*
X95700264Y-48829858D01*
X95535903Y-49091437D01*
X95401868Y-49369763D01*
X95401862Y-49369777D01*
X95299835Y-49661352D01*
X95299831Y-49661364D01*
X95231089Y-49962544D01*
X95231086Y-49962562D01*
X95196500Y-50269528D01*
X92520500Y-50269528D01*
X92520500Y-49700014D01*
X92540185Y-49632975D01*
X92592989Y-49587220D01*
X92597048Y-49585453D01*
X92617598Y-49576941D01*
X92789655Y-49461977D01*
X92935977Y-49315655D01*
X93050941Y-49143598D01*
X93130130Y-48952420D01*
X93170500Y-48749465D01*
X93170500Y-48542535D01*
X93130130Y-48339580D01*
X93050941Y-48148402D01*
X92935977Y-47976345D01*
X92935975Y-47976342D01*
X92789657Y-47830024D01*
X92703626Y-47772541D01*
X92617598Y-47715059D01*
X92614085Y-47713604D01*
X92426420Y-47635870D01*
X92426412Y-47635868D01*
X92223469Y-47595500D01*
X92223465Y-47595500D01*
X92016535Y-47595500D01*
X92016530Y-47595500D01*
X91813587Y-47635868D01*
X91813579Y-47635870D01*
X91622403Y-47715058D01*
X91450342Y-47830024D01*
X91304024Y-47976342D01*
X91189058Y-48148403D01*
X91109870Y-48339579D01*
X91109868Y-48339587D01*
X91069500Y-48542530D01*
X90630499Y-48542530D01*
X90590130Y-48339580D01*
X90510941Y-48148402D01*
X90395977Y-47976345D01*
X90395975Y-47976342D01*
X90249657Y-47830024D01*
X90163626Y-47772541D01*
X90077598Y-47715059D01*
X90074085Y-47713604D01*
X89886420Y-47635870D01*
X89886412Y-47635868D01*
X89683469Y-47595500D01*
X89683465Y-47595500D01*
X89476535Y-47595500D01*
X89476530Y-47595500D01*
X89273587Y-47635868D01*
X89273579Y-47635870D01*
X89082403Y-47715058D01*
X88910342Y-47830024D01*
X88764024Y-47976342D01*
X88649058Y-48148403D01*
X88569870Y-48339579D01*
X88569868Y-48339587D01*
X88529500Y-48542530D01*
X88090499Y-48542530D01*
X88050130Y-48339580D01*
X87970941Y-48148402D01*
X87855977Y-47976345D01*
X87855975Y-47976342D01*
X87709657Y-47830024D01*
X87623626Y-47772541D01*
X87537598Y-47715059D01*
X87534085Y-47713604D01*
X87346420Y-47635870D01*
X87346412Y-47635868D01*
X87143469Y-47595500D01*
X87143465Y-47595500D01*
X86936535Y-47595500D01*
X86936530Y-47595500D01*
X86733587Y-47635868D01*
X86733579Y-47635870D01*
X86542403Y-47715058D01*
X86370342Y-47830024D01*
X86224024Y-47976342D01*
X86109057Y-48148403D01*
X86040835Y-48313108D01*
X85996994Y-48367511D01*
X85930700Y-48389576D01*
X85863000Y-48372297D01*
X85815390Y-48321159D01*
X85808343Y-48303973D01*
X85751095Y-48127782D01*
X85654624Y-47938449D01*
X85615270Y-47884282D01*
X85615269Y-47884282D01*
X84982962Y-48516590D01*
X84965925Y-48453007D01*
X84900099Y-48338993D01*
X84807007Y-48245901D01*
X84692993Y-48180075D01*
X84629409Y-48163037D01*
X85261716Y-47530728D01*
X85207550Y-47491375D01*
X85018217Y-47394904D01*
X84816129Y-47329242D01*
X84606246Y-47296000D01*
X84393754Y-47296000D01*
X84183872Y-47329242D01*
X84183869Y-47329242D01*
X83981782Y-47394904D01*
X83792439Y-47491380D01*
X83738282Y-47530727D01*
X83738282Y-47530728D01*
X84370591Y-48163037D01*
X84307007Y-48180075D01*
X84192993Y-48245901D01*
X84099901Y-48338993D01*
X84034075Y-48453007D01*
X84017037Y-48516591D01*
X83384728Y-47884282D01*
X83384727Y-47884282D01*
X83345380Y-47938439D01*
X83248904Y-48127782D01*
X83183242Y-48329869D01*
X83183242Y-48329872D01*
X83150000Y-48539753D01*
X80552547Y-48539753D01*
X80382673Y-48369879D01*
X80231968Y-48249696D01*
X80141143Y-48177265D01*
X79879565Y-48012905D01*
X79879562Y-48012903D01*
X79601236Y-47878868D01*
X79601222Y-47878862D01*
X79309647Y-47776835D01*
X79309635Y-47776831D01*
X79008455Y-47708089D01*
X79008439Y-47708087D01*
X78947377Y-47701207D01*
X78947376Y-47701206D01*
X78701471Y-47673500D01*
X78701465Y-47673500D01*
X78392535Y-47673500D01*
X78392528Y-47673500D01*
X78085562Y-47708086D01*
X78085544Y-47708089D01*
X77784364Y-47776831D01*
X77784352Y-47776835D01*
X77492777Y-47878862D01*
X77492763Y-47878868D01*
X77214437Y-48012903D01*
X76952858Y-48177264D01*
X76711326Y-48369879D01*
X76492879Y-48588326D01*
X76300264Y-48829858D01*
X76135903Y-49091437D01*
X76001868Y-49369763D01*
X76001862Y-49369777D01*
X75899835Y-49661352D01*
X75899831Y-49661364D01*
X75831089Y-49962544D01*
X75831086Y-49962562D01*
X75796500Y-50269528D01*
X53390407Y-50269528D01*
X53400500Y-50167056D01*
X53400500Y-49832944D01*
X53367751Y-49500441D01*
X53330995Y-49315655D01*
X53302574Y-49172769D01*
X53302571Y-49172758D01*
X53302570Y-49172755D01*
X53302569Y-49172749D01*
X53205582Y-48853024D01*
X53077723Y-48544346D01*
X53076754Y-48542534D01*
X52920230Y-48249696D01*
X52920229Y-48249694D01*
X52920224Y-48249685D01*
X52734601Y-47971882D01*
X52522643Y-47713610D01*
X52522642Y-47713609D01*
X52522638Y-47713604D01*
X52286395Y-47477361D01*
X52028123Y-47265403D01*
X52028122Y-47265402D01*
X52028118Y-47265399D01*
X51750315Y-47079776D01*
X51750310Y-47079773D01*
X51750303Y-47079769D01*
X51455661Y-46922280D01*
X51455656Y-46922278D01*
X51146977Y-46794418D01*
X51076941Y-46773173D01*
X50978000Y-46743160D01*
X50919563Y-46704863D01*
X50891107Y-46641051D01*
X50901667Y-46571984D01*
X50947891Y-46519591D01*
X51013997Y-46500500D01*
X125986003Y-46500500D01*
X126053042Y-46520185D01*
G37*
%TD.AperFunction*%
%TD*%
M02*
