%TF.GenerationSoftware,KiCad,Pcbnew,9.0.7*%
%TF.CreationDate,2026-02-23T21:28:53+11:00*%
%TF.ProjectId,esphome-sensor,65737068-6f6d-4652-9d73-656e736f722e,rev?*%
%TF.SameCoordinates,Original*%
%TF.FileFunction,Copper,L1,Top*%
%TF.FilePolarity,Positive*%
%FSLAX46Y46*%
G04 Gerber Fmt 4.6, Leading zero omitted, Abs format (unit mm)*
G04 Created by KiCad (PCBNEW 9.0.7) date 2026-02-23 21:28:53*
%MOMM*%
%LPD*%
G01*
G04 APERTURE LIST*
G04 Aperture macros list*
%AMRoundRect*
0 Rectangle with rounded corners*
0 $1 Rounding radius*
0 $2 $3 $4 $5 $6 $7 $8 $9 X,Y pos of 4 corners*
0 Add a 4 corners polygon primitive as box body*
4,1,4,$2,$3,$4,$5,$6,$7,$8,$9,$2,$3,0*
0 Add four circle primitives for the rounded corners*
1,1,$1+$1,$2,$3*
1,1,$1+$1,$4,$5*
1,1,$1+$1,$6,$7*
1,1,$1+$1,$8,$9*
0 Add four rect primitives between the rounded corners*
20,1,$1+$1,$2,$3,$4,$5,0*
20,1,$1+$1,$4,$5,$6,$7,0*
20,1,$1+$1,$6,$7,$8,$9,0*
20,1,$1+$1,$8,$9,$2,$3,0*%
G04 Aperture macros list end*
%TA.AperFunction,ComponentPad*%
%ADD10C,6.400000*%
%TD*%
%TA.AperFunction,ComponentPad*%
%ADD11C,1.600000*%
%TD*%
%TA.AperFunction,ComponentPad*%
%ADD12RoundRect,0.250000X0.550000X0.550000X-0.550000X0.550000X-0.550000X-0.550000X0.550000X-0.550000X0*%
%TD*%
%TA.AperFunction,ComponentPad*%
%ADD13R,1.700000X1.700000*%
%TD*%
%TA.AperFunction,ComponentPad*%
%ADD14O,1.700000X1.700000*%
%TD*%
%TA.AperFunction,ComponentPad*%
%ADD15RoundRect,0.250000X-1.050000X-1.050000X1.050000X-1.050000X1.050000X1.050000X-1.050000X1.050000X0*%
%TD*%
%TA.AperFunction,ComponentPad*%
%ADD16C,2.600000*%
%TD*%
%TA.AperFunction,ComponentPad*%
%ADD17RoundRect,0.249999X-0.850001X0.850001X-0.850001X-0.850001X0.850001X-0.850001X0.850001X0.850001X0*%
%TD*%
%TA.AperFunction,ComponentPad*%
%ADD18C,2.200000*%
%TD*%
%TA.AperFunction,ComponentPad*%
%ADD19C,1.700000*%
%TD*%
%TA.AperFunction,ComponentPad*%
%ADD20C,1.500000*%
%TD*%
%TA.AperFunction,ComponentPad*%
%ADD21RoundRect,0.249999X0.850001X0.850001X-0.850001X0.850001X-0.850001X-0.850001X0.850001X-0.850001X0*%
%TD*%
%TA.AperFunction,ViaPad*%
%ADD22C,0.800000*%
%TD*%
%TA.AperFunction,Conductor*%
%ADD23C,1.000000*%
%TD*%
%TA.AperFunction,Conductor*%
%ADD24C,0.800000*%
%TD*%
%TA.AperFunction,Conductor*%
%ADD25C,0.400000*%
%TD*%
%TA.AperFunction,Conductor*%
%ADD26C,1.500000*%
%TD*%
G04 APERTURE END LIST*
D10*
%TO.P,H8,1*%
%TO.N,N/C*%
X127000000Y-111000000D03*
%TD*%
%TO.P,H7,1*%
%TO.N,N/C*%
X50000000Y-111000000D03*
%TD*%
%TO.P,H6,1*%
%TO.N,N/C*%
X127000000Y-57000000D03*
%TD*%
%TO.P,H5,1*%
%TO.N,N/C*%
X50000000Y-57000000D03*
%TD*%
%TO.P,H2,1*%
%TO.N,N/C*%
X127000000Y-50000000D03*
%TD*%
D11*
%TO.P,R11,1*%
%TO.N,/1WIRE_BUS2*%
X62420000Y-67000000D03*
%TO.P,R11,2*%
%TO.N,/1WIRE_BUS2_PROT*%
X72580000Y-67000000D03*
%TD*%
%TO.P,R6,1*%
%TO.N,/1WIRE_BUS1_PROT*%
X48420000Y-62000000D03*
%TO.P,R6,2*%
%TO.N,/3V3_PROT_1WIRE*%
X58580000Y-62000000D03*
%TD*%
D12*
%TO.P,C1,1*%
%TO.N,/+BATT_PROT*%
X53152700Y-93000000D03*
D11*
%TO.P,C1,2*%
%TO.N,GND*%
X49652700Y-93000000D03*
%TD*%
%TO.P,C3,1*%
%TO.N,/3V3_PROT_I2C*%
X69000000Y-88500000D03*
%TO.P,C3,2*%
%TO.N,GND*%
X74000000Y-88500000D03*
%TD*%
%TO.P,R9,1*%
%TO.N,/SCL_PROT*%
X117420000Y-66500000D03*
%TO.P,R9,2*%
%TO.N,/3V3_2*%
X127580000Y-66500000D03*
%TD*%
D10*
%TO.P,H3,1*%
%TO.N,N/C*%
X50000000Y-118000000D03*
%TD*%
D13*
%TO.P,U1,1,SHDN*%
%TO.N,unconnected-(U1-SHDN-Pad1)*%
X49500000Y-83000000D03*
D14*
%TO.P,U1,2,VIN*%
%TO.N,/+BATT_PROT*%
X52040000Y-83000000D03*
%TO.P,U1,3,GND*%
%TO.N,GND*%
X54580000Y-83000000D03*
%TO.P,U1,4,VOUT*%
%TO.N,+5V*%
X57120000Y-83000000D03*
%TD*%
D11*
%TO.P,R2,1*%
%TO.N,/3V3_2*%
X63420000Y-82500000D03*
%TO.P,R2,2*%
%TO.N,/3V3_PROT_1WIRE*%
X73580000Y-82500000D03*
%TD*%
%TO.P,C2,1*%
%TO.N,/3V3_PROT_1WIRE*%
X69000000Y-95000000D03*
%TO.P,C2,2*%
%TO.N,GND*%
X74000000Y-95000000D03*
%TD*%
D10*
%TO.P,H4,1*%
%TO.N,N/C*%
X127000000Y-118000000D03*
%TD*%
D11*
%TO.P,R13,1*%
%TO.N,/SCL*%
X117420000Y-71000000D03*
%TO.P,R13,2*%
%TO.N,/SCL_PROT*%
X127580000Y-71000000D03*
%TD*%
%TO.P,R1,1*%
%TO.N,/+BATT*%
X65000000Y-97580000D03*
%TO.P,R1,2*%
%TO.N,+5V*%
X65000000Y-87420000D03*
%TD*%
D10*
%TO.P,H1,1*%
%TO.N,N/C*%
X50000000Y-50000000D03*
%TD*%
D11*
%TO.P,R8,1*%
%TO.N,/SDA_PROT*%
X103920000Y-66500000D03*
%TO.P,R8,2*%
%TO.N,/3V3_2*%
X114080000Y-66500000D03*
%TD*%
%TO.P,R5,1*%
%TO.N,/SDA*%
X127580000Y-62000000D03*
%TO.P,R5,2*%
%TO.N,+3V3*%
X117420000Y-62000000D03*
%TD*%
D15*
%TO.P,J5,1,Pin_1*%
%TO.N,GND*%
X105000000Y-105500000D03*
D16*
%TO.P,J5,2,Pin_2*%
%TO.N,/3V3_PROT_I2C*%
X110000000Y-105500000D03*
%TO.P,J5,3,Pin_3*%
%TO.N,/SDA_PROT*%
X115000000Y-105500000D03*
%TO.P,J5,4,Pin_4*%
%TO.N,/SCL_PROT*%
X120000000Y-105500000D03*
%TD*%
D11*
%TO.P,R3,1*%
%TO.N,/3V3_2*%
X63420000Y-77500000D03*
%TO.P,R3,2*%
%TO.N,/3V3_PROT_I2C*%
X73580000Y-77500000D03*
%TD*%
%TO.P,R7,1*%
%TO.N,/1WIRE_BUS2_PROT*%
X62500000Y-62000000D03*
%TO.P,R7,2*%
%TO.N,/3V3_PROT_1WIRE*%
X72660000Y-62000000D03*
%TD*%
D17*
%TO.P,D1,1,K*%
%TO.N,/+BATT_PROT*%
X59500000Y-87340000D03*
D18*
%TO.P,D1,2,A*%
%TO.N,/+BATT*%
X59500000Y-97500000D03*
%TD*%
D19*
%TO.P,J2,1,Pin_1*%
%TO.N,GND*%
X84500000Y-48646000D03*
D14*
%TO.P,J2,2,Pin_2*%
%TO.N,+3V3*%
X87040000Y-48646000D03*
%TO.P,J2,3,Pin_3*%
%TO.N,/SDA*%
X89580000Y-48646000D03*
%TO.P,J2,4,Pin_4*%
%TO.N,/SCL*%
X92120000Y-48646000D03*
%TD*%
D20*
%TO.P,U2,1,VBAT*%
%TO.N,unconnected-(U2-VBAT-Pad1)*%
X94840000Y-76180000D03*
%TO.P,U2,2,EN*%
%TO.N,unconnected-(U2-EN-Pad2)*%
X97380000Y-76180000D03*
%TO.P,U2,3,5V*%
%TO.N,+5V*%
X99920000Y-76180000D03*
%TO.P,U2,4,IO11*%
%TO.N,unconnected-(U2-IO11-Pad4)*%
X102460000Y-76180000D03*
%TO.P,U2,5,IO10*%
%TO.N,unconnected-(U2-IO10-Pad5)*%
X105000000Y-76180000D03*
%TO.P,U2,6,IO7*%
%TO.N,unconnected-(U2-IO7-Pad6)*%
X107540000Y-76180000D03*
%TO.P,U2,7,IO3*%
%TO.N,unconnected-(U2-IO3-Pad7)*%
X110080000Y-76180000D03*
%TO.P,U2,8,IO1*%
%TO.N,unconnected-(U2-IO1-Pad8)*%
X112620000Y-76180000D03*
%TO.P,U2,9,IO38*%
%TO.N,unconnected-(U2-IO38-Pad9)*%
X115160000Y-76180000D03*
%TO.P,U2,10,IO33*%
%TO.N,unconnected-(U2-IO33-Pad10)*%
X117700000Y-76180000D03*
%TO.P,U2,11,IO9*%
%TO.N,/SCL*%
X120240000Y-76180000D03*
%TO.P,U2,12,IO8*%
%TO.N,/SDA*%
X122780000Y-76180000D03*
%TO.P,U2,13,LDO2_OUT*%
%TO.N,/3V3_2*%
X122780000Y-96500000D03*
%TO.P,U2,14,TX*%
%TO.N,unconnected-(U2-TX-Pad14)*%
X120240000Y-96500000D03*
%TO.P,U2,15,RX*%
%TO.N,unconnected-(U2-RX-Pad15)*%
X117700000Y-96500000D03*
%TO.P,U2,16,IO37*%
%TO.N,unconnected-(U2-IO37-Pad16)*%
X115160000Y-96500000D03*
%TO.P,U2,17,IO35*%
%TO.N,unconnected-(U2-IO35-Pad17)*%
X112620000Y-96500000D03*
%TO.P,U2,18,IO36*%
%TO.N,unconnected-(U2-IO36-Pad18)*%
X110080000Y-96500000D03*
%TO.P,U2,19,IO5*%
%TO.N,/1WIRE_BUS1*%
X107540000Y-96500000D03*
%TO.P,U2,20,IO6*%
%TO.N,/1WIRE_BUS2*%
X105000000Y-96500000D03*
%TO.P,U2,21,IO12*%
%TO.N,unconnected-(U2-IO12-Pad21)*%
X102460000Y-96500000D03*
%TO.P,U2,22,IO14*%
%TO.N,unconnected-(U2-IO14-Pad22)*%
X99920000Y-96500000D03*
%TO.P,U2,23,IO18*%
%TO.N,unconnected-(U2-IO18-Pad23)*%
X97380000Y-96500000D03*
%TO.P,U2,24,IO17*%
%TO.N,unconnected-(U2-IO17-Pad24)*%
X94840000Y-96500000D03*
%TO.P,U2,25,GND*%
%TO.N,GND*%
X92300000Y-96500000D03*
%TO.P,U2,26,IO0*%
%TO.N,unconnected-(U2-IO0-Pad26)*%
X89760000Y-96500000D03*
%TO.P,U2,27,3V3*%
%TO.N,+3V3*%
X87220000Y-96500000D03*
%TO.P,U2,28,RST*%
%TO.N,unconnected-(U2-RST-Pad28)*%
X84680000Y-96500000D03*
%TD*%
D11*
%TO.P,R12,1*%
%TO.N,/SDA*%
X103920000Y-71000000D03*
%TO.P,R12,2*%
%TO.N,/SDA_PROT*%
X114080000Y-71000000D03*
%TD*%
%TO.P,R10,1*%
%TO.N,/1WIRE_BUS1*%
X48420000Y-67000000D03*
%TO.P,R10,2*%
%TO.N,/1WIRE_BUS1_PROT*%
X58580000Y-67000000D03*
%TD*%
D15*
%TO.P,J3,1,Pin_1*%
%TO.N,GND*%
X70000000Y-105500000D03*
D16*
%TO.P,J3,2,Pin_2*%
%TO.N,/1WIRE_BUS1_PROT*%
X75000000Y-105500000D03*
%TO.P,J3,3,Pin_3*%
%TO.N,/3V3_PROT_1WIRE*%
X80000000Y-105500000D03*
%TD*%
D15*
%TO.P,J4,1,Pin_1*%
%TO.N,GND*%
X87500000Y-105500000D03*
D16*
%TO.P,J4,2,Pin_2*%
%TO.N,/1WIRE_BUS2_PROT*%
X92500000Y-105500000D03*
%TO.P,J4,3,Pin_3*%
%TO.N,/3V3_PROT_1WIRE*%
X97500000Y-105500000D03*
%TD*%
D21*
%TO.P,D3,1,K*%
%TO.N,/1WIRE_BUS2*%
X72580000Y-72500000D03*
D18*
%TO.P,D3,2,A*%
%TO.N,GND*%
X62420000Y-72500000D03*
%TD*%
D11*
%TO.P,R4,1*%
%TO.N,/SCL*%
X114080000Y-62000000D03*
%TO.P,R4,2*%
%TO.N,+3V3*%
X103920000Y-62000000D03*
%TD*%
D21*
%TO.P,D2,1,K*%
%TO.N,/1WIRE_BUS1*%
X58580000Y-72500000D03*
D18*
%TO.P,D2,2,A*%
%TO.N,GND*%
X48420000Y-72500000D03*
%TD*%
D15*
%TO.P,J1,1,Pin_1*%
%TO.N,GND*%
X57500000Y-105500000D03*
D16*
%TO.P,J1,2,Pin_2*%
%TO.N,/+BATT*%
X62500000Y-105500000D03*
%TD*%
D22*
%TO.N,/1WIRE_BUS2*%
X81876200Y-94257400D03*
%TO.N,/1WIRE_BUS1*%
X62739300Y-80494500D03*
%TD*%
D23*
%TO.N,/+BATT_PROT*%
X53152700Y-90847300D02*
X53152700Y-93000000D01*
X56380000Y-87620000D02*
X53152700Y-90847300D01*
X56380000Y-87340000D02*
X56380000Y-87620000D01*
D24*
%TO.N,/3V3_2*%
X112673900Y-65093900D02*
X114080000Y-66500000D01*
X82892000Y-65093900D02*
X112673900Y-65093900D01*
X70485900Y-77500000D02*
X82892000Y-65093900D01*
X63420000Y-77500000D02*
X70485900Y-77500000D01*
X115481700Y-65098300D02*
X114080000Y-66500000D01*
X126178300Y-65098300D02*
X115481700Y-65098300D01*
X127580000Y-66500000D02*
X126178300Y-65098300D01*
X64985400Y-82500000D02*
X63420000Y-82500000D01*
X73684900Y-91199500D02*
X64985400Y-82500000D01*
X75101500Y-91199500D02*
X73684900Y-91199500D01*
X81774200Y-97872200D02*
X75101500Y-91199500D01*
X121407800Y-97872200D02*
X81774200Y-97872200D01*
X122780000Y-96500000D02*
X121407800Y-97872200D01*
%TO.N,/3V3_PROT_I2C*%
X73054900Y-92554900D02*
X69000000Y-88500000D01*
X74540300Y-92554900D02*
X73054900Y-92554900D01*
X83854200Y-101868800D02*
X74540300Y-92554900D01*
X106368800Y-101868800D02*
X83854200Y-101868800D01*
X110000000Y-105500000D02*
X106368800Y-101868800D01*
D25*
%TO.N,/SCL_PROT*%
X123080000Y-66500000D02*
X117420000Y-66500000D01*
X127580000Y-71000000D02*
X123080000Y-66500000D01*
%TO.N,/1WIRE_BUS2*%
X67080000Y-67000000D02*
X72580000Y-72500000D01*
X62420000Y-67000000D02*
X67080000Y-67000000D01*
X102757400Y-94257400D02*
X105000000Y-96500000D01*
X81876200Y-94257400D02*
X102757400Y-94257400D01*
%TO.N,/1WIRE_BUS1*%
X91534500Y-80494500D02*
X107540000Y-96500000D01*
X62739300Y-80494500D02*
X91534500Y-80494500D01*
%TO.N,/1WIRE_BUS2_PROT*%
X67580000Y-62000000D02*
X62500000Y-62000000D01*
X72580000Y-67000000D02*
X67580000Y-62000000D01*
%TO.N,/1WIRE_BUS1_PROT*%
X53420000Y-67000000D02*
X58580000Y-67000000D01*
X48420000Y-62000000D02*
X53420000Y-67000000D01*
D24*
%TO.N,/3V3_PROT_1WIRE*%
X95588400Y-107411600D02*
X97500000Y-105500000D01*
X81911600Y-107411600D02*
X95588400Y-107411600D01*
X80000000Y-105500000D02*
X81911600Y-107411600D01*
X60038100Y-60541900D02*
X58580000Y-62000000D01*
X71201900Y-60541900D02*
X60038100Y-60541900D01*
X72660000Y-62000000D02*
X71201900Y-60541900D01*
D25*
%TO.N,/SDA_PROT*%
X108420000Y-71000000D02*
X114080000Y-71000000D01*
X103920000Y-66500000D02*
X108420000Y-71000000D01*
D23*
%TO.N,+5V*%
X62665700Y-79006000D02*
X58671700Y-83000000D01*
X97094000Y-79006000D02*
X62665700Y-79006000D01*
X99920000Y-76180000D02*
X97094000Y-79006000D01*
X57120000Y-83000000D02*
X58671700Y-83000000D01*
X60580000Y-83000000D02*
X58671700Y-83000000D01*
X65000000Y-87420000D02*
X60580000Y-83000000D01*
D25*
%TO.N,/SDA*%
X106447200Y-73527200D02*
X103920000Y-71000000D01*
X120127200Y-73527200D02*
X106447200Y-73527200D01*
X122780000Y-76180000D02*
X120127200Y-73527200D01*
D24*
%TO.N,+3V3*%
X115958000Y-63462000D02*
X117420000Y-62000000D01*
X105382000Y-63462000D02*
X115958000Y-63462000D01*
X103920000Y-62000000D02*
X105382000Y-63462000D01*
X100394000Y-62000000D02*
X87040000Y-48646000D01*
X103920000Y-62000000D02*
X100394000Y-62000000D01*
D23*
%TO.N,/+BATT*%
X64920000Y-97500000D02*
X65000000Y-97580000D01*
X59500000Y-97500000D02*
X64920000Y-97500000D01*
D26*
%TO.N,GND*%
X50495600Y-70424400D02*
X48420000Y-72500000D01*
X60344400Y-70424400D02*
X50495600Y-70424400D01*
X62420000Y-72500000D02*
X60344400Y-70424400D01*
X59779500Y-103220500D02*
X57500000Y-105500000D01*
X70000000Y-103220500D02*
X59779500Y-103220500D01*
X85220500Y-103220500D02*
X87500000Y-105500000D01*
X70000000Y-103220500D02*
X85220500Y-103220500D01*
X70000000Y-105500000D02*
X70000000Y-103220500D01*
D23*
%TO.N,/+BATT_PROT*%
X56380000Y-87340000D02*
X52040000Y-83000000D01*
X59500000Y-87340000D02*
X56380000Y-87340000D01*
%TD*%
%TA.AperFunction,Conductor*%
%TO.N,GND*%
G36*
X126053042Y-46520185D02*
G01*
X126098797Y-46572989D01*
X126108741Y-46642147D01*
X126079716Y-46705703D01*
X126021999Y-46743160D01*
X125952049Y-46764378D01*
X125853022Y-46794418D01*
X125544343Y-46922278D01*
X125544338Y-46922280D01*
X125249696Y-47079769D01*
X125249678Y-47079780D01*
X124971890Y-47265393D01*
X124971876Y-47265403D01*
X124713604Y-47477361D01*
X124477361Y-47713604D01*
X124265403Y-47971876D01*
X124265393Y-47971890D01*
X124079780Y-48249678D01*
X124079769Y-48249696D01*
X123922280Y-48544338D01*
X123922278Y-48544343D01*
X123794418Y-48853022D01*
X123697428Y-49172758D01*
X123697425Y-49172769D01*
X123632250Y-49500434D01*
X123632247Y-49500451D01*
X123612650Y-49699429D01*
X123599562Y-49832322D01*
X123599500Y-49832947D01*
X123599500Y-50167052D01*
X123632247Y-50499548D01*
X123632250Y-50499565D01*
X123697425Y-50827230D01*
X123697428Y-50827241D01*
X123794418Y-51146977D01*
X123922278Y-51455656D01*
X123922280Y-51455661D01*
X124079769Y-51750303D01*
X124079780Y-51750321D01*
X124265393Y-52028109D01*
X124265403Y-52028123D01*
X124477361Y-52286395D01*
X124713604Y-52522638D01*
X124713609Y-52522642D01*
X124713610Y-52522643D01*
X124971882Y-52734601D01*
X125249685Y-52920224D01*
X125249694Y-52920229D01*
X125249696Y-52920230D01*
X125544338Y-53077719D01*
X125544340Y-53077719D01*
X125544346Y-53077723D01*
X125853024Y-53205582D01*
X126172749Y-53302569D01*
X126172755Y-53302570D01*
X126172758Y-53302571D01*
X126172769Y-53302574D01*
X126378243Y-53343444D01*
X126500441Y-53367751D01*
X126500450Y-53367751D01*
X126500451Y-53367752D01*
X126590252Y-53376597D01*
X126655039Y-53402758D01*
X126695398Y-53459792D01*
X126698515Y-53529592D01*
X126663400Y-53589997D01*
X126601203Y-53621828D01*
X126590252Y-53623403D01*
X126500451Y-53632247D01*
X126500434Y-53632250D01*
X126172769Y-53697425D01*
X126172758Y-53697428D01*
X125853022Y-53794418D01*
X125544343Y-53922278D01*
X125544338Y-53922280D01*
X125249696Y-54079769D01*
X125249678Y-54079780D01*
X124971890Y-54265393D01*
X124971876Y-54265403D01*
X124713604Y-54477361D01*
X124477361Y-54713604D01*
X124265403Y-54971876D01*
X124265393Y-54971890D01*
X124079780Y-55249678D01*
X124079769Y-55249696D01*
X123922280Y-55544338D01*
X123922278Y-55544343D01*
X123794418Y-55853022D01*
X123697428Y-56172758D01*
X123697425Y-56172769D01*
X123632250Y-56500434D01*
X123632247Y-56500451D01*
X123599500Y-56832947D01*
X123599500Y-57167052D01*
X123632247Y-57499548D01*
X123632250Y-57499565D01*
X123697425Y-57827230D01*
X123697428Y-57827241D01*
X123794418Y-58146977D01*
X123922278Y-58455656D01*
X123922280Y-58455661D01*
X124079769Y-58750303D01*
X124079780Y-58750321D01*
X124265393Y-59028109D01*
X124265403Y-59028123D01*
X124477361Y-59286395D01*
X124713604Y-59522638D01*
X124713609Y-59522642D01*
X124713610Y-59522643D01*
X124971882Y-59734601D01*
X125249685Y-59920224D01*
X125249694Y-59920229D01*
X125249696Y-59920230D01*
X125544338Y-60077719D01*
X125544340Y-60077719D01*
X125544346Y-60077723D01*
X125853024Y-60205582D01*
X126172749Y-60302569D01*
X126172755Y-60302570D01*
X126172758Y-60302571D01*
X126172769Y-60302574D01*
X126378243Y-60343444D01*
X126500441Y-60367751D01*
X126832944Y-60400500D01*
X126832947Y-60400500D01*
X127167053Y-60400500D01*
X127167056Y-60400500D01*
X127499559Y-60367751D01*
X127661757Y-60335487D01*
X127827230Y-60302574D01*
X127827241Y-60302571D01*
X127827241Y-60302570D01*
X127827251Y-60302569D01*
X128146976Y-60205582D01*
X128455654Y-60077723D01*
X128750315Y-59920224D01*
X129028118Y-59734601D01*
X129286390Y-59522643D01*
X129522643Y-59286390D01*
X129734601Y-59028118D01*
X129920224Y-58750315D01*
X130077723Y-58455654D01*
X130205582Y-58146976D01*
X130256840Y-57977998D01*
X130295137Y-57919562D01*
X130358949Y-57891106D01*
X130428016Y-57901666D01*
X130480409Y-57947890D01*
X130499500Y-58013996D01*
X130499500Y-74376000D01*
X130479815Y-74443039D01*
X130427011Y-74488794D01*
X130375500Y-74500000D01*
X124500000Y-74500000D01*
X124500000Y-107000000D01*
X130375500Y-107000000D01*
X130442539Y-107019685D01*
X130488294Y-107072489D01*
X130499500Y-107124000D01*
X130499500Y-109986003D01*
X130479815Y-110053042D01*
X130427011Y-110098797D01*
X130357853Y-110108741D01*
X130294297Y-110079716D01*
X130256839Y-110021998D01*
X130245920Y-109986003D01*
X130205582Y-109853024D01*
X130077723Y-109544346D01*
X129920224Y-109249685D01*
X129734601Y-108971882D01*
X129522643Y-108713610D01*
X129522642Y-108713609D01*
X129522638Y-108713604D01*
X129286395Y-108477361D01*
X129028123Y-108265403D01*
X129028122Y-108265402D01*
X129028118Y-108265399D01*
X128750315Y-108079776D01*
X128750310Y-108079773D01*
X128750303Y-108079769D01*
X128455661Y-107922280D01*
X128455656Y-107922278D01*
X128146977Y-107794418D01*
X127827241Y-107697428D01*
X127827230Y-107697425D01*
X127499565Y-107632250D01*
X127499548Y-107632247D01*
X127248108Y-107607483D01*
X127167056Y-107599500D01*
X126832944Y-107599500D01*
X126757982Y-107606883D01*
X126500451Y-107632247D01*
X126500434Y-107632250D01*
X126172769Y-107697425D01*
X126172758Y-107697428D01*
X125853022Y-107794418D01*
X125544343Y-107922278D01*
X125544338Y-107922280D01*
X125249696Y-108079769D01*
X125249678Y-108079780D01*
X124971890Y-108265393D01*
X124971876Y-108265403D01*
X124713604Y-108477361D01*
X124477361Y-108713604D01*
X124265403Y-108971876D01*
X124265393Y-108971890D01*
X124079780Y-109249678D01*
X124079769Y-109249696D01*
X123922280Y-109544338D01*
X123922278Y-109544343D01*
X123794418Y-109853022D01*
X123697428Y-110172758D01*
X123697425Y-110172769D01*
X123632250Y-110500434D01*
X123632247Y-110500451D01*
X123599500Y-110832947D01*
X123599500Y-111167052D01*
X123632247Y-111499548D01*
X123632250Y-111499565D01*
X123697425Y-111827230D01*
X123697428Y-111827241D01*
X123794418Y-112146977D01*
X123922278Y-112455656D01*
X123922280Y-112455661D01*
X124079769Y-112750303D01*
X124079780Y-112750321D01*
X124265393Y-113028109D01*
X124265403Y-113028123D01*
X124477361Y-113286395D01*
X124713604Y-113522638D01*
X124713609Y-113522642D01*
X124713610Y-113522643D01*
X124971882Y-113734601D01*
X125249685Y-113920224D01*
X125249694Y-113920229D01*
X125249696Y-113920230D01*
X125544338Y-114077719D01*
X125544340Y-114077719D01*
X125544346Y-114077723D01*
X125853024Y-114205582D01*
X126172749Y-114302569D01*
X126172755Y-114302570D01*
X126172758Y-114302571D01*
X126172769Y-114302574D01*
X126378243Y-114343444D01*
X126500441Y-114367751D01*
X126500450Y-114367751D01*
X126500451Y-114367752D01*
X126590252Y-114376597D01*
X126655039Y-114402758D01*
X126695398Y-114459792D01*
X126698515Y-114529592D01*
X126663400Y-114589997D01*
X126601203Y-114621828D01*
X126590252Y-114623403D01*
X126500451Y-114632247D01*
X126500434Y-114632250D01*
X126172769Y-114697425D01*
X126172758Y-114697428D01*
X125853022Y-114794418D01*
X125544343Y-114922278D01*
X125544338Y-114922280D01*
X125249696Y-115079769D01*
X125249678Y-115079780D01*
X124971890Y-115265393D01*
X124971876Y-115265403D01*
X124713604Y-115477361D01*
X124477361Y-115713604D01*
X124265403Y-115971876D01*
X124265393Y-115971890D01*
X124079780Y-116249678D01*
X124079769Y-116249696D01*
X123922280Y-116544338D01*
X123922278Y-116544343D01*
X123794418Y-116853022D01*
X123697428Y-117172758D01*
X123697425Y-117172769D01*
X123632250Y-117500434D01*
X123632247Y-117500451D01*
X123599500Y-117832947D01*
X123599500Y-118167052D01*
X123632247Y-118499548D01*
X123632250Y-118499565D01*
X123697425Y-118827230D01*
X123697428Y-118827241D01*
X123794418Y-119146977D01*
X123922278Y-119455656D01*
X123922280Y-119455661D01*
X124079769Y-119750303D01*
X124079780Y-119750321D01*
X124265393Y-120028109D01*
X124265403Y-120028123D01*
X124477361Y-120286395D01*
X124713604Y-120522638D01*
X124713609Y-120522642D01*
X124713610Y-120522643D01*
X124971882Y-120734601D01*
X125249685Y-120920224D01*
X125249694Y-120920229D01*
X125249696Y-120920230D01*
X125544338Y-121077719D01*
X125544340Y-121077719D01*
X125544346Y-121077723D01*
X125853024Y-121205582D01*
X126021999Y-121256839D01*
X126080437Y-121295137D01*
X126108893Y-121358949D01*
X126098333Y-121428016D01*
X126052109Y-121480409D01*
X125986003Y-121499500D01*
X51013997Y-121499500D01*
X50946958Y-121479815D01*
X50901203Y-121427011D01*
X50891259Y-121357853D01*
X50920284Y-121294297D01*
X50978000Y-121256839D01*
X51146976Y-121205582D01*
X51455654Y-121077723D01*
X51750315Y-120920224D01*
X52028118Y-120734601D01*
X52286390Y-120522643D01*
X52522643Y-120286390D01*
X52734601Y-120028118D01*
X52920224Y-119750315D01*
X53077723Y-119455654D01*
X53205582Y-119146976D01*
X53302569Y-118827251D01*
X53302571Y-118827241D01*
X53302574Y-118827230D01*
X53335487Y-118661757D01*
X53367751Y-118499559D01*
X53400500Y-118167056D01*
X53400500Y-117832944D01*
X53367751Y-117500441D01*
X53343444Y-117378243D01*
X53302574Y-117172769D01*
X53302571Y-117172758D01*
X53302570Y-117172755D01*
X53302569Y-117172749D01*
X53205582Y-116853024D01*
X53077723Y-116544346D01*
X52920224Y-116249685D01*
X52734601Y-115971882D01*
X52522643Y-115713610D01*
X52522642Y-115713609D01*
X52522638Y-115713604D01*
X52286395Y-115477361D01*
X52028123Y-115265403D01*
X52028122Y-115265402D01*
X52028118Y-115265399D01*
X51750315Y-115079776D01*
X51750310Y-115079773D01*
X51750303Y-115079769D01*
X51455661Y-114922280D01*
X51455656Y-114922278D01*
X51146977Y-114794418D01*
X50827241Y-114697428D01*
X50827230Y-114697425D01*
X50499565Y-114632250D01*
X50499548Y-114632247D01*
X50409747Y-114623403D01*
X50344960Y-114597242D01*
X50304601Y-114540208D01*
X50301484Y-114470408D01*
X50336598Y-114410003D01*
X50398796Y-114378172D01*
X50409747Y-114376597D01*
X50473626Y-114370305D01*
X50499559Y-114367751D01*
X50661757Y-114335487D01*
X50827230Y-114302574D01*
X50827241Y-114302571D01*
X50827241Y-114302570D01*
X50827251Y-114302569D01*
X51146976Y-114205582D01*
X51455654Y-114077723D01*
X51750315Y-113920224D01*
X52028118Y-113734601D01*
X52286390Y-113522643D01*
X52522643Y-113286390D01*
X52734601Y-113028118D01*
X52920224Y-112750315D01*
X53077723Y-112455654D01*
X53205582Y-112146976D01*
X53302569Y-111827251D01*
X53302571Y-111827241D01*
X53302574Y-111827230D01*
X53335487Y-111661757D01*
X53367751Y-111499559D01*
X53400500Y-111167056D01*
X53400500Y-110832944D01*
X53367751Y-110500441D01*
X53343444Y-110378243D01*
X53302574Y-110172769D01*
X53302571Y-110172758D01*
X53302570Y-110172755D01*
X53302569Y-110172749D01*
X53205582Y-109853024D01*
X53077723Y-109544346D01*
X52920224Y-109249685D01*
X52734601Y-108971882D01*
X52522643Y-108713610D01*
X52522642Y-108713609D01*
X52522638Y-108713604D01*
X52286395Y-108477361D01*
X52028123Y-108265403D01*
X52028122Y-108265402D01*
X52028118Y-108265399D01*
X51750315Y-108079776D01*
X51750310Y-108079773D01*
X51750303Y-108079769D01*
X51455661Y-107922280D01*
X51455656Y-107922278D01*
X51146977Y-107794418D01*
X50827241Y-107697428D01*
X50827230Y-107697425D01*
X50499565Y-107632250D01*
X50499548Y-107632247D01*
X50248108Y-107607483D01*
X50167056Y-107599500D01*
X49832944Y-107599500D01*
X49757982Y-107606883D01*
X49500451Y-107632247D01*
X49500434Y-107632250D01*
X49172769Y-107697425D01*
X49172758Y-107697428D01*
X48853022Y-107794418D01*
X48544343Y-107922278D01*
X48544338Y-107922280D01*
X48249696Y-108079769D01*
X48249678Y-108079780D01*
X47971890Y-108265393D01*
X47971876Y-108265403D01*
X47713604Y-108477361D01*
X47477361Y-108713604D01*
X47265403Y-108971876D01*
X47265393Y-108971890D01*
X47079780Y-109249678D01*
X47079769Y-109249696D01*
X46922280Y-109544338D01*
X46922278Y-109544343D01*
X46794418Y-109853022D01*
X46764378Y-109952049D01*
X46754080Y-109986003D01*
X46743161Y-110021998D01*
X46704863Y-110080437D01*
X46641051Y-110108893D01*
X46571984Y-110098333D01*
X46519591Y-110052109D01*
X46500500Y-109986003D01*
X46500500Y-104400013D01*
X55700000Y-104400013D01*
X55700000Y-105250000D01*
X56899999Y-105250000D01*
X56874979Y-105310402D01*
X56850000Y-105435981D01*
X56850000Y-105564019D01*
X56874979Y-105689598D01*
X56899999Y-105750000D01*
X55700001Y-105750000D01*
X55700001Y-106599986D01*
X55710494Y-106702697D01*
X55765641Y-106869119D01*
X55765643Y-106869124D01*
X55857684Y-107018345D01*
X55981654Y-107142315D01*
X56130875Y-107234356D01*
X56130880Y-107234358D01*
X56297302Y-107289505D01*
X56297309Y-107289506D01*
X56400019Y-107299999D01*
X57249999Y-107299999D01*
X57250000Y-107299998D01*
X57250000Y-106100001D01*
X57310402Y-106125021D01*
X57435981Y-106150000D01*
X57564019Y-106150000D01*
X57689598Y-106125021D01*
X57750000Y-106100001D01*
X57750000Y-107299999D01*
X58599972Y-107299999D01*
X58599986Y-107299998D01*
X58702697Y-107289505D01*
X58869119Y-107234358D01*
X58869124Y-107234356D01*
X59018345Y-107142315D01*
X59142315Y-107018345D01*
X59234356Y-106869124D01*
X59234358Y-106869119D01*
X59289505Y-106702697D01*
X59289506Y-106702690D01*
X59299999Y-106599986D01*
X59300000Y-106599973D01*
X59300000Y-105750000D01*
X58100001Y-105750000D01*
X58125021Y-105689598D01*
X58150000Y-105564019D01*
X58150000Y-105435981D01*
X58139243Y-105381902D01*
X60999500Y-105381902D01*
X60999500Y-105618097D01*
X61036446Y-105851368D01*
X61109433Y-106075996D01*
X61216657Y-106286433D01*
X61355483Y-106477510D01*
X61522490Y-106644517D01*
X61713567Y-106783343D01*
X61812991Y-106834002D01*
X61924003Y-106890566D01*
X61924005Y-106890566D01*
X61924008Y-106890568D01*
X62012476Y-106919313D01*
X62148631Y-106963553D01*
X62381903Y-107000500D01*
X62381908Y-107000500D01*
X62618097Y-107000500D01*
X62851368Y-106963553D01*
X62884468Y-106952798D01*
X63075992Y-106890568D01*
X63286433Y-106783343D01*
X63477510Y-106644517D01*
X63644517Y-106477510D01*
X63783343Y-106286433D01*
X63890568Y-106075992D01*
X63963553Y-105851368D01*
X63989175Y-105689598D01*
X63990816Y-105679240D01*
X64000500Y-105618097D01*
X64000500Y-105381902D01*
X63963553Y-105148631D01*
X63901534Y-104957758D01*
X63890568Y-104924008D01*
X63890566Y-104924005D01*
X63890566Y-104924003D01*
X63783342Y-104713566D01*
X63644517Y-104522490D01*
X63522040Y-104400013D01*
X68200000Y-104400013D01*
X68200000Y-105250000D01*
X69399999Y-105250000D01*
X69374979Y-105310402D01*
X69350000Y-105435981D01*
X69350000Y-105564019D01*
X69374979Y-105689598D01*
X69399999Y-105750000D01*
X68200001Y-105750000D01*
X68200001Y-106599986D01*
X68210494Y-106702697D01*
X68265641Y-106869119D01*
X68265643Y-106869124D01*
X68357684Y-107018345D01*
X68481654Y-107142315D01*
X68630875Y-107234356D01*
X68630880Y-107234358D01*
X68797302Y-107289505D01*
X68797309Y-107289506D01*
X68900019Y-107299999D01*
X69749999Y-107299999D01*
X69750000Y-107299998D01*
X69750000Y-106100001D01*
X69810402Y-106125021D01*
X69935981Y-106150000D01*
X70064019Y-106150000D01*
X70189598Y-106125021D01*
X70250000Y-106100001D01*
X70250000Y-107299999D01*
X71099972Y-107299999D01*
X71099986Y-107299998D01*
X71202697Y-107289505D01*
X71369119Y-107234358D01*
X71369124Y-107234356D01*
X71518345Y-107142315D01*
X71642315Y-107018345D01*
X71734356Y-106869124D01*
X71734358Y-106869119D01*
X71789505Y-106702697D01*
X71789506Y-106702690D01*
X71799999Y-106599986D01*
X71800000Y-106599973D01*
X71800000Y-105750000D01*
X70600001Y-105750000D01*
X70625021Y-105689598D01*
X70650000Y-105564019D01*
X70650000Y-105435981D01*
X70639243Y-105381902D01*
X73499500Y-105381902D01*
X73499500Y-105618097D01*
X73536446Y-105851368D01*
X73609433Y-106075996D01*
X73716657Y-106286433D01*
X73855483Y-106477510D01*
X74022490Y-106644517D01*
X74213567Y-106783343D01*
X74312991Y-106834002D01*
X74424003Y-106890566D01*
X74424005Y-106890566D01*
X74424008Y-106890568D01*
X74512476Y-106919313D01*
X74648631Y-106963553D01*
X74881903Y-107000500D01*
X74881908Y-107000500D01*
X75118097Y-107000500D01*
X75351368Y-106963553D01*
X75384468Y-106952798D01*
X75575992Y-106890568D01*
X75786433Y-106783343D01*
X75977510Y-106644517D01*
X76144517Y-106477510D01*
X76283343Y-106286433D01*
X76390568Y-106075992D01*
X76463553Y-105851368D01*
X76489175Y-105689598D01*
X76500500Y-105618097D01*
X76500500Y-105381902D01*
X78499500Y-105381902D01*
X78499500Y-105618097D01*
X78536446Y-105851368D01*
X78609433Y-106075996D01*
X78716657Y-106286433D01*
X78855483Y-106477510D01*
X79022490Y-106644517D01*
X79213567Y-106783343D01*
X79312991Y-106834002D01*
X79424003Y-106890566D01*
X79424005Y-106890566D01*
X79424008Y-106890568D01*
X79512476Y-106919313D01*
X79648631Y-106963553D01*
X79881903Y-107000500D01*
X79881908Y-107000500D01*
X80118097Y-107000500D01*
X80224126Y-106983705D01*
X80351368Y-106963553D01*
X80477566Y-106922547D01*
X80547404Y-106920553D01*
X80603562Y-106952797D01*
X81542884Y-107892120D01*
X81542886Y-107892121D01*
X81542890Y-107892124D01*
X81679809Y-107971173D01*
X81679816Y-107971177D01*
X81832543Y-108012101D01*
X81832545Y-108012101D01*
X81998254Y-108012101D01*
X81998270Y-108012100D01*
X95501731Y-108012100D01*
X95501747Y-108012101D01*
X95509343Y-108012101D01*
X95667454Y-108012101D01*
X95667457Y-108012101D01*
X95820185Y-107971177D01*
X95870304Y-107942239D01*
X95957116Y-107892120D01*
X96068920Y-107780316D01*
X96068920Y-107780314D01*
X96079128Y-107770107D01*
X96079130Y-107770104D01*
X96896437Y-106952796D01*
X96957758Y-106919313D01*
X97022433Y-106922547D01*
X97148632Y-106963553D01*
X97236110Y-106977408D01*
X97381903Y-107000500D01*
X97381908Y-107000500D01*
X97618097Y-107000500D01*
X97851368Y-106963553D01*
X97884468Y-106952798D01*
X98075992Y-106890568D01*
X98286433Y-106783343D01*
X98477510Y-106644517D01*
X98644517Y-106477510D01*
X98783343Y-106286433D01*
X98890568Y-106075992D01*
X98963553Y-105851368D01*
X98989175Y-105689598D01*
X98990816Y-105679240D01*
X99000500Y-105618097D01*
X99000500Y-105381902D01*
X98963553Y-105148631D01*
X98901534Y-104957758D01*
X98890568Y-104924008D01*
X98890566Y-104924005D01*
X98890566Y-104924003D01*
X98783342Y-104713566D01*
X98644517Y-104522490D01*
X98522040Y-104400013D01*
X103200000Y-104400013D01*
X103200000Y-105250000D01*
X104399999Y-105250000D01*
X104374979Y-105310402D01*
X104350000Y-105435981D01*
X104350000Y-105564019D01*
X104374979Y-105689598D01*
X104399999Y-105750000D01*
X103200001Y-105750000D01*
X103200001Y-106599986D01*
X103210494Y-106702697D01*
X103265641Y-106869119D01*
X103265643Y-106869124D01*
X103357684Y-107018345D01*
X103481654Y-107142315D01*
X103630875Y-107234356D01*
X103630880Y-107234358D01*
X103797302Y-107289505D01*
X103797309Y-107289506D01*
X103900019Y-107299999D01*
X104749999Y-107299999D01*
X104750000Y-107299998D01*
X104750000Y-106100001D01*
X104810402Y-106125021D01*
X104935981Y-106150000D01*
X105064019Y-106150000D01*
X105189598Y-106125021D01*
X105250000Y-106100001D01*
X105250000Y-107299999D01*
X106099972Y-107299999D01*
X106099986Y-107299998D01*
X106202697Y-107289505D01*
X106369119Y-107234358D01*
X106369124Y-107234356D01*
X106518345Y-107142315D01*
X106642315Y-107018345D01*
X106734356Y-106869124D01*
X106734358Y-106869119D01*
X106789505Y-106702697D01*
X106789506Y-106702690D01*
X106799999Y-106599986D01*
X106800000Y-106599973D01*
X106800000Y-105750000D01*
X105600001Y-105750000D01*
X105625021Y-105689598D01*
X105650000Y-105564019D01*
X105650000Y-105435981D01*
X105625021Y-105310402D01*
X105600001Y-105250000D01*
X106799999Y-105250000D01*
X106799999Y-104400028D01*
X106799998Y-104400013D01*
X106789505Y-104297302D01*
X106734358Y-104130880D01*
X106734356Y-104130875D01*
X106642315Y-103981654D01*
X106518345Y-103857684D01*
X106369124Y-103765643D01*
X106369119Y-103765641D01*
X106202697Y-103710494D01*
X106202690Y-103710493D01*
X106099986Y-103700000D01*
X105250000Y-103700000D01*
X105250000Y-104899998D01*
X105189598Y-104874979D01*
X105064019Y-104850000D01*
X104935981Y-104850000D01*
X104810402Y-104874979D01*
X104750000Y-104899998D01*
X104750000Y-103700000D01*
X103900028Y-103700000D01*
X103900012Y-103700001D01*
X103797302Y-103710494D01*
X103630880Y-103765641D01*
X103630875Y-103765643D01*
X103481654Y-103857684D01*
X103357684Y-103981654D01*
X103265643Y-104130875D01*
X103265641Y-104130880D01*
X103210494Y-104297302D01*
X103210493Y-104297309D01*
X103200000Y-104400013D01*
X98522040Y-104400013D01*
X98477510Y-104355483D01*
X98286433Y-104216657D01*
X98075996Y-104109433D01*
X97851368Y-104036446D01*
X97618097Y-103999500D01*
X97618092Y-103999500D01*
X97381908Y-103999500D01*
X97381903Y-103999500D01*
X97148631Y-104036446D01*
X96924003Y-104109433D01*
X96713566Y-104216657D01*
X96604550Y-104295862D01*
X96522490Y-104355483D01*
X96522488Y-104355485D01*
X96522487Y-104355485D01*
X96355485Y-104522487D01*
X96355485Y-104522488D01*
X96355483Y-104522490D01*
X96295862Y-104604550D01*
X96216657Y-104713566D01*
X96109433Y-104924003D01*
X96036446Y-105148631D01*
X95999500Y-105381902D01*
X95999500Y-105618097D01*
X96036447Y-105851369D01*
X96036447Y-105851372D01*
X96077450Y-105977564D01*
X96079445Y-106047405D01*
X96047200Y-106103563D01*
X95375984Y-106774781D01*
X95314661Y-106808266D01*
X95288303Y-106811100D01*
X93610289Y-106811100D01*
X93543250Y-106791415D01*
X93497495Y-106738611D01*
X93487551Y-106669453D01*
X93516576Y-106605897D01*
X93522608Y-106599419D01*
X93644517Y-106477510D01*
X93783343Y-106286433D01*
X93890568Y-106075992D01*
X93963553Y-105851368D01*
X93989175Y-105689598D01*
X94000500Y-105618097D01*
X94000500Y-105381902D01*
X93963553Y-105148631D01*
X93901534Y-104957758D01*
X93890568Y-104924008D01*
X93890566Y-104924005D01*
X93890566Y-104924003D01*
X93783342Y-104713566D01*
X93644517Y-104522490D01*
X93477510Y-104355483D01*
X93286433Y-104216657D01*
X93075996Y-104109433D01*
X92851368Y-104036446D01*
X92618097Y-103999500D01*
X92618092Y-103999500D01*
X92381908Y-103999500D01*
X92381903Y-103999500D01*
X92148631Y-104036446D01*
X91924003Y-104109433D01*
X91713566Y-104216657D01*
X91604550Y-104295862D01*
X91522490Y-104355483D01*
X91522488Y-104355485D01*
X91522487Y-104355485D01*
X91355485Y-104522487D01*
X91355485Y-104522488D01*
X91355483Y-104522490D01*
X91295862Y-104604550D01*
X91216657Y-104713566D01*
X91109433Y-104924003D01*
X91036446Y-105148631D01*
X90999500Y-105381902D01*
X90999500Y-105618097D01*
X91036446Y-105851368D01*
X91109433Y-106075996D01*
X91216657Y-106286433D01*
X91355483Y-106477510D01*
X91355485Y-106477512D01*
X91477392Y-106599419D01*
X91510877Y-106660742D01*
X91505893Y-106730434D01*
X91464021Y-106786367D01*
X91398557Y-106810784D01*
X91389711Y-106811100D01*
X89415745Y-106811100D01*
X89348706Y-106791415D01*
X89302951Y-106738611D01*
X89292387Y-106674497D01*
X89299999Y-106599986D01*
X89300000Y-106599973D01*
X89300000Y-105750000D01*
X88100001Y-105750000D01*
X88125021Y-105689598D01*
X88150000Y-105564019D01*
X88150000Y-105435981D01*
X88125021Y-105310402D01*
X88100001Y-105250000D01*
X89299999Y-105250000D01*
X89299999Y-104400028D01*
X89299998Y-104400013D01*
X89289505Y-104297302D01*
X89234358Y-104130880D01*
X89234356Y-104130875D01*
X89142315Y-103981654D01*
X89018345Y-103857684D01*
X88869124Y-103765643D01*
X88869119Y-103765641D01*
X88702697Y-103710494D01*
X88702690Y-103710493D01*
X88599986Y-103700000D01*
X87750000Y-103700000D01*
X87750000Y-104899998D01*
X87689598Y-104874979D01*
X87564019Y-104850000D01*
X87435981Y-104850000D01*
X87310402Y-104874979D01*
X87250000Y-104899998D01*
X87250000Y-103700000D01*
X86400028Y-103700000D01*
X86400012Y-103700001D01*
X86297302Y-103710494D01*
X86130880Y-103765641D01*
X86130875Y-103765643D01*
X85981654Y-103857684D01*
X85857684Y-103981654D01*
X85765643Y-104130875D01*
X85765641Y-104130880D01*
X85710494Y-104297302D01*
X85710493Y-104297309D01*
X85700000Y-104400013D01*
X85700000Y-105250000D01*
X86899999Y-105250000D01*
X86874979Y-105310402D01*
X86850000Y-105435981D01*
X86850000Y-105564019D01*
X86874979Y-105689598D01*
X86899999Y-105750000D01*
X85700001Y-105750000D01*
X85700001Y-106599989D01*
X85707613Y-106674499D01*
X85694843Y-106743192D01*
X85646962Y-106794076D01*
X85584255Y-106811100D01*
X82211698Y-106811100D01*
X82144659Y-106791415D01*
X82124017Y-106774781D01*
X81452798Y-106103563D01*
X81419313Y-106042240D01*
X81422547Y-105977566D01*
X81463553Y-105851368D01*
X81489175Y-105689598D01*
X81500500Y-105618097D01*
X81500500Y-105381902D01*
X81463553Y-105148631D01*
X81401534Y-104957758D01*
X81390568Y-104924008D01*
X81390566Y-104924005D01*
X81390566Y-104924003D01*
X81283342Y-104713566D01*
X81144517Y-104522490D01*
X80977510Y-104355483D01*
X80786433Y-104216657D01*
X80575996Y-104109433D01*
X80351368Y-104036446D01*
X80118097Y-103999500D01*
X80118092Y-103999500D01*
X79881908Y-103999500D01*
X79881903Y-103999500D01*
X79648631Y-104036446D01*
X79424003Y-104109433D01*
X79213566Y-104216657D01*
X79104550Y-104295862D01*
X79022490Y-104355483D01*
X79022488Y-104355485D01*
X79022487Y-104355485D01*
X78855485Y-104522487D01*
X78855485Y-104522488D01*
X78855483Y-104522490D01*
X78795862Y-104604550D01*
X78716657Y-104713566D01*
X78609433Y-104924003D01*
X78536446Y-105148631D01*
X78499500Y-105381902D01*
X76500500Y-105381902D01*
X76463553Y-105148631D01*
X76401534Y-104957758D01*
X76390568Y-104924008D01*
X76390566Y-104924005D01*
X76390566Y-104924003D01*
X76283342Y-104713566D01*
X76144517Y-104522490D01*
X75977510Y-104355483D01*
X75786433Y-104216657D01*
X75575996Y-104109433D01*
X75351368Y-104036446D01*
X75118097Y-103999500D01*
X75118092Y-103999500D01*
X74881908Y-103999500D01*
X74881903Y-103999500D01*
X74648631Y-104036446D01*
X74424003Y-104109433D01*
X74213566Y-104216657D01*
X74104550Y-104295862D01*
X74022490Y-104355483D01*
X74022488Y-104355485D01*
X74022487Y-104355485D01*
X73855485Y-104522487D01*
X73855485Y-104522488D01*
X73855483Y-104522490D01*
X73795862Y-104604550D01*
X73716657Y-104713566D01*
X73609433Y-104924003D01*
X73536446Y-105148631D01*
X73499500Y-105381902D01*
X70639243Y-105381902D01*
X70625021Y-105310402D01*
X70600001Y-105250000D01*
X71799999Y-105250000D01*
X71799999Y-104400028D01*
X71799998Y-104400013D01*
X71789505Y-104297302D01*
X71734358Y-104130880D01*
X71734356Y-104130875D01*
X71642315Y-103981654D01*
X71518345Y-103857684D01*
X71369124Y-103765643D01*
X71369119Y-103765641D01*
X71202697Y-103710494D01*
X71202690Y-103710493D01*
X71099986Y-103700000D01*
X70250000Y-103700000D01*
X70250000Y-104899998D01*
X70189598Y-104874979D01*
X70064019Y-104850000D01*
X69935981Y-104850000D01*
X69810402Y-104874979D01*
X69750000Y-104899998D01*
X69750000Y-103700000D01*
X68900028Y-103700000D01*
X68900012Y-103700001D01*
X68797302Y-103710494D01*
X68630880Y-103765641D01*
X68630875Y-103765643D01*
X68481654Y-103857684D01*
X68357684Y-103981654D01*
X68265643Y-104130875D01*
X68265641Y-104130880D01*
X68210494Y-104297302D01*
X68210493Y-104297309D01*
X68200000Y-104400013D01*
X63522040Y-104400013D01*
X63477510Y-104355483D01*
X63286433Y-104216657D01*
X63075996Y-104109433D01*
X62851368Y-104036446D01*
X62618097Y-103999500D01*
X62618092Y-103999500D01*
X62381908Y-103999500D01*
X62381903Y-103999500D01*
X62148631Y-104036446D01*
X61924003Y-104109433D01*
X61713566Y-104216657D01*
X61604550Y-104295862D01*
X61522490Y-104355483D01*
X61522488Y-104355485D01*
X61522487Y-104355485D01*
X61355485Y-104522487D01*
X61355485Y-104522488D01*
X61355483Y-104522490D01*
X61295862Y-104604550D01*
X61216657Y-104713566D01*
X61109433Y-104924003D01*
X61036446Y-105148631D01*
X60999500Y-105381902D01*
X58139243Y-105381902D01*
X58125021Y-105310402D01*
X58100001Y-105250000D01*
X59299999Y-105250000D01*
X59299999Y-104400028D01*
X59299998Y-104400013D01*
X59289505Y-104297302D01*
X59234358Y-104130880D01*
X59234356Y-104130875D01*
X59142315Y-103981654D01*
X59018345Y-103857684D01*
X58869124Y-103765643D01*
X58869119Y-103765641D01*
X58702697Y-103710494D01*
X58702690Y-103710493D01*
X58599986Y-103700000D01*
X57750000Y-103700000D01*
X57750000Y-104899998D01*
X57689598Y-104874979D01*
X57564019Y-104850000D01*
X57435981Y-104850000D01*
X57310402Y-104874979D01*
X57250000Y-104899998D01*
X57250000Y-103700000D01*
X56400028Y-103700000D01*
X56400012Y-103700001D01*
X56297302Y-103710494D01*
X56130880Y-103765641D01*
X56130875Y-103765643D01*
X55981654Y-103857684D01*
X55857684Y-103981654D01*
X55765643Y-104130875D01*
X55765641Y-104130880D01*
X55710494Y-104297302D01*
X55710493Y-104297309D01*
X55700000Y-104400013D01*
X46500500Y-104400013D01*
X46500500Y-97397648D01*
X58199500Y-97397648D01*
X58199500Y-97602351D01*
X58231522Y-97804534D01*
X58294781Y-97999223D01*
X58387715Y-98181613D01*
X58508028Y-98347213D01*
X58652786Y-98491971D01*
X58796881Y-98596660D01*
X58818390Y-98612287D01*
X58934607Y-98671503D01*
X59000776Y-98705218D01*
X59000778Y-98705218D01*
X59000781Y-98705220D01*
X59105137Y-98739127D01*
X59195465Y-98768477D01*
X59296557Y-98784488D01*
X59397648Y-98800500D01*
X59397649Y-98800500D01*
X59602351Y-98800500D01*
X59602352Y-98800500D01*
X59804534Y-98768477D01*
X59999219Y-98705220D01*
X60181610Y-98612287D01*
X60278285Y-98542049D01*
X60347213Y-98491971D01*
X60347215Y-98491968D01*
X60347219Y-98491966D01*
X60491966Y-98347219D01*
X60561425Y-98251615D01*
X60616755Y-98208949D01*
X60661744Y-98200500D01*
X64154217Y-98200500D01*
X64221256Y-98220185D01*
X64241893Y-98236814D01*
X64352292Y-98347213D01*
X64362219Y-98357140D01*
X64526079Y-98466628D01*
X64526092Y-98466635D01*
X64671751Y-98526968D01*
X64708165Y-98542051D01*
X64708169Y-98542051D01*
X64708170Y-98542052D01*
X64901456Y-98580500D01*
X64901459Y-98580500D01*
X65098543Y-98580500D01*
X65228582Y-98554632D01*
X65291835Y-98542051D01*
X65459262Y-98472701D01*
X65473907Y-98466635D01*
X65473907Y-98466634D01*
X65473914Y-98466632D01*
X65637782Y-98357139D01*
X65777139Y-98217782D01*
X65886632Y-98053914D01*
X65962051Y-97871835D01*
X66000500Y-97678541D01*
X66000500Y-97481459D01*
X66000500Y-97481456D01*
X65962052Y-97288170D01*
X65962051Y-97288169D01*
X65962051Y-97288165D01*
X65953520Y-97267568D01*
X65886635Y-97106092D01*
X65886628Y-97106079D01*
X65777139Y-96942218D01*
X65777136Y-96942214D01*
X65637785Y-96802863D01*
X65637781Y-96802860D01*
X65473920Y-96693371D01*
X65473907Y-96693364D01*
X65291839Y-96617950D01*
X65291829Y-96617947D01*
X65098543Y-96579500D01*
X65098541Y-96579500D01*
X64901459Y-96579500D01*
X64901457Y-96579500D01*
X64708170Y-96617947D01*
X64708160Y-96617950D01*
X64526088Y-96693366D01*
X64398524Y-96778602D01*
X64331846Y-96799480D01*
X64329633Y-96799500D01*
X60661744Y-96799500D01*
X60594705Y-96779815D01*
X60561425Y-96748384D01*
X60491969Y-96652784D01*
X60347213Y-96508028D01*
X60181613Y-96387715D01*
X60181612Y-96387714D01*
X60181610Y-96387713D01*
X60124653Y-96358691D01*
X59999223Y-96294781D01*
X59804534Y-96231522D01*
X59629995Y-96203878D01*
X59602352Y-96199500D01*
X59397648Y-96199500D01*
X59373329Y-96203351D01*
X59195465Y-96231522D01*
X59000776Y-96294781D01*
X58818386Y-96387715D01*
X58652786Y-96508028D01*
X58508028Y-96652786D01*
X58387715Y-96818386D01*
X58294781Y-97000776D01*
X58231522Y-97195465D01*
X58199500Y-97397648D01*
X46500500Y-97397648D01*
X46500500Y-95098543D01*
X67999499Y-95098543D01*
X68037947Y-95291829D01*
X68037950Y-95291839D01*
X68113364Y-95473907D01*
X68113371Y-95473920D01*
X68222860Y-95637781D01*
X68222863Y-95637785D01*
X68362214Y-95777136D01*
X68362218Y-95777139D01*
X68526079Y-95886628D01*
X68526092Y-95886635D01*
X68600980Y-95917654D01*
X68708165Y-95962051D01*
X68708169Y-95962051D01*
X68708170Y-95962052D01*
X68901456Y-96000500D01*
X68901459Y-96000500D01*
X69098543Y-96000500D01*
X69228582Y-95974632D01*
X69291835Y-95962051D01*
X69333164Y-95944931D01*
X69399021Y-95917654D01*
X69473907Y-95886635D01*
X69473907Y-95886634D01*
X69473914Y-95886632D01*
X69637782Y-95777139D01*
X69777139Y-95637782D01*
X69886632Y-95473914D01*
X69962051Y-95291835D01*
X70000500Y-95098541D01*
X70000500Y-94901459D01*
X69962051Y-94708165D01*
X69956839Y-94695582D01*
X69886635Y-94526092D01*
X69886628Y-94526079D01*
X69777139Y-94362218D01*
X69777136Y-94362214D01*
X69637785Y-94222863D01*
X69637781Y-94222860D01*
X69473920Y-94113371D01*
X69473907Y-94113364D01*
X69291839Y-94037950D01*
X69291829Y-94037947D01*
X69098543Y-93999500D01*
X69098541Y-93999500D01*
X68901459Y-93999500D01*
X68901457Y-93999500D01*
X68708170Y-94037947D01*
X68708160Y-94037950D01*
X68526092Y-94113364D01*
X68526079Y-94113371D01*
X68362218Y-94222860D01*
X68362214Y-94222863D01*
X68222863Y-94362214D01*
X68222860Y-94362218D01*
X68113371Y-94526079D01*
X68113364Y-94526092D01*
X68037950Y-94708160D01*
X68037947Y-94708170D01*
X67999500Y-94901456D01*
X67999500Y-94901458D01*
X67999500Y-94901459D01*
X67999500Y-95098541D01*
X67999500Y-95098543D01*
X67999499Y-95098543D01*
X46500500Y-95098543D01*
X46500500Y-92897682D01*
X48352700Y-92897682D01*
X48352700Y-93102317D01*
X48384709Y-93304417D01*
X48447944Y-93499031D01*
X48540841Y-93681350D01*
X48540847Y-93681359D01*
X48573223Y-93725921D01*
X48573224Y-93725922D01*
X49252700Y-93046446D01*
X49252700Y-93052661D01*
X49279959Y-93154394D01*
X49332620Y-93245606D01*
X49407094Y-93320080D01*
X49498306Y-93372741D01*
X49600039Y-93400000D01*
X49606253Y-93400000D01*
X48926776Y-94079474D01*
X48971350Y-94111859D01*
X49153668Y-94204755D01*
X49348282Y-94267990D01*
X49550383Y-94300000D01*
X49755017Y-94300000D01*
X49957117Y-94267990D01*
X50151731Y-94204755D01*
X50334049Y-94111859D01*
X50378621Y-94079474D01*
X49699147Y-93400000D01*
X49705361Y-93400000D01*
X49807094Y-93372741D01*
X49898306Y-93320080D01*
X49972780Y-93245606D01*
X50025441Y-93154394D01*
X50052700Y-93052661D01*
X50052700Y-93046447D01*
X50732174Y-93725921D01*
X50764559Y-93681349D01*
X50857455Y-93499031D01*
X50920690Y-93304417D01*
X50952700Y-93102317D01*
X50952700Y-92897682D01*
X50920690Y-92695582D01*
X50857455Y-92500968D01*
X50764559Y-92318650D01*
X50732174Y-92274077D01*
X50732174Y-92274076D01*
X50052700Y-92953551D01*
X50052700Y-92947339D01*
X50025441Y-92845606D01*
X49972780Y-92754394D01*
X49898306Y-92679920D01*
X49807094Y-92627259D01*
X49705361Y-92600000D01*
X49699146Y-92600000D01*
X50378622Y-91920524D01*
X50378621Y-91920523D01*
X50334059Y-91888147D01*
X50334050Y-91888141D01*
X50151731Y-91795244D01*
X49957117Y-91732009D01*
X49755017Y-91700000D01*
X49550383Y-91700000D01*
X49348282Y-91732009D01*
X49153668Y-91795244D01*
X48971344Y-91888143D01*
X48926777Y-91920523D01*
X48926777Y-91920524D01*
X49606254Y-92600000D01*
X49600039Y-92600000D01*
X49498306Y-92627259D01*
X49407094Y-92679920D01*
X49332620Y-92754394D01*
X49279959Y-92845606D01*
X49252700Y-92947339D01*
X49252700Y-92953553D01*
X48573224Y-92274077D01*
X48573223Y-92274077D01*
X48540843Y-92318644D01*
X48447944Y-92500968D01*
X48384709Y-92695582D01*
X48352700Y-92897682D01*
X46500500Y-92897682D01*
X46500500Y-82130247D01*
X48449500Y-82130247D01*
X48449500Y-83869752D01*
X48461131Y-83928229D01*
X48461132Y-83928230D01*
X48505447Y-83994552D01*
X48571769Y-84038867D01*
X48571770Y-84038868D01*
X48630247Y-84050499D01*
X48630250Y-84050500D01*
X48630252Y-84050500D01*
X50369750Y-84050500D01*
X50369751Y-84050499D01*
X50384568Y-84047552D01*
X50428229Y-84038868D01*
X50428229Y-84038867D01*
X50428231Y-84038867D01*
X50494552Y-83994552D01*
X50538867Y-83928231D01*
X50538867Y-83928229D01*
X50538868Y-83928229D01*
X50550499Y-83869752D01*
X50550500Y-83869750D01*
X50550500Y-82896530D01*
X50989500Y-82896530D01*
X50989500Y-83103469D01*
X51029868Y-83306412D01*
X51029870Y-83306420D01*
X51109058Y-83497596D01*
X51224024Y-83669657D01*
X51370342Y-83815975D01*
X51370345Y-83815977D01*
X51542402Y-83930941D01*
X51733580Y-84010130D01*
X51878052Y-84038867D01*
X51936530Y-84050499D01*
X51936534Y-84050500D01*
X51936535Y-84050500D01*
X52048481Y-84050500D01*
X52115520Y-84070185D01*
X52136162Y-84086819D01*
X55441661Y-87392318D01*
X55475146Y-87453641D01*
X55470162Y-87523333D01*
X55441661Y-87567680D01*
X52608587Y-90400754D01*
X52531922Y-90515492D01*
X52479121Y-90642967D01*
X52479118Y-90642977D01*
X52452200Y-90778304D01*
X52452200Y-91939520D01*
X52432515Y-92006559D01*
X52396071Y-92040031D01*
X52397295Y-92041689D01*
X52280550Y-92127850D01*
X52199907Y-92237117D01*
X52199906Y-92237119D01*
X52155053Y-92365298D01*
X52155053Y-92365300D01*
X52152200Y-92395730D01*
X52152200Y-93604269D01*
X52155053Y-93634699D01*
X52155053Y-93634701D01*
X52196149Y-93752142D01*
X52199907Y-93762882D01*
X52280550Y-93872150D01*
X52389818Y-93952793D01*
X52432545Y-93967744D01*
X52517999Y-93997646D01*
X52548430Y-94000500D01*
X52548434Y-94000500D01*
X53756970Y-94000500D01*
X53787399Y-93997646D01*
X53787401Y-93997646D01*
X53851490Y-93975219D01*
X53915582Y-93952793D01*
X54024850Y-93872150D01*
X54105493Y-93762882D01*
X54142578Y-93656900D01*
X54150346Y-93634701D01*
X54150346Y-93634699D01*
X54153200Y-93604269D01*
X54153200Y-92395730D01*
X54150346Y-92365300D01*
X54150346Y-92365298D01*
X54105493Y-92237119D01*
X54105492Y-92237117D01*
X54024850Y-92127850D01*
X53915582Y-92047207D01*
X53915581Y-92047206D01*
X53908105Y-92041689D01*
X53909562Y-92039714D01*
X53869185Y-92000420D01*
X53853200Y-91939520D01*
X53853200Y-91188818D01*
X53872885Y-91121779D01*
X53889519Y-91101137D01*
X56913837Y-88076819D01*
X56975160Y-88043334D01*
X57001518Y-88040500D01*
X58075501Y-88040500D01*
X58142540Y-88060185D01*
X58188295Y-88112989D01*
X58199501Y-88164500D01*
X58199501Y-88244266D01*
X58202354Y-88274700D01*
X58202354Y-88274702D01*
X58202355Y-88274703D01*
X58202355Y-88274705D01*
X58247206Y-88402882D01*
X58327849Y-88512150D01*
X58382483Y-88552471D01*
X58437117Y-88592793D01*
X58453550Y-88598543D01*
X58565298Y-88637646D01*
X58572323Y-88638304D01*
X58595733Y-88640500D01*
X60404266Y-88640499D01*
X60434700Y-88637646D01*
X60562883Y-88592793D01*
X60672150Y-88512150D01*
X60752793Y-88402883D01*
X60786474Y-88306628D01*
X60797646Y-88274702D01*
X60797646Y-88274700D01*
X60799550Y-88254394D01*
X60800500Y-88244267D01*
X60800499Y-86435734D01*
X60797646Y-86405300D01*
X60752793Y-86277117D01*
X60672150Y-86167849D01*
X60598123Y-86113215D01*
X60562883Y-86087207D01*
X60562881Y-86087206D01*
X60434701Y-86042353D01*
X60404270Y-86039500D01*
X58595739Y-86039500D01*
X58581751Y-86040811D01*
X58565300Y-86042354D01*
X58565297Y-86042354D01*
X58565296Y-86042355D01*
X58565294Y-86042355D01*
X58437117Y-86087206D01*
X58327849Y-86167849D01*
X58247206Y-86277118D01*
X58202353Y-86405297D01*
X58202353Y-86405299D01*
X58199500Y-86435729D01*
X58199500Y-86515500D01*
X58179815Y-86582539D01*
X58127011Y-86628294D01*
X58075500Y-86639500D01*
X56721519Y-86639500D01*
X56654480Y-86619815D01*
X56633838Y-86603181D01*
X54366319Y-84335662D01*
X54332834Y-84274339D01*
X54330000Y-84247981D01*
X54330000Y-83433012D01*
X54387007Y-83465925D01*
X54514174Y-83500000D01*
X54645826Y-83500000D01*
X54772993Y-83465925D01*
X54830000Y-83433012D01*
X54830000Y-84327230D01*
X54896126Y-84316757D01*
X54896129Y-84316757D01*
X55098217Y-84251095D01*
X55287557Y-84154620D01*
X55459459Y-84029727D01*
X55459464Y-84029723D01*
X55609723Y-83879464D01*
X55609727Y-83879459D01*
X55734620Y-83707557D01*
X55831095Y-83518217D01*
X55888343Y-83342026D01*
X55927780Y-83284351D01*
X55992139Y-83257152D01*
X56060985Y-83269066D01*
X56112461Y-83316310D01*
X56120833Y-83332887D01*
X56143095Y-83386632D01*
X56189058Y-83497596D01*
X56304024Y-83669657D01*
X56450342Y-83815975D01*
X56450345Y-83815977D01*
X56622402Y-83930941D01*
X56813580Y-84010130D01*
X56958052Y-84038867D01*
X57016530Y-84050499D01*
X57016534Y-84050500D01*
X57016535Y-84050500D01*
X57223466Y-84050500D01*
X57223467Y-84050499D01*
X57426420Y-84010130D01*
X57617598Y-83930941D01*
X57789655Y-83815977D01*
X57868814Y-83736817D01*
X57930135Y-83703334D01*
X57956494Y-83700500D01*
X58602706Y-83700500D01*
X58602707Y-83700500D01*
X60238481Y-83700500D01*
X60305520Y-83720185D01*
X60326162Y-83736819D01*
X63963181Y-87373838D01*
X63996666Y-87435161D01*
X63999500Y-87461519D01*
X63999500Y-87518541D01*
X63999500Y-87518543D01*
X63999499Y-87518543D01*
X64037947Y-87711829D01*
X64037950Y-87711839D01*
X64113364Y-87893907D01*
X64113371Y-87893920D01*
X64222860Y-88057781D01*
X64222863Y-88057785D01*
X64362214Y-88197136D01*
X64362218Y-88197139D01*
X64526079Y-88306628D01*
X64526092Y-88306635D01*
X64708160Y-88382049D01*
X64708165Y-88382051D01*
X64708169Y-88382051D01*
X64708170Y-88382052D01*
X64901456Y-88420500D01*
X64901459Y-88420500D01*
X65098543Y-88420500D01*
X65228582Y-88394632D01*
X65291835Y-88382051D01*
X65473914Y-88306632D01*
X65637782Y-88197139D01*
X65777139Y-88057782D01*
X65886632Y-87893914D01*
X65962051Y-87711835D01*
X65990726Y-87567680D01*
X66000500Y-87518543D01*
X66000500Y-87321456D01*
X65962052Y-87128170D01*
X65962051Y-87128169D01*
X65962051Y-87128165D01*
X65962049Y-87128160D01*
X65886635Y-86946092D01*
X65886628Y-86946079D01*
X65777139Y-86782218D01*
X65777136Y-86782214D01*
X65637785Y-86642863D01*
X65637781Y-86642860D01*
X65473920Y-86533371D01*
X65473907Y-86533364D01*
X65291839Y-86457950D01*
X65291829Y-86457947D01*
X65098543Y-86419500D01*
X65098541Y-86419500D01*
X65041519Y-86419500D01*
X64974480Y-86399815D01*
X64953838Y-86383181D01*
X61026546Y-82455888D01*
X61026545Y-82455887D01*
X60911807Y-82379222D01*
X60784332Y-82326421D01*
X60784322Y-82326418D01*
X60643019Y-82298311D01*
X60643268Y-82297057D01*
X60584633Y-82273377D01*
X60544277Y-82216341D01*
X60541163Y-82146540D01*
X60573896Y-82088460D01*
X61977137Y-80685219D01*
X62038458Y-80651736D01*
X62108150Y-80656720D01*
X62164083Y-80698592D01*
X62179376Y-80725447D01*
X62179723Y-80726286D01*
X62258775Y-80863209D01*
X62258779Y-80863214D01*
X62258780Y-80863216D01*
X62370584Y-80975020D01*
X62370586Y-80975021D01*
X62370590Y-80975024D01*
X62507509Y-81054073D01*
X62507516Y-81054077D01*
X62660243Y-81095000D01*
X62660245Y-81095000D01*
X62818355Y-81095000D01*
X62818357Y-81095000D01*
X62971084Y-81054077D01*
X63108016Y-80975020D01*
X63151717Y-80931319D01*
X63213040Y-80897834D01*
X63239398Y-80895000D01*
X91317245Y-80895000D01*
X91384284Y-80914685D01*
X91404926Y-80931319D01*
X106590828Y-96117221D01*
X106624313Y-96178544D01*
X106624764Y-96229093D01*
X106589500Y-96406379D01*
X106589500Y-96593620D01*
X106626025Y-96777243D01*
X106626027Y-96777251D01*
X106697676Y-96950228D01*
X106697681Y-96950237D01*
X106783591Y-97078809D01*
X106804469Y-97145486D01*
X106785985Y-97212867D01*
X106734006Y-97259557D01*
X106680489Y-97271700D01*
X105859511Y-97271700D01*
X105792472Y-97252015D01*
X105746717Y-97199211D01*
X105736773Y-97130053D01*
X105756409Y-97078809D01*
X105842318Y-96950237D01*
X105842318Y-96950236D01*
X105842322Y-96950231D01*
X105913973Y-96777251D01*
X105950500Y-96593616D01*
X105950500Y-96406384D01*
X105913973Y-96222749D01*
X105842322Y-96049769D01*
X105842321Y-96049768D01*
X105842318Y-96049762D01*
X105738302Y-95894092D01*
X105738299Y-95894088D01*
X105605911Y-95761700D01*
X105605907Y-95761697D01*
X105450237Y-95657681D01*
X105450228Y-95657676D01*
X105277251Y-95586027D01*
X105277243Y-95586025D01*
X105093620Y-95549500D01*
X105093616Y-95549500D01*
X104906384Y-95549500D01*
X104906379Y-95549500D01*
X104729093Y-95584764D01*
X104659501Y-95578537D01*
X104617221Y-95550828D01*
X103003315Y-93936922D01*
X103003313Y-93936920D01*
X102943149Y-93902184D01*
X102911989Y-93884193D01*
X102861057Y-93870546D01*
X102810127Y-93856900D01*
X102810126Y-93856900D01*
X82376298Y-93856900D01*
X82309259Y-93837215D01*
X82288617Y-93820581D01*
X82244917Y-93776881D01*
X82244909Y-93776875D01*
X82107990Y-93697826D01*
X82107986Y-93697824D01*
X82107984Y-93697823D01*
X81955257Y-93656900D01*
X81797143Y-93656900D01*
X81644416Y-93697823D01*
X81644409Y-93697826D01*
X81507490Y-93776875D01*
X81507482Y-93776881D01*
X81395681Y-93888682D01*
X81395675Y-93888690D01*
X81316626Y-94025609D01*
X81316623Y-94025616D01*
X81275700Y-94178343D01*
X81275700Y-94336456D01*
X81316623Y-94489183D01*
X81316626Y-94489190D01*
X81395675Y-94626109D01*
X81395679Y-94626114D01*
X81395680Y-94626116D01*
X81507484Y-94737920D01*
X81507486Y-94737921D01*
X81507490Y-94737924D01*
X81644409Y-94816973D01*
X81644416Y-94816977D01*
X81797143Y-94857900D01*
X81797145Y-94857900D01*
X81955255Y-94857900D01*
X81955257Y-94857900D01*
X82107984Y-94816977D01*
X82244916Y-94737920D01*
X82288617Y-94694219D01*
X82349940Y-94660734D01*
X82376298Y-94657900D01*
X102540145Y-94657900D01*
X102607184Y-94677585D01*
X102627826Y-94694219D01*
X104050828Y-96117221D01*
X104084313Y-96178544D01*
X104084764Y-96229093D01*
X104049500Y-96406379D01*
X104049500Y-96593620D01*
X104086025Y-96777243D01*
X104086027Y-96777251D01*
X104157676Y-96950228D01*
X104157681Y-96950237D01*
X104243591Y-97078809D01*
X104264469Y-97145486D01*
X104245985Y-97212867D01*
X104194006Y-97259557D01*
X104140489Y-97271700D01*
X103319511Y-97271700D01*
X103252472Y-97252015D01*
X103206717Y-97199211D01*
X103196773Y-97130053D01*
X103216409Y-97078809D01*
X103302318Y-96950237D01*
X103302318Y-96950236D01*
X103302322Y-96950231D01*
X103373973Y-96777251D01*
X103410500Y-96593616D01*
X103410500Y-96406384D01*
X103373973Y-96222749D01*
X103302322Y-96049769D01*
X103302321Y-96049768D01*
X103302318Y-96049762D01*
X103198302Y-95894092D01*
X103198299Y-95894088D01*
X103065911Y-95761700D01*
X103065907Y-95761697D01*
X102910237Y-95657681D01*
X102910228Y-95657676D01*
X102737251Y-95586027D01*
X102737243Y-95586025D01*
X102553620Y-95549500D01*
X102553616Y-95549500D01*
X102366384Y-95549500D01*
X102366379Y-95549500D01*
X102182756Y-95586025D01*
X102182748Y-95586027D01*
X102009771Y-95657676D01*
X102009762Y-95657681D01*
X101854092Y-95761697D01*
X101854088Y-95761700D01*
X101721700Y-95894088D01*
X101721697Y-95894092D01*
X101617681Y-96049762D01*
X101617676Y-96049771D01*
X101546027Y-96222748D01*
X101546025Y-96222756D01*
X101509500Y-96406379D01*
X101509500Y-96593620D01*
X101546025Y-96777243D01*
X101546027Y-96777251D01*
X101617676Y-96950228D01*
X101617681Y-96950237D01*
X101703591Y-97078809D01*
X101724469Y-97145486D01*
X101705985Y-97212867D01*
X101654006Y-97259557D01*
X101600489Y-97271700D01*
X100779511Y-97271700D01*
X100712472Y-97252015D01*
X100666717Y-97199211D01*
X100656773Y-97130053D01*
X100676409Y-97078809D01*
X100762318Y-96950237D01*
X100762318Y-96950236D01*
X100762322Y-96950231D01*
X100833973Y-96777251D01*
X100870500Y-96593616D01*
X100870500Y-96406384D01*
X100833973Y-96222749D01*
X100762322Y-96049769D01*
X100762321Y-96049768D01*
X100762318Y-96049762D01*
X100658302Y-95894092D01*
X100658299Y-95894088D01*
X100525911Y-95761700D01*
X100525907Y-95761697D01*
X100370237Y-95657681D01*
X100370228Y-95657676D01*
X100197251Y-95586027D01*
X100197243Y-95586025D01*
X100013620Y-95549500D01*
X100013616Y-95549500D01*
X99826384Y-95549500D01*
X99826379Y-95549500D01*
X99642756Y-95586025D01*
X99642748Y-95586027D01*
X99469771Y-95657676D01*
X99469762Y-95657681D01*
X99314092Y-95761697D01*
X99314088Y-95761700D01*
X99181700Y-95894088D01*
X99181697Y-95894092D01*
X99077681Y-96049762D01*
X99077676Y-96049771D01*
X99006027Y-96222748D01*
X99006025Y-96222756D01*
X98969500Y-96406379D01*
X98969500Y-96593620D01*
X99006025Y-96777243D01*
X99006027Y-96777251D01*
X99077676Y-96950228D01*
X99077681Y-96950237D01*
X99163591Y-97078809D01*
X99184469Y-97145486D01*
X99165985Y-97212867D01*
X99114006Y-97259557D01*
X99060489Y-97271700D01*
X98239511Y-97271700D01*
X98172472Y-97252015D01*
X98126717Y-97199211D01*
X98116773Y-97130053D01*
X98136409Y-97078809D01*
X98222318Y-96950237D01*
X98222318Y-96950236D01*
X98222322Y-96950231D01*
X98293973Y-96777251D01*
X98330500Y-96593616D01*
X98330500Y-96406384D01*
X98293973Y-96222749D01*
X98222322Y-96049769D01*
X98222321Y-96049768D01*
X98222318Y-96049762D01*
X98118302Y-95894092D01*
X98118299Y-95894088D01*
X97985911Y-95761700D01*
X97985907Y-95761697D01*
X97830237Y-95657681D01*
X97830228Y-95657676D01*
X97657251Y-95586027D01*
X97657243Y-95586025D01*
X97473620Y-95549500D01*
X97473616Y-95549500D01*
X97286384Y-95549500D01*
X97286379Y-95549500D01*
X97102756Y-95586025D01*
X97102748Y-95586027D01*
X96929771Y-95657676D01*
X96929762Y-95657681D01*
X96774092Y-95761697D01*
X96774088Y-95761700D01*
X96641700Y-95894088D01*
X96641697Y-95894092D01*
X96537681Y-96049762D01*
X96537676Y-96049771D01*
X96466027Y-96222748D01*
X96466025Y-96222756D01*
X96429500Y-96406379D01*
X96429500Y-96593620D01*
X96466025Y-96777243D01*
X96466027Y-96777251D01*
X96537676Y-96950228D01*
X96537681Y-96950237D01*
X96623591Y-97078809D01*
X96644469Y-97145486D01*
X96625985Y-97212867D01*
X96574006Y-97259557D01*
X96520489Y-97271700D01*
X95699511Y-97271700D01*
X95632472Y-97252015D01*
X95586717Y-97199211D01*
X95576773Y-97130053D01*
X95596409Y-97078809D01*
X95682318Y-96950237D01*
X95682318Y-96950236D01*
X95682322Y-96950231D01*
X95753973Y-96777251D01*
X95790500Y-96593616D01*
X95790500Y-96406384D01*
X95753973Y-96222749D01*
X95682322Y-96049769D01*
X95682321Y-96049768D01*
X95682318Y-96049762D01*
X95578302Y-95894092D01*
X95578299Y-95894088D01*
X95445911Y-95761700D01*
X95445907Y-95761697D01*
X95290237Y-95657681D01*
X95290228Y-95657676D01*
X95117251Y-95586027D01*
X95117243Y-95586025D01*
X94933620Y-95549500D01*
X94933616Y-95549500D01*
X94746384Y-95549500D01*
X94746379Y-95549500D01*
X94562756Y-95586025D01*
X94562748Y-95586027D01*
X94389771Y-95657676D01*
X94389762Y-95657681D01*
X94234092Y-95761697D01*
X94234088Y-95761700D01*
X94101700Y-95894088D01*
X94101697Y-95894092D01*
X93997681Y-96049762D01*
X93997676Y-96049771D01*
X93926027Y-96222748D01*
X93926025Y-96222756D01*
X93889500Y-96406379D01*
X93889500Y-96593620D01*
X93926025Y-96777243D01*
X93926027Y-96777251D01*
X93997676Y-96950228D01*
X93997681Y-96950237D01*
X94083591Y-97078809D01*
X94104469Y-97145486D01*
X94085985Y-97212867D01*
X94034006Y-97259557D01*
X93980489Y-97271700D01*
X93512057Y-97271700D01*
X93445018Y-97252015D01*
X93399263Y-97199211D01*
X93389319Y-97130053D01*
X93401572Y-97091406D01*
X93458417Y-96979838D01*
X93519221Y-96792705D01*
X93550000Y-96598382D01*
X93550000Y-96401617D01*
X93519221Y-96207294D01*
X93458418Y-96020164D01*
X93369096Y-95844858D01*
X93343678Y-95809873D01*
X93343677Y-95809873D01*
X92742137Y-96411413D01*
X92719333Y-96326306D01*
X92660090Y-96223694D01*
X92576306Y-96139910D01*
X92473694Y-96080667D01*
X92388584Y-96057861D01*
X92990125Y-95456320D01*
X92990125Y-95456319D01*
X92955145Y-95430905D01*
X92779835Y-95341581D01*
X92592705Y-95280778D01*
X92398382Y-95250000D01*
X92201618Y-95250000D01*
X92007294Y-95280778D01*
X91820161Y-95341582D01*
X91644863Y-95430899D01*
X91644859Y-95430902D01*
X91609873Y-95456320D01*
X91609872Y-95456320D01*
X92211415Y-96057861D01*
X92126306Y-96080667D01*
X92023694Y-96139910D01*
X91939910Y-96223694D01*
X91880667Y-96326306D01*
X91857862Y-96411414D01*
X91256320Y-95809872D01*
X91256320Y-95809873D01*
X91230902Y-95844859D01*
X91230899Y-95844863D01*
X91141582Y-96020161D01*
X91080778Y-96207294D01*
X91050000Y-96401617D01*
X91050000Y-96598382D01*
X91080778Y-96792705D01*
X91141582Y-96979838D01*
X91198428Y-97091406D01*
X91211324Y-97160075D01*
X91185047Y-97224815D01*
X91127941Y-97265072D01*
X91087943Y-97271700D01*
X90619511Y-97271700D01*
X90552472Y-97252015D01*
X90506717Y-97199211D01*
X90496773Y-97130053D01*
X90516409Y-97078809D01*
X90602318Y-96950237D01*
X90602318Y-96950236D01*
X90602322Y-96950231D01*
X90673973Y-96777251D01*
X90710500Y-96593616D01*
X90710500Y-96406384D01*
X90673973Y-96222749D01*
X90602322Y-96049769D01*
X90602321Y-96049768D01*
X90602318Y-96049762D01*
X90498302Y-95894092D01*
X90498299Y-95894088D01*
X90365911Y-95761700D01*
X90365907Y-95761697D01*
X90210237Y-95657681D01*
X90210228Y-95657676D01*
X90114778Y-95618140D01*
X90037251Y-95586027D01*
X90037243Y-95586025D01*
X89853620Y-95549500D01*
X89853616Y-95549500D01*
X89666384Y-95549500D01*
X89666379Y-95549500D01*
X89482756Y-95586025D01*
X89482748Y-95586027D01*
X89309771Y-95657676D01*
X89309762Y-95657681D01*
X89154092Y-95761697D01*
X89154088Y-95761700D01*
X89021700Y-95894088D01*
X89021697Y-95894092D01*
X88917681Y-96049762D01*
X88917676Y-96049771D01*
X88846027Y-96222748D01*
X88846025Y-96222756D01*
X88809500Y-96406379D01*
X88809500Y-96593620D01*
X88846025Y-96777243D01*
X88846027Y-96777251D01*
X88917676Y-96950228D01*
X88917681Y-96950237D01*
X89003591Y-97078809D01*
X89024469Y-97145486D01*
X89005985Y-97212867D01*
X88954006Y-97259557D01*
X88900489Y-97271700D01*
X88079511Y-97271700D01*
X88012472Y-97252015D01*
X87966717Y-97199211D01*
X87956773Y-97130053D01*
X87976409Y-97078809D01*
X88062318Y-96950237D01*
X88062318Y-96950236D01*
X88062322Y-96950231D01*
X88133973Y-96777251D01*
X88170500Y-96593616D01*
X88170500Y-96406384D01*
X88133973Y-96222749D01*
X88062322Y-96049769D01*
X88062321Y-96049768D01*
X88062318Y-96049762D01*
X87958302Y-95894092D01*
X87958299Y-95894088D01*
X87825911Y-95761700D01*
X87825907Y-95761697D01*
X87670237Y-95657681D01*
X87670228Y-95657676D01*
X87497251Y-95586027D01*
X87497243Y-95586025D01*
X87313620Y-95549500D01*
X87313616Y-95549500D01*
X87126384Y-95549500D01*
X87126379Y-95549500D01*
X86942756Y-95586025D01*
X86942748Y-95586027D01*
X86769771Y-95657676D01*
X86769762Y-95657681D01*
X86614092Y-95761697D01*
X86614088Y-95761700D01*
X86481700Y-95894088D01*
X86481697Y-95894092D01*
X86377681Y-96049762D01*
X86377676Y-96049771D01*
X86306027Y-96222748D01*
X86306025Y-96222756D01*
X86269500Y-96406379D01*
X86269500Y-96593620D01*
X86306025Y-96777243D01*
X86306027Y-96777251D01*
X86377676Y-96950228D01*
X86377681Y-96950237D01*
X86463591Y-97078809D01*
X86484469Y-97145486D01*
X86465985Y-97212867D01*
X86414006Y-97259557D01*
X86360489Y-97271700D01*
X85539511Y-97271700D01*
X85472472Y-97252015D01*
X85426717Y-97199211D01*
X85416773Y-97130053D01*
X85436409Y-97078809D01*
X85522318Y-96950237D01*
X85522318Y-96950236D01*
X85522322Y-96950231D01*
X85593973Y-96777251D01*
X85630500Y-96593616D01*
X85630500Y-96406384D01*
X85593973Y-96222749D01*
X85522322Y-96049769D01*
X85522321Y-96049768D01*
X85522318Y-96049762D01*
X85418302Y-95894092D01*
X85418299Y-95894088D01*
X85285911Y-95761700D01*
X85285907Y-95761697D01*
X85130237Y-95657681D01*
X85130228Y-95657676D01*
X84957251Y-95586027D01*
X84957243Y-95586025D01*
X84773620Y-95549500D01*
X84773616Y-95549500D01*
X84586384Y-95549500D01*
X84586379Y-95549500D01*
X84402756Y-95586025D01*
X84402748Y-95586027D01*
X84229771Y-95657676D01*
X84229762Y-95657681D01*
X84074092Y-95761697D01*
X84074088Y-95761700D01*
X83941700Y-95894088D01*
X83941697Y-95894092D01*
X83837681Y-96049762D01*
X83837676Y-96049771D01*
X83766027Y-96222748D01*
X83766025Y-96222756D01*
X83729500Y-96406379D01*
X83729500Y-96593620D01*
X83766025Y-96777243D01*
X83766027Y-96777251D01*
X83837676Y-96950228D01*
X83837681Y-96950237D01*
X83923591Y-97078809D01*
X83944469Y-97145486D01*
X83925985Y-97212867D01*
X83874006Y-97259557D01*
X83820489Y-97271700D01*
X82074297Y-97271700D01*
X82007258Y-97252015D01*
X81986616Y-97235381D01*
X75589090Y-90837855D01*
X75589088Y-90837852D01*
X75470217Y-90718981D01*
X75470216Y-90718980D01*
X75383404Y-90668860D01*
X75383404Y-90668859D01*
X75383400Y-90668858D01*
X75333285Y-90639923D01*
X75180557Y-90598999D01*
X75022443Y-90598999D01*
X75014847Y-90598999D01*
X75014831Y-90599000D01*
X73984997Y-90599000D01*
X73917958Y-90579315D01*
X73897316Y-90562681D01*
X73071816Y-89737181D01*
X73038331Y-89675858D01*
X73043315Y-89606166D01*
X73085187Y-89550233D01*
X73150651Y-89525816D01*
X73218924Y-89540668D01*
X73232383Y-89549182D01*
X73318650Y-89611859D01*
X73500968Y-89704755D01*
X73695582Y-89767990D01*
X73897683Y-89800000D01*
X74102317Y-89800000D01*
X74304417Y-89767990D01*
X74499031Y-89704755D01*
X74681349Y-89611859D01*
X74725921Y-89579474D01*
X74046446Y-88900000D01*
X74052661Y-88900000D01*
X74154394Y-88872741D01*
X74245606Y-88820080D01*
X74320080Y-88745606D01*
X74372741Y-88654394D01*
X74400000Y-88552661D01*
X74400000Y-88546448D01*
X75079474Y-89225922D01*
X75079474Y-89225921D01*
X75111859Y-89181349D01*
X75204755Y-88999031D01*
X75267990Y-88804417D01*
X75300000Y-88602317D01*
X75300000Y-88397682D01*
X75267990Y-88195582D01*
X75204755Y-88000968D01*
X75111859Y-87818650D01*
X75079474Y-87774077D01*
X75079474Y-87774076D01*
X74400000Y-88453551D01*
X74400000Y-88447339D01*
X74372741Y-88345606D01*
X74320080Y-88254394D01*
X74245606Y-88179920D01*
X74154394Y-88127259D01*
X74052661Y-88100000D01*
X74046446Y-88100000D01*
X74725922Y-87420524D01*
X74725921Y-87420523D01*
X74681359Y-87388147D01*
X74681350Y-87388141D01*
X74499031Y-87295244D01*
X74304417Y-87232009D01*
X74102317Y-87200000D01*
X73897683Y-87200000D01*
X73695582Y-87232009D01*
X73500968Y-87295244D01*
X73318644Y-87388143D01*
X73274077Y-87420523D01*
X73274077Y-87420524D01*
X73953554Y-88100000D01*
X73947339Y-88100000D01*
X73845606Y-88127259D01*
X73754394Y-88179920D01*
X73679920Y-88254394D01*
X73627259Y-88345606D01*
X73600000Y-88447339D01*
X73600000Y-88453553D01*
X72920524Y-87774077D01*
X72920523Y-87774077D01*
X72888143Y-87818644D01*
X72795244Y-88000968D01*
X72732009Y-88195582D01*
X72700000Y-88397682D01*
X72700000Y-88602317D01*
X72732009Y-88804417D01*
X72795244Y-88999031D01*
X72888140Y-89181349D01*
X72950817Y-89267616D01*
X72974297Y-89333423D01*
X72958472Y-89401477D01*
X72908366Y-89450172D01*
X72839888Y-89464047D01*
X72774779Y-89438698D01*
X72762818Y-89428183D01*
X65933178Y-82598543D01*
X72579499Y-82598543D01*
X72617947Y-82791829D01*
X72617950Y-82791839D01*
X72693364Y-82973907D01*
X72693371Y-82973920D01*
X72802860Y-83137781D01*
X72802863Y-83137785D01*
X72942214Y-83277136D01*
X72942218Y-83277139D01*
X73106079Y-83386628D01*
X73106092Y-83386635D01*
X73288160Y-83462049D01*
X73288165Y-83462051D01*
X73288169Y-83462051D01*
X73288170Y-83462052D01*
X73481456Y-83500500D01*
X73481459Y-83500500D01*
X73678543Y-83500500D01*
X73852359Y-83465925D01*
X73871835Y-83462051D01*
X74053914Y-83386632D01*
X74217782Y-83277139D01*
X74357139Y-83137782D01*
X74466632Y-82973914D01*
X74542051Y-82791835D01*
X74568678Y-82657973D01*
X74580500Y-82598543D01*
X74580500Y-82401456D01*
X74542052Y-82208170D01*
X74542051Y-82208169D01*
X74542051Y-82208165D01*
X74532051Y-82184023D01*
X74466635Y-82026092D01*
X74466628Y-82026079D01*
X74357139Y-81862218D01*
X74357136Y-81862214D01*
X74217785Y-81722863D01*
X74217781Y-81722860D01*
X74053920Y-81613371D01*
X74053907Y-81613364D01*
X73871839Y-81537950D01*
X73871829Y-81537947D01*
X73678543Y-81499500D01*
X73678541Y-81499500D01*
X73481459Y-81499500D01*
X73481457Y-81499500D01*
X73288170Y-81537947D01*
X73288160Y-81537950D01*
X73106092Y-81613364D01*
X73106079Y-81613371D01*
X72942218Y-81722860D01*
X72942214Y-81722863D01*
X72802863Y-81862214D01*
X72802860Y-81862218D01*
X72693371Y-82026079D01*
X72693364Y-82026092D01*
X72617950Y-82208160D01*
X72617947Y-82208170D01*
X72579500Y-82401456D01*
X72579500Y-82401459D01*
X72579500Y-82598541D01*
X72579500Y-82598543D01*
X72579499Y-82598543D01*
X65933178Y-82598543D01*
X65472990Y-82138355D01*
X65472988Y-82138352D01*
X65354117Y-82019481D01*
X65354116Y-82019480D01*
X65253055Y-81961133D01*
X65253054Y-81961132D01*
X65217183Y-81940422D01*
X65161281Y-81925443D01*
X65064457Y-81899499D01*
X64906343Y-81899499D01*
X64898747Y-81899499D01*
X64898731Y-81899500D01*
X64285784Y-81899500D01*
X64218745Y-81879815D01*
X64198103Y-81863181D01*
X64057785Y-81722863D01*
X64057781Y-81722860D01*
X63893920Y-81613371D01*
X63893907Y-81613364D01*
X63711839Y-81537950D01*
X63711829Y-81537947D01*
X63518543Y-81499500D01*
X63518541Y-81499500D01*
X63321459Y-81499500D01*
X63321457Y-81499500D01*
X63128170Y-81537947D01*
X63128160Y-81537950D01*
X62946092Y-81613364D01*
X62946079Y-81613371D01*
X62782218Y-81722860D01*
X62782214Y-81722863D01*
X62642863Y-81862214D01*
X62642860Y-81862218D01*
X62533371Y-82026079D01*
X62533364Y-82026092D01*
X62457950Y-82208160D01*
X62457947Y-82208170D01*
X62419500Y-82401456D01*
X62419500Y-82401459D01*
X62419500Y-82598541D01*
X62419500Y-82598543D01*
X62419499Y-82598543D01*
X62457947Y-82791829D01*
X62457950Y-82791839D01*
X62533364Y-82973907D01*
X62533371Y-82973920D01*
X62642860Y-83137781D01*
X62642863Y-83137785D01*
X62782214Y-83277136D01*
X62782218Y-83277139D01*
X62946079Y-83386628D01*
X62946092Y-83386635D01*
X63128160Y-83462049D01*
X63128165Y-83462051D01*
X63128169Y-83462051D01*
X63128170Y-83462052D01*
X63321456Y-83500500D01*
X63321459Y-83500500D01*
X63518543Y-83500500D01*
X63692359Y-83465925D01*
X63711835Y-83462051D01*
X63893914Y-83386632D01*
X64057782Y-83277139D01*
X64077769Y-83257152D01*
X64198103Y-83136819D01*
X64259426Y-83103334D01*
X64285784Y-83100500D01*
X64685303Y-83100500D01*
X64752342Y-83120185D01*
X64772984Y-83136819D01*
X68932767Y-87296602D01*
X68966252Y-87357925D01*
X68961268Y-87427617D01*
X68919396Y-87483550D01*
X68869278Y-87505900D01*
X68708170Y-87537947D01*
X68708160Y-87537950D01*
X68526092Y-87613364D01*
X68526079Y-87613371D01*
X68362218Y-87722860D01*
X68362214Y-87722863D01*
X68222863Y-87862214D01*
X68222860Y-87862218D01*
X68113371Y-88026079D01*
X68113364Y-88026092D01*
X68037950Y-88208160D01*
X68037947Y-88208170D01*
X67999500Y-88401456D01*
X67999500Y-88401459D01*
X67999500Y-88598541D01*
X67999500Y-88598543D01*
X67999499Y-88598543D01*
X68037947Y-88791829D01*
X68037950Y-88791839D01*
X68113364Y-88973907D01*
X68113371Y-88973920D01*
X68222860Y-89137781D01*
X68222863Y-89137785D01*
X68362214Y-89277136D01*
X68362218Y-89277139D01*
X68526079Y-89386628D01*
X68526092Y-89386635D01*
X68651785Y-89438698D01*
X68708165Y-89462051D01*
X68708169Y-89462051D01*
X68708170Y-89462052D01*
X68901456Y-89500500D01*
X69099903Y-89500500D01*
X69166942Y-89520185D01*
X69187583Y-89536818D01*
X72686184Y-93035420D01*
X72686186Y-93035421D01*
X72686190Y-93035424D01*
X72802054Y-93102317D01*
X72823116Y-93114477D01*
X72975843Y-93155401D01*
X72975845Y-93155401D01*
X73141554Y-93155401D01*
X73141570Y-93155400D01*
X74240203Y-93155400D01*
X74307242Y-93175085D01*
X74327884Y-93191719D01*
X74826984Y-93690819D01*
X74860469Y-93752142D01*
X74855485Y-93821834D01*
X74813613Y-93877767D01*
X74748149Y-93902184D01*
X74683009Y-93888985D01*
X74499034Y-93795245D01*
X74304417Y-93732009D01*
X74102317Y-93700000D01*
X73897683Y-93700000D01*
X73695582Y-93732009D01*
X73500968Y-93795244D01*
X73318644Y-93888143D01*
X73274077Y-93920523D01*
X73274077Y-93920524D01*
X73953554Y-94600000D01*
X73947339Y-94600000D01*
X73845606Y-94627259D01*
X73754394Y-94679920D01*
X73679920Y-94754394D01*
X73627259Y-94845606D01*
X73600000Y-94947339D01*
X73600000Y-94953553D01*
X72920524Y-94274077D01*
X72920523Y-94274077D01*
X72888143Y-94318644D01*
X72795244Y-94500968D01*
X72732009Y-94695582D01*
X72700000Y-94897682D01*
X72700000Y-95102317D01*
X72732009Y-95304417D01*
X72795244Y-95499031D01*
X72888141Y-95681350D01*
X72888147Y-95681359D01*
X72920523Y-95725921D01*
X72920524Y-95725922D01*
X73600000Y-95046446D01*
X73600000Y-95052661D01*
X73627259Y-95154394D01*
X73679920Y-95245606D01*
X73754394Y-95320080D01*
X73845606Y-95372741D01*
X73947339Y-95400000D01*
X73953553Y-95400000D01*
X73274076Y-96079474D01*
X73318650Y-96111859D01*
X73500968Y-96204755D01*
X73695582Y-96267990D01*
X73897683Y-96300000D01*
X74102317Y-96300000D01*
X74304417Y-96267990D01*
X74499031Y-96204755D01*
X74681349Y-96111859D01*
X74725921Y-96079474D01*
X74046447Y-95400000D01*
X74052661Y-95400000D01*
X74154394Y-95372741D01*
X74245606Y-95320080D01*
X74320080Y-95245606D01*
X74372741Y-95154394D01*
X74400000Y-95052661D01*
X74400000Y-95046446D01*
X75079474Y-95725921D01*
X75111859Y-95681349D01*
X75204755Y-95499031D01*
X75267990Y-95304417D01*
X75300000Y-95102317D01*
X75300000Y-94897682D01*
X75267990Y-94695582D01*
X75204755Y-94500968D01*
X75111014Y-94316991D01*
X75098118Y-94248321D01*
X75124394Y-94183581D01*
X75181501Y-94143324D01*
X75251307Y-94140332D01*
X75309179Y-94173014D01*
X83485484Y-102349320D01*
X83485486Y-102349321D01*
X83485490Y-102349324D01*
X83622409Y-102428373D01*
X83622416Y-102428377D01*
X83775143Y-102469301D01*
X83775145Y-102469301D01*
X83940854Y-102469301D01*
X83940870Y-102469300D01*
X106068703Y-102469300D01*
X106135742Y-102488985D01*
X106156384Y-102505619D01*
X108547200Y-104896435D01*
X108580685Y-104957758D01*
X108577450Y-105022433D01*
X108536447Y-105148628D01*
X108499500Y-105381902D01*
X108499500Y-105618097D01*
X108536446Y-105851368D01*
X108609433Y-106075996D01*
X108716657Y-106286433D01*
X108855483Y-106477510D01*
X109022490Y-106644517D01*
X109213567Y-106783343D01*
X109312991Y-106834002D01*
X109424003Y-106890566D01*
X109424005Y-106890566D01*
X109424008Y-106890568D01*
X109512476Y-106919313D01*
X109648631Y-106963553D01*
X109881903Y-107000500D01*
X109881908Y-107000500D01*
X110118097Y-107000500D01*
X110351368Y-106963553D01*
X110384468Y-106952798D01*
X110575992Y-106890568D01*
X110786433Y-106783343D01*
X110977510Y-106644517D01*
X111144517Y-106477510D01*
X111283343Y-106286433D01*
X111390568Y-106075992D01*
X111463553Y-105851368D01*
X111489175Y-105689598D01*
X111500500Y-105618097D01*
X111500500Y-105381902D01*
X113499500Y-105381902D01*
X113499500Y-105618097D01*
X113536446Y-105851368D01*
X113609433Y-106075996D01*
X113716657Y-106286433D01*
X113855483Y-106477510D01*
X114022490Y-106644517D01*
X114213567Y-106783343D01*
X114312991Y-106834002D01*
X114424003Y-106890566D01*
X114424005Y-106890566D01*
X114424008Y-106890568D01*
X114512476Y-106919313D01*
X114648631Y-106963553D01*
X114881903Y-107000500D01*
X114881908Y-107000500D01*
X115118097Y-107000500D01*
X115351368Y-106963553D01*
X115384468Y-106952798D01*
X115575992Y-106890568D01*
X115786433Y-106783343D01*
X115977510Y-106644517D01*
X116144517Y-106477510D01*
X116283343Y-106286433D01*
X116390568Y-106075992D01*
X116463553Y-105851368D01*
X116489175Y-105689598D01*
X116500500Y-105618097D01*
X116500500Y-105381902D01*
X118499500Y-105381902D01*
X118499500Y-105618097D01*
X118536446Y-105851368D01*
X118609433Y-106075996D01*
X118716657Y-106286433D01*
X118855483Y-106477510D01*
X119022490Y-106644517D01*
X119213567Y-106783343D01*
X119312991Y-106834002D01*
X119424003Y-106890566D01*
X119424005Y-106890566D01*
X119424008Y-106890568D01*
X119512476Y-106919313D01*
X119648631Y-106963553D01*
X119881903Y-107000500D01*
X119881908Y-107000500D01*
X120118097Y-107000500D01*
X120351368Y-106963553D01*
X120384468Y-106952798D01*
X120575992Y-106890568D01*
X120786433Y-106783343D01*
X120977510Y-106644517D01*
X121144517Y-106477510D01*
X121283343Y-106286433D01*
X121390568Y-106075992D01*
X121463553Y-105851368D01*
X121489175Y-105689598D01*
X121500500Y-105618097D01*
X121500500Y-105381902D01*
X121463553Y-105148631D01*
X121401534Y-104957758D01*
X121390568Y-104924008D01*
X121390566Y-104924005D01*
X121390566Y-104924003D01*
X121283342Y-104713566D01*
X121144517Y-104522490D01*
X120977510Y-104355483D01*
X120786433Y-104216657D01*
X120575996Y-104109433D01*
X120351368Y-104036446D01*
X120118097Y-103999500D01*
X120118092Y-103999500D01*
X119881908Y-103999500D01*
X119881903Y-103999500D01*
X119648631Y-104036446D01*
X119424003Y-104109433D01*
X119213566Y-104216657D01*
X119104550Y-104295862D01*
X119022490Y-104355483D01*
X119022488Y-104355485D01*
X119022487Y-104355485D01*
X118855485Y-104522487D01*
X118855485Y-104522488D01*
X118855483Y-104522490D01*
X118795862Y-104604550D01*
X118716657Y-104713566D01*
X118609433Y-104924003D01*
X118536446Y-105148631D01*
X118499500Y-105381902D01*
X116500500Y-105381902D01*
X116463553Y-105148631D01*
X116401534Y-104957758D01*
X116390568Y-104924008D01*
X116390566Y-104924005D01*
X116390566Y-104924003D01*
X116283342Y-104713566D01*
X116144517Y-104522490D01*
X115977510Y-104355483D01*
X115786433Y-104216657D01*
X115575996Y-104109433D01*
X115351368Y-104036446D01*
X115118097Y-103999500D01*
X115118092Y-103999500D01*
X114881908Y-103999500D01*
X114881903Y-103999500D01*
X114648631Y-104036446D01*
X114424003Y-104109433D01*
X114213566Y-104216657D01*
X114104550Y-104295862D01*
X114022490Y-104355483D01*
X114022488Y-104355485D01*
X114022487Y-104355485D01*
X113855485Y-104522487D01*
X113855485Y-104522488D01*
X113855483Y-104522490D01*
X113795862Y-104604550D01*
X113716657Y-104713566D01*
X113609433Y-104924003D01*
X113536446Y-105148631D01*
X113499500Y-105381902D01*
X111500500Y-105381902D01*
X111463553Y-105148631D01*
X111401534Y-104957758D01*
X111390568Y-104924008D01*
X111390566Y-104924005D01*
X111390566Y-104924003D01*
X111283342Y-104713566D01*
X111144517Y-104522490D01*
X110977510Y-104355483D01*
X110786433Y-104216657D01*
X110575996Y-104109433D01*
X110351368Y-104036446D01*
X110118097Y-103999500D01*
X110118092Y-103999500D01*
X109881908Y-103999500D01*
X109881903Y-103999500D01*
X109648628Y-104036447D01*
X109522433Y-104077450D01*
X109452592Y-104079445D01*
X109396435Y-104047200D01*
X106856390Y-101507155D01*
X106856388Y-101507152D01*
X106737517Y-101388281D01*
X106737516Y-101388280D01*
X106650704Y-101338160D01*
X106650704Y-101338159D01*
X106650700Y-101338158D01*
X106600585Y-101309223D01*
X106447857Y-101268299D01*
X106289743Y-101268299D01*
X106282147Y-101268299D01*
X106282131Y-101268300D01*
X84154298Y-101268300D01*
X84087259Y-101248615D01*
X84066617Y-101231981D01*
X81492619Y-98657983D01*
X81459134Y-98596660D01*
X81464118Y-98526968D01*
X81505990Y-98471035D01*
X81571454Y-98446618D01*
X81612386Y-98450526D01*
X81695143Y-98472701D01*
X81695147Y-98472701D01*
X81860853Y-98472701D01*
X81860869Y-98472700D01*
X121321131Y-98472700D01*
X121321147Y-98472701D01*
X121328743Y-98472701D01*
X121486854Y-98472701D01*
X121486857Y-98472701D01*
X121639585Y-98431777D01*
X121689704Y-98402839D01*
X121776516Y-98352720D01*
X121888320Y-98240916D01*
X121888320Y-98240914D01*
X121898528Y-98230707D01*
X121898530Y-98230704D01*
X122642415Y-97486819D01*
X122703738Y-97453334D01*
X122730096Y-97450500D01*
X122873617Y-97450500D01*
X122873618Y-97450499D01*
X123057251Y-97413973D01*
X123230231Y-97342322D01*
X123385908Y-97238302D01*
X123518302Y-97105908D01*
X123622322Y-96950231D01*
X123693973Y-96777251D01*
X123730500Y-96593616D01*
X123730500Y-96406384D01*
X123693973Y-96222749D01*
X123622322Y-96049769D01*
X123622321Y-96049768D01*
X123622318Y-96049762D01*
X123518302Y-95894092D01*
X123518299Y-95894088D01*
X123385911Y-95761700D01*
X123385907Y-95761697D01*
X123230237Y-95657681D01*
X123230228Y-95657676D01*
X123057251Y-95586027D01*
X123057243Y-95586025D01*
X122873620Y-95549500D01*
X122873616Y-95549500D01*
X122686384Y-95549500D01*
X122686379Y-95549500D01*
X122502756Y-95586025D01*
X122502748Y-95586027D01*
X122329771Y-95657676D01*
X122329762Y-95657681D01*
X122174092Y-95761697D01*
X122174088Y-95761700D01*
X122041700Y-95894088D01*
X122041697Y-95894092D01*
X121937681Y-96049762D01*
X121937676Y-96049771D01*
X121866027Y-96222748D01*
X121866025Y-96222756D01*
X121829500Y-96406379D01*
X121829500Y-96549902D01*
X121809815Y-96616941D01*
X121793181Y-96637583D01*
X121195384Y-97235381D01*
X121168456Y-97250084D01*
X121142638Y-97266677D01*
X121136437Y-97267568D01*
X121134061Y-97268866D01*
X121107703Y-97271700D01*
X121099511Y-97271700D01*
X121032472Y-97252015D01*
X120986717Y-97199211D01*
X120976773Y-97130053D01*
X120996409Y-97078809D01*
X121082318Y-96950237D01*
X121082318Y-96950236D01*
X121082322Y-96950231D01*
X121153973Y-96777251D01*
X121190500Y-96593616D01*
X121190500Y-96406384D01*
X121153973Y-96222749D01*
X121082322Y-96049769D01*
X121082321Y-96049768D01*
X121082318Y-96049762D01*
X120978302Y-95894092D01*
X120978299Y-95894088D01*
X120845911Y-95761700D01*
X120845907Y-95761697D01*
X120690237Y-95657681D01*
X120690228Y-95657676D01*
X120517251Y-95586027D01*
X120517243Y-95586025D01*
X120333620Y-95549500D01*
X120333616Y-95549500D01*
X120146384Y-95549500D01*
X120146379Y-95549500D01*
X119962756Y-95586025D01*
X119962748Y-95586027D01*
X119789771Y-95657676D01*
X119789762Y-95657681D01*
X119634092Y-95761697D01*
X119634088Y-95761700D01*
X119501700Y-95894088D01*
X119501697Y-95894092D01*
X119397681Y-96049762D01*
X119397676Y-96049771D01*
X119326027Y-96222748D01*
X119326025Y-96222756D01*
X119289500Y-96406379D01*
X119289500Y-96593620D01*
X119326025Y-96777243D01*
X119326027Y-96777251D01*
X119397676Y-96950228D01*
X119397681Y-96950237D01*
X119483591Y-97078809D01*
X119504469Y-97145486D01*
X119485985Y-97212867D01*
X119434006Y-97259557D01*
X119380489Y-97271700D01*
X118559511Y-97271700D01*
X118492472Y-97252015D01*
X118446717Y-97199211D01*
X118436773Y-97130053D01*
X118456409Y-97078809D01*
X118542318Y-96950237D01*
X118542318Y-96950236D01*
X118542322Y-96950231D01*
X118613973Y-96777251D01*
X118650500Y-96593616D01*
X118650500Y-96406384D01*
X118613973Y-96222749D01*
X118542322Y-96049769D01*
X118542321Y-96049768D01*
X118542318Y-96049762D01*
X118438302Y-95894092D01*
X118438299Y-95894088D01*
X118305911Y-95761700D01*
X118305907Y-95761697D01*
X118150237Y-95657681D01*
X118150228Y-95657676D01*
X117977251Y-95586027D01*
X117977243Y-95586025D01*
X117793620Y-95549500D01*
X117793616Y-95549500D01*
X117606384Y-95549500D01*
X117606379Y-95549500D01*
X117422756Y-95586025D01*
X117422748Y-95586027D01*
X117249771Y-95657676D01*
X117249762Y-95657681D01*
X117094092Y-95761697D01*
X117094088Y-95761700D01*
X116961700Y-95894088D01*
X116961697Y-95894092D01*
X116857681Y-96049762D01*
X116857676Y-96049771D01*
X116786027Y-96222748D01*
X116786025Y-96222756D01*
X116749500Y-96406379D01*
X116749500Y-96593620D01*
X116786025Y-96777243D01*
X116786027Y-96777251D01*
X116857676Y-96950228D01*
X116857681Y-96950237D01*
X116943591Y-97078809D01*
X116964469Y-97145486D01*
X116945985Y-97212867D01*
X116894006Y-97259557D01*
X116840489Y-97271700D01*
X116019511Y-97271700D01*
X115952472Y-97252015D01*
X115906717Y-97199211D01*
X115896773Y-97130053D01*
X115916409Y-97078809D01*
X116002318Y-96950237D01*
X116002318Y-96950236D01*
X116002322Y-96950231D01*
X116073973Y-96777251D01*
X116110500Y-96593616D01*
X116110500Y-96406384D01*
X116073973Y-96222749D01*
X116002322Y-96049769D01*
X116002321Y-96049768D01*
X116002318Y-96049762D01*
X115898302Y-95894092D01*
X115898299Y-95894088D01*
X115765911Y-95761700D01*
X115765907Y-95761697D01*
X115610237Y-95657681D01*
X115610228Y-95657676D01*
X115437251Y-95586027D01*
X115437243Y-95586025D01*
X115253620Y-95549500D01*
X115253616Y-95549500D01*
X115066384Y-95549500D01*
X115066379Y-95549500D01*
X114882756Y-95586025D01*
X114882748Y-95586027D01*
X114709771Y-95657676D01*
X114709762Y-95657681D01*
X114554092Y-95761697D01*
X114554088Y-95761700D01*
X114421700Y-95894088D01*
X114421697Y-95894092D01*
X114317681Y-96049762D01*
X114317676Y-96049771D01*
X114246027Y-96222748D01*
X114246025Y-96222756D01*
X114209500Y-96406379D01*
X114209500Y-96593620D01*
X114246025Y-96777243D01*
X114246027Y-96777251D01*
X114317676Y-96950228D01*
X114317681Y-96950237D01*
X114403591Y-97078809D01*
X114424469Y-97145486D01*
X114405985Y-97212867D01*
X114354006Y-97259557D01*
X114300489Y-97271700D01*
X113479511Y-97271700D01*
X113412472Y-97252015D01*
X113366717Y-97199211D01*
X113356773Y-97130053D01*
X113376409Y-97078809D01*
X113462318Y-96950237D01*
X113462318Y-96950236D01*
X113462322Y-96950231D01*
X113533973Y-96777251D01*
X113570500Y-96593616D01*
X113570500Y-96406384D01*
X113533973Y-96222749D01*
X113462322Y-96049769D01*
X113462321Y-96049768D01*
X113462318Y-96049762D01*
X113358302Y-95894092D01*
X113358299Y-95894088D01*
X113225911Y-95761700D01*
X113225907Y-95761697D01*
X113070237Y-95657681D01*
X113070228Y-95657676D01*
X112897251Y-95586027D01*
X112897243Y-95586025D01*
X112713620Y-95549500D01*
X112713616Y-95549500D01*
X112526384Y-95549500D01*
X112526379Y-95549500D01*
X112342756Y-95586025D01*
X112342748Y-95586027D01*
X112169771Y-95657676D01*
X112169762Y-95657681D01*
X112014092Y-95761697D01*
X112014088Y-95761700D01*
X111881700Y-95894088D01*
X111881697Y-95894092D01*
X111777681Y-96049762D01*
X111777676Y-96049771D01*
X111706027Y-96222748D01*
X111706025Y-96222756D01*
X111669500Y-96406379D01*
X111669500Y-96593620D01*
X111706025Y-96777243D01*
X111706027Y-96777251D01*
X111777676Y-96950228D01*
X111777681Y-96950237D01*
X111863591Y-97078809D01*
X111884469Y-97145486D01*
X111865985Y-97212867D01*
X111814006Y-97259557D01*
X111760489Y-97271700D01*
X110939511Y-97271700D01*
X110872472Y-97252015D01*
X110826717Y-97199211D01*
X110816773Y-97130053D01*
X110836409Y-97078809D01*
X110922318Y-96950237D01*
X110922318Y-96950236D01*
X110922322Y-96950231D01*
X110993973Y-96777251D01*
X111030500Y-96593616D01*
X111030500Y-96406384D01*
X110993973Y-96222749D01*
X110922322Y-96049769D01*
X110922321Y-96049768D01*
X110922318Y-96049762D01*
X110818302Y-95894092D01*
X110818299Y-95894088D01*
X110685911Y-95761700D01*
X110685907Y-95761697D01*
X110530237Y-95657681D01*
X110530228Y-95657676D01*
X110357251Y-95586027D01*
X110357243Y-95586025D01*
X110173620Y-95549500D01*
X110173616Y-95549500D01*
X109986384Y-95549500D01*
X109986379Y-95549500D01*
X109802756Y-95586025D01*
X109802748Y-95586027D01*
X109629771Y-95657676D01*
X109629762Y-95657681D01*
X109474092Y-95761697D01*
X109474088Y-95761700D01*
X109341700Y-95894088D01*
X109341697Y-95894092D01*
X109237681Y-96049762D01*
X109237676Y-96049771D01*
X109166027Y-96222748D01*
X109166025Y-96222756D01*
X109129500Y-96406379D01*
X109129500Y-96593620D01*
X109166025Y-96777243D01*
X109166027Y-96777251D01*
X109237676Y-96950228D01*
X109237681Y-96950237D01*
X109323591Y-97078809D01*
X109344469Y-97145486D01*
X109325985Y-97212867D01*
X109274006Y-97259557D01*
X109220489Y-97271700D01*
X108399511Y-97271700D01*
X108332472Y-97252015D01*
X108286717Y-97199211D01*
X108276773Y-97130053D01*
X108296409Y-97078809D01*
X108382318Y-96950237D01*
X108382318Y-96950236D01*
X108382322Y-96950231D01*
X108453973Y-96777251D01*
X108490500Y-96593616D01*
X108490500Y-96406384D01*
X108453973Y-96222749D01*
X108382322Y-96049769D01*
X108382321Y-96049768D01*
X108382318Y-96049762D01*
X108278302Y-95894092D01*
X108278299Y-95894088D01*
X108145911Y-95761700D01*
X108145907Y-95761697D01*
X107990237Y-95657681D01*
X107990228Y-95657676D01*
X107817251Y-95586027D01*
X107817243Y-95586025D01*
X107633620Y-95549500D01*
X107633616Y-95549500D01*
X107446384Y-95549500D01*
X107446379Y-95549500D01*
X107269093Y-95584764D01*
X107199501Y-95578537D01*
X107157221Y-95550828D01*
X91780415Y-80174022D01*
X91780413Y-80174020D01*
X91734750Y-80147656D01*
X91689089Y-80121293D01*
X91638157Y-80107646D01*
X91587227Y-80094000D01*
X91587226Y-80094000D01*
X63239398Y-80094000D01*
X63172359Y-80074315D01*
X63168740Y-80071899D01*
X63159591Y-80065555D01*
X63108016Y-80013980D01*
X62971776Y-79935323D01*
X62967560Y-79932399D01*
X62948711Y-79909038D01*
X62928003Y-79887321D01*
X62927003Y-79882134D01*
X62923686Y-79878023D01*
X62920459Y-79848187D01*
X62914779Y-79818714D01*
X62916742Y-79813808D01*
X62916175Y-79808558D01*
X62929590Y-79781716D01*
X62940747Y-79753849D01*
X62945050Y-79750784D01*
X62947412Y-79746060D01*
X62973211Y-79730730D01*
X62997661Y-79713320D01*
X63004429Y-79712181D01*
X63007479Y-79710370D01*
X63013869Y-79710594D01*
X63038218Y-79706500D01*
X97162996Y-79706500D01*
X97254040Y-79688389D01*
X97298328Y-79679580D01*
X97362069Y-79653177D01*
X97425807Y-79626777D01*
X97425808Y-79626776D01*
X97425811Y-79626775D01*
X97540543Y-79550114D01*
X99923838Y-77166819D01*
X99985161Y-77133334D01*
X100011519Y-77130500D01*
X100013617Y-77130500D01*
X100013618Y-77130499D01*
X100197251Y-77093973D01*
X100370231Y-77022322D01*
X100525908Y-76918302D01*
X100658302Y-76785908D01*
X100762322Y-76630231D01*
X100833973Y-76457251D01*
X100870500Y-76273616D01*
X100870500Y-76086384D01*
X100870499Y-76086379D01*
X101509500Y-76086379D01*
X101509500Y-76273620D01*
X101546025Y-76457243D01*
X101546027Y-76457251D01*
X101617676Y-76630228D01*
X101617681Y-76630237D01*
X101721697Y-76785907D01*
X101721700Y-76785911D01*
X101854088Y-76918299D01*
X101854092Y-76918302D01*
X102009762Y-77022318D01*
X102009771Y-77022323D01*
X102048956Y-77038554D01*
X102182749Y-77093973D01*
X102366379Y-77130499D01*
X102366383Y-77130500D01*
X102366384Y-77130500D01*
X102553617Y-77130500D01*
X102553618Y-77130499D01*
X102737251Y-77093973D01*
X102910231Y-77022322D01*
X103065908Y-76918302D01*
X103198302Y-76785908D01*
X103302322Y-76630231D01*
X103373973Y-76457251D01*
X103410500Y-76273616D01*
X103410500Y-76086384D01*
X103410499Y-76086379D01*
X104049500Y-76086379D01*
X104049500Y-76273620D01*
X104086025Y-76457243D01*
X104086027Y-76457251D01*
X104157676Y-76630228D01*
X104157681Y-76630237D01*
X104261697Y-76785907D01*
X104261700Y-76785911D01*
X104394088Y-76918299D01*
X104394092Y-76918302D01*
X104549762Y-77022318D01*
X104549771Y-77022323D01*
X104588956Y-77038554D01*
X104722749Y-77093973D01*
X104906379Y-77130499D01*
X104906383Y-77130500D01*
X104906384Y-77130500D01*
X105093617Y-77130500D01*
X105093618Y-77130499D01*
X105277251Y-77093973D01*
X105450231Y-77022322D01*
X105605908Y-76918302D01*
X105738302Y-76785908D01*
X105842322Y-76630231D01*
X105913973Y-76457251D01*
X105950500Y-76273616D01*
X105950500Y-76086384D01*
X105950499Y-76086379D01*
X106589500Y-76086379D01*
X106589500Y-76273620D01*
X106626025Y-76457243D01*
X106626027Y-76457251D01*
X106697676Y-76630228D01*
X106697681Y-76630237D01*
X106801697Y-76785907D01*
X106801700Y-76785911D01*
X106934088Y-76918299D01*
X106934092Y-76918302D01*
X107089762Y-77022318D01*
X107089771Y-77022323D01*
X107128956Y-77038554D01*
X107262749Y-77093973D01*
X107446379Y-77130499D01*
X107446383Y-77130500D01*
X107446384Y-77130500D01*
X107633617Y-77130500D01*
X107633618Y-77130499D01*
X107817251Y-77093973D01*
X107990231Y-77022322D01*
X108145908Y-76918302D01*
X108278302Y-76785908D01*
X108382322Y-76630231D01*
X108453973Y-76457251D01*
X108490500Y-76273616D01*
X108490500Y-76086384D01*
X108490499Y-76086379D01*
X109129500Y-76086379D01*
X109129500Y-76273620D01*
X109166025Y-76457243D01*
X109166027Y-76457251D01*
X109237676Y-76630228D01*
X109237681Y-76630237D01*
X109341697Y-76785907D01*
X109341700Y-76785911D01*
X109474088Y-76918299D01*
X109474092Y-76918302D01*
X109629762Y-77022318D01*
X109629771Y-77022323D01*
X109668956Y-77038554D01*
X109802749Y-77093973D01*
X109986379Y-77130499D01*
X109986383Y-77130500D01*
X109986384Y-77130500D01*
X110173617Y-77130500D01*
X110173618Y-77130499D01*
X110357251Y-77093973D01*
X110530231Y-77022322D01*
X110685908Y-76918302D01*
X110818302Y-76785908D01*
X110922322Y-76630231D01*
X110993973Y-76457251D01*
X111030500Y-76273616D01*
X111030500Y-76086384D01*
X111030499Y-76086379D01*
X111669500Y-76086379D01*
X111669500Y-76273620D01*
X111706025Y-76457243D01*
X111706027Y-76457251D01*
X111777676Y-76630228D01*
X111777681Y-76630237D01*
X111881697Y-76785907D01*
X111881700Y-76785911D01*
X112014088Y-76918299D01*
X112014092Y-76918302D01*
X112169762Y-77022318D01*
X112169771Y-77022323D01*
X112208956Y-77038554D01*
X112342749Y-77093973D01*
X112526379Y-77130499D01*
X112526383Y-77130500D01*
X112526384Y-77130500D01*
X112713617Y-77130500D01*
X112713618Y-77130499D01*
X112897251Y-77093973D01*
X113070231Y-77022322D01*
X113225908Y-76918302D01*
X113358302Y-76785908D01*
X113462322Y-76630231D01*
X113533973Y-76457251D01*
X113570500Y-76273616D01*
X113570500Y-76086384D01*
X113570499Y-76086379D01*
X114209500Y-76086379D01*
X114209500Y-76273620D01*
X114246025Y-76457243D01*
X114246027Y-76457251D01*
X114317676Y-76630228D01*
X114317681Y-76630237D01*
X114421697Y-76785907D01*
X114421700Y-76785911D01*
X114554088Y-76918299D01*
X114554092Y-76918302D01*
X114709762Y-77022318D01*
X114709771Y-77022323D01*
X114748956Y-77038554D01*
X114882749Y-77093973D01*
X115066379Y-77130499D01*
X115066383Y-77130500D01*
X115066384Y-77130500D01*
X115253617Y-77130500D01*
X115253618Y-77130499D01*
X115437251Y-77093973D01*
X115610231Y-77022322D01*
X115765908Y-76918302D01*
X115898302Y-76785908D01*
X116002322Y-76630231D01*
X116073973Y-76457251D01*
X116110500Y-76273616D01*
X116110500Y-76086384D01*
X116110499Y-76086379D01*
X116749500Y-76086379D01*
X116749500Y-76273620D01*
X116786025Y-76457243D01*
X116786027Y-76457251D01*
X116857676Y-76630228D01*
X116857681Y-76630237D01*
X116961697Y-76785907D01*
X116961700Y-76785911D01*
X117094088Y-76918299D01*
X117094092Y-76918302D01*
X117249762Y-77022318D01*
X117249771Y-77022323D01*
X117288956Y-77038554D01*
X117422749Y-77093973D01*
X117606379Y-77130499D01*
X117606383Y-77130500D01*
X117606384Y-77130500D01*
X117793617Y-77130500D01*
X117793618Y-77130499D01*
X117977251Y-77093973D01*
X118150231Y-77022322D01*
X118305908Y-76918302D01*
X118438302Y-76785908D01*
X118542322Y-76630231D01*
X118613973Y-76457251D01*
X118650500Y-76273616D01*
X118650500Y-76086384D01*
X118650499Y-76086379D01*
X119289500Y-76086379D01*
X119289500Y-76273620D01*
X119326025Y-76457243D01*
X119326027Y-76457251D01*
X119397676Y-76630228D01*
X119397681Y-76630237D01*
X119501697Y-76785907D01*
X119501700Y-76785911D01*
X119634088Y-76918299D01*
X119634092Y-76918302D01*
X119789762Y-77022318D01*
X119789771Y-77022323D01*
X119828956Y-77038554D01*
X119962749Y-77093973D01*
X120146379Y-77130499D01*
X120146383Y-77130500D01*
X120146384Y-77130500D01*
X120333617Y-77130500D01*
X120333618Y-77130499D01*
X120517251Y-77093973D01*
X120690231Y-77022322D01*
X120845908Y-76918302D01*
X120978302Y-76785908D01*
X121082322Y-76630231D01*
X121153973Y-76457251D01*
X121190500Y-76273616D01*
X121190500Y-76086384D01*
X121153973Y-75902749D01*
X121082322Y-75729769D01*
X121082321Y-75729768D01*
X121082318Y-75729762D01*
X120978302Y-75574092D01*
X120978299Y-75574088D01*
X120845911Y-75441700D01*
X120845907Y-75441697D01*
X120690237Y-75337681D01*
X120690228Y-75337676D01*
X120517251Y-75266027D01*
X120517243Y-75266025D01*
X120333620Y-75229500D01*
X120333616Y-75229500D01*
X120146384Y-75229500D01*
X120146379Y-75229500D01*
X119962756Y-75266025D01*
X119962748Y-75266027D01*
X119789771Y-75337676D01*
X119789762Y-75337681D01*
X119634092Y-75441697D01*
X119634088Y-75441700D01*
X119501700Y-75574088D01*
X119501697Y-75574092D01*
X119397681Y-75729762D01*
X119397676Y-75729771D01*
X119326027Y-75902748D01*
X119326025Y-75902756D01*
X119289500Y-76086379D01*
X118650499Y-76086379D01*
X118613973Y-75902749D01*
X118542322Y-75729769D01*
X118542321Y-75729768D01*
X118542318Y-75729762D01*
X118438302Y-75574092D01*
X118438299Y-75574088D01*
X118305911Y-75441700D01*
X118305907Y-75441697D01*
X118150237Y-75337681D01*
X118150228Y-75337676D01*
X117977251Y-75266027D01*
X117977243Y-75266025D01*
X117793620Y-75229500D01*
X117793616Y-75229500D01*
X117606384Y-75229500D01*
X117606379Y-75229500D01*
X117422756Y-75266025D01*
X117422748Y-75266027D01*
X117249771Y-75337676D01*
X117249762Y-75337681D01*
X117094092Y-75441697D01*
X117094088Y-75441700D01*
X116961700Y-75574088D01*
X116961697Y-75574092D01*
X116857681Y-75729762D01*
X116857676Y-75729771D01*
X116786027Y-75902748D01*
X116786025Y-75902756D01*
X116749500Y-76086379D01*
X116110499Y-76086379D01*
X116073973Y-75902749D01*
X116002322Y-75729769D01*
X116002321Y-75729768D01*
X116002318Y-75729762D01*
X115898302Y-75574092D01*
X115898299Y-75574088D01*
X115765911Y-75441700D01*
X115765907Y-75441697D01*
X115610237Y-75337681D01*
X115610228Y-75337676D01*
X115437251Y-75266027D01*
X115437243Y-75266025D01*
X115253620Y-75229500D01*
X115253616Y-75229500D01*
X115066384Y-75229500D01*
X115066379Y-75229500D01*
X114882756Y-75266025D01*
X114882748Y-75266027D01*
X114709771Y-75337676D01*
X114709762Y-75337681D01*
X114554092Y-75441697D01*
X114554088Y-75441700D01*
X114421700Y-75574088D01*
X114421697Y-75574092D01*
X114317681Y-75729762D01*
X114317676Y-75729771D01*
X114246027Y-75902748D01*
X114246025Y-75902756D01*
X114209500Y-76086379D01*
X113570499Y-76086379D01*
X113533973Y-75902749D01*
X113462322Y-75729769D01*
X113462321Y-75729768D01*
X113462318Y-75729762D01*
X113358302Y-75574092D01*
X113358299Y-75574088D01*
X113225911Y-75441700D01*
X113225907Y-75441697D01*
X113070237Y-75337681D01*
X113070228Y-75337676D01*
X112897251Y-75266027D01*
X112897243Y-75266025D01*
X112713620Y-75229500D01*
X112713616Y-75229500D01*
X112526384Y-75229500D01*
X112526379Y-75229500D01*
X112342756Y-75266025D01*
X112342748Y-75266027D01*
X112169771Y-75337676D01*
X112169762Y-75337681D01*
X112014092Y-75441697D01*
X112014088Y-75441700D01*
X111881700Y-75574088D01*
X111881697Y-75574092D01*
X111777681Y-75729762D01*
X111777676Y-75729771D01*
X111706027Y-75902748D01*
X111706025Y-75902756D01*
X111669500Y-76086379D01*
X111030499Y-76086379D01*
X110993973Y-75902749D01*
X110922322Y-75729769D01*
X110922321Y-75729768D01*
X110922318Y-75729762D01*
X110818302Y-75574092D01*
X110818299Y-75574088D01*
X110685911Y-75441700D01*
X110685907Y-75441697D01*
X110530237Y-75337681D01*
X110530228Y-75337676D01*
X110357251Y-75266027D01*
X110357243Y-75266025D01*
X110173620Y-75229500D01*
X110173616Y-75229500D01*
X109986384Y-75229500D01*
X109986379Y-75229500D01*
X109802756Y-75266025D01*
X109802748Y-75266027D01*
X109629771Y-75337676D01*
X109629762Y-75337681D01*
X109474092Y-75441697D01*
X109474088Y-75441700D01*
X109341700Y-75574088D01*
X109341697Y-75574092D01*
X109237681Y-75729762D01*
X109237676Y-75729771D01*
X109166027Y-75902748D01*
X109166025Y-75902756D01*
X109129500Y-76086379D01*
X108490499Y-76086379D01*
X108453973Y-75902749D01*
X108382322Y-75729769D01*
X108382321Y-75729768D01*
X108382318Y-75729762D01*
X108278302Y-75574092D01*
X108278299Y-75574088D01*
X108145911Y-75441700D01*
X108145907Y-75441697D01*
X107990237Y-75337681D01*
X107990228Y-75337676D01*
X107817251Y-75266027D01*
X107817243Y-75266025D01*
X107633620Y-75229500D01*
X107633616Y-75229500D01*
X107446384Y-75229500D01*
X107446379Y-75229500D01*
X107262756Y-75266025D01*
X107262748Y-75266027D01*
X107089771Y-75337676D01*
X107089762Y-75337681D01*
X106934092Y-75441697D01*
X106934088Y-75441700D01*
X106801700Y-75574088D01*
X106801697Y-75574092D01*
X106697681Y-75729762D01*
X106697676Y-75729771D01*
X106626027Y-75902748D01*
X106626025Y-75902756D01*
X106589500Y-76086379D01*
X105950499Y-76086379D01*
X105913973Y-75902749D01*
X105842322Y-75729769D01*
X105842321Y-75729768D01*
X105842318Y-75729762D01*
X105738302Y-75574092D01*
X105738299Y-75574088D01*
X105605911Y-75441700D01*
X105605907Y-75441697D01*
X105450237Y-75337681D01*
X105450228Y-75337676D01*
X105277251Y-75266027D01*
X105277243Y-75266025D01*
X105093620Y-75229500D01*
X105093616Y-75229500D01*
X104906384Y-75229500D01*
X104906379Y-75229500D01*
X104722756Y-75266025D01*
X104722748Y-75266027D01*
X104549771Y-75337676D01*
X104549762Y-75337681D01*
X104394092Y-75441697D01*
X104394088Y-75441700D01*
X104261700Y-75574088D01*
X104261697Y-75574092D01*
X104157681Y-75729762D01*
X104157676Y-75729771D01*
X104086027Y-75902748D01*
X104086025Y-75902756D01*
X104049500Y-76086379D01*
X103410499Y-76086379D01*
X103373973Y-75902749D01*
X103302322Y-75729769D01*
X103302321Y-75729768D01*
X103302318Y-75729762D01*
X103198302Y-75574092D01*
X103198299Y-75574088D01*
X103065911Y-75441700D01*
X103065907Y-75441697D01*
X102910237Y-75337681D01*
X102910228Y-75337676D01*
X102737251Y-75266027D01*
X102737243Y-75266025D01*
X102553620Y-75229500D01*
X102553616Y-75229500D01*
X102366384Y-75229500D01*
X102366379Y-75229500D01*
X102182756Y-75266025D01*
X102182748Y-75266027D01*
X102009771Y-75337676D01*
X102009762Y-75337681D01*
X101854092Y-75441697D01*
X101854088Y-75441700D01*
X101721700Y-75574088D01*
X101721697Y-75574092D01*
X101617681Y-75729762D01*
X101617676Y-75729771D01*
X101546027Y-75902748D01*
X101546025Y-75902756D01*
X101509500Y-76086379D01*
X100870499Y-76086379D01*
X100833973Y-75902749D01*
X100762322Y-75729769D01*
X100762321Y-75729768D01*
X100762318Y-75729762D01*
X100658302Y-75574092D01*
X100658299Y-75574088D01*
X100525911Y-75441700D01*
X100525907Y-75441697D01*
X100370237Y-75337681D01*
X100370228Y-75337676D01*
X100197251Y-75266027D01*
X100197243Y-75266025D01*
X100013620Y-75229500D01*
X100013616Y-75229500D01*
X99826384Y-75229500D01*
X99826379Y-75229500D01*
X99642756Y-75266025D01*
X99642748Y-75266027D01*
X99469771Y-75337676D01*
X99469762Y-75337681D01*
X99314092Y-75441697D01*
X99314088Y-75441700D01*
X99181700Y-75574088D01*
X99181697Y-75574092D01*
X99077681Y-75729762D01*
X99077676Y-75729771D01*
X99006027Y-75902748D01*
X99006025Y-75902756D01*
X98969500Y-76086379D01*
X98969500Y-76088481D01*
X98969189Y-76089539D01*
X98968903Y-76092445D01*
X98968351Y-76092390D01*
X98949815Y-76155520D01*
X98933181Y-76176162D01*
X98481547Y-76627795D01*
X98420224Y-76661280D01*
X98350532Y-76656296D01*
X98294599Y-76614424D01*
X98270182Y-76548960D01*
X98279304Y-76492664D01*
X98293973Y-76457251D01*
X98330500Y-76273616D01*
X98330500Y-76086384D01*
X98293973Y-75902749D01*
X98222322Y-75729769D01*
X98222321Y-75729768D01*
X98222318Y-75729762D01*
X98118302Y-75574092D01*
X98118299Y-75574088D01*
X97985911Y-75441700D01*
X97985907Y-75441697D01*
X97830237Y-75337681D01*
X97830228Y-75337676D01*
X97657251Y-75266027D01*
X97657243Y-75266025D01*
X97473620Y-75229500D01*
X97473616Y-75229500D01*
X97286384Y-75229500D01*
X97286379Y-75229500D01*
X97102756Y-75266025D01*
X97102748Y-75266027D01*
X96929771Y-75337676D01*
X96929762Y-75337681D01*
X96774092Y-75441697D01*
X96774088Y-75441700D01*
X96641700Y-75574088D01*
X96641697Y-75574092D01*
X96537681Y-75729762D01*
X96537676Y-75729771D01*
X96466027Y-75902748D01*
X96466025Y-75902756D01*
X96429500Y-76086379D01*
X96429500Y-76273620D01*
X96466025Y-76457243D01*
X96466027Y-76457251D01*
X96537676Y-76630228D01*
X96537681Y-76630237D01*
X96641697Y-76785907D01*
X96641700Y-76785911D01*
X96774088Y-76918299D01*
X96774092Y-76918302D01*
X96929762Y-77022318D01*
X96929771Y-77022323D01*
X96968956Y-77038554D01*
X97102749Y-77093973D01*
X97286379Y-77130499D01*
X97286383Y-77130500D01*
X97286384Y-77130500D01*
X97473617Y-77130500D01*
X97473618Y-77130499D01*
X97657251Y-77093973D01*
X97692663Y-77079304D01*
X97762129Y-77071836D01*
X97824609Y-77103110D01*
X97860262Y-77163199D01*
X97857769Y-77233024D01*
X97827795Y-77281547D01*
X96840162Y-78269181D01*
X96778839Y-78302666D01*
X96752481Y-78305500D01*
X74477061Y-78305500D01*
X74410022Y-78285815D01*
X74364267Y-78233011D01*
X74354323Y-78163853D01*
X74373959Y-78112609D01*
X74466628Y-77973920D01*
X74466628Y-77973919D01*
X74466632Y-77973914D01*
X74542051Y-77791835D01*
X74580500Y-77598541D01*
X74580500Y-77401459D01*
X74580500Y-77401456D01*
X74542052Y-77208170D01*
X74542051Y-77208169D01*
X74542051Y-77208165D01*
X74511055Y-77133334D01*
X74466635Y-77026092D01*
X74466628Y-77026079D01*
X74357139Y-76862218D01*
X74357136Y-76862214D01*
X74217785Y-76722863D01*
X74217781Y-76722860D01*
X74053920Y-76613371D01*
X74053907Y-76613364D01*
X73871839Y-76537950D01*
X73871829Y-76537947D01*
X73678543Y-76499500D01*
X73678541Y-76499500D01*
X73481459Y-76499500D01*
X73481457Y-76499500D01*
X73288170Y-76537947D01*
X73288160Y-76537950D01*
X73106092Y-76613364D01*
X73106079Y-76613371D01*
X72942218Y-76722860D01*
X72942214Y-76722863D01*
X72802863Y-76862214D01*
X72802860Y-76862218D01*
X72693371Y-77026079D01*
X72693364Y-77026092D01*
X72617950Y-77208160D01*
X72617947Y-77208170D01*
X72579500Y-77401456D01*
X72579500Y-77401459D01*
X72579500Y-77598541D01*
X72579500Y-77598543D01*
X72579499Y-77598543D01*
X72617947Y-77791829D01*
X72617950Y-77791839D01*
X72693364Y-77973907D01*
X72693371Y-77973920D01*
X72786041Y-78112609D01*
X72806919Y-78179286D01*
X72788435Y-78246667D01*
X72736456Y-78293357D01*
X72682939Y-78305500D01*
X70741761Y-78305500D01*
X70674722Y-78285815D01*
X70628967Y-78233011D01*
X70619023Y-78163853D01*
X70648048Y-78100297D01*
X70686860Y-78070316D01*
X70697838Y-78064895D01*
X70717685Y-78059577D01*
X70767804Y-78030639D01*
X70854616Y-77980520D01*
X70966420Y-77868716D01*
X70966420Y-77868714D01*
X70976628Y-77858507D01*
X70976629Y-77858504D01*
X72748754Y-76086379D01*
X93889500Y-76086379D01*
X93889500Y-76273620D01*
X93926025Y-76457243D01*
X93926027Y-76457251D01*
X93997676Y-76630228D01*
X93997681Y-76630237D01*
X94101697Y-76785907D01*
X94101700Y-76785911D01*
X94234088Y-76918299D01*
X94234092Y-76918302D01*
X94389762Y-77022318D01*
X94389771Y-77022323D01*
X94428956Y-77038554D01*
X94562749Y-77093973D01*
X94746379Y-77130499D01*
X94746383Y-77130500D01*
X94746384Y-77130500D01*
X94933617Y-77130500D01*
X94933618Y-77130499D01*
X95117251Y-77093973D01*
X95290231Y-77022322D01*
X95445908Y-76918302D01*
X95578302Y-76785908D01*
X95682322Y-76630231D01*
X95753973Y-76457251D01*
X95790500Y-76273616D01*
X95790500Y-76086384D01*
X95753973Y-75902749D01*
X95682322Y-75729769D01*
X95682321Y-75729768D01*
X95682318Y-75729762D01*
X95578302Y-75574092D01*
X95578299Y-75574088D01*
X95445911Y-75441700D01*
X95445907Y-75441697D01*
X95290237Y-75337681D01*
X95290228Y-75337676D01*
X95117251Y-75266027D01*
X95117243Y-75266025D01*
X94933620Y-75229500D01*
X94933616Y-75229500D01*
X94746384Y-75229500D01*
X94746379Y-75229500D01*
X94562756Y-75266025D01*
X94562748Y-75266027D01*
X94389771Y-75337676D01*
X94389762Y-75337681D01*
X94234092Y-75441697D01*
X94234088Y-75441700D01*
X94101700Y-75574088D01*
X94101697Y-75574092D01*
X93997681Y-75729762D01*
X93997676Y-75729771D01*
X93926027Y-75902748D01*
X93926025Y-75902756D01*
X93889500Y-76086379D01*
X72748754Y-76086379D01*
X77736591Y-71098543D01*
X102919499Y-71098543D01*
X102957947Y-71291829D01*
X102957950Y-71291839D01*
X103033364Y-71473907D01*
X103033371Y-71473920D01*
X103142860Y-71637781D01*
X103142863Y-71637785D01*
X103282214Y-71777136D01*
X103282218Y-71777139D01*
X103446079Y-71886628D01*
X103446092Y-71886635D01*
X103628160Y-71962049D01*
X103628165Y-71962051D01*
X103628169Y-71962051D01*
X103628170Y-71962052D01*
X103821456Y-72000500D01*
X103821459Y-72000500D01*
X104018543Y-72000500D01*
X104148582Y-71974632D01*
X104211835Y-71962051D01*
X104211842Y-71962047D01*
X104217662Y-71960283D01*
X104218281Y-71962325D01*
X104278131Y-71955872D01*
X104340620Y-71987127D01*
X104343835Y-71990228D01*
X106122379Y-73768771D01*
X106122389Y-73768782D01*
X106126719Y-73773112D01*
X106126720Y-73773113D01*
X106201287Y-73847680D01*
X106292613Y-73900407D01*
X106394474Y-73927701D01*
X106394477Y-73927701D01*
X106507523Y-73927701D01*
X106507539Y-73927700D01*
X119909945Y-73927700D01*
X119976984Y-73947385D01*
X119997626Y-73964019D01*
X121830828Y-75797220D01*
X121864313Y-75858543D01*
X121864765Y-75909092D01*
X121829501Y-76086383D01*
X121829500Y-76086386D01*
X121829500Y-76273620D01*
X121866025Y-76457243D01*
X121866027Y-76457251D01*
X121937676Y-76630228D01*
X121937681Y-76630237D01*
X122041697Y-76785907D01*
X122041700Y-76785911D01*
X122174088Y-76918299D01*
X122174092Y-76918302D01*
X122329762Y-77022318D01*
X122329771Y-77022323D01*
X122368956Y-77038554D01*
X122502749Y-77093973D01*
X122686379Y-77130499D01*
X122686383Y-77130500D01*
X122686384Y-77130500D01*
X122873617Y-77130500D01*
X122873618Y-77130499D01*
X123057251Y-77093973D01*
X123230231Y-77022322D01*
X123385908Y-76918302D01*
X123518302Y-76785908D01*
X123622322Y-76630231D01*
X123693973Y-76457251D01*
X123730500Y-76273616D01*
X123730500Y-76086384D01*
X123693973Y-75902749D01*
X123622322Y-75729769D01*
X123622321Y-75729768D01*
X123622318Y-75729762D01*
X123518302Y-75574092D01*
X123518299Y-75574088D01*
X123385911Y-75441700D01*
X123385907Y-75441697D01*
X123230237Y-75337681D01*
X123230228Y-75337676D01*
X123057251Y-75266027D01*
X123057243Y-75266025D01*
X122873620Y-75229500D01*
X122873616Y-75229500D01*
X122686384Y-75229500D01*
X122586496Y-75249368D01*
X122509092Y-75264765D01*
X122439500Y-75258537D01*
X122397220Y-75230828D01*
X120373115Y-73206722D01*
X120373114Y-73206721D01*
X120373113Y-73206720D01*
X120327450Y-73180356D01*
X120281789Y-73153993D01*
X120230857Y-73140346D01*
X120179927Y-73126700D01*
X120179926Y-73126700D01*
X106664454Y-73126700D01*
X106597415Y-73107015D01*
X106576773Y-73090381D01*
X104910228Y-71423835D01*
X104876743Y-71362512D01*
X104881357Y-71297987D01*
X104880283Y-71297662D01*
X104881719Y-71292927D01*
X104881727Y-71292820D01*
X104881835Y-71292543D01*
X104882049Y-71291839D01*
X104882051Y-71291835D01*
X104900418Y-71199500D01*
X104920500Y-71098543D01*
X104920500Y-70901456D01*
X104882052Y-70708170D01*
X104882051Y-70708166D01*
X104882051Y-70708165D01*
X104879501Y-70702009D01*
X104806635Y-70526092D01*
X104806628Y-70526079D01*
X104697139Y-70362218D01*
X104697136Y-70362214D01*
X104557785Y-70222863D01*
X104557781Y-70222860D01*
X104393920Y-70113371D01*
X104393907Y-70113364D01*
X104211839Y-70037950D01*
X104211829Y-70037947D01*
X104018543Y-69999500D01*
X104018541Y-69999500D01*
X103821459Y-69999500D01*
X103821457Y-69999500D01*
X103628170Y-70037947D01*
X103628160Y-70037950D01*
X103446092Y-70113364D01*
X103446079Y-70113371D01*
X103282218Y-70222860D01*
X103282214Y-70222863D01*
X103142863Y-70362214D01*
X103142860Y-70362218D01*
X103033371Y-70526079D01*
X103033364Y-70526092D01*
X102957950Y-70708160D01*
X102957947Y-70708170D01*
X102919500Y-70901456D01*
X102919500Y-70901459D01*
X102919500Y-71098541D01*
X102919500Y-71098543D01*
X102919499Y-71098543D01*
X77736591Y-71098543D01*
X83104416Y-65730719D01*
X83165739Y-65697234D01*
X83192097Y-65694400D01*
X103023005Y-65694400D01*
X103090044Y-65714085D01*
X103135799Y-65766889D01*
X103145743Y-65836047D01*
X103126107Y-65887291D01*
X103033371Y-66026079D01*
X103033364Y-66026092D01*
X102957950Y-66208160D01*
X102957947Y-66208170D01*
X102919500Y-66401456D01*
X102919500Y-66401459D01*
X102919500Y-66598541D01*
X102919500Y-66598543D01*
X102919499Y-66598543D01*
X102957947Y-66791829D01*
X102957950Y-66791839D01*
X103033364Y-66973907D01*
X103033371Y-66973920D01*
X103142860Y-67137781D01*
X103142863Y-67137785D01*
X103282214Y-67277136D01*
X103282218Y-67277139D01*
X103446079Y-67386628D01*
X103446092Y-67386635D01*
X103628160Y-67462049D01*
X103628165Y-67462051D01*
X103628169Y-67462051D01*
X103628170Y-67462052D01*
X103821456Y-67500500D01*
X103821459Y-67500500D01*
X104018543Y-67500500D01*
X104152196Y-67473914D01*
X104211835Y-67462051D01*
X104211842Y-67462047D01*
X104217662Y-67460283D01*
X104218281Y-67462325D01*
X104278131Y-67455872D01*
X104340620Y-67487127D01*
X104343835Y-67490228D01*
X108174087Y-71320480D01*
X108265412Y-71373207D01*
X108367273Y-71400500D01*
X108472727Y-71400500D01*
X113080105Y-71400500D01*
X113147144Y-71420185D01*
X113189506Y-71469073D01*
X113190498Y-71468544D01*
X113192833Y-71472913D01*
X113192899Y-71472989D01*
X113193009Y-71473243D01*
X113193371Y-71473920D01*
X113302860Y-71637781D01*
X113302863Y-71637785D01*
X113442214Y-71777136D01*
X113442218Y-71777139D01*
X113606079Y-71886628D01*
X113606092Y-71886635D01*
X113788160Y-71962049D01*
X113788165Y-71962051D01*
X113788169Y-71962051D01*
X113788170Y-71962052D01*
X113981456Y-72000500D01*
X113981459Y-72000500D01*
X114178543Y-72000500D01*
X114308582Y-71974632D01*
X114371835Y-71962051D01*
X114553914Y-71886632D01*
X114717782Y-71777139D01*
X114857139Y-71637782D01*
X114966632Y-71473914D01*
X115042051Y-71291835D01*
X115060418Y-71199500D01*
X115080500Y-71098543D01*
X116419499Y-71098543D01*
X116457947Y-71291829D01*
X116457950Y-71291839D01*
X116533364Y-71473907D01*
X116533371Y-71473920D01*
X116642860Y-71637781D01*
X116642863Y-71637785D01*
X116782214Y-71777136D01*
X116782218Y-71777139D01*
X116946079Y-71886628D01*
X116946092Y-71886635D01*
X117128160Y-71962049D01*
X117128165Y-71962051D01*
X117128169Y-71962051D01*
X117128170Y-71962052D01*
X117321456Y-72000500D01*
X117321459Y-72000500D01*
X117518543Y-72000500D01*
X117648582Y-71974632D01*
X117711835Y-71962051D01*
X117893914Y-71886632D01*
X118057782Y-71777139D01*
X118197139Y-71637782D01*
X118306632Y-71473914D01*
X118382051Y-71291835D01*
X118400418Y-71199500D01*
X118420500Y-71098543D01*
X118420500Y-70901456D01*
X118382052Y-70708170D01*
X118382051Y-70708166D01*
X118382051Y-70708165D01*
X118379501Y-70702009D01*
X118306635Y-70526092D01*
X118306628Y-70526079D01*
X118197139Y-70362218D01*
X118197136Y-70362214D01*
X118057785Y-70222863D01*
X118057781Y-70222860D01*
X117893920Y-70113371D01*
X117893907Y-70113364D01*
X117711839Y-70037950D01*
X117711829Y-70037947D01*
X117518543Y-69999500D01*
X117518541Y-69999500D01*
X117321459Y-69999500D01*
X117321457Y-69999500D01*
X117128170Y-70037947D01*
X117128160Y-70037950D01*
X116946092Y-70113364D01*
X116946079Y-70113371D01*
X116782218Y-70222860D01*
X116782214Y-70222863D01*
X116642863Y-70362214D01*
X116642860Y-70362218D01*
X116533371Y-70526079D01*
X116533364Y-70526092D01*
X116457950Y-70708160D01*
X116457947Y-70708170D01*
X116419500Y-70901456D01*
X116419500Y-70901459D01*
X116419500Y-71098541D01*
X116419500Y-71098543D01*
X116419499Y-71098543D01*
X115080500Y-71098543D01*
X115080500Y-70901456D01*
X115042052Y-70708170D01*
X115042051Y-70708166D01*
X115042051Y-70708165D01*
X115039501Y-70702009D01*
X114966635Y-70526092D01*
X114966628Y-70526079D01*
X114857139Y-70362218D01*
X114857136Y-70362214D01*
X114717785Y-70222863D01*
X114717781Y-70222860D01*
X114553920Y-70113371D01*
X114553907Y-70113364D01*
X114371839Y-70037950D01*
X114371829Y-70037947D01*
X114178543Y-69999500D01*
X114178541Y-69999500D01*
X113981459Y-69999500D01*
X113981457Y-69999500D01*
X113788170Y-70037947D01*
X113788160Y-70037950D01*
X113606092Y-70113364D01*
X113606079Y-70113371D01*
X113442218Y-70222860D01*
X113442214Y-70222863D01*
X113302863Y-70362214D01*
X113302860Y-70362218D01*
X113193371Y-70526079D01*
X113190498Y-70531456D01*
X113188618Y-70530451D01*
X113150841Y-70577345D01*
X113084550Y-70599420D01*
X113080105Y-70599500D01*
X108637255Y-70599500D01*
X108570216Y-70579815D01*
X108549574Y-70563181D01*
X104910228Y-66923835D01*
X104876743Y-66862512D01*
X104881357Y-66797987D01*
X104880283Y-66797662D01*
X104881719Y-66792927D01*
X104881727Y-66792820D01*
X104881835Y-66792543D01*
X104882049Y-66791839D01*
X104882051Y-66791835D01*
X104913298Y-66634750D01*
X104920500Y-66598543D01*
X104920500Y-66401456D01*
X104882052Y-66208170D01*
X104882051Y-66208169D01*
X104882051Y-66208165D01*
X104848346Y-66126793D01*
X104806635Y-66026092D01*
X104806628Y-66026079D01*
X104713893Y-65887291D01*
X104693015Y-65820613D01*
X104711500Y-65753233D01*
X104763479Y-65706543D01*
X104816995Y-65694400D01*
X112373803Y-65694400D01*
X112440842Y-65714085D01*
X112461483Y-65730718D01*
X113043182Y-66312418D01*
X113076666Y-66373739D01*
X113079500Y-66400097D01*
X113079500Y-66401459D01*
X113079500Y-66598541D01*
X113079500Y-66598543D01*
X113079499Y-66598543D01*
X113117947Y-66791829D01*
X113117950Y-66791839D01*
X113193364Y-66973907D01*
X113193371Y-66973920D01*
X113302860Y-67137781D01*
X113302863Y-67137785D01*
X113442214Y-67277136D01*
X113442218Y-67277139D01*
X113606079Y-67386628D01*
X113606092Y-67386635D01*
X113788160Y-67462049D01*
X113788165Y-67462051D01*
X113788169Y-67462051D01*
X113788170Y-67462052D01*
X113981456Y-67500500D01*
X113981459Y-67500500D01*
X114178543Y-67500500D01*
X114312196Y-67473914D01*
X114371835Y-67462051D01*
X114553914Y-67386632D01*
X114717782Y-67277139D01*
X114857139Y-67137782D01*
X114966632Y-66973914D01*
X114968441Y-66969548D01*
X115012776Y-66862512D01*
X115042051Y-66791835D01*
X115073298Y-66634750D01*
X115080500Y-66598543D01*
X115080500Y-66400096D01*
X115100185Y-66333057D01*
X115116819Y-66312415D01*
X115403143Y-66026092D01*
X115694116Y-65735119D01*
X115755439Y-65701634D01*
X115781797Y-65698800D01*
X116520065Y-65698800D01*
X116587104Y-65718485D01*
X116632859Y-65771289D01*
X116642803Y-65840447D01*
X116623167Y-65891691D01*
X116533371Y-66026079D01*
X116533364Y-66026092D01*
X116457950Y-66208160D01*
X116457947Y-66208170D01*
X116419500Y-66401456D01*
X116419500Y-66401459D01*
X116419500Y-66598541D01*
X116419500Y-66598543D01*
X116419499Y-66598543D01*
X116457947Y-66791829D01*
X116457950Y-66791839D01*
X116533364Y-66973907D01*
X116533371Y-66973920D01*
X116642860Y-67137781D01*
X116642863Y-67137785D01*
X116782214Y-67277136D01*
X116782218Y-67277139D01*
X116946079Y-67386628D01*
X116946092Y-67386635D01*
X117128160Y-67462049D01*
X117128165Y-67462051D01*
X117128169Y-67462051D01*
X117128170Y-67462052D01*
X117321456Y-67500500D01*
X117321459Y-67500500D01*
X117518543Y-67500500D01*
X117652196Y-67473914D01*
X117711835Y-67462051D01*
X117893914Y-67386632D01*
X118057782Y-67277139D01*
X118197139Y-67137782D01*
X118306632Y-66973914D01*
X118306634Y-66973907D01*
X118309502Y-66968544D01*
X118311381Y-66969548D01*
X118349159Y-66922655D01*
X118415450Y-66900580D01*
X118419895Y-66900500D01*
X122862745Y-66900500D01*
X122929784Y-66920185D01*
X122950426Y-66936819D01*
X126589771Y-70576164D01*
X126623256Y-70637487D01*
X126618641Y-70702009D01*
X126619717Y-70702336D01*
X126618279Y-70707075D01*
X126618272Y-70707179D01*
X126618166Y-70707445D01*
X126617948Y-70708166D01*
X126579500Y-70901456D01*
X126579500Y-70901459D01*
X126579500Y-71098541D01*
X126579500Y-71098543D01*
X126579499Y-71098543D01*
X126617947Y-71291829D01*
X126617950Y-71291839D01*
X126693364Y-71473907D01*
X126693371Y-71473920D01*
X126802860Y-71637781D01*
X126802863Y-71637785D01*
X126942214Y-71777136D01*
X126942218Y-71777139D01*
X127106079Y-71886628D01*
X127106092Y-71886635D01*
X127288160Y-71962049D01*
X127288165Y-71962051D01*
X127288169Y-71962051D01*
X127288170Y-71962052D01*
X127481456Y-72000500D01*
X127481459Y-72000500D01*
X127678543Y-72000500D01*
X127808582Y-71974632D01*
X127871835Y-71962051D01*
X128053914Y-71886632D01*
X128217782Y-71777139D01*
X128357139Y-71637782D01*
X128466632Y-71473914D01*
X128542051Y-71291835D01*
X128560418Y-71199500D01*
X128580500Y-71098543D01*
X128580500Y-70901456D01*
X128542052Y-70708170D01*
X128542051Y-70708166D01*
X128542051Y-70708165D01*
X128539501Y-70702009D01*
X128466635Y-70526092D01*
X128466628Y-70526079D01*
X128357139Y-70362218D01*
X128357136Y-70362214D01*
X128217785Y-70222863D01*
X128217781Y-70222860D01*
X128053920Y-70113371D01*
X128053907Y-70113364D01*
X127871839Y-70037950D01*
X127871829Y-70037947D01*
X127678543Y-69999500D01*
X127678541Y-69999500D01*
X127481459Y-69999500D01*
X127481457Y-69999500D01*
X127288166Y-70037948D01*
X127282336Y-70039717D01*
X127281719Y-70037683D01*
X127221816Y-70044118D01*
X127159340Y-70012837D01*
X127156164Y-70009771D01*
X123325915Y-66179522D01*
X123325913Y-66179520D01*
X123280250Y-66153156D01*
X123234589Y-66126793D01*
X123183657Y-66113146D01*
X123132727Y-66099500D01*
X123132726Y-66099500D01*
X118419895Y-66099500D01*
X118352856Y-66079815D01*
X118316147Y-66043415D01*
X118309783Y-66033693D01*
X118306632Y-66026086D01*
X118216521Y-65891226D01*
X118216187Y-65890715D01*
X118206208Y-65857760D01*
X118195955Y-65825013D01*
X118196115Y-65824426D01*
X118195939Y-65823843D01*
X118205360Y-65790727D01*
X118214440Y-65757633D01*
X118214892Y-65757226D01*
X118215059Y-65756641D01*
X118240869Y-65733893D01*
X118266419Y-65710943D01*
X118267078Y-65710793D01*
X118267476Y-65710443D01*
X118270966Y-65709911D01*
X118319935Y-65698800D01*
X125878203Y-65698800D01*
X125945242Y-65718485D01*
X125965884Y-65735119D01*
X126543181Y-66312416D01*
X126576666Y-66373739D01*
X126579500Y-66400097D01*
X126579500Y-66401459D01*
X126579500Y-66598541D01*
X126579500Y-66598543D01*
X126579499Y-66598543D01*
X126617947Y-66791829D01*
X126617950Y-66791839D01*
X126693364Y-66973907D01*
X126693371Y-66973920D01*
X126802860Y-67137781D01*
X126802863Y-67137785D01*
X126942214Y-67277136D01*
X126942218Y-67277139D01*
X127106079Y-67386628D01*
X127106092Y-67386635D01*
X127288160Y-67462049D01*
X127288165Y-67462051D01*
X127288169Y-67462051D01*
X127288170Y-67462052D01*
X127481456Y-67500500D01*
X127481459Y-67500500D01*
X127678543Y-67500500D01*
X127812196Y-67473914D01*
X127871835Y-67462051D01*
X128053914Y-67386632D01*
X128217782Y-67277139D01*
X128357139Y-67137782D01*
X128466632Y-66973914D01*
X128468441Y-66969548D01*
X128512776Y-66862512D01*
X128542051Y-66791835D01*
X128573298Y-66634750D01*
X128580500Y-66598543D01*
X128580500Y-66401456D01*
X128542052Y-66208170D01*
X128542051Y-66208169D01*
X128542051Y-66208165D01*
X128508346Y-66126793D01*
X128466635Y-66026092D01*
X128466628Y-66026079D01*
X128357139Y-65862218D01*
X128357136Y-65862214D01*
X128217785Y-65722863D01*
X128217781Y-65722860D01*
X128053920Y-65613371D01*
X128053907Y-65613364D01*
X127871839Y-65537950D01*
X127871829Y-65537947D01*
X127678543Y-65499500D01*
X127678541Y-65499500D01*
X127481459Y-65499500D01*
X127480097Y-65499500D01*
X127413058Y-65479815D01*
X127392416Y-65463181D01*
X126665890Y-64736655D01*
X126665888Y-64736652D01*
X126547017Y-64617781D01*
X126547016Y-64617780D01*
X126460204Y-64567660D01*
X126460204Y-64567659D01*
X126460200Y-64567658D01*
X126410085Y-64538723D01*
X126257357Y-64497799D01*
X126099243Y-64497799D01*
X126091647Y-64497799D01*
X126091631Y-64497800D01*
X115560757Y-64497800D01*
X115402643Y-64497800D01*
X115249915Y-64538723D01*
X115249914Y-64538723D01*
X115249912Y-64538724D01*
X115249909Y-64538725D01*
X115199796Y-64567659D01*
X115199795Y-64567660D01*
X115156389Y-64592720D01*
X115112985Y-64617779D01*
X115112982Y-64617781D01*
X114267583Y-65463181D01*
X114240655Y-65477884D01*
X114214837Y-65494477D01*
X114208636Y-65495368D01*
X114206260Y-65496666D01*
X114179902Y-65499500D01*
X113980098Y-65499500D01*
X113913059Y-65479815D01*
X113892417Y-65463181D01*
X113161490Y-64732255D01*
X113161488Y-64732252D01*
X113042617Y-64613381D01*
X113042616Y-64613380D01*
X112955804Y-64563260D01*
X112955804Y-64563259D01*
X112955800Y-64563258D01*
X112905685Y-64534323D01*
X112752957Y-64493399D01*
X112594843Y-64493399D01*
X112587247Y-64493399D01*
X112587231Y-64493400D01*
X82978669Y-64493400D01*
X82978653Y-64493399D01*
X82971057Y-64493399D01*
X82812943Y-64493399D01*
X82705587Y-64522165D01*
X82660210Y-64534324D01*
X82660209Y-64534325D01*
X82610096Y-64563259D01*
X82610095Y-64563260D01*
X82566689Y-64588320D01*
X82523285Y-64613379D01*
X82523282Y-64613381D01*
X74092180Y-73044484D01*
X74030857Y-73077969D01*
X73961165Y-73072985D01*
X73905232Y-73031113D01*
X73880815Y-72965649D01*
X73880499Y-72956803D01*
X73880499Y-71595739D01*
X73880499Y-71595734D01*
X73877646Y-71565300D01*
X73832793Y-71437117D01*
X73820297Y-71420185D01*
X73752150Y-71327849D01*
X73678123Y-71273215D01*
X73642883Y-71247207D01*
X73642881Y-71247206D01*
X73514701Y-71202353D01*
X73484271Y-71199500D01*
X73484267Y-71199500D01*
X71897255Y-71199500D01*
X71830216Y-71179815D01*
X71809574Y-71163181D01*
X67325915Y-66679522D01*
X67325913Y-66679520D01*
X67280250Y-66653156D01*
X67234589Y-66626793D01*
X67183657Y-66613146D01*
X67132727Y-66599500D01*
X67132726Y-66599500D01*
X63419895Y-66599500D01*
X63352856Y-66579815D01*
X63310493Y-66530926D01*
X63309502Y-66531456D01*
X63307166Y-66527086D01*
X63307101Y-66527011D01*
X63306990Y-66526756D01*
X63306628Y-66526079D01*
X63197139Y-66362218D01*
X63197136Y-66362214D01*
X63057785Y-66222863D01*
X63057781Y-66222860D01*
X62893920Y-66113371D01*
X62893907Y-66113364D01*
X62711839Y-66037950D01*
X62711829Y-66037947D01*
X62518543Y-65999500D01*
X62518541Y-65999500D01*
X62321459Y-65999500D01*
X62321457Y-65999500D01*
X62128170Y-66037947D01*
X62128160Y-66037950D01*
X61946092Y-66113364D01*
X61946079Y-66113371D01*
X61782218Y-66222860D01*
X61782214Y-66222863D01*
X61642863Y-66362214D01*
X61642860Y-66362218D01*
X61533371Y-66526079D01*
X61533364Y-66526092D01*
X61457950Y-66708160D01*
X61457947Y-66708170D01*
X61419500Y-66901456D01*
X61419500Y-66901459D01*
X61419500Y-67098541D01*
X61419500Y-67098543D01*
X61419499Y-67098543D01*
X61457947Y-67291829D01*
X61457950Y-67291839D01*
X61533364Y-67473907D01*
X61533371Y-67473920D01*
X61642860Y-67637781D01*
X61642863Y-67637785D01*
X61782214Y-67777136D01*
X61782218Y-67777139D01*
X61946079Y-67886628D01*
X61946092Y-67886635D01*
X62128160Y-67962049D01*
X62128165Y-67962051D01*
X62128169Y-67962051D01*
X62128170Y-67962052D01*
X62321456Y-68000500D01*
X62321459Y-68000500D01*
X62518543Y-68000500D01*
X62648582Y-67974632D01*
X62711835Y-67962051D01*
X62893914Y-67886632D01*
X63057782Y-67777139D01*
X63197139Y-67637782D01*
X63306632Y-67473914D01*
X63306634Y-67473907D01*
X63309502Y-67468544D01*
X63311381Y-67469548D01*
X63349159Y-67422655D01*
X63415450Y-67400580D01*
X63419895Y-67400500D01*
X66862745Y-67400500D01*
X66929784Y-67420185D01*
X66950426Y-67436819D01*
X71243181Y-71729573D01*
X71276666Y-71790896D01*
X71279500Y-71817254D01*
X71279500Y-73404260D01*
X71279501Y-73404266D01*
X71282354Y-73434700D01*
X71282354Y-73434702D01*
X71282355Y-73434703D01*
X71282355Y-73434705D01*
X71327206Y-73562882D01*
X71407849Y-73672150D01*
X71462483Y-73712471D01*
X71517117Y-73752793D01*
X71559844Y-73767744D01*
X71645298Y-73797646D01*
X71652323Y-73798304D01*
X71675733Y-73800500D01*
X73036802Y-73800499D01*
X73103841Y-73820184D01*
X73149596Y-73872987D01*
X73159540Y-73942146D01*
X73130515Y-74005702D01*
X73124483Y-74012180D01*
X70273484Y-76863181D01*
X70212161Y-76896666D01*
X70185803Y-76899500D01*
X64285784Y-76899500D01*
X64218745Y-76879815D01*
X64198103Y-76863181D01*
X64057785Y-76722863D01*
X64057781Y-76722860D01*
X63893920Y-76613371D01*
X63893907Y-76613364D01*
X63711839Y-76537950D01*
X63711829Y-76537947D01*
X63518543Y-76499500D01*
X63518541Y-76499500D01*
X63321459Y-76499500D01*
X63321457Y-76499500D01*
X63128170Y-76537947D01*
X63128160Y-76537950D01*
X62946092Y-76613364D01*
X62946079Y-76613371D01*
X62782218Y-76722860D01*
X62782214Y-76722863D01*
X62642863Y-76862214D01*
X62642860Y-76862218D01*
X62533371Y-77026079D01*
X62533364Y-77026092D01*
X62457950Y-77208160D01*
X62457947Y-77208170D01*
X62419500Y-77401456D01*
X62419500Y-77401459D01*
X62419500Y-77598541D01*
X62419500Y-77598543D01*
X62419499Y-77598543D01*
X62457947Y-77791829D01*
X62457950Y-77791839D01*
X62533364Y-77973907D01*
X62533371Y-77973920D01*
X62633261Y-78123416D01*
X62654139Y-78190094D01*
X62635654Y-78257474D01*
X62583675Y-78304164D01*
X62554351Y-78313924D01*
X62461377Y-78332418D01*
X62461367Y-78332421D01*
X62333892Y-78385222D01*
X62219154Y-78461887D01*
X62219153Y-78461888D01*
X58417862Y-82263181D01*
X58356539Y-82296666D01*
X58330181Y-82299500D01*
X57956494Y-82299500D01*
X57889455Y-82279815D01*
X57868817Y-82263185D01*
X57789655Y-82184023D01*
X57617598Y-82069059D01*
X57497904Y-82019480D01*
X57426420Y-81989870D01*
X57426412Y-81989868D01*
X57223469Y-81949500D01*
X57223465Y-81949500D01*
X57016535Y-81949500D01*
X57016530Y-81949500D01*
X56813587Y-81989868D01*
X56813579Y-81989870D01*
X56622403Y-82069058D01*
X56450342Y-82184024D01*
X56304024Y-82330342D01*
X56189057Y-82502403D01*
X56120835Y-82667108D01*
X56076994Y-82721511D01*
X56010700Y-82743576D01*
X55943000Y-82726297D01*
X55895390Y-82675159D01*
X55888343Y-82657973D01*
X55831095Y-82481782D01*
X55734620Y-82292442D01*
X55609727Y-82120540D01*
X55609723Y-82120535D01*
X55459464Y-81970276D01*
X55459459Y-81970272D01*
X55287557Y-81845379D01*
X55098215Y-81748903D01*
X54896124Y-81683241D01*
X54830000Y-81672768D01*
X54830000Y-82566988D01*
X54772993Y-82534075D01*
X54645826Y-82500000D01*
X54514174Y-82500000D01*
X54387007Y-82534075D01*
X54330000Y-82566988D01*
X54330000Y-81672768D01*
X54329999Y-81672768D01*
X54263875Y-81683241D01*
X54061784Y-81748903D01*
X53872442Y-81845379D01*
X53700540Y-81970272D01*
X53700535Y-81970276D01*
X53550276Y-82120535D01*
X53550272Y-82120540D01*
X53425379Y-82292442D01*
X53328905Y-82481781D01*
X53271656Y-82657974D01*
X53232218Y-82715649D01*
X53167859Y-82742847D01*
X53099013Y-82730932D01*
X53047537Y-82683688D01*
X53039164Y-82667107D01*
X52970943Y-82502405D01*
X52855975Y-82330342D01*
X52709657Y-82184024D01*
X52541655Y-82071770D01*
X52537598Y-82069059D01*
X52417904Y-82019480D01*
X52346420Y-81989870D01*
X52346412Y-81989868D01*
X52143469Y-81949500D01*
X52143465Y-81949500D01*
X51936535Y-81949500D01*
X51936530Y-81949500D01*
X51733587Y-81989868D01*
X51733579Y-81989870D01*
X51542403Y-82069058D01*
X51370342Y-82184024D01*
X51224024Y-82330342D01*
X51109058Y-82502403D01*
X51029870Y-82693579D01*
X51029868Y-82693587D01*
X50989500Y-82896530D01*
X50550500Y-82896530D01*
X50550500Y-82130249D01*
X50550499Y-82130247D01*
X50538868Y-82071770D01*
X50538867Y-82071769D01*
X50494552Y-82005447D01*
X50428230Y-81961132D01*
X50428229Y-81961131D01*
X50369752Y-81949500D01*
X50369748Y-81949500D01*
X48630252Y-81949500D01*
X48630247Y-81949500D01*
X48571770Y-81961131D01*
X48571769Y-81961132D01*
X48505447Y-82005447D01*
X48461132Y-82071769D01*
X48461131Y-82071770D01*
X48449500Y-82130247D01*
X46500500Y-82130247D01*
X46500500Y-72374071D01*
X46820000Y-72374071D01*
X46820000Y-72625928D01*
X46859397Y-72874669D01*
X46937219Y-73114184D01*
X47051557Y-73338583D01*
X47125748Y-73440697D01*
X47125748Y-73440698D01*
X47896212Y-72670233D01*
X47907482Y-72712292D01*
X47979890Y-72837708D01*
X48082292Y-72940110D01*
X48207708Y-73012518D01*
X48249765Y-73023787D01*
X47479300Y-73794250D01*
X47581416Y-73868442D01*
X47805815Y-73982780D01*
X48045330Y-74060602D01*
X48294072Y-74100000D01*
X48545928Y-74100000D01*
X48794669Y-74060602D01*
X49034184Y-73982780D01*
X49258575Y-73868446D01*
X49258581Y-73868442D01*
X49360697Y-73794250D01*
X49360698Y-73794250D01*
X48590234Y-73023787D01*
X48632292Y-73012518D01*
X48757708Y-72940110D01*
X48860110Y-72837708D01*
X48932518Y-72712292D01*
X48943787Y-72670234D01*
X49714250Y-73440698D01*
X49714250Y-73440697D01*
X49788442Y-73338581D01*
X49788446Y-73338575D01*
X49902780Y-73114184D01*
X49980602Y-72874669D01*
X50020000Y-72625928D01*
X50020000Y-72374071D01*
X49980602Y-72125330D01*
X49902780Y-71885815D01*
X49788443Y-71661417D01*
X49788441Y-71661415D01*
X49740717Y-71595729D01*
X57279500Y-71595729D01*
X57279500Y-73404260D01*
X57279501Y-73404266D01*
X57282354Y-73434700D01*
X57282354Y-73434702D01*
X57282355Y-73434703D01*
X57282355Y-73434705D01*
X57327206Y-73562882D01*
X57407849Y-73672150D01*
X57462483Y-73712471D01*
X57517117Y-73752793D01*
X57559844Y-73767744D01*
X57645298Y-73797646D01*
X57652323Y-73798304D01*
X57675733Y-73800500D01*
X59484266Y-73800499D01*
X59514700Y-73797646D01*
X59642883Y-73752793D01*
X59752150Y-73672150D01*
X59832793Y-73562883D01*
X59855219Y-73498791D01*
X59877646Y-73434702D01*
X59877646Y-73434700D01*
X59880500Y-73404267D01*
X59880499Y-72374071D01*
X60820000Y-72374071D01*
X60820000Y-72625928D01*
X60859397Y-72874669D01*
X60937219Y-73114184D01*
X61051557Y-73338583D01*
X61125748Y-73440697D01*
X61125748Y-73440698D01*
X61896212Y-72670234D01*
X61907482Y-72712292D01*
X61979890Y-72837708D01*
X62082292Y-72940110D01*
X62207708Y-73012518D01*
X62249765Y-73023787D01*
X61479300Y-73794250D01*
X61581416Y-73868442D01*
X61805815Y-73982780D01*
X62045330Y-74060602D01*
X62294072Y-74100000D01*
X62545928Y-74100000D01*
X62794669Y-74060602D01*
X63034184Y-73982780D01*
X63258575Y-73868446D01*
X63258581Y-73868442D01*
X63360697Y-73794250D01*
X63360698Y-73794250D01*
X62590234Y-73023787D01*
X62632292Y-73012518D01*
X62757708Y-72940110D01*
X62860110Y-72837708D01*
X62932518Y-72712292D01*
X62943787Y-72670235D01*
X63714250Y-73440698D01*
X63714250Y-73440697D01*
X63788442Y-73338581D01*
X63788446Y-73338575D01*
X63902780Y-73114184D01*
X63980602Y-72874669D01*
X64020000Y-72625928D01*
X64020000Y-72374071D01*
X63980602Y-72125330D01*
X63902780Y-71885815D01*
X63788442Y-71661416D01*
X63714250Y-71559301D01*
X63714250Y-71559300D01*
X62943787Y-72329764D01*
X62932518Y-72287708D01*
X62860110Y-72162292D01*
X62757708Y-72059890D01*
X62632292Y-71987482D01*
X62590232Y-71976212D01*
X63360698Y-71205748D01*
X63258583Y-71131557D01*
X63034184Y-71017219D01*
X62794669Y-70939397D01*
X62545928Y-70900000D01*
X62294072Y-70900000D01*
X62045330Y-70939397D01*
X61805815Y-71017219D01*
X61581413Y-71131559D01*
X61479301Y-71205747D01*
X61479300Y-71205748D01*
X62249765Y-71976212D01*
X62207708Y-71987482D01*
X62082292Y-72059890D01*
X61979890Y-72162292D01*
X61907482Y-72287708D01*
X61896212Y-72329765D01*
X61125748Y-71559300D01*
X61125747Y-71559301D01*
X61051559Y-71661413D01*
X60937219Y-71885815D01*
X60859397Y-72125330D01*
X60820000Y-72374071D01*
X59880499Y-72374071D01*
X59880499Y-71595734D01*
X59877646Y-71565300D01*
X59832793Y-71437117D01*
X59832792Y-71437115D01*
X59752152Y-71327851D01*
X59697516Y-71287528D01*
X59642883Y-71247207D01*
X59642881Y-71247206D01*
X59514701Y-71202353D01*
X59484270Y-71199500D01*
X57675739Y-71199500D01*
X57661751Y-71200811D01*
X57645300Y-71202354D01*
X57645297Y-71202354D01*
X57645296Y-71202355D01*
X57645294Y-71202355D01*
X57517117Y-71247206D01*
X57407849Y-71327849D01*
X57327206Y-71437118D01*
X57282353Y-71565297D01*
X57282353Y-71565299D01*
X57279500Y-71595729D01*
X49740717Y-71595729D01*
X49714250Y-71559301D01*
X49714250Y-71559300D01*
X48943787Y-72329764D01*
X48932518Y-72287708D01*
X48860110Y-72162292D01*
X48757708Y-72059890D01*
X48632292Y-71987482D01*
X48590232Y-71976212D01*
X49360698Y-71205748D01*
X49258583Y-71131557D01*
X49034184Y-71017219D01*
X48794669Y-70939397D01*
X48545928Y-70900000D01*
X48294072Y-70900000D01*
X48045330Y-70939397D01*
X47805815Y-71017219D01*
X47581413Y-71131559D01*
X47479301Y-71205747D01*
X47479300Y-71205748D01*
X48249765Y-71976212D01*
X48207708Y-71987482D01*
X48082292Y-72059890D01*
X47979890Y-72162292D01*
X47907482Y-72287708D01*
X47896212Y-72329765D01*
X47125748Y-71559300D01*
X47125747Y-71559301D01*
X47051559Y-71661413D01*
X46937219Y-71885815D01*
X46859397Y-72125330D01*
X46820000Y-72374071D01*
X46500500Y-72374071D01*
X46500500Y-67098543D01*
X47419499Y-67098543D01*
X47457947Y-67291829D01*
X47457950Y-67291839D01*
X47533364Y-67473907D01*
X47533371Y-67473920D01*
X47642860Y-67637781D01*
X47642863Y-67637785D01*
X47782214Y-67777136D01*
X47782218Y-67777139D01*
X47946079Y-67886628D01*
X47946092Y-67886635D01*
X48128160Y-67962049D01*
X48128165Y-67962051D01*
X48128169Y-67962051D01*
X48128170Y-67962052D01*
X48321456Y-68000500D01*
X48321459Y-68000500D01*
X48518543Y-68000500D01*
X48648582Y-67974632D01*
X48711835Y-67962051D01*
X48893914Y-67886632D01*
X49057782Y-67777139D01*
X49197139Y-67637782D01*
X49306632Y-67473914D01*
X49308441Y-67469548D01*
X49382049Y-67291839D01*
X49382051Y-67291835D01*
X49412694Y-67137785D01*
X49420500Y-67098543D01*
X49420500Y-66901456D01*
X49382052Y-66708170D01*
X49382051Y-66708166D01*
X49382051Y-66708165D01*
X49370186Y-66679520D01*
X49306635Y-66526092D01*
X49306628Y-66526079D01*
X49197139Y-66362218D01*
X49197136Y-66362214D01*
X49057785Y-66222863D01*
X49057781Y-66222860D01*
X48893920Y-66113371D01*
X48893907Y-66113364D01*
X48711839Y-66037950D01*
X48711829Y-66037947D01*
X48518543Y-65999500D01*
X48518541Y-65999500D01*
X48321459Y-65999500D01*
X48321457Y-65999500D01*
X48128170Y-66037947D01*
X48128160Y-66037950D01*
X47946092Y-66113364D01*
X47946079Y-66113371D01*
X47782218Y-66222860D01*
X47782214Y-66222863D01*
X47642863Y-66362214D01*
X47642860Y-66362218D01*
X47533371Y-66526079D01*
X47533364Y-66526092D01*
X47457950Y-66708160D01*
X47457947Y-66708170D01*
X47419500Y-66901456D01*
X47419500Y-66901459D01*
X47419500Y-67098541D01*
X47419500Y-67098543D01*
X47419499Y-67098543D01*
X46500500Y-67098543D01*
X46500500Y-62098543D01*
X47419499Y-62098543D01*
X47457947Y-62291829D01*
X47457950Y-62291839D01*
X47533364Y-62473907D01*
X47533371Y-62473920D01*
X47642860Y-62637781D01*
X47642863Y-62637785D01*
X47782214Y-62777136D01*
X47782218Y-62777139D01*
X47946079Y-62886628D01*
X47946092Y-62886635D01*
X48128160Y-62962049D01*
X48128165Y-62962051D01*
X48128169Y-62962051D01*
X48128170Y-62962052D01*
X48321456Y-63000500D01*
X48321459Y-63000500D01*
X48518543Y-63000500D01*
X48648582Y-62974632D01*
X48711835Y-62962051D01*
X48711842Y-62962047D01*
X48717662Y-62960283D01*
X48718281Y-62962325D01*
X48778131Y-62955872D01*
X48840620Y-62987127D01*
X48843835Y-62990228D01*
X53174087Y-67320480D01*
X53265412Y-67373207D01*
X53367273Y-67400500D01*
X53472727Y-67400500D01*
X57580105Y-67400500D01*
X57647144Y-67420185D01*
X57689506Y-67469073D01*
X57690498Y-67468544D01*
X57692833Y-67472913D01*
X57692899Y-67472989D01*
X57693009Y-67473243D01*
X57693371Y-67473920D01*
X57802860Y-67637781D01*
X57802863Y-67637785D01*
X57942214Y-67777136D01*
X57942218Y-67777139D01*
X58106079Y-67886628D01*
X58106092Y-67886635D01*
X58288160Y-67962049D01*
X58288165Y-67962051D01*
X58288169Y-67962051D01*
X58288170Y-67962052D01*
X58481456Y-68000500D01*
X58481459Y-68000500D01*
X58678543Y-68000500D01*
X58808582Y-67974632D01*
X58871835Y-67962051D01*
X59053914Y-67886632D01*
X59217782Y-67777139D01*
X59357139Y-67637782D01*
X59466632Y-67473914D01*
X59468441Y-67469548D01*
X59542049Y-67291839D01*
X59542051Y-67291835D01*
X59572694Y-67137785D01*
X59580500Y-67098543D01*
X59580500Y-66901456D01*
X59542052Y-66708170D01*
X59542051Y-66708166D01*
X59542051Y-66708165D01*
X59530186Y-66679520D01*
X59466635Y-66526092D01*
X59466628Y-66526079D01*
X59357139Y-66362218D01*
X59357136Y-66362214D01*
X59217785Y-66222863D01*
X59217781Y-66222860D01*
X59053920Y-66113371D01*
X59053907Y-66113364D01*
X58871839Y-66037950D01*
X58871829Y-66037947D01*
X58678543Y-65999500D01*
X58678541Y-65999500D01*
X58481459Y-65999500D01*
X58481457Y-65999500D01*
X58288170Y-66037947D01*
X58288160Y-66037950D01*
X58106092Y-66113364D01*
X58106079Y-66113371D01*
X57942218Y-66222860D01*
X57942214Y-66222863D01*
X57802863Y-66362214D01*
X57802860Y-66362218D01*
X57693371Y-66526079D01*
X57690498Y-66531456D01*
X57688618Y-66530451D01*
X57650841Y-66577345D01*
X57584550Y-66599420D01*
X57580105Y-66599500D01*
X53637255Y-66599500D01*
X53570216Y-66579815D01*
X53549574Y-66563181D01*
X49410228Y-62423835D01*
X49376743Y-62362512D01*
X49381357Y-62297987D01*
X49380283Y-62297662D01*
X49381719Y-62292927D01*
X49381727Y-62292820D01*
X49381835Y-62292543D01*
X49382049Y-62291839D01*
X49382051Y-62291835D01*
X49420229Y-62099903D01*
X49420500Y-62098543D01*
X57579499Y-62098543D01*
X57617947Y-62291829D01*
X57617950Y-62291839D01*
X57693364Y-62473907D01*
X57693371Y-62473920D01*
X57802860Y-62637781D01*
X57802863Y-62637785D01*
X57942214Y-62777136D01*
X57942218Y-62777139D01*
X58106079Y-62886628D01*
X58106092Y-62886635D01*
X58288160Y-62962049D01*
X58288165Y-62962051D01*
X58288169Y-62962051D01*
X58288170Y-62962052D01*
X58481456Y-63000500D01*
X58481459Y-63000500D01*
X58678543Y-63000500D01*
X58808582Y-62974632D01*
X58871835Y-62962051D01*
X59053914Y-62886632D01*
X59217782Y-62777139D01*
X59357139Y-62637782D01*
X59466632Y-62473914D01*
X59468441Y-62469548D01*
X59512000Y-62364385D01*
X59542051Y-62291835D01*
X59580229Y-62099903D01*
X59580500Y-62098543D01*
X59580500Y-61900096D01*
X59600185Y-61833057D01*
X59616819Y-61812415D01*
X60250517Y-61178719D01*
X60311840Y-61145234D01*
X60338198Y-61142400D01*
X61643316Y-61142400D01*
X61710355Y-61162085D01*
X61756110Y-61214889D01*
X61766054Y-61284047D01*
X61737029Y-61347603D01*
X61730997Y-61354081D01*
X61722863Y-61362214D01*
X61722860Y-61362218D01*
X61613371Y-61526079D01*
X61613364Y-61526092D01*
X61537950Y-61708160D01*
X61537947Y-61708170D01*
X61499500Y-61901456D01*
X61499500Y-61901459D01*
X61499500Y-62098541D01*
X61499500Y-62098543D01*
X61499499Y-62098543D01*
X61537947Y-62291829D01*
X61537950Y-62291839D01*
X61613364Y-62473907D01*
X61613371Y-62473920D01*
X61722860Y-62637781D01*
X61722863Y-62637785D01*
X61862214Y-62777136D01*
X61862218Y-62777139D01*
X62026079Y-62886628D01*
X62026092Y-62886635D01*
X62208160Y-62962049D01*
X62208165Y-62962051D01*
X62208169Y-62962051D01*
X62208170Y-62962052D01*
X62401456Y-63000500D01*
X62401459Y-63000500D01*
X62598543Y-63000500D01*
X62728582Y-62974632D01*
X62791835Y-62962051D01*
X62973914Y-62886632D01*
X63137782Y-62777139D01*
X63277139Y-62637782D01*
X63386632Y-62473914D01*
X63386634Y-62473907D01*
X63389502Y-62468544D01*
X63391381Y-62469548D01*
X63429159Y-62422655D01*
X63495450Y-62400580D01*
X63499895Y-62400500D01*
X67362745Y-62400500D01*
X67429784Y-62420185D01*
X67450426Y-62436819D01*
X71589771Y-66576164D01*
X71623256Y-66637487D01*
X71618641Y-66702009D01*
X71619717Y-66702336D01*
X71618279Y-66707075D01*
X71618272Y-66707179D01*
X71618166Y-66707445D01*
X71617948Y-66708166D01*
X71579500Y-66901456D01*
X71579500Y-66901459D01*
X71579500Y-67098541D01*
X71579500Y-67098543D01*
X71579499Y-67098543D01*
X71617947Y-67291829D01*
X71617950Y-67291839D01*
X71693364Y-67473907D01*
X71693371Y-67473920D01*
X71802860Y-67637781D01*
X71802863Y-67637785D01*
X71942214Y-67777136D01*
X71942218Y-67777139D01*
X72106079Y-67886628D01*
X72106092Y-67886635D01*
X72288160Y-67962049D01*
X72288165Y-67962051D01*
X72288169Y-67962051D01*
X72288170Y-67962052D01*
X72481456Y-68000500D01*
X72481459Y-68000500D01*
X72678543Y-68000500D01*
X72808582Y-67974632D01*
X72871835Y-67962051D01*
X73053914Y-67886632D01*
X73217782Y-67777139D01*
X73357139Y-67637782D01*
X73466632Y-67473914D01*
X73468441Y-67469548D01*
X73542049Y-67291839D01*
X73542051Y-67291835D01*
X73572694Y-67137785D01*
X73580500Y-67098543D01*
X73580500Y-66901456D01*
X73542052Y-66708170D01*
X73542051Y-66708166D01*
X73542051Y-66708165D01*
X73530186Y-66679520D01*
X73466635Y-66526092D01*
X73466628Y-66526079D01*
X73357139Y-66362218D01*
X73357136Y-66362214D01*
X73217785Y-66222863D01*
X73217781Y-66222860D01*
X73053920Y-66113371D01*
X73053907Y-66113364D01*
X72871839Y-66037950D01*
X72871829Y-66037947D01*
X72678543Y-65999500D01*
X72678541Y-65999500D01*
X72481459Y-65999500D01*
X72481457Y-65999500D01*
X72288166Y-66037948D01*
X72282336Y-66039717D01*
X72281719Y-66037683D01*
X72221816Y-66044118D01*
X72159340Y-66012837D01*
X72156164Y-66009771D01*
X67825915Y-61679522D01*
X67825913Y-61679520D01*
X67780250Y-61653156D01*
X67734589Y-61626793D01*
X67683657Y-61613146D01*
X67632727Y-61599500D01*
X67632726Y-61599500D01*
X63499895Y-61599500D01*
X63432856Y-61579815D01*
X63390493Y-61530926D01*
X63389502Y-61531456D01*
X63387166Y-61527086D01*
X63387101Y-61527011D01*
X63386990Y-61526756D01*
X63386628Y-61526079D01*
X63277139Y-61362218D01*
X63277136Y-61362214D01*
X63269003Y-61354081D01*
X63235518Y-61292758D01*
X63240502Y-61223066D01*
X63282374Y-61167133D01*
X63347838Y-61142716D01*
X63356684Y-61142400D01*
X70901803Y-61142400D01*
X70968842Y-61162085D01*
X70989483Y-61178718D01*
X71623182Y-61812418D01*
X71656666Y-61873739D01*
X71659500Y-61900097D01*
X71659500Y-61901459D01*
X71659500Y-62098541D01*
X71659500Y-62098543D01*
X71659499Y-62098543D01*
X71697947Y-62291829D01*
X71697950Y-62291839D01*
X71773364Y-62473907D01*
X71773371Y-62473920D01*
X71882860Y-62637781D01*
X71882863Y-62637785D01*
X72022214Y-62777136D01*
X72022218Y-62777139D01*
X72186079Y-62886628D01*
X72186092Y-62886635D01*
X72368160Y-62962049D01*
X72368165Y-62962051D01*
X72368169Y-62962051D01*
X72368170Y-62962052D01*
X72561456Y-63000500D01*
X72561459Y-63000500D01*
X72758543Y-63000500D01*
X72888582Y-62974632D01*
X72951835Y-62962051D01*
X73133914Y-62886632D01*
X73297782Y-62777139D01*
X73437139Y-62637782D01*
X73546632Y-62473914D01*
X73548441Y-62469548D01*
X73592000Y-62364385D01*
X73622051Y-62291835D01*
X73660229Y-62099903D01*
X73660500Y-62098543D01*
X73660500Y-61901456D01*
X73622052Y-61708170D01*
X73622051Y-61708169D01*
X73622051Y-61708165D01*
X73568887Y-61579815D01*
X73546635Y-61526092D01*
X73546628Y-61526079D01*
X73437139Y-61362218D01*
X73437136Y-61362214D01*
X73297785Y-61222863D01*
X73297781Y-61222860D01*
X73133920Y-61113371D01*
X73133907Y-61113364D01*
X72951839Y-61037950D01*
X72951829Y-61037947D01*
X72758543Y-60999500D01*
X72758541Y-60999500D01*
X72561459Y-60999500D01*
X72560098Y-60999500D01*
X72493059Y-60979815D01*
X72472417Y-60963181D01*
X71689490Y-60180255D01*
X71689488Y-60180252D01*
X71570617Y-60061381D01*
X71570616Y-60061380D01*
X71483804Y-60011260D01*
X71483804Y-60011259D01*
X71483800Y-60011258D01*
X71433685Y-59982323D01*
X71280957Y-59941399D01*
X71122843Y-59941399D01*
X71115247Y-59941399D01*
X71115231Y-59941400D01*
X60124770Y-59941400D01*
X60124754Y-59941399D01*
X60117158Y-59941399D01*
X59959043Y-59941399D01*
X59806315Y-59982323D01*
X59806313Y-59982323D01*
X59806313Y-59982324D01*
X59669381Y-60061382D01*
X58767583Y-60963181D01*
X58706260Y-60996666D01*
X58679902Y-60999500D01*
X58481457Y-60999500D01*
X58288170Y-61037947D01*
X58288160Y-61037950D01*
X58106092Y-61113364D01*
X58106079Y-61113371D01*
X57942218Y-61222860D01*
X57942214Y-61222863D01*
X57802863Y-61362214D01*
X57802860Y-61362218D01*
X57693371Y-61526079D01*
X57693364Y-61526092D01*
X57617950Y-61708160D01*
X57617947Y-61708170D01*
X57579500Y-61901456D01*
X57579500Y-61901459D01*
X57579500Y-62098541D01*
X57579500Y-62098543D01*
X57579499Y-62098543D01*
X49420500Y-62098543D01*
X49420500Y-61901456D01*
X49382052Y-61708170D01*
X49382051Y-61708169D01*
X49382051Y-61708165D01*
X49328887Y-61579815D01*
X49306635Y-61526092D01*
X49306628Y-61526079D01*
X49197139Y-61362218D01*
X49197136Y-61362214D01*
X49057785Y-61222863D01*
X49057781Y-61222860D01*
X48893920Y-61113371D01*
X48893907Y-61113364D01*
X48711839Y-61037950D01*
X48711829Y-61037947D01*
X48518543Y-60999500D01*
X48518541Y-60999500D01*
X48321459Y-60999500D01*
X48321457Y-60999500D01*
X48128170Y-61037947D01*
X48128160Y-61037950D01*
X47946092Y-61113364D01*
X47946079Y-61113371D01*
X47782218Y-61222860D01*
X47782214Y-61222863D01*
X47642863Y-61362214D01*
X47642860Y-61362218D01*
X47533371Y-61526079D01*
X47533364Y-61526092D01*
X47457950Y-61708160D01*
X47457947Y-61708170D01*
X47419500Y-61901456D01*
X47419500Y-61901459D01*
X47419500Y-62098541D01*
X47419500Y-62098543D01*
X47419499Y-62098543D01*
X46500500Y-62098543D01*
X46500500Y-58013996D01*
X46520185Y-57946957D01*
X46572989Y-57901202D01*
X46642147Y-57891258D01*
X46705703Y-57920283D01*
X46743159Y-57977998D01*
X46779398Y-58097463D01*
X46794418Y-58146977D01*
X46922278Y-58455656D01*
X46922280Y-58455661D01*
X47079769Y-58750303D01*
X47079780Y-58750321D01*
X47265393Y-59028109D01*
X47265403Y-59028123D01*
X47477361Y-59286395D01*
X47713604Y-59522638D01*
X47713609Y-59522642D01*
X47713610Y-59522643D01*
X47971882Y-59734601D01*
X48249685Y-59920224D01*
X48249694Y-59920229D01*
X48249696Y-59920230D01*
X48544338Y-60077719D01*
X48544340Y-60077719D01*
X48544346Y-60077723D01*
X48853024Y-60205582D01*
X49172749Y-60302569D01*
X49172755Y-60302570D01*
X49172758Y-60302571D01*
X49172769Y-60302574D01*
X49378243Y-60343444D01*
X49500441Y-60367751D01*
X49832944Y-60400500D01*
X49832947Y-60400500D01*
X50167053Y-60400500D01*
X50167056Y-60400500D01*
X50499559Y-60367751D01*
X50661757Y-60335487D01*
X50827230Y-60302574D01*
X50827241Y-60302571D01*
X50827241Y-60302570D01*
X50827251Y-60302569D01*
X51146976Y-60205582D01*
X51455654Y-60077723D01*
X51750315Y-59920224D01*
X52028118Y-59734601D01*
X52286390Y-59522643D01*
X52522643Y-59286390D01*
X52734601Y-59028118D01*
X52920224Y-58750315D01*
X53077723Y-58455654D01*
X53205582Y-58146976D01*
X53302569Y-57827251D01*
X53302571Y-57827241D01*
X53302574Y-57827230D01*
X53335487Y-57661757D01*
X53367751Y-57499559D01*
X53400500Y-57167056D01*
X53400500Y-56832944D01*
X53367751Y-56500441D01*
X53343444Y-56378243D01*
X53302574Y-56172769D01*
X53302571Y-56172758D01*
X53302570Y-56172755D01*
X53302569Y-56172749D01*
X53205582Y-55853024D01*
X53077723Y-55544346D01*
X52920224Y-55249685D01*
X52734601Y-54971882D01*
X52522643Y-54713610D01*
X52522642Y-54713609D01*
X52522638Y-54713604D01*
X52286395Y-54477361D01*
X52028123Y-54265403D01*
X52028122Y-54265402D01*
X52028118Y-54265399D01*
X51750315Y-54079776D01*
X51750310Y-54079773D01*
X51750303Y-54079769D01*
X51455661Y-53922280D01*
X51455656Y-53922278D01*
X51146977Y-53794418D01*
X50827241Y-53697428D01*
X50827230Y-53697425D01*
X50499565Y-53632250D01*
X50499548Y-53632247D01*
X50409747Y-53623403D01*
X50344960Y-53597242D01*
X50304601Y-53540208D01*
X50301484Y-53470408D01*
X50336598Y-53410003D01*
X50398796Y-53378172D01*
X50409747Y-53376597D01*
X50473626Y-53370305D01*
X50499559Y-53367751D01*
X50661757Y-53335487D01*
X50827230Y-53302574D01*
X50827241Y-53302571D01*
X50827241Y-53302570D01*
X50827251Y-53302569D01*
X51146976Y-53205582D01*
X51455654Y-53077723D01*
X51750315Y-52920224D01*
X52028118Y-52734601D01*
X52286390Y-52522643D01*
X52522643Y-52286390D01*
X52734601Y-52028118D01*
X52920224Y-51750315D01*
X53077723Y-51455654D01*
X53205582Y-51146976D01*
X53302569Y-50827251D01*
X53302571Y-50827241D01*
X53302574Y-50827230D01*
X53352055Y-50578467D01*
X53367751Y-50499559D01*
X53390407Y-50269528D01*
X75796500Y-50269528D01*
X75796500Y-50578471D01*
X75831086Y-50885437D01*
X75831089Y-50885455D01*
X75899831Y-51186635D01*
X75899835Y-51186647D01*
X76001862Y-51478222D01*
X76001868Y-51478236D01*
X76135903Y-51756562D01*
X76135905Y-51756565D01*
X76300265Y-52018143D01*
X76492880Y-52259674D01*
X76711326Y-52478120D01*
X76952857Y-52670735D01*
X77214435Y-52835095D01*
X77492771Y-52969135D01*
X77492777Y-52969137D01*
X77784352Y-53071164D01*
X77784364Y-53071168D01*
X78085548Y-53139911D01*
X78085554Y-53139911D01*
X78085562Y-53139913D01*
X78290206Y-53162970D01*
X78392529Y-53174499D01*
X78392532Y-53174500D01*
X78392535Y-53174500D01*
X78701468Y-53174500D01*
X78701469Y-53174499D01*
X78858356Y-53156822D01*
X79008437Y-53139913D01*
X79008442Y-53139912D01*
X79008452Y-53139911D01*
X79309636Y-53071168D01*
X79601229Y-52969135D01*
X79879565Y-52835095D01*
X80141143Y-52670735D01*
X80382674Y-52478120D01*
X80601120Y-52259674D01*
X80793735Y-52018143D01*
X80958095Y-51756565D01*
X81092135Y-51478229D01*
X81194168Y-51186636D01*
X81262911Y-50885452D01*
X81297500Y-50578465D01*
X81297500Y-50269535D01*
X81262911Y-49962548D01*
X81194168Y-49661364D01*
X81137858Y-49500441D01*
X81105413Y-49407717D01*
X81092135Y-49369771D01*
X80983214Y-49143596D01*
X80958096Y-49091437D01*
X80953912Y-49084778D01*
X80793735Y-48829857D01*
X80620153Y-48612193D01*
X80620153Y-48612191D01*
X80601126Y-48588332D01*
X80552547Y-48539753D01*
X83150000Y-48539753D01*
X83150000Y-48752246D01*
X83183242Y-48962127D01*
X83183242Y-48962130D01*
X83248904Y-49164217D01*
X83345375Y-49353550D01*
X83384728Y-49407716D01*
X84017037Y-48775408D01*
X84034075Y-48838993D01*
X84099901Y-48953007D01*
X84192993Y-49046099D01*
X84307007Y-49111925D01*
X84370590Y-49128962D01*
X83738282Y-49761269D01*
X83738282Y-49761270D01*
X83792449Y-49800624D01*
X83981782Y-49897095D01*
X84183870Y-49962757D01*
X84393754Y-49996000D01*
X84606246Y-49996000D01*
X84816127Y-49962757D01*
X84816130Y-49962757D01*
X85018217Y-49897095D01*
X85207554Y-49800622D01*
X85261716Y-49761270D01*
X85261717Y-49761270D01*
X84629408Y-49128962D01*
X84692993Y-49111925D01*
X84807007Y-49046099D01*
X84900099Y-48953007D01*
X84965925Y-48838993D01*
X84982962Y-48775408D01*
X85615270Y-49407717D01*
X85615270Y-49407716D01*
X85654622Y-49353554D01*
X85751095Y-49164217D01*
X85808343Y-48988026D01*
X85847780Y-48930351D01*
X85912139Y-48903152D01*
X85980985Y-48915066D01*
X86032461Y-48962310D01*
X86040835Y-48978891D01*
X86095939Y-49111925D01*
X86109059Y-49143598D01*
X86133659Y-49180415D01*
X86224024Y-49315657D01*
X86370342Y-49461975D01*
X86370345Y-49461977D01*
X86542402Y-49576941D01*
X86733580Y-49656130D01*
X86919970Y-49693205D01*
X86936530Y-49696499D01*
X86936534Y-49696500D01*
X86936535Y-49696500D01*
X87143466Y-49696500D01*
X87143466Y-49696499D01*
X87160029Y-49693205D01*
X87229620Y-49699429D01*
X87271905Y-49727140D01*
X99909139Y-62364374D01*
X99909149Y-62364385D01*
X99913479Y-62368715D01*
X99913480Y-62368716D01*
X100025284Y-62480520D01*
X100112095Y-62530639D01*
X100112097Y-62530641D01*
X100150151Y-62552611D01*
X100162215Y-62559577D01*
X100314943Y-62600501D01*
X100314946Y-62600501D01*
X100480653Y-62600501D01*
X100480669Y-62600500D01*
X103054216Y-62600500D01*
X103121255Y-62620185D01*
X103141897Y-62636819D01*
X103282214Y-62777136D01*
X103282218Y-62777139D01*
X103446079Y-62886628D01*
X103446092Y-62886635D01*
X103628160Y-62962049D01*
X103628165Y-62962051D01*
X103628169Y-62962051D01*
X103628170Y-62962052D01*
X103821456Y-63000500D01*
X104019903Y-63000500D01*
X104086942Y-63020185D01*
X104107584Y-63036819D01*
X104897139Y-63826374D01*
X104897149Y-63826385D01*
X104901479Y-63830715D01*
X104901480Y-63830716D01*
X105013284Y-63942520D01*
X105100095Y-63992639D01*
X105100097Y-63992641D01*
X105150213Y-64021576D01*
X105150215Y-64021577D01*
X105302942Y-64062500D01*
X105302943Y-64062500D01*
X115871331Y-64062500D01*
X115871347Y-64062501D01*
X115878943Y-64062501D01*
X116037054Y-64062501D01*
X116037057Y-64062501D01*
X116189785Y-64021577D01*
X116239904Y-63992639D01*
X116326716Y-63942520D01*
X116438520Y-63830716D01*
X116438520Y-63830714D01*
X116448728Y-63820507D01*
X116448730Y-63820504D01*
X117232415Y-63036819D01*
X117293738Y-63003334D01*
X117320096Y-63000500D01*
X117518543Y-63000500D01*
X117648582Y-62974632D01*
X117711835Y-62962051D01*
X117893914Y-62886632D01*
X118057782Y-62777139D01*
X118197139Y-62637782D01*
X118306632Y-62473914D01*
X118308441Y-62469548D01*
X118352000Y-62364385D01*
X118382051Y-62291835D01*
X118420229Y-62099903D01*
X118420500Y-62098543D01*
X126579499Y-62098543D01*
X126617947Y-62291829D01*
X126617950Y-62291839D01*
X126693364Y-62473907D01*
X126693371Y-62473920D01*
X126802860Y-62637781D01*
X126802863Y-62637785D01*
X126942214Y-62777136D01*
X126942218Y-62777139D01*
X127106079Y-62886628D01*
X127106092Y-62886635D01*
X127288160Y-62962049D01*
X127288165Y-62962051D01*
X127288169Y-62962051D01*
X127288170Y-62962052D01*
X127481456Y-63000500D01*
X127481459Y-63000500D01*
X127678543Y-63000500D01*
X127808582Y-62974632D01*
X127871835Y-62962051D01*
X128053914Y-62886632D01*
X128217782Y-62777139D01*
X128357139Y-62637782D01*
X128466632Y-62473914D01*
X128468441Y-62469548D01*
X128512000Y-62364385D01*
X128542051Y-62291835D01*
X128580229Y-62099903D01*
X128580500Y-62098543D01*
X128580500Y-61901456D01*
X128542052Y-61708170D01*
X128542051Y-61708169D01*
X128542051Y-61708165D01*
X128488887Y-61579815D01*
X128466635Y-61526092D01*
X128466628Y-61526079D01*
X128357139Y-61362218D01*
X128357136Y-61362214D01*
X128217785Y-61222863D01*
X128217781Y-61222860D01*
X128053920Y-61113371D01*
X128053907Y-61113364D01*
X127871839Y-61037950D01*
X127871829Y-61037947D01*
X127678543Y-60999500D01*
X127678541Y-60999500D01*
X127481459Y-60999500D01*
X127481457Y-60999500D01*
X127288170Y-61037947D01*
X127288160Y-61037950D01*
X127106092Y-61113364D01*
X127106079Y-61113371D01*
X126942218Y-61222860D01*
X126942214Y-61222863D01*
X126802863Y-61362214D01*
X126802860Y-61362218D01*
X126693371Y-61526079D01*
X126693364Y-61526092D01*
X126617950Y-61708160D01*
X126617947Y-61708170D01*
X126579500Y-61901456D01*
X126579500Y-61901459D01*
X126579500Y-62098541D01*
X126579500Y-62098543D01*
X126579499Y-62098543D01*
X118420500Y-62098543D01*
X118420500Y-61901456D01*
X118382052Y-61708170D01*
X118382051Y-61708169D01*
X118382051Y-61708165D01*
X118328887Y-61579815D01*
X118306635Y-61526092D01*
X118306628Y-61526079D01*
X118197139Y-61362218D01*
X118197136Y-61362214D01*
X118057785Y-61222863D01*
X118057781Y-61222860D01*
X117893920Y-61113371D01*
X117893907Y-61113364D01*
X117711839Y-61037950D01*
X117711829Y-61037947D01*
X117518543Y-60999500D01*
X117518541Y-60999500D01*
X117321459Y-60999500D01*
X117321457Y-60999500D01*
X117128170Y-61037947D01*
X117128160Y-61037950D01*
X116946092Y-61113364D01*
X116946079Y-61113371D01*
X116782218Y-61222860D01*
X116782214Y-61222863D01*
X116642863Y-61362214D01*
X116642860Y-61362218D01*
X116533371Y-61526079D01*
X116533364Y-61526092D01*
X116457950Y-61708160D01*
X116457947Y-61708170D01*
X116419500Y-61901456D01*
X116419500Y-62099902D01*
X116399815Y-62166941D01*
X116383181Y-62187583D01*
X115745584Y-62825181D01*
X115684261Y-62858666D01*
X115657903Y-62861500D01*
X114932784Y-62861500D01*
X114865745Y-62841815D01*
X114819990Y-62789011D01*
X114810046Y-62719853D01*
X114839071Y-62656297D01*
X114845103Y-62649819D01*
X114857136Y-62637785D01*
X114857139Y-62637782D01*
X114966632Y-62473914D01*
X114968441Y-62469548D01*
X115012000Y-62364385D01*
X115042051Y-62291835D01*
X115080229Y-62099903D01*
X115080500Y-62098543D01*
X115080500Y-61901456D01*
X115042052Y-61708170D01*
X115042051Y-61708169D01*
X115042051Y-61708165D01*
X114988887Y-61579815D01*
X114966635Y-61526092D01*
X114966628Y-61526079D01*
X114857139Y-61362218D01*
X114857136Y-61362214D01*
X114717785Y-61222863D01*
X114717781Y-61222860D01*
X114553920Y-61113371D01*
X114553907Y-61113364D01*
X114371839Y-61037950D01*
X114371829Y-61037947D01*
X114178543Y-60999500D01*
X114178541Y-60999500D01*
X113981459Y-60999500D01*
X113981457Y-60999500D01*
X113788170Y-61037947D01*
X113788160Y-61037950D01*
X113606092Y-61113364D01*
X113606079Y-61113371D01*
X113442218Y-61222860D01*
X113442214Y-61222863D01*
X113302863Y-61362214D01*
X113302860Y-61362218D01*
X113193371Y-61526079D01*
X113193364Y-61526092D01*
X113117950Y-61708160D01*
X113117947Y-61708170D01*
X113079500Y-61901456D01*
X113079500Y-61901459D01*
X113079500Y-62098541D01*
X113079500Y-62098543D01*
X113079499Y-62098543D01*
X113117947Y-62291829D01*
X113117950Y-62291839D01*
X113193364Y-62473907D01*
X113193371Y-62473920D01*
X113302860Y-62637781D01*
X113302863Y-62637785D01*
X113314897Y-62649819D01*
X113348382Y-62711142D01*
X113343398Y-62780834D01*
X113301526Y-62836767D01*
X113236062Y-62861184D01*
X113227216Y-62861500D01*
X105682097Y-62861500D01*
X105615058Y-62841815D01*
X105594416Y-62825181D01*
X104956819Y-62187584D01*
X104923334Y-62126261D01*
X104920500Y-62099903D01*
X104920500Y-61901456D01*
X104882052Y-61708170D01*
X104882051Y-61708169D01*
X104882051Y-61708165D01*
X104828887Y-61579815D01*
X104806635Y-61526092D01*
X104806628Y-61526079D01*
X104697139Y-61362218D01*
X104697136Y-61362214D01*
X104557785Y-61222863D01*
X104557781Y-61222860D01*
X104393920Y-61113371D01*
X104393907Y-61113364D01*
X104211839Y-61037950D01*
X104211829Y-61037947D01*
X104018543Y-60999500D01*
X104018541Y-60999500D01*
X103821459Y-60999500D01*
X103821457Y-60999500D01*
X103628170Y-61037947D01*
X103628160Y-61037950D01*
X103446092Y-61113364D01*
X103446079Y-61113371D01*
X103282218Y-61222860D01*
X103282214Y-61222863D01*
X103141897Y-61363181D01*
X103080574Y-61396666D01*
X103054216Y-61399500D01*
X100694097Y-61399500D01*
X100627058Y-61379815D01*
X100606416Y-61363181D01*
X89512763Y-50269528D01*
X95196500Y-50269528D01*
X95196500Y-50578471D01*
X95231086Y-50885437D01*
X95231089Y-50885455D01*
X95299831Y-51186635D01*
X95299835Y-51186647D01*
X95401862Y-51478222D01*
X95401868Y-51478236D01*
X95535903Y-51756562D01*
X95535905Y-51756565D01*
X95700265Y-52018143D01*
X95892880Y-52259674D01*
X96111326Y-52478120D01*
X96352857Y-52670735D01*
X96614435Y-52835095D01*
X96892771Y-52969135D01*
X96892777Y-52969137D01*
X97184352Y-53071164D01*
X97184364Y-53071168D01*
X97485548Y-53139911D01*
X97485554Y-53139911D01*
X97485562Y-53139913D01*
X97690206Y-53162970D01*
X97792529Y-53174499D01*
X97792532Y-53174500D01*
X97792535Y-53174500D01*
X98101468Y-53174500D01*
X98101469Y-53174499D01*
X98258356Y-53156822D01*
X98408437Y-53139913D01*
X98408442Y-53139912D01*
X98408452Y-53139911D01*
X98709636Y-53071168D01*
X99001229Y-52969135D01*
X99279565Y-52835095D01*
X99541143Y-52670735D01*
X99782674Y-52478120D01*
X100001120Y-52259674D01*
X100193735Y-52018143D01*
X100358095Y-51756565D01*
X100492135Y-51478229D01*
X100594168Y-51186636D01*
X100662911Y-50885452D01*
X100697500Y-50578465D01*
X100697500Y-50269535D01*
X100662911Y-49962548D01*
X100594168Y-49661364D01*
X100537858Y-49500441D01*
X100505413Y-49407717D01*
X100492135Y-49369771D01*
X100383214Y-49143596D01*
X100358096Y-49091437D01*
X100353912Y-49084778D01*
X100193735Y-48829857D01*
X100001120Y-48588326D01*
X99782674Y-48369880D01*
X99779703Y-48367511D01*
X99631968Y-48249696D01*
X99541143Y-48177265D01*
X99279565Y-48012905D01*
X99279562Y-48012903D01*
X99001236Y-47878868D01*
X99001222Y-47878862D01*
X98709647Y-47776835D01*
X98709635Y-47776831D01*
X98408455Y-47708089D01*
X98408437Y-47708086D01*
X98101471Y-47673500D01*
X98101465Y-47673500D01*
X97792535Y-47673500D01*
X97792528Y-47673500D01*
X97485562Y-47708086D01*
X97485544Y-47708089D01*
X97184364Y-47776831D01*
X97184352Y-47776835D01*
X96892777Y-47878862D01*
X96892763Y-47878868D01*
X96614437Y-48012903D01*
X96352858Y-48177264D01*
X96111326Y-48369879D01*
X95892879Y-48588326D01*
X95700264Y-48829858D01*
X95535903Y-49091437D01*
X95401868Y-49369763D01*
X95401862Y-49369777D01*
X95299835Y-49661352D01*
X95299831Y-49661364D01*
X95231089Y-49962544D01*
X95231086Y-49962562D01*
X95196500Y-50269528D01*
X89512763Y-50269528D01*
X89075557Y-49832322D01*
X89042072Y-49770999D01*
X89047056Y-49701307D01*
X89088928Y-49645374D01*
X89154392Y-49620957D01*
X89210689Y-49630079D01*
X89273580Y-49656130D01*
X89459970Y-49693205D01*
X89476530Y-49696499D01*
X89476534Y-49696500D01*
X89476535Y-49696500D01*
X89683466Y-49696500D01*
X89683467Y-49696499D01*
X89886420Y-49656130D01*
X90077598Y-49576941D01*
X90249655Y-49461977D01*
X90395977Y-49315655D01*
X90510941Y-49143598D01*
X90590130Y-48952420D01*
X90630500Y-48749465D01*
X90630500Y-48542535D01*
X90630499Y-48542530D01*
X91069500Y-48542530D01*
X91069500Y-48749469D01*
X91109868Y-48952412D01*
X91109870Y-48952420D01*
X91175939Y-49111925D01*
X91189059Y-49143598D01*
X91213659Y-49180415D01*
X91304024Y-49315657D01*
X91450342Y-49461975D01*
X91450345Y-49461977D01*
X91622402Y-49576941D01*
X91813580Y-49656130D01*
X91999970Y-49693205D01*
X92016530Y-49696499D01*
X92016534Y-49696500D01*
X92016535Y-49696500D01*
X92223466Y-49696500D01*
X92223467Y-49696499D01*
X92426420Y-49656130D01*
X92617598Y-49576941D01*
X92789655Y-49461977D01*
X92935977Y-49315655D01*
X93050941Y-49143598D01*
X93130130Y-48952420D01*
X93170500Y-48749465D01*
X93170500Y-48542535D01*
X93130130Y-48339580D01*
X93050941Y-48148402D01*
X92935977Y-47976345D01*
X92935975Y-47976342D01*
X92789657Y-47830024D01*
X92703626Y-47772541D01*
X92617598Y-47715059D01*
X92614085Y-47713604D01*
X92426420Y-47635870D01*
X92426412Y-47635868D01*
X92223469Y-47595500D01*
X92223465Y-47595500D01*
X92016535Y-47595500D01*
X92016530Y-47595500D01*
X91813587Y-47635868D01*
X91813579Y-47635870D01*
X91622403Y-47715058D01*
X91450342Y-47830024D01*
X91304024Y-47976342D01*
X91189058Y-48148403D01*
X91109870Y-48339579D01*
X91109868Y-48339587D01*
X91069500Y-48542530D01*
X90630499Y-48542530D01*
X90590130Y-48339580D01*
X90510941Y-48148402D01*
X90395977Y-47976345D01*
X90395975Y-47976342D01*
X90249657Y-47830024D01*
X90163626Y-47772541D01*
X90077598Y-47715059D01*
X90074085Y-47713604D01*
X89886420Y-47635870D01*
X89886412Y-47635868D01*
X89683469Y-47595500D01*
X89683465Y-47595500D01*
X89476535Y-47595500D01*
X89476530Y-47595500D01*
X89273587Y-47635868D01*
X89273579Y-47635870D01*
X89082403Y-47715058D01*
X88910342Y-47830024D01*
X88764024Y-47976342D01*
X88649058Y-48148403D01*
X88569870Y-48339579D01*
X88569868Y-48339587D01*
X88529500Y-48542530D01*
X88529500Y-48749469D01*
X88569868Y-48952412D01*
X88569871Y-48952424D01*
X88595919Y-49015309D01*
X88603388Y-49084778D01*
X88572113Y-49147257D01*
X88512024Y-49182909D01*
X88442198Y-49180415D01*
X88393677Y-49150442D01*
X88121140Y-48877905D01*
X88087655Y-48816582D01*
X88087205Y-48766028D01*
X88090500Y-48749465D01*
X88090500Y-48542535D01*
X88050130Y-48339580D01*
X87970941Y-48148402D01*
X87855977Y-47976345D01*
X87855975Y-47976342D01*
X87709657Y-47830024D01*
X87623626Y-47772541D01*
X87537598Y-47715059D01*
X87534085Y-47713604D01*
X87346420Y-47635870D01*
X87346412Y-47635868D01*
X87143469Y-47595500D01*
X87143465Y-47595500D01*
X86936535Y-47595500D01*
X86936530Y-47595500D01*
X86733587Y-47635868D01*
X86733579Y-47635870D01*
X86542403Y-47715058D01*
X86370342Y-47830024D01*
X86224024Y-47976342D01*
X86109057Y-48148403D01*
X86040835Y-48313108D01*
X85996994Y-48367511D01*
X85930700Y-48389576D01*
X85863000Y-48372297D01*
X85815390Y-48321159D01*
X85808343Y-48303973D01*
X85751095Y-48127782D01*
X85654624Y-47938449D01*
X85615270Y-47884282D01*
X85615269Y-47884282D01*
X84982962Y-48516590D01*
X84965925Y-48453007D01*
X84900099Y-48338993D01*
X84807007Y-48245901D01*
X84692993Y-48180075D01*
X84629409Y-48163037D01*
X85261716Y-47530728D01*
X85207550Y-47491375D01*
X85018217Y-47394904D01*
X84816129Y-47329242D01*
X84606246Y-47296000D01*
X84393754Y-47296000D01*
X84183872Y-47329242D01*
X84183869Y-47329242D01*
X83981782Y-47394904D01*
X83792439Y-47491380D01*
X83738282Y-47530727D01*
X83738282Y-47530728D01*
X84370591Y-48163037D01*
X84307007Y-48180075D01*
X84192993Y-48245901D01*
X84099901Y-48338993D01*
X84034075Y-48453007D01*
X84017037Y-48516591D01*
X83384728Y-47884282D01*
X83384727Y-47884282D01*
X83345380Y-47938439D01*
X83248904Y-48127782D01*
X83183242Y-48329869D01*
X83183242Y-48329872D01*
X83150000Y-48539753D01*
X80552547Y-48539753D01*
X80382673Y-48369879D01*
X80231968Y-48249696D01*
X80141143Y-48177265D01*
X79879565Y-48012905D01*
X79879562Y-48012903D01*
X79601236Y-47878868D01*
X79601222Y-47878862D01*
X79309647Y-47776835D01*
X79309635Y-47776831D01*
X79008455Y-47708089D01*
X79008439Y-47708087D01*
X78947377Y-47701207D01*
X78947376Y-47701206D01*
X78701471Y-47673500D01*
X78701465Y-47673500D01*
X78392535Y-47673500D01*
X78392528Y-47673500D01*
X78085562Y-47708086D01*
X78085544Y-47708089D01*
X77784364Y-47776831D01*
X77784352Y-47776835D01*
X77492777Y-47878862D01*
X77492763Y-47878868D01*
X77214437Y-48012903D01*
X76952858Y-48177264D01*
X76711326Y-48369879D01*
X76492879Y-48588326D01*
X76300264Y-48829858D01*
X76135903Y-49091437D01*
X76001868Y-49369763D01*
X76001862Y-49369777D01*
X75899835Y-49661352D01*
X75899831Y-49661364D01*
X75831089Y-49962544D01*
X75831086Y-49962562D01*
X75796500Y-50269528D01*
X53390407Y-50269528D01*
X53400500Y-50167056D01*
X53400500Y-49832944D01*
X53367751Y-49500441D01*
X53330995Y-49315655D01*
X53302574Y-49172769D01*
X53302571Y-49172758D01*
X53302570Y-49172755D01*
X53302569Y-49172749D01*
X53205582Y-48853024D01*
X53077723Y-48544346D01*
X53076754Y-48542534D01*
X52920230Y-48249696D01*
X52920229Y-48249694D01*
X52920224Y-48249685D01*
X52734601Y-47971882D01*
X52522643Y-47713610D01*
X52522642Y-47713609D01*
X52522638Y-47713604D01*
X52286395Y-47477361D01*
X52028123Y-47265403D01*
X52028122Y-47265402D01*
X52028118Y-47265399D01*
X51750315Y-47079776D01*
X51750310Y-47079773D01*
X51750303Y-47079769D01*
X51455661Y-46922280D01*
X51455656Y-46922278D01*
X51146977Y-46794418D01*
X51076941Y-46773173D01*
X50978000Y-46743160D01*
X50919563Y-46704863D01*
X50891107Y-46641051D01*
X50901667Y-46571984D01*
X50947891Y-46519591D01*
X51013997Y-46500500D01*
X125986003Y-46500500D01*
X126053042Y-46520185D01*
G37*
%TD.AperFunction*%
%TD*%
M02*
