%TF.GenerationSoftware,KiCad,Pcbnew,9.0.7*%
%TF.CreationDate,2026-02-23T21:28:53+11:00*%
%TF.ProjectId,esphome-sensor,65737068-6f6d-4652-9d73-656e736f722e,rev?*%
%TF.SameCoordinates,Original*%
%TF.FileFunction,Soldermask,Bot*%
%TF.FilePolarity,Negative*%
%FSLAX46Y46*%
G04 Gerber Fmt 4.6, Leading zero omitted, Abs format (unit mm)*
G04 Created by KiCad (PCBNEW 9.0.7) date 2026-02-23 21:28:53*
%MOMM*%
%LPD*%
G01*
G04 APERTURE LIST*
G04 Aperture macros list*
%AMRoundRect*
0 Rectangle with rounded corners*
0 $1 Rounding radius*
0 $2 $3 $4 $5 $6 $7 $8 $9 X,Y pos of 4 corners*
0 Add a 4 corners polygon primitive as box body*
4,1,4,$2,$3,$4,$5,$6,$7,$8,$9,$2,$3,0*
0 Add four circle primitives for the rounded corners*
1,1,$1+$1,$2,$3*
1,1,$1+$1,$4,$5*
1,1,$1+$1,$6,$7*
1,1,$1+$1,$8,$9*
0 Add four rect primitives between the rounded corners*
20,1,$1+$1,$2,$3,$4,$5,0*
20,1,$1+$1,$4,$5,$6,$7,0*
20,1,$1+$1,$6,$7,$8,$9,0*
20,1,$1+$1,$8,$9,$2,$3,0*%
G04 Aperture macros list end*
%ADD10C,6.400000*%
%ADD11C,1.600000*%
%ADD12RoundRect,0.250000X0.550000X0.550000X-0.550000X0.550000X-0.550000X-0.550000X0.550000X-0.550000X0*%
%ADD13R,1.700000X1.700000*%
%ADD14O,1.700000X1.700000*%
%ADD15RoundRect,0.250000X-1.050000X-1.050000X1.050000X-1.050000X1.050000X1.050000X-1.050000X1.050000X0*%
%ADD16C,2.600000*%
%ADD17RoundRect,0.249999X-0.850001X0.850001X-0.850001X-0.850001X0.850001X-0.850001X0.850001X0.850001X0*%
%ADD18C,2.200000*%
%ADD19C,2.500000*%
%ADD20C,1.700000*%
%ADD21C,1.550800*%
%ADD22RoundRect,0.249999X0.850001X0.850001X-0.850001X0.850001X-0.850001X-0.850001X0.850001X-0.850001X0*%
G04 APERTURE END LIST*
D10*
%TO.C,H8*%
X127000000Y-111000000D03*
%TD*%
%TO.C,H7*%
X50000000Y-111000000D03*
%TD*%
%TO.C,H6*%
X127000000Y-57000000D03*
%TD*%
%TO.C,H5*%
X50000000Y-57000000D03*
%TD*%
%TO.C,H2*%
X127000000Y-50000000D03*
%TD*%
D11*
%TO.C,R11*%
X62420000Y-67000000D03*
X72580000Y-67000000D03*
%TD*%
%TO.C,R6*%
X48420000Y-62000000D03*
X58580000Y-62000000D03*
%TD*%
D12*
%TO.C,C1*%
X53152700Y-93000000D03*
D11*
X49652700Y-93000000D03*
%TD*%
%TO.C,C3*%
X69000000Y-88500000D03*
X74000000Y-88500000D03*
%TD*%
%TO.C,R9*%
X117420000Y-66500000D03*
X127580000Y-66500000D03*
%TD*%
D10*
%TO.C,H3*%
X50000000Y-118000000D03*
%TD*%
D13*
%TO.C,U1*%
X49500000Y-83000000D03*
D14*
X52040000Y-83000000D03*
X54580000Y-83000000D03*
X57120000Y-83000000D03*
%TD*%
D11*
%TO.C,R2*%
X63420000Y-82500000D03*
X73580000Y-82500000D03*
%TD*%
%TO.C,C2*%
X69000000Y-95000000D03*
X74000000Y-95000000D03*
%TD*%
D10*
%TO.C,H4*%
X127000000Y-118000000D03*
%TD*%
D11*
%TO.C,R13*%
X117420000Y-71000000D03*
X127580000Y-71000000D03*
%TD*%
%TO.C,R1*%
X65000000Y-97580000D03*
X65000000Y-87420000D03*
%TD*%
D10*
%TO.C,H1*%
X50000000Y-50000000D03*
%TD*%
D11*
%TO.C,R8*%
X103920000Y-66500000D03*
X114080000Y-66500000D03*
%TD*%
%TO.C,R5*%
X127580000Y-62000000D03*
X117420000Y-62000000D03*
%TD*%
D15*
%TO.C,J5*%
X105000000Y-105500000D03*
D16*
X110000000Y-105500000D03*
X115000000Y-105500000D03*
X120000000Y-105500000D03*
%TD*%
D11*
%TO.C,R3*%
X63420000Y-77500000D03*
X73580000Y-77500000D03*
%TD*%
%TO.C,R7*%
X62500000Y-62000000D03*
X72660000Y-62000000D03*
%TD*%
D17*
%TO.C,D1*%
X59500000Y-87340000D03*
D18*
X59500000Y-97500000D03*
%TD*%
D19*
%TO.C,J2*%
X78547000Y-50424000D03*
X97947000Y-50424000D03*
D20*
X84500000Y-48646000D03*
D14*
X87040000Y-48646000D03*
X89580000Y-48646000D03*
X92120000Y-48646000D03*
%TD*%
D21*
%TO.C,U2*%
X94840000Y-76180000D03*
X97380000Y-76180000D03*
X99920000Y-76180000D03*
X102460000Y-76180000D03*
X105000000Y-76180000D03*
X107540000Y-76180000D03*
X110080000Y-76180000D03*
X112620000Y-76180000D03*
X115160000Y-76180000D03*
X117700000Y-76180000D03*
X120240000Y-76180000D03*
X122780000Y-76180000D03*
X122780000Y-96500000D03*
X120240000Y-96500000D03*
X117700000Y-96500000D03*
X115160000Y-96500000D03*
X112620000Y-96500000D03*
X110080000Y-96500000D03*
X107540000Y-96500000D03*
X105000000Y-96500000D03*
X102460000Y-96500000D03*
X99920000Y-96500000D03*
X97380000Y-96500000D03*
X94840000Y-96500000D03*
X92300000Y-96500000D03*
X89760000Y-96500000D03*
X87220000Y-96500000D03*
X84680000Y-96500000D03*
%TD*%
D11*
%TO.C,R12*%
X103920000Y-71000000D03*
X114080000Y-71000000D03*
%TD*%
%TO.C,R10*%
X48420000Y-67000000D03*
X58580000Y-67000000D03*
%TD*%
D15*
%TO.C,J3*%
X70000000Y-105500000D03*
D16*
X75000000Y-105500000D03*
X80000000Y-105500000D03*
%TD*%
D15*
%TO.C,J4*%
X87500000Y-105500000D03*
D16*
X92500000Y-105500000D03*
X97500000Y-105500000D03*
%TD*%
D22*
%TO.C,D3*%
X72580000Y-72500000D03*
D18*
X62420000Y-72500000D03*
%TD*%
D11*
%TO.C,R4*%
X114080000Y-62000000D03*
X103920000Y-62000000D03*
%TD*%
D22*
%TO.C,D2*%
X58580000Y-72500000D03*
D18*
X48420000Y-72500000D03*
%TD*%
D15*
%TO.C,J1*%
X57500000Y-105500000D03*
D16*
X62500000Y-105500000D03*
%TD*%
M02*
